<?xml version="1.0" encoding="utf-8"?>
<!-- Generator: Adobe Illustrator 27.4.1, SVG Export Plug-In . SVG Version: 6.00 Build 0)  -->
<svg version="1.1" id="Capa_1" xmlns="http://www.w3.org/2000/svg" xmlns:xlink="http://www.w3.org/1999/xlink" x="0px" y="0px"
	 viewBox="0 0 1500 525" style="enable-background:new 0 0 1500 525;" xml:space="preserve">
<style type="text/css">
	.st0{fill:#282828;}
</style>
<g>
	<path class="st0" d="M1463.7,311.1c-9.7-1.9-37.4-6-48.8-24.7c-14.2-23.2-15.1-38.6-10.8-57.8s15.9-45,23.2-53.9s7.3-9.6,4.5-12.8
		s-15-17.4-23.9-14.9c-5.9,1.7-10.3,4.1-18.4,12.3l-8.1,8.2c0,0-11.2-6.3-21.9-6.6c-15-0.4-35,2.8-49.1,14.9
		c-8.5,7.3-16.1,15.7-22.5,25l-38.9,0.5c0,0-4.8-45.4-46.1-40.9s-33.5,39.8-31.7,44.3s5.3,12.2,17.1,16.4c6.3,2.3,10.3,0.7,10.3,0.7
		s4,42.5-13,51c-10.8,5.4-25.7,0.8-28.7-20.7c-2.6-18.5-4.2-73.3,13.6-104.2s53.4-61.8,56-63.8c2.4-1.8,4.3-6-2.5-11.2
		s-23.7-17.4-41.3-11.7s-37.8,27.7-55.6,57.3c-14.8,24.6-22.4,46.1-26.7,69.8c-2.1,11.8-3,23.7-2.7,35.7c0.5,22.9,7.5,29.2,0.4,39.8
		c-1.5,2.2-4.5,6.7-8.2,9.7c-3.2,2.5-9,6.7-15.7,5.2c-6.3-1.4-11.2-5.2-12.7-14.9s1.5-21.6,4.4-33.6c5-20.6,15.6-42,18.3-58
		c1.7-10.2,3.6-24.4,0.1-34.4c-1.7-4.8-9-21.3-38.5-10.3c-31.4,11.8-68.4,71.2-68.4,71.2s7.7-30,9.3-42.8c2.4-18.7-4.6-26.1-13-29.5
		s-26.3-6.9-45.6,14.5s-39.6,55.4-39.6,55.4s6.8-34,8.1-42.9s-2.2-32.7-29.8-23.4c-19.9,6.7-36,30.8-43.2,42.8
		c-2.3,3.9-4.3,7.9-6.1,12c-6.5,15.3-28.2,62.3-41.1,68.6c-14,6.9-18.4-3.2-19.8-8.1c-3-10.6-1.9-34.5,4.6-52.7s18.2-38.9,26.6-48
		s11.1-13.5,1.9-21.7s-22.3-11.4-30.9-5.2s-20,17.1-23.6,19.4c-2.8,1.8-11.2-11.1-29.6-10.8c-21.5,0.3-52.8,12.7-79.8,49.9
		c-19.3,26.5-19.8,49.3-19.8,56.7s-12.1,25.2-27.1,27.6c-11.8,1.9-16.9-5.7-19.2-18.2c-3.1-16.4-2.6-41.1,1.1-44.3
		s34.4-14.8,43.1-42.8c5.8-18.8-7.9-33.2-22.5-35.7s-34.6,3.2-43.1,19.2c-2.8,5.1-5,10.5-6.8,16l-42.6-1.5c0,0,2.2-20.7-14.4-29.8
		c-6.2-3.4-13.9-3.9-20.9-2.2c-12,3-24.4,15.6-26.1,31.6c-3,28.1,23.1,32.3,23.1,32.3s4.3,28.4-15.8,53.7
		c-13.2,16.7-37.7,25.7-55.5,19.6c-19.3-10.7-18-32.8-11.8-57.5c4.7-18.6,18.6-34.6,35.4-50.8c9.4-9,14.9-11.1,12.5-14.8
		S398.1,115,386.7,117s-31.2,21.4-31.2,21.4s-21.9-9.5-45.7-6.8c-26.5,3-53.2,20.3-73.4,49.1c-16.9,24.2-18.2,34.1-20.3,44.5
		c-0.9,4.3-1.8,8.6-4.6,12.2c-2.4,2.9-5,5.6-7.9,8c-6.1,5.2-55.1,43-80,19.2c-26-24.8-19.2-82.8-6.2-124.8
		c6.4-20.9,18.3-48.7,45-68.2c11-8,32.7-16.7,43.7-10.3s14.8,20,7.3,38.4c-5.4,13.2-10,21.9-2.2,25.8s26.2,7.5,41.6,0.3
		c6-2.7,26.3-22.4,23.9-51.2s-14.9-38-31.6-46.1c-56.7-27.4-145.5,7.7-187,94.9s-26.6,151.7-2.5,180.2c17.8,21.1,47,26.6,67.9,24.2
		c0,0,33.1-0.3,63.7-24.7c23.8-19,34.2-44.3,35.2-46.2s0.2,14.4,12,25.5c8.3,7.8,20.2,13.1,38.2,6.8c23.9-8.4,40.3-24.9,47.4-36.6
		c0,0-1.4,45.6,29.9,55c35.5,10.6,64.2,1,92.4-16.4c20.2-12.5,32-32.2,38.8-50.6c6.1-16.4,7.9-38.6,7.9-38.6l21.5,1
		c0,0-4.8,56.3-2.9,69.8c2.9,19.8,10.9,35.4,38.5,32.1c31.1-3.7,52.1-26.5,52.1-26.5s9.4-10.2,10.7-13.1c0,0,7.1,20.9,21.2,25.1
		s33.1,3,48-9.4s25.2-30.3,26.3-33.2c0,0-1.9,30,15.2,42.3s39,9,50.8,6.2c15.6-3.7,27.1-13.9,38.9-40c5.5-12.1,28.6-59,29.6-60.1
		c2.1-2.3,6.7-2.6,3.8,6.9c-2.8,9.1-12.4,44.1-16.3,61.6c-2.6,11.4-3.5,17.5,3.8,21.2s29.8,4.1,37.6,3.7c8-0.4,11.8-5.4,12.3-10.2
		c0.7-6.7,3.7-23.9,14-50.9c11.2-29,20.5-30.7,24.5-31.5c5.9-1.1,8.5,3,8.5,8.9s-11.1,39.4-12.3,60c-1.1,18.7,5.3,22.5,17.2,23.9
		c12.3,1.4,33.1,1.7,36.8-3.7c5.2-7.5,6.5-21.1,8.2-29.8c2.2-11.2,4.7-22,11.9-35c4.3-7.8,13.3-25.9,23.5-27.5
		c4.9-0.7,10.8,2.7,8.1,9.6s-13,31.5-10.7,63.7c1.2,17.3,10.3,30.2,27.1,36.5c13.4,5.1,29.4,6.1,43.2,2.1c7-2.1,13.4-5.9,18.6-11
		c4.9-4.8,9.4-12.2,10.9-14.5c0.2-0.4,0.7-0.5,1-0.2c12,16.2,33.1,32,53.3,34.1c24.7,2.6,54.1-8,67.3-30c9.6-16.1,13.8-36.6,16.8-55
		l23.2,0.7c0,0-19.4,33.1-7.3,59.6s43.6,21.7,53.1,19.2c13.7-3.7,27.2-11.6,35-29.7c5.6-12.9,2.9-6.2,3.5,7
		c0.3,8.5,1,18.8,11.6,31.4c24,28.4,56.4,25.7,64.2,25.4c11.7-0.5,20.4-4.2,29.7-13C1470.3,321.4,1469.2,312.2,1463.7,311.1z
		 M304.6,228.2c-10.9,16.9-24.7,19.2-30.6,18c-8.6-1.7-15.5-12.6-10.2-31.1c6-21.2,16.2-33,23.6-39.9c7.8-7.3,13.7-10.4,19.4-11.5
		c5.2-1,8.1,4.2,9.3,10.4C318.5,186.3,312.8,215.4,304.6,228.2z M699,228.6c-11,17-24.8,19.3-30.7,18.1
		c-8.6-1.8-15.5-12.7-10.3-31.3c6.1-21.4,16.3-33.2,23.8-40.1c7.9-7.4,13.8-10.5,19.5-11.6c5.2-1,8.1,4.3,9.3,10.4
		C712.9,186.4,707.3,215.7,699,228.6L699,228.6z M1348.6,248.8c-0.8,1.7-1.8,3.3-2.9,4.9c-10.2,15.8-23,17.9-28.5,16.8
		c-8-1.6-14.4-11.8-9.5-29.1c5.6-19.8,15.2-30.8,22-37.2c7.3-6.9,12.8-9.7,18.1-10.7c4.8-0.9,6.8,2,8.4,7.6c0.7,3.8,1,7.7,0.8,11.5
		C1356.6,230.3,1353.9,239.6,1348.6,248.8L1348.6,248.8z"/>
	<path class="st0" d="M276.2,479.5v-81.2h6.9v81.2H276.2z"/>
	<path class="st0" d="M321.8,481c-4.3,0.1-8.6-1.1-12.3-3.3c-3.6-2.2-6.6-5.4-8.6-9.1c-4.2-8.3-4.3-18.1,0-26.4c2-3.8,5-6.9,8.6-9.1
		c3.7-2.3,8-3.4,12.4-3.4c4.2-0.1,8.3,1,11.9,3.1c3.5,2,6.3,4.9,8.1,8.5v-10h6.9v48.4h-6.9v-10.2c-2,3.6-4.9,6.5-8.4,8.6
		C329.9,480,325.9,481.1,321.8,481z M323.5,475c3.4,0.1,6.7-0.8,9.6-2.5c2.8-1.7,5.1-4.1,6.6-7c3.2-6.4,3.2-14,0-20.4
		c-1.5-2.9-3.8-5.3-6.6-7c-6-3.4-13.3-3.4-19.3,0c-2.8,1.7-5.1,4.1-6.6,7c-3.2,6.4-3.2,14,0,20.4c1.5,2.9,3.8,5.3,6.6,7
		C316.7,474.2,320.1,475.1,323.5,475z"/>
	<path class="st0" d="M404.3,479.5l-23.5-48.4h8.1l17.7,38.6l17.7-38.5h8.1l-23.5,48.4L404.3,479.5z"/>
	<path class="st0" d="M446.6,421.5c-0.8,0-1.6-0.2-2.2-0.6c-0.7-0.4-1.2-1-1.6-1.7c-0.4-0.7-0.6-1.5-0.6-2.3c0-0.8,0.2-1.6,0.6-2.2
		c0.4-0.7,1-1.2,1.6-1.6c0.7-0.4,1.5-0.6,2.2-0.6c0.8,0,1.6,0.2,2.3,0.6c0.7,0.4,1.2,1,1.6,1.6c0.4,0.7,0.6,1.4,0.6,2.2
		c0,0.8-0.2,1.6-0.6,2.3c-0.4,0.7-1,1.3-1.6,1.7C448.2,421.3,447.4,421.5,446.6,421.5z M443.1,479.5v-48.3h6.9v48.4L443.1,479.5z"/>
	<path class="st0" d="M488.7,481c-4.3,0.1-8.6-1.1-12.3-3.3c-3.6-2.2-6.6-5.4-8.6-9.1c-4.2-8.3-4.2-18.2,0-26.5c2-3.8,5-6.9,8.6-9.1
		c3.7-2.3,8-3.4,12.4-3.4c4.1-0.1,8.2,1,11.7,3.1c3.5,2,6.3,5,8.2,8.5v-43h6.9v81.3h-6.9v-10.2C504.7,476.6,497.1,481.1,488.7,481
		L488.7,481z M490.3,475c3.4,0.1,6.7-0.8,9.6-2.5c2.8-1.7,5.1-4.1,6.6-7c1.6-3.1,2.5-6.6,2.4-10.1c0.1-3.6-0.8-7.1-2.4-10.2
		c-1.5-2.9-3.8-5.3-6.6-7c-2.9-1.7-6.3-2.6-9.7-2.5c-3.4-0.1-6.7,0.8-9.6,2.5c-2.8,1.7-5.1,4.1-6.6,7c-3.2,6.4-3.2,14,0,20.4
		c1.5,2.9,3.8,5.3,6.6,7C483.7,474.2,487,475.1,490.3,475z"/>
	<path class="st0" d="M554.2,481c-4.3,0.1-8.6-1.1-12.3-3.3c-3.6-2.2-6.6-5.4-8.6-9.1c-4.2-8.3-4.2-18.1,0-26.4c2-3.8,5-6.9,8.6-9.1
		c3.7-2.3,8-3.4,12.3-3.4c4.2-0.1,8.3,1,11.9,3.1c3.5,2,6.3,4.9,8.1,8.5v-10h6.9v48.4h-6.9v-10.2c-2,3.6-4.9,6.5-8.4,8.6
		C562.4,480,558.3,481.1,554.2,481z M555.9,475c3.4,0.1,6.7-0.8,9.6-2.5c2.8-1.7,5.1-4.1,6.6-7c3.2-6.4,3.2-14,0-20.4
		c-1.5-2.9-3.8-5.3-6.6-7c-6-3.4-13.3-3.4-19.3,0c-2.8,1.7-5.1,4.1-6.6,7c-3.2,6.4-3.2,14,0,20.4c1.5,2.9,3.8,5.3,6.6,7
		C549.2,474.2,552.5,475.1,555.9,475z"/>
	<path class="st0" d="M643.7,481c-4.7,0.1-9.4-1.1-13.6-3.4c-3.9-2.1-7.1-5.3-9.4-9.1c-2.3-3.9-3.5-8.4-3.4-13c0-3.5,0.7-6.9,2-10.1
		c1.3-3.1,3.1-5.9,5.5-8.2c2.3-2.4,5.1-4.2,8.1-5.5c3.1-1.3,6.5-2,9.9-2c4.5-0.1,8.9,1,12.8,3.1c3.7,2,6.7,5,8.9,8.7
		c2.2,3.9,3.4,8.3,3.5,12.8c0,0.4,0,0.7,0,0.9s-0.1,0.5-0.1,0.9h-43.6c-0.1,3.5,0.8,7,2.5,10c1.7,2.9,4.1,5.2,7,6.8
		c3.1,1.7,6.7,2.5,10.2,2.5c3.4,0.1,6.8-0.7,9.8-2.3c2.9-1.6,5.5-3.8,7.3-6.6l5.1,2.7c-2.3,3.7-5.5,6.7-9.4,8.7
		C652.7,480,648.2,481.1,643.7,481z M624.5,450.8H661c-0.4-2.9-1.5-5.6-3.2-8c-1.7-2.3-3.9-4.2-6.5-5.5c-2.6-1.3-5.6-2-8.5-2
		c-3,0-6,0.7-8.7,2c-2.6,1.3-4.8,3.1-6.5,5.4C626,445.1,624.9,447.9,624.5,450.8z"/>
	<path class="st0" d="M693.9,481c-7.6,0.2-14.6-4.2-17.7-11.1l3.7-4c1.3,2.9,3.4,5.3,5.9,7.2c2.4,1.7,5.2,2.6,8.1,2.6
		c1.9,0,3.8-0.4,5.5-1.2c3.4-1.7,5.6-5.2,5.5-9c0.1-1.6-0.4-3.2-1.4-4.5c-1.1-1.2-2.5-2.2-4.1-2.9c-1.8-0.8-4-1.7-6.6-2.7
		c-2-0.8-4-1.7-6-2.8c-1.8-1-3.5-2.3-4.8-3.9c-1.3-1.8-1.9-3.9-1.9-6.1c0-2.4,0.7-4.7,2-6.6c1.4-2,3.3-3.6,5.5-4.6
		c2.5-1.2,5.2-1.7,7.9-1.7c2.6,0,5.3,0.6,7.6,1.8c2.4,1.2,4.6,2.9,6.4,5l-3.2,4c-2.9-3.8-6.5-5.7-10.8-5.7c-2.3-0.1-4.6,0.6-6.5,2.1
		c-1.6,1.3-2.5,3.3-2.5,5.4c0,1.5,0.5,2.9,1.6,4c1.2,1.2,2.6,2.1,4.1,2.7c1.7,0.8,3.5,1.5,5.5,2.3c2.5,0.9,5,2,7.4,3.2
		c1.9,0.9,3.6,2.3,4.9,4.1c1.3,2,1.9,4.4,1.8,6.7c0.1,3-0.7,5.9-2.3,8.4c-1.5,2.4-3.7,4.3-6.3,5.5
		C700.3,480.4,697.1,481.1,693.9,481z"/>
	<path class="st0" d="M747.7,504.1v-72.9h6.9v10c1.9-3.5,4.7-6.5,8.2-8.5c3.6-2,7.6-3.1,11.7-3c4.4-0.1,8.7,1.1,12.4,3.4
		c3.6,2.2,6.6,5.4,8.6,9.1c2.2,4.1,3.3,8.6,3.2,13.2c0.1,4.6-1,9.1-3.1,13.1c-2,3.8-5,7-8.6,9.2c-3.7,2.3-8,3.4-12.4,3.4
		c-8.3,0.1-16-4.4-20-11.7v34.8L747.7,504.1z M772.9,475c3.4,0.1,6.7-0.8,9.6-2.5c2.8-1.7,5.1-4.1,6.6-7c3.2-6.4,3.2-14,0-20.4
		c-1.5-2.9-3.8-5.3-6.6-7c-6-3.4-13.3-3.4-19.2,0c-2.8,1.7-5.1,4.1-6.6,7c-3.2,6.4-3.2,14,0,20.4c1.5,2.9,3.8,5.3,6.6,7
		C766.2,474.2,769.6,475.1,772.9,475z"/>
	<path class="st0" d="M833.8,481c-4.3,0.1-8.6-1.1-12.3-3.3c-3.6-2.2-6.6-5.4-8.6-9.1c-4.2-8.3-4.2-18.1,0-26.4c2-3.8,5-6.9,8.6-9.1
		c3.7-2.3,8-3.4,12.3-3.4c4.2,0,8.3,1,11.9,3.1c3.5,2,6.3,4.9,8.1,8.5v-10h6.9v48.4h-6.9v-10.2c-2,3.6-4.9,6.5-8.4,8.6
		C842,480,837.9,481.1,833.8,481z M835.5,475c3.4,0.1,6.7-0.8,9.6-2.5c2.8-1.7,5.1-4.1,6.6-7c3.2-6.4,3.2-14,0-20.4
		c-1.5-2.9-3.8-5.3-6.6-7c-6-3.4-13.3-3.4-19.3,0c-2.8,1.7-5.1,4.1-6.6,7c-3.2,6.4-3.2,14,0,20.4c1.5,2.9,3.8,5.3,6.6,7
		C828.8,474.2,832.1,475.1,835.5,475z"/>
	<path class="st0" d="M878.7,479.5v-48.4h6.9v7.1c1.4-2.7,3.5-4.9,6-6.5c2.6-1.5,5.5-2.3,8.5-2.2c1.5,0,2.9,0.2,4.3,0.5
		c1.3,0.3,2.6,0.7,3.8,1.2l-2.8,5.8c-1-0.5-2.1-0.9-3.2-1.1c-1.1-0.2-2.3-0.4-3.5-0.4c-2.2,0-4.4,0.6-6.3,1.7
		c-1.9,1.1-3.6,2.6-4.8,4.4c-1.2,1.7-1.9,3.7-1.9,5.8v31.9L878.7,479.5z"/>
	<path class="st0" d="M938.4,481c-4.3,0.1-8.6-1.1-12.3-3.3c-3.6-2.2-6.6-5.4-8.6-9.1c-4.2-8.3-4.2-18.1,0-26.4
		c2-3.7,4.9-6.9,8.5-9.1c3.7-2.3,8-3.4,12.3-3.4c4.2,0,8.3,1,11.9,3.1c3.5,2,6.3,4.9,8.1,8.5v-10.1h6.9v48.4h-6.9v-10.2
		c-2,3.6-4.9,6.5-8.4,8.6C946.5,480,942.5,481,938.4,481z M940.1,475c3.4,0.1,6.7-0.8,9.6-2.5c2.8-1.7,5.1-4.1,6.6-7
		c3.2-6.4,3.2-14,0-20.4c-1.5-2.9-3.8-5.3-6.6-7c-6-3.4-13.3-3.4-19.3,0c-2.8,1.7-5.1,4.1-6.6,7c-3.2,6.4-3.2,14,0,20.4
		c1.5,2.9,3.8,5.3,6.6,7C933.4,474.2,936.7,475.1,940.1,475z"/>
	<path class="st0" d="M999,505.5c-1.6,0-3.3-0.2-4.9-0.6c-1.4-0.3-2.7-0.9-3.9-1.8l2-5.5c1.6,1.2,3.5,1.9,5.5,1.8
		c4.9,0,7.4-3.3,7.4-9.8v-58.4h6.9v59c0,5-1.1,8.8-3.4,11.4C1006.5,504.2,1003.2,505.5,999,505.5z M1008.6,421.4
		c-0.8,0-1.6-0.2-2.3-0.6c-0.7-0.4-1.2-1-1.7-1.6c-0.4-0.7-0.6-1.5-0.6-2.3c0-0.8,0.2-1.6,0.6-2.2c0.4-0.7,1-1.2,1.7-1.6
		c1.4-0.8,3.1-0.8,4.5,0c0.7,0.4,1.2,1,1.7,1.6c0.4,0.7,0.6,1.5,0.6,2.2c0,0.8-0.2,1.6-0.6,2.3c-0.4,0.7-1,1.2-1.7,1.6
		C1010.2,421.2,1009.5,421.4,1008.6,421.4L1008.6,421.4z"/>
	<path class="st0" d="M1049.7,481c-7.3,0-12.6-1.7-15.7-5s-4.7-8.9-4.7-16.6v-28.3h6.9v27.1c0,6.1,1,10.5,3.1,13.1
		c2.1,2.6,5.6,3.9,10.4,3.9c4.9,0,8.4-1.3,10.5-3.9c2.1-2.6,3.1-6.9,3.1-13.1v-27.1h6.9v28.3c0,7.8-1.6,13.3-4.7,16.6
		S1057,481,1049.7,481z"/>
	<path class="st0" d="M1108.6,505.5c-6.1,0-11.3-1.2-15.5-3.6c-4.2-2.4-7.5-6.1-9.4-10.5l5.8-2.7c1.5,3.4,4.1,6.2,7.4,8
		c3.6,2,7.6,3,11.7,3c3.4,0.1,6.8-0.7,9.9-2.2c2.9-1.4,5.3-3.6,6.9-6.4c1.8-3,2.6-6.5,2.5-10v-11.8c-1.9,3.6-4.8,6.5-8.3,8.6
		c-3.6,2.1-7.6,3.2-11.7,3.1c-4.3,0.1-8.5-1.1-12.2-3.3c-3.6-2.2-6.6-5.4-8.7-9.1c-4.2-8.3-4.2-18.2,0-26.5c2-3.8,5-6.9,8.6-9.1
		c3.7-2.3,8-3.4,12.4-3.4c4.1,0,8.1,1,11.7,3.1c3.5,2,6.3,5,8.2,8.5v-10.1h6.9v49.7c0.2,4.7-0.9,9.4-3.2,13.5
		c-2.1,3.6-5.2,6.5-9,8.3C1118.2,504.7,1113.4,505.6,1108.6,505.5z M1109.5,475c3.4,0.1,6.7-0.8,9.7-2.5c2.8-1.7,5.1-4.1,6.6-7
		c3.2-6.4,3.2-14,0-20.4c-1.5-2.9-3.8-5.3-6.6-7c-6-3.4-13.3-3.4-19.3,0c-2.8,1.7-5.1,4.1-6.6,7c-3.2,6.4-3.2,14,0,20.4
		c1.5,2.9,3.8,5.3,6.6,7C1102.8,474.2,1106.1,475.1,1109.5,475L1109.5,475z"/>
	<path class="st0" d="M1173.4,481c-4.3,0.1-8.6-1.1-12.3-3.3c-3.6-2.2-6.6-5.4-8.6-9.1c-4.2-8.3-4.2-18.1,0-26.4
		c2-3.7,4.9-6.9,8.5-9.1c3.7-2.3,8-3.4,12.3-3.4c4.2-0.1,8.3,1,11.9,3.1c3.5,2,6.3,4.9,8.1,8.5v-10.1h6.9v48.4h-6.9v-10.2
		c-2,3.6-4.9,6.5-8.4,8.6C1181.5,480,1177.5,481.1,1173.4,481z M1175.1,475c3.4,0.1,6.7-0.8,9.6-2.5c2.8-1.7,5.1-4.1,6.6-7
		c3.2-6.4,3.2-14,0-20.4c-1.5-2.9-3.8-5.3-6.6-7c-6-3.4-13.3-3.4-19.3,0c-2.8,1.7-5.1,4.1-6.6,7c-3.2,6.4-3.2,14,0,20.4
		c1.5,2.9,3.8,5.3,6.6,7C1168.3,474.2,1171.7,475.1,1175.1,475z"/>
	<path class="st0" d="M1218.2,479.5v-48.4h6.9v7.1c1.4-2.7,3.4-4.9,6-6.5c2.6-1.5,5.5-2.3,8.5-2.2c1.5,0,2.9,0.2,4.3,0.5
		c1.3,0.3,2.6,0.7,3.8,1.2l-2.8,5.8c-1-0.5-2.1-0.9-3.2-1.1c-1.1-0.2-2.3-0.4-3.5-0.4c-2.2,0-4.4,0.6-6.3,1.7
		c-1.9,1.1-3.6,2.6-4.8,4.4c-1.2,1.7-1.9,3.7-1.9,5.8v31.9L1218.2,479.5z"/>
</g>
</svg>
