<svg id="Capa_1" data-name="Capa 1" xmlns="http://www.w3.org/2000/svg" viewBox="0 0 1500 525"><defs><style>.cls-1{fill:#fff;}</style></defs><path class="cls-1" d="M1463.67,311.1c-9.68-1.88-37.37-6-48.84-24.67-14.22-23.19-15.1-38.62-10.82-57.81s15.86-45,23.16-53.92,7.3-9.59,4.53-12.79-15-17.43-23.92-14.85c-5.91,1.71-10.32,4.11-18.37,12.33l-8.06,8.23s-11.24-6.34-21.9-6.63c-15-.4-35,2.83-49.12,14.94a132.19,132.19,0,0,0-22.48,25l-38.92.47s-4.79-45.43-46.07-40.86-33.49,39.75-31.72,44.32,5.29,12.22,17.12,16.45c6.33,2.26,10.32.74,10.32.74s4,42.47-13,51c-10.84,5.42-25.66.79-28.71-20.74-2.61-18.46-4.15-73.34,13.6-104.19s53.39-61.85,56-63.85c2.4-1.83,4.28-6-2.51-11.2s-23.67-17.36-41.29-11.65-37.78,27.71-55.64,57.34c-14.82,24.59-22.37,46.11-26.72,69.82a171.92,171.92,0,0,0-2.65,35.71c.49,22.87,7.49,29.16.43,39.76-1.49,2.24-4.48,6.71-8.2,9.69-3.19,2.55-9,6.71-15.66,5.22-6.28-1.4-11.18-5.22-12.67-14.91s1.5-21.65,4.37-33.57c5-20.62,15.61-42,18.34-58,1.73-10.18,3.63-24.39.1-34.35-1.7-4.76-9-21.35-38.52-10.28C1014.44,139.64,977.44,199,977.44,199s7.7-30,9.33-42.82c2.37-18.68-4.61-26.09-13-29.54s-26.32-6.89-45.58,14.53-39.59,55.44-39.59,55.44,6.77-34,8.13-42.89-2.17-32.74-29.84-23.38c-19.93,6.73-36,30.79-43.17,42.75a98.28,98.28,0,0,0-6.08,12c-6.48,15.28-28.24,62.28-41.08,68.55-14,6.87-18.43-3.2-19.81-8.12-3-10.56-1.9-34.47,4.62-52.68s18.17-38.9,26.58-48,11.12-13.54,1.9-21.66S767.58,111.82,758.9,118s-20,17.08-23.6,19.44c-2.75,1.83-11.19-11.08-29.56-10.83-21.51.29-52.76,12.71-79.76,49.87-19.27,26.54-19.8,49.35-19.8,56.73s-12.09,25.2-27.14,27.6c-11.76,1.88-16.89-5.72-19.25-18.24-3.07-16.35-2.64-41.12,1.12-44.32s34.4-14.8,43.1-42.83c5.83-18.8-7.87-33.24-22.51-35.7s-34.61,3.17-43.14,19.2a93,93,0,0,0-6.78,16L489,153.43s2.16-20.74-14.35-29.77c-6.24-3.42-13.86-3.94-20.88-2.16-12,3-24.36,15.6-26.09,31.65-3,28.14,23.08,32.28,23.08,32.28s4.32,28.39-15.79,53.72c-13.22,16.66-37.69,25.66-55.54,19.57-19.31-10.71-18-32.75-11.84-57.46,4.66-18.6,18.59-34.63,35.42-50.79,9.36-9,14.92-11.08,12.48-14.77S398.12,115,386.73,117s-31.2,21.42-31.2,21.42-21.94-9.54-45.72-6.8c-26.47,3-53.16,20.31-73.36,49.14-16.94,24.17-18.19,34.13-20.3,44.53-.88,4.34-1.78,8.65-4.63,12.21a60.45,60.45,0,0,1-7.9,8c-6.06,5.22-55.07,43-80,19.2-26-24.84-19.22-82.77-6.24-124.81,6.44-20.87,18.29-48.66,45-68.2,11-8,32.67-16.65,43.67-10.34s14.77,20,7.33,38.41c-5.37,13.24-10,21.91-2.17,25.85s26.16,7.47,41.62.33c6-2.74,26.33-22.45,23.89-51.25s-14.9-38-31.6-46.08c-56.7-27.37-145.54,7.72-187,94.87S31.5,275.19,55.65,303.72c17.84,21.09,47,26.59,67.95,24.19,0,0,33.08-.34,63.7-24.73,23.79-18.95,34.16-44.32,35.18-46.17s.22,14.4,12,25.48c8.31,7.82,20.25,13.15,38.25,6.83,23.92-8.4,40.27-24.9,47.4-36.56,0,0-1.38,45.65,29.91,55,35.52,10.64,64.23,1,92.41-16.41,20.2-12.46,32-32.25,38.81-50.62,6.06-16.37,7.94-38.59,7.94-38.59l21.5,1s-4.81,56.29-2.87,69.76c2.85,19.82,10.93,35.39,38.49,32.09,31.11-3.72,52.11-26.45,52.11-26.45s9.38-10.16,10.73-13.12c0,0,7.06,20.93,21.16,25.11s33.1,3,48-9.35,25.23-30.28,26.31-33.24c0,0-1.9,30,15.19,42.35s39,9,50.85,6.24c15.59-3.69,27.06-13.9,38.94-40,5.51-12.09,28.56-59,29.57-60.07,2.08-2.28,6.66-2.56,3.8,6.89-2.76,9.09-12.38,44.13-16.28,61.55-2.56,11.43-3.53,17.48,3.8,21.17s29.82,4.13,37.62,3.72c8-.41,11.81-5.37,12.35-10.17.74-6.71,3.72-23.86,14-50.91C905.62,199.73,915,198,919,197.25c5.87-1.1,8.53,3,8.53,8.95s-11.12,39.39-12.33,60c-1.09,18.71,5.29,22.55,17.21,23.85,12.34,1.35,33.09,1.68,36.83-3.66,5.21-7.45,6.46-21.11,8.2-29.81,2.23-11.18,4.73-22,11.92-35,4.28-7.76,13.3-25.94,23.5-27.48,4.88-.74,10.85,2.71,8.14,9.6s-13,31.47-10.72,63.67c1.21,17.26,10.31,30.17,27.14,36.51,13.42,5.06,29.36,6.12,43.19,2.12a44.14,44.14,0,0,0,18.59-11.05c4.95-4.8,9.42-12.25,10.89-14.5.25-.39.71-.53,1-.16,12,16.24,33.09,31.95,53.32,34.06,24.68,2.58,54.12-8,67.26-30,9.6-16.1,13.75-36.64,16.83-55l23.16.68s-19.39,33.13-7.3,59.64,43.6,21.72,53.11,19.19c13.73-3.66,27.2-11.65,35-29.7,5.58-12.92,2.92-6.18,3.47,7,.35,8.48,1,18.8,11.63,31.42,24,28.4,56.37,25.71,64.2,25.36,11.68-.51,20.41-4.23,29.71-13C1470.28,321.44,1469.25,312.19,1463.67,311.1ZM304.57,228.23c-10.93,16.9-24.69,19.19-30.56,18-8.59-1.74-15.45-12.64-10.21-31.13,6-21.24,16.24-33,23.62-39.91,7.82-7.34,13.72-10.42,19.42-11.51,5.19-1,8.08,4.24,9.26,10.38C318.45,186.28,312.83,215.45,304.57,228.23Zm394.38.36c-11,17-24.82,19.29-30.72,18.09-8.64-1.75-15.54-12.71-10.27-31.3,6.06-21.35,16.33-33.16,23.75-40.12,7.87-7.39,13.79-10.48,19.53-11.58,5.21-1,8.12,4.26,9.31,10.44C712.92,186.41,707.26,215.74,699,228.59Zm649.67,20.21a36.92,36.92,0,0,1-2.88,4.89c-10.2,15.76-23,17.9-28.51,16.79-8-1.63-14.43-11.8-9.53-29.05,5.62-19.82,15.15-30.78,22-37.24,7.31-6.85,12.81-9.72,18.13-10.74,4.84-.92,6.77,2,8.36,7.61a49.07,49.07,0,0,1,.8,11.51C1356.56,230.33,1353.86,239.6,1348.62,248.8Z"/><path class="cls-1" d="M276.24,479.52V398.28h6.89v81.24Z"/><path class="cls-1" d="M321.77,481a23.09,23.09,0,0,1-12.26-3.33,24,24,0,0,1-8.64-9.14,29.15,29.15,0,0,1-.05-26.42,23.87,23.87,0,0,1,8.6-9.14,23.07,23.07,0,0,1,12.35-3.36,23.49,23.49,0,0,1,11.9,3.07,20.33,20.33,0,0,1,8.13,8.51V431.15h6.89v48.37H341.8v-10.2a23.17,23.17,0,0,1-8.36,8.6A22.5,22.5,0,0,1,321.77,481Zm1.7-6a18.23,18.23,0,0,0,9.61-2.52,18,18,0,0,0,6.59-7,22.83,22.83,0,0,0,0-20.38,17.74,17.74,0,0,0-6.58-7,19.61,19.61,0,0,0-19.27,0,17.91,17.91,0,0,0-6.62,7,22.75,22.75,0,0,0,0,20.38,18,18,0,0,0,6.62,7A18.35,18.35,0,0,0,323.47,475Z"/><path class="cls-1" d="M404.33,479.52l-23.47-48.37h8.07L406.6,469.7l17.71-38.55h8.08l-23.52,48.37Z"/><path class="cls-1" d="M446.56,421.47a4.27,4.27,0,0,1-2.25-.61,4.71,4.71,0,0,1-1.63-1.66,4.33,4.33,0,0,1-.61-2.26,4.27,4.27,0,0,1,.61-2.25,4.89,4.89,0,0,1,1.63-1.63,4.36,4.36,0,0,1,2.25-.61,4.43,4.43,0,0,1,2.29.61,4.83,4.83,0,0,1,1.63,1.61,4.12,4.12,0,0,1,.61,2.22,4.43,4.43,0,0,1-.61,2.31,4.63,4.63,0,0,1-1.63,1.66A4.34,4.34,0,0,1,446.56,421.47Zm-3.45,58V431.15H450v48.37Z"/><path class="cls-1" d="M488.69,481a23.24,23.24,0,0,1-12.26-3.3,23.93,23.93,0,0,1-8.64-9.12,29.13,29.13,0,0,1,0-26.47,24,24,0,0,1,8.62-9.14,23.13,23.13,0,0,1,12.39-3.36,22.83,22.83,0,0,1,11.72,3.07,21.85,21.85,0,0,1,8.22,8.51v-43h6.89v81.29h-6.89v-10.2a22.54,22.54,0,0,1-20,11.71Zm1.65-6a18.39,18.39,0,0,0,9.64-2.52,18,18,0,0,0,6.61-7A20.89,20.89,0,0,0,509,455.39a21.45,21.45,0,0,0-2.38-10.23,17.69,17.69,0,0,0-6.62-7,18.42,18.42,0,0,0-9.66-2.53,18.16,18.16,0,0,0-9.58,2.53,17.83,17.83,0,0,0-6.62,7,22.83,22.83,0,0,0,0,20.38,17.74,17.74,0,0,0,6.61,7A18.4,18.4,0,0,0,490.34,475Z"/><path class="cls-1" d="M554.2,481a23.09,23.09,0,0,1-12.26-3.33,24.06,24.06,0,0,1-8.64-9.14,29.15,29.15,0,0,1,0-26.42,23.87,23.87,0,0,1,8.6-9.14,23.07,23.07,0,0,1,12.35-3.36,23.47,23.47,0,0,1,11.9,3.07,20.33,20.33,0,0,1,8.13,8.51V431.15h6.89v48.37h-6.89v-10.2a23.17,23.17,0,0,1-8.36,8.6A22.5,22.5,0,0,1,554.2,481Zm1.7-6a18.23,18.23,0,0,0,9.61-2.52,18,18,0,0,0,6.59-7,22.88,22.88,0,0,0,0-20.38,17.77,17.77,0,0,0-6.59-7,19.61,19.61,0,0,0-19.27,0,17.91,17.91,0,0,0-6.62,7,22.75,22.75,0,0,0,0,20.38,18,18,0,0,0,6.62,7A18.35,18.35,0,0,0,555.9,475Z"/><path class="cls-1" d="M643.66,481a27.31,27.31,0,0,1-13.58-3.35,24.73,24.73,0,0,1-9.38-9.14,25.26,25.26,0,0,1-3.4-13,26.16,26.16,0,0,1,2-10.13,25.82,25.82,0,0,1,5.46-8.25,25.31,25.31,0,0,1,8.12-5.52,24.69,24.69,0,0,1,9.87-2,25.7,25.7,0,0,1,12.78,3.14,23.68,23.68,0,0,1,8.88,8.67,25.81,25.81,0,0,1,3.47,12.75c0,.38,0,.69,0,.93s-.06.52-.12.87H624.15a19.38,19.38,0,0,0,2.55,10,18.28,18.28,0,0,0,7,6.83,20.7,20.7,0,0,0,10.22,2.48,21,21,0,0,0,9.85-2.29,20.07,20.07,0,0,0,7.3-6.59l5.1,2.74a23.79,23.79,0,0,1-9.38,8.74A27.89,27.89,0,0,1,643.66,481ZM624.53,450.8H661a17.17,17.17,0,0,0-3.17-8,18,18,0,0,0-6.45-5.46,18.52,18.52,0,0,0-8.52-2,19.1,19.1,0,0,0-8.69,2,17.55,17.55,0,0,0-6.45,5.43A17.34,17.34,0,0,0,624.53,450.8Z"/><path class="cls-1" d="M693.87,481a18.8,18.8,0,0,1-17.71-11.14l3.68-4a18.64,18.64,0,0,0,5.9,7.2,13.66,13.66,0,0,0,8.08,2.58,12.16,12.16,0,0,0,5.46-1.23,9.62,9.62,0,0,0,5.45-9,6.8,6.8,0,0,0-1.39-4.53,11.35,11.35,0,0,0-4.06-2.86c-1.78-.8-4-1.71-6.64-2.71a56.64,56.64,0,0,1-5.95-2.79,15.2,15.2,0,0,1-4.75-3.94,9.61,9.61,0,0,1-1.86-6.07,11.52,11.52,0,0,1,2-6.64,13.55,13.55,0,0,1,5.48-4.58,18.07,18.07,0,0,1,7.93-1.68,17.05,17.05,0,0,1,7.63,1.75,20.53,20.53,0,0,1,6.4,5l-3.16,4q-4.35-5.71-10.82-5.71a9.71,9.71,0,0,0-6.45,2.08,6.74,6.74,0,0,0-2.48,5.43,5.53,5.53,0,0,0,1.56,4,13,13,0,0,0,4.09,2.74c1.68.76,3.5,1.51,5.45,2.27a73.41,73.41,0,0,1,7.4,3.21,13.05,13.05,0,0,1,4.88,4.09,11.43,11.43,0,0,1,1.75,6.73,15.25,15.25,0,0,1-2.26,8.4,14.83,14.83,0,0,1-6.31,5.46A21.38,21.38,0,0,1,693.87,481Z"/><path class="cls-1" d="M747.67,504.08V431.15h6.89v10a21.25,21.25,0,0,1,8.2-8.48,22.91,22.91,0,0,1,11.69-3.05A23.21,23.21,0,0,1,786.89,433a24,24,0,0,1,8.62,9.14,27,27,0,0,1,3.17,13.2,27.33,27.33,0,0,1-3.14,13.15,23.87,23.87,0,0,1-8.6,9.19,23.25,23.25,0,0,1-12.4,3.35,22.6,22.6,0,0,1-20-11.71v34.76ZM772.94,475a18.4,18.4,0,0,0,9.61-2.52,17.74,17.74,0,0,0,6.61-7,22.83,22.83,0,0,0,0-20.38,18,18,0,0,0-6.59-7,19.57,19.57,0,0,0-19.25,0,17.89,17.89,0,0,0-6.61,7,22.75,22.75,0,0,0,0,20.38,17.92,17.92,0,0,0,6.63,7A18.44,18.44,0,0,0,772.94,475Z"/><path class="cls-1" d="M833.82,481a23.06,23.06,0,0,1-12.26-3.33,23.91,23.91,0,0,1-8.64-9.14,29.15,29.15,0,0,1,0-26.42,23.8,23.8,0,0,1,8.6-9.14,23,23,0,0,1,12.35-3.36,23.52,23.52,0,0,1,11.9,3.07,20.25,20.25,0,0,1,8.12,8.51V431.15h6.9v48.37h-6.9v-10.2a23,23,0,0,1-8.36,8.6A22.44,22.44,0,0,1,833.82,481Zm1.7-6a18.25,18.25,0,0,0,9.61-2.52,18,18,0,0,0,6.59-7,22.83,22.83,0,0,0,0-20.38,17.7,17.7,0,0,0-6.59-7,19.61,19.61,0,0,0-19.27,0,18,18,0,0,0-6.61,7,22.75,22.75,0,0,0,0,20.38,18,18,0,0,0,6.61,7A18.39,18.39,0,0,0,835.52,475Z"/><path class="cls-1" d="M878.69,479.52V431.15h6.89v7.14a16.49,16.49,0,0,1,6-6.45,16.12,16.12,0,0,1,8.48-2.2,20.21,20.21,0,0,1,4.32.48,17.69,17.69,0,0,1,3.8,1.22l-2.83,5.81a13.4,13.4,0,0,0-3.24-1.08,17.2,17.2,0,0,0-3.47-.38,12.6,12.6,0,0,0-6.33,1.7,14.49,14.49,0,0,0-4.84,4.42,10.07,10.07,0,0,0-1.87,5.78v31.93Z"/><path class="cls-1" d="M938.39,481a23.06,23.06,0,0,1-12.26-3.33,24,24,0,0,1-8.64-9.14,29.15,29.15,0,0,1,0-26.42A23.8,23.8,0,0,1,926,433a23,23,0,0,1,12.35-3.36,23.52,23.52,0,0,1,11.9,3.07,20.33,20.33,0,0,1,8.13,8.51V431.15h6.89v48.37h-6.89v-10.2a23.17,23.17,0,0,1-8.36,8.6A22.5,22.5,0,0,1,938.39,481Zm1.7-6a18.25,18.25,0,0,0,9.61-2.52,18,18,0,0,0,6.59-7,22.83,22.83,0,0,0,0-20.38,17.7,17.7,0,0,0-6.59-7,19.61,19.61,0,0,0-19.27,0,18,18,0,0,0-6.61,7,22.75,22.75,0,0,0,0,20.38,18,18,0,0,0,6.61,7A18.41,18.41,0,0,0,940.09,475Z"/><path class="cls-1" d="M999,505.5a19.61,19.61,0,0,1-4.86-.61,10.38,10.38,0,0,1-3.87-1.8l2-5.53a8.28,8.28,0,0,0,5.48,1.8q7.41,0,7.41-9.82V431.15h6.9v59q0,7.46-3.36,11.41T999,505.5Zm9.64-84.12a4.38,4.38,0,0,1-2.27-.62,4.68,4.68,0,0,1-1.65-1.63,4.32,4.32,0,0,1-.62-2.29,4.24,4.24,0,0,1,.62-2.24,4.68,4.68,0,0,1,1.65-1.63,4.53,4.53,0,0,1,4.54,0,4.68,4.68,0,0,1,1.65,1.63,4.24,4.24,0,0,1,.61,2.24,4.37,4.37,0,0,1-.61,2.27,4.66,4.66,0,0,1-1.65,1.65A4.4,4.4,0,0,1,1008.67,421.38Z"/><path class="cls-1" d="M1049.67,481q-11,0-15.73-5t-4.72-16.58V431.15h6.89v27.12q0,9.17,3.12,13.06t10.44,3.89q7.36,0,10.46-3.89t3.09-13.06V431.15h6.9v28.34q0,11.63-4.7,16.58T1049.67,481Z"/><path class="cls-1" d="M1108.57,505.5q-9.16,0-15.5-3.59a21.9,21.9,0,0,1-9.39-10.49l5.8-2.69a17,17,0,0,0,7.37,8,23.11,23.11,0,0,0,11.72,2.95,21.76,21.76,0,0,0,9.89-2.19,16.8,16.8,0,0,0,6.9-6.36,18.85,18.85,0,0,0,2.53-10V469.32a22.4,22.4,0,0,1-8.29,8.6,22.72,22.72,0,0,1-11.74,3.11,23.09,23.09,0,0,1-12.21-3.3,24,24,0,0,1-8.65-9.12,29.21,29.21,0,0,1,0-26.47,24,24,0,0,1,8.62-9.14,23.17,23.17,0,0,1,12.4-3.36,22.86,22.86,0,0,1,11.69,3.07,21.46,21.46,0,0,1,8.2,8.51V431.15h6.89v49.69a26.78,26.78,0,0,1-3.16,13.54,20.27,20.27,0,0,1-9,8.31A32.25,32.25,0,0,1,1108.57,505.5Zm.94-30.47a18.46,18.46,0,0,0,9.68-2.52,18,18,0,0,0,6.62-7,22.79,22.79,0,0,0,0-20.36,17.83,17.83,0,0,0-6.62-7,19.61,19.61,0,0,0-19.27,0,17.88,17.88,0,0,0-6.61,7,22.79,22.79,0,0,0,0,20.36,17.73,17.73,0,0,0,6.61,7A18.4,18.4,0,0,0,1109.51,475Z"/><path class="cls-1" d="M1173.37,481a23.09,23.09,0,0,1-12.26-3.33,24.06,24.06,0,0,1-8.64-9.14,29.15,29.15,0,0,1,0-26.42A23.87,23.87,0,0,1,1161,433a23.07,23.07,0,0,1,12.35-3.36,23.47,23.47,0,0,1,11.9,3.07,20.33,20.33,0,0,1,8.13,8.51V431.15h6.89v48.37h-6.89v-10.2a23.17,23.17,0,0,1-8.36,8.6A22.5,22.5,0,0,1,1173.37,481Zm1.7-6a18.23,18.23,0,0,0,9.61-2.52,18,18,0,0,0,6.59-7,22.83,22.83,0,0,0,0-20.38,17.74,17.74,0,0,0-6.58-7,19.63,19.63,0,0,0-19.28,0,18,18,0,0,0-6.61,7,22.75,22.75,0,0,0,0,20.38,18,18,0,0,0,6.61,7A18.41,18.41,0,0,0,1175.07,475Z"/><path class="cls-1" d="M1218.24,479.52V431.15h6.9v7.14a16.39,16.39,0,0,1,6-6.45,16.12,16.12,0,0,1,8.48-2.2,20.14,20.14,0,0,1,4.32.48,17.6,17.6,0,0,1,3.81,1.22l-2.84,5.81a13.17,13.17,0,0,0-3.23-1.08,17.3,17.3,0,0,0-3.48-.38,12.57,12.57,0,0,0-6.32,1.7,14.52,14.52,0,0,0-4.85,4.42,10.06,10.06,0,0,0-1.86,5.78v31.93Z"/></svg>