<svg id="Capa_1" data-name="Capa 1" xmlns="http://www.w3.org/2000/svg" viewBox="0 0 1994.16 488.66"><defs><style>.cls-1{fill:#282828;}</style></defs><path class="cls-1" d="M1964.26,420.25c-13.12-2.56-50.66-8.11-66.19-33.44-19.27-31.43-20.47-52.33-14.67-78.34s21.49-61,31.39-73.07,9.89-13,6.14-17.34-20.35-23.62-32.41-20.13c-8,2.32-14,5.58-24.91,16.72l-10.92,11.15s-15.23-8.59-29.68-9c-20.32-.54-47.45,3.84-66.56,20.25A178.72,178.72,0,0,0,1726,270.94l-52.75.64s-6.48-61.57-62.43-55.38-45.38,53.88-43,60.07,7.17,16.56,23.2,22.29c8.58,3.07,14,1,14,1s5.44,57.55-17.56,69.05c-14.7,7.35-34.77,1.08-38.91-28.1-3.54-25-5.63-99.39,18.43-141.19s72.36-83.84,75.91-86.55c3.24-2.47,5.8-8-3.41-15.17s-32.07-23.53-56-15.79-51.19,37.56-75.4,77.71c-20.08,33.33-30.32,62.49-36.21,94.62a233.5,233.5,0,0,0-3.59,48.4c.66,31,10.15,39.52.58,53.88-2,3-6.06,9.09-11.11,13.13-4.32,3.46-12.13,9.1-21.22,7.08-8.52-1.9-15.15-7.08-17.17-20.21s2-29.34,5.92-45.5c6.74-27.94,21.15-56.92,24.85-78.58,2.35-13.8,4.92-33,.14-46.55-2.31-6.46-12.24-28.94-52.2-13.93-42.64,16-92.78,96.39-92.78,96.39s10.43-40.68,12.64-58c3.22-25.31-6.25-35.36-17.65-40s-35.66-9.34-61.76,19.68S1184.89,265,1184.89,265s9.17-46.12,11-58.13-2.94-44.38-40.44-31.7c-27,9.13-48.81,41.73-58.5,57.94a133.35,133.35,0,0,0-8.25,16.31c-8.77,20.71-38.27,84.4-55.67,92.9-19,9.3-25-4.34-26.84-11-4-14.3-2.57-46.7,6.25-71.39s24.63-52.72,36-65.06,15.07-18.35,2.57-29.36-30.14-15.35-41.91-7-27.15,23.16-32,26.36c-3.73,2.48-15.17-15-40.07-14.68-29.14.39-71.5,17.22-108.08,67.58-26.13,36-26.84,66.87-26.84,76.88s-16.38,34.16-36.78,37.41c-15.94,2.54-22.89-7.76-26.08-24.73-4.17-22.15-3.58-55.72,1.52-60s46.61-20.07,58.4-58.06c7.9-25.47-10.66-45-30.51-48.37s-46.9,4.29-58.45,26a124,124,0,0,0-9.19,21.69l-57.72-2s2.92-28.11-19.45-40.35c-8.46-4.63-18.78-5.33-28.3-2.93-16.27,4.11-33,21.14-35.36,42.9-4.09,38.13,31.27,43.75,31.27,43.75s5.86,38.47-21.38,72.8c-17.93,22.58-51.08,34.77-75.28,26.52-26.17-14.51-24.43-44.39-16-77.87,6.31-25.21,25.19-46.94,48-68.83,12.69-12.17,20.22-15,16.91-20s-23.52-28-39-25.35-42.27,29-42.27,29-29.73-12.92-62-9.22c-35.87,4.13-72,27.54-99.42,66.61-23,32.75-24.65,46.24-27.51,60.35-1.19,5.87-2.4,11.72-6.27,16.54a82.51,82.51,0,0,1-10.7,10.85c-8.22,7.07-74.64,58.31-108.45,26-35.27-33.68-26-112.18-8.46-169.16,8.74-28.27,24.8-65.93,61-92.41,14.89-10.89,44.28-22.57,59.19-14,14.76,8.47,20,27.15,9.92,52.05-7.27,17.95-13.6,29.7-2.94,35s35.46,10.14,56.41.46c8.06-3.72,35.69-30.43,32.38-69.46s-20.2-51.52-42.83-62.45C236,.31,115.64,47.87,59.39,166s-36,205.61-3.31,244.28c24.18,28.57,63.69,36,92.09,32.78,0,0,44.83-.46,86.33-33.52,32.24-25.69,46.29-60.07,47.67-62.57s.3,19.52,16.27,34.53c11.26,10.6,27.44,17.83,51.83,9.26,32.42-11.39,54.58-33.75,64.24-49.54,0,0-1.87,61.86,40.53,74.56,48.14,14.42,87.05,1.35,125.25-22.23,27.36-16.89,43.38-43.7,52.59-68.6,8.21-22.19,10.75-52.3,10.75-52.3L672.77,274s-6.51,76.29-3.88,94.54c3.86,26.86,14.81,48,52.16,43.49,42.16-5.05,70.61-35.84,70.61-35.84s12.72-13.78,14.56-17.78c0,0,9.55,28.36,28.67,34s44.85,4,65.07-12.68,34.19-41,35.66-45c0,0-2.57,40.7,20.59,57.39s52.92,12.25,68.9,8.46c21.14-5,36.68-18.84,52.78-54.17,7.46-16.38,38.7-79.91,40.07-81.41,2.83-3.09,9-3.46,5.15,9.34-3.74,12.31-16.77,59.8-22.06,83.41-3.47,15.49-4.78,23.69,5.15,28.69s40.42,5.6,51,5.05c10.78-.57,16-7.28,16.74-13.79,1-9.1,5-32.34,19-69,15-39.35,27.7-41.7,33.08-42.71,8-1.49,11.56,4.13,11.56,12.14s-15.07,53.38-16.7,81.28c-1.49,25.36,7.16,30.55,23.32,32.32,16.72,1.82,44.84,2.28,49.9-4.95,7.07-10.1,8.76-28.62,11.11-40.41,3-15.15,6.43-29.8,16.17-47.48,5.79-10.51,18-35.14,31.84-37.24,6.62-1,14.7,3.67,11,13s-17.59,42.65-14.53,86.28c1.65,23.4,14,40.89,36.78,49.48,18.19,6.86,39.8,8.3,58.54,2.88a60,60,0,0,0,25.2-15c6.7-6.5,12.76-16.6,14.75-19.65.34-.52,1-.71,1.33-.21,16.23,22,44.84,43.29,72.25,46.15,33.46,3.5,73.36-10.84,91.16-40.69,13-21.82,18.64-49.65,22.8-74.49l31.39.93s-26.27,44.9-9.9,80.81,59.1,29.45,72,26c18.6-4.95,36.85-15.79,47.43-40.25,7.57-17.51,4-8.37,4.7,9.44.48,11.49,1.29,25.47,15.77,42.58,32.58,38.49,76.38,34.84,87,34.37,15.82-.7,27.66-5.74,40.26-17.65C1973.22,434.26,1971.81,421.72,1964.26,420.25ZM393.42,308C378.61,330.84,360,334,352,332.33c-11.64-2.36-20.94-17.13-13.83-42.18,8.16-28.78,22-44.7,32-54.09,10.6-9.95,18.59-14.12,26.33-15.6,7-1.33,10.94,5.75,12.54,14.07C412.24,251.09,404.62,290.62,393.42,308Zm534.48.47c-14.89,23-33.64,26.15-41.64,24.52-11.7-2.37-21.06-17.22-13.91-42.41,8.21-28.94,22.12-44.94,32.18-54.38,10.66-10,18.7-14.2,26.47-15.68,7.06-1.35,11,5.77,12.61,14.14C946.82,251.26,939.16,291,927.9,308.42Zm880.44,27.4a50.54,50.54,0,0,1-3.91,6.62c-13.82,21.36-31.22,24.26-38.64,22.76-10.86-2.21-19.54-16-12.91-39.37,7.62-26.86,20.53-41.71,29.86-50.47,9.9-9.29,17.35-13.18,24.57-14.55,6.55-1.25,9.18,2.7,11.33,10.31a66.23,66.23,0,0,1,1.08,15.59C1819.1,310.79,1815.44,323.35,1808.34,335.82Z"/></svg>