<?xml version="1.0" encoding="utf-8"?>
<!-- Generator: Adobe Illustrator 25.2.3, SVG Export Plug-In . SVG Version: 6.00 Build 0)  -->
<svg version="1.1" id="Capa_1" xmlns="http://www.w3.org/2000/svg" xmlns:xlink="http://www.w3.org/1999/xlink" x="0px" y="0px"
	 viewBox="0 0 511 511" style="enable-background:new 0 0 511 511;" xml:space="preserve">
<style type="text/css">
	.st0{fill:#CC644F;}
	.st1{fill:#D4B1A6;}
	.st2{fill:#E1B946;}
	.st3{fill:#8CBEA3;}
	.st4{fill:#CFCB9D;}
	.st5{fill:#59BD8B;}
	.st6{fill:#282828;}
</style>
<path class="st0" d="M462.8,505c-1.1,0-2.1,0-3.2,0c-3.9-0.1-8.2-0.1-11.7-2.2c-5.3-3.2-7-10.4-7.9-17c-6.4-46.1-3-93.5,0.3-139.4
	l0.1-1.4c0.9-12.2,1.8-24.8,2.5-37.2c4.3-77.5,1.1-156.4-2-232.7l-0.9-21.2c-0.7-17.3,0.4-34.6,12.6-43.5c3.9-2.8,8.8-4.4,13.8-4.4
	c4.4,0,8.5,1.1,12.1,3.3c10.7,6.4,12.7,20.5,13,26.2c0.6,10.1,0.2,20.5-0.3,30.6l0,0.3c-0.2,4.9-0.5,9.9-0.6,14.9
	c-0.8,38.4-1.3,67.4-1.6,94c-0.9,72.6-0.5,132.3,1.2,188c1.1,37.5,2.8,72.3,5.1,106.2c0.7,9.9,0.8,19.3-4.5,26.1
	C484.8,503.9,473.3,505,462.8,505z"/>
<path class="st1" d="M438,205.7c-0.2,0-0.2,0-0.2,0c-18.7,0.3-37.8,0.5-56.7,0.5c-28.8,0-57.9-0.4-86.5-1.1c-0.1,0-0.1,0-0.3,0
	l-5.2,1l0.4-5.2c0.4-5,0.6-10.1,0.5-15.2l-0.1-3.9l3.9-0.1c47.7-1.4,96-2.3,143.5-2.8c0,0,0.1,0,0.3-0.1l4.8-1.1l0.1,4.9
	c0.1,7.2,0.2,13.5,0.3,19.2l0.1,5.2L438,205.7z"/>
<path class="st1" d="M435.1,339.1c-3.6-0.1-7.3-0.2-11-0.2c-2.8,0-5.7,0-8.5,0.1l-4.7,0.1l0.6-4.7c1-7.9,1.5-15.9,1.3-23.9l-0.1-4.3
	l28.3,1.3l-0.2,4c-0.4,7.3-0.9,15.1-1.6,23.7l-0.3,3.8L435.1,339.1z"/>
<path class="st2" d="M430.3,124.3c-5.1,0-9.6-1.1-13.4-3.2c-6.2-3.4-11-10.1-13.2-18.3c-2.2-8-1.8-16.4-1.2-23.5
	c0.8-9.2,2.7-20.7,10.6-27.4c3.8-3.2,8.9-5.1,14.1-5.1c2.4,0,4.7,0.4,6.8,1.1c0,0,0.1,0,0.3,0l3.7,0.2l0.1,3.9c0,0.6,0,1.3,0.1,1.9
	c0.3,6.8,0.5,13.6,0.8,20.4l0,0.8c0.6,14.1,1.2,29.2,1.8,44.5l0.1,3.5l-3.4,0.6C435,124,432.6,124.3,430.3,124.3z"/>
<path class="st3" d="M430.7,466c-7.3,0-13.7-1.2-19.2-3.5c-7.3-3.1-13.1-8.5-15.9-14.8c-2.6-5.6-3-12.1-3-17.7
	c-0.1-9.9,0.9-17.7,3.1-24.6c2.8-8.4,7.6-15.5,13.8-19.9c4.7-3.4,10.4-5.2,15.9-5.2c2.5,0,4.8,0.4,7.1,1.1l3.7,0.7l-0.2,3.5
	c-1.7,30.7-1.8,54.2-0.2,76.2l0.3,4.2l-4.2,0.1C431.4,466,431,466,430.7,466z"/>
<path class="st3" d="M381.5,362.6c-5.1-0.1-10-2.1-13.1-5.4c-0.1-0.1-0.1-0.1-0.2-0.2l-1.2-1.2v-5.7l1.5,0
	c2.6-5.7,3.6-12.1,4.4-18.2c1.1-8.6,2.1-18.6,0.3-28.1c-1-5.3-3-10.4-5.7-14.6l-2.4-3.8l4-2c5.1-2.5,11-5.2,17.3-6
	c1.1-0.1,2.2-0.2,3.3-0.2c3.8,0,10.8,0.8,15.4,6.4c3.3,4.1,4.3,9.7,4.9,15.2c1.2,11.8,1.1,23.8-0.5,35.5c-0.7,5.1-1.7,10.4-4.3,14.8
	c-2.1,3.5-5.3,6.7-9.4,9.1c-4.6,2.8-9.4,4.3-13.9,4.3L381.5,362.6z"/>
<path class="st1" d="M192.4,96.5c1.3-7.2,1.7-14.5,1.2-21.8l-0.4-4.8l5,0.6c4.5-0.1,9.3-0.2,14.2-0.2c27.9,0,56,1.7,83.2,3.4l-0.1,4
	l0.2-4c27.3,1.7,55.5,3.4,83.4,3.4c5.3,0,10.5-0.1,15.5-0.2c0,0,0.1,0,0.3-0.1l5.7-1.9l-0.4,6c-0.3,3.8-0.6,9.5,0.1,15.3l0.5,4.5
	l-209.4,0.5L192.4,96.5z"/>
<path class="st2" d="M373.4,468.8c-0.7,0-1.4,0-2.1-0.1c-8.8-0.7-17.3-6.2-21.6-13.9c-3-5.4-4.1-11.5-4.6-16.3c-1-8-1-15.9-0.1-23.4
	c0.8-6.3,2.1-11,4.2-15c4.2-7.9,12.5-13.7,21.7-15.2c1.6-0.3,3.3-0.4,5-0.4c7.1,0,14.3,2.3,20.2,6.5l2.9,2.1l-1.7,3.1
	c-1.5,2.7-2.7,5.5-3.7,8.4c-2.3,7.1-3.3,15.1-3.2,25.2c0.1,5.8,0.5,12.6,3.2,18.5c0.7,1.5,1.5,3,2.5,4.3l2.3,3.3l-3.3,2.3
	c-0.2,0.1-0.2,0.2-0.3,0.2C389.8,464.8,381.6,468.8,373.4,468.8z"/>
<path class="st0" d="M341.6,365.5c-6.9,0-13.7-2.6-18.8-7.1l-2.5-2.2l1.7-2.8c4.6-7.5,5.7-16.5,6.3-25.1c0.6-9.7,0.6-20.9-4.1-30.5
	c-0.5-1.1-1.2-2.2-2-3.4l-1.7-2.4l2-2.5h0c3.5-5.5,9.4-9.6,15.8-11c1.7-0.4,3.5-0.6,5.3-0.6c4.9,0,9.8,1.4,13.8,4
	c6.9,4.4,11.9,12.6,13.7,22.5c1.7,9.2,0.8,18.6-0.4,27.5c-0.9,7-1.9,13.7-5.2,19.5c-4.1,7.5-12,12.9-20.4,14
	C344.1,365.4,342.9,365.5,341.6,365.5z"/>
<path class="st0" d="M328.5,471.3c-1.7,0-3.5-0.1-5.3-0.3c-5.1-0.6-9-2-11.9-4.2c-6.1-4.5-8.2-12.7-9.6-20.8
	c-2.1-12-3.5-24.7,0.1-36.6c3.2-10.6,12-22.1,24.5-24c1.3-0.2,2.6-0.3,3.9-0.3c5.2,0,10.8,1.4,17.2,4.3c0,0,0.1,0,0.2,0l5.7,1.5
	l-3.5,4.7c-0.9,1.2-1.6,2.4-2.3,3.5c-2.2,4.2-3.6,9.2-4.5,15.7c-0.9,7.7-0.9,15.7,0.1,23.9c0.6,5,1.7,11.4,4.9,17
	c0.4,0.7,0.8,1.4,1.3,2.1l1.9,2.7l-2.6,2.6C344.4,468.5,337.3,471.3,328.5,471.3z"/>
<path class="st4" d="M303.2,362.4c-3.8,0-7.6-1-11-2.8c-6.4-3.5-11.4-9.8-14.2-17.9c-2.2-6.4-3.2-13.9-2.9-23.4
	c0.4-12.3,2.9-21,7.8-27.2c3.9-4.9,9.2-7.5,15.5-7.5c0.8,0,1.6,0,2.4,0.1c9,1,17.6,7,21.5,15c4.5,9.1,4.5,19.5,3.9,29.5
	c-0.6,9-1.8,18.4-7,25.8c-1.6,2.2-3.4,4-5.3,5.4C311,361.3,307.3,362.4,303.2,362.4z"/>
<path class="st3" d="M288.8,474.2c-1.2,0-2.5-0.1-3.7-0.3c-7.2-1.2-14-6.2-17.6-13c-3.3-6-4.2-13.1-4.7-19.8
	c-0.8-10-0.7-20.2,0.1-30.3c0.6-6.7,1.7-13.4,6.2-17.8c1.5-1.5,3.5-2.8,6.1-3.9c3.5-1.5,7.6-2.4,11.5-2.4c6.3,0,11.6,2.1,15.5,6
	c0.1,0.1,0.2,0.2,0.3,0.2l4.4,1.8l-2.5,4c-2,3.2-3.5,6.6-4.6,10.2c-3.7,12.4-2.1,26-0.1,37.5c0.9,5.4,2.3,11.6,5.3,16.5l1.6,2.6
	l-2.1,2.2C300.6,471.8,294.7,474.2,288.8,474.2z"/>
<path class="st4" d="M258.7,236.8c-5.1-0.1-9.9-2.1-13.1-5.4c0,0-3.3-2.8-3.3-2.8l2.6-2.6c3.2-6,4.3-13,5.2-19.8
	c1.1-8.6,2.1-18.6,0.3-28.1c-1-5.3-3-10.4-5.7-14.6l-2.4-3.8l4-2c5.1-2.5,11-5.2,17.3-6c1.1-0.1,2.2-0.2,3.2-0.2
	c3.8,0,10.8,0.8,15.4,6.4c3.3,4.1,4.3,9.7,4.9,15.2c1.2,11.8,1.1,23.8-0.5,35.5c-0.7,5.1-1.7,10.4-4.3,14.8
	c-2.1,3.5-5.3,6.7-9.4,9.1c-4.6,2.8-9.4,4.3-13.9,4.3L258.7,236.8z"/>
<path class="st1" d="M212.6,335.7l0.5-4.4c0.6-5.4,0.9-10.8,0.8-16.1l-0.1-4.1h4.5l0.2,0l54.8,1.3l-0.2,5.7c-0.2,5,0,9.4,0.5,13.4
	l0.6,4.5L212.6,335.7z"/>
<path class="st1" d="M256.1,436.7c-18.2-0.7-36.7-1.1-55.1-1.1c-15.1,0-30.4,0.2-45.4,0.7l-4.4,0.1l0.3-4.4c0-0.4,0-0.7,0.1-1.1
	l0-0.7c0.2-5.9,0-11.5-0.8-16.6L150,409l4.7,0.1c33.6,0.7,67.8,1.3,101.8,1.7l4.2,0.1l-0.3,4.2c-0.4,5.8-0.4,11.7-0.3,17.5l0.1,4.3
	L256.1,436.7z"/>
<path class="st2" d="M218.8,239.6c-6.8,0-13.7-2.6-18.7-7.1l-2.5-2.2l1.8-2.8c4.6-7.5,5.7-16.5,6.3-25.1c0.6-9.7,0.6-20.9-4.1-30.5
	c-0.5-1.1-1.2-2.2-2-3.4l-1.7-2.4l1.9-2.3l0.1-0.2c3.5-5.5,9.4-9.6,15.8-11c1.7-0.4,3.5-0.6,5.3-0.6c4.9,0,9.8,1.4,13.8,4
	c6.9,4.4,11.9,12.6,13.7,22.5c1.7,9.2,0.8,18.6-0.4,27.5c-0.9,7-1.9,13.7-5.2,19.5c-4.2,7.5-12,12.9-20.5,14
	C221.3,239.6,220,239.6,218.8,239.6z"/>
<path class="st2" d="M189.5,358.9c-0.4,0-0.9,0-1.3,0c-9.1-0.2-16.2-2.2-21-6.1l-2.4-2l1.3-2.8c1.7-3.6,2.5-7.5,3.2-11.6
	c1.7-9.6,2.7-17.1,3.1-24.1c0.3-5,0.3-11.6-1.6-17.6c-0.4-1.2-0.8-2.3-1.3-3.4l-1.7-3.6l3.9-1.8c6.2-4,11.6-6.9,17.5-7.8
	c1-0.2,2.1-0.2,3.2-0.2c5.8,0,10.8,2.2,13.6,6.1c1.8,2.5,2.7,5.5,3.6,9.3c3.1,14.4,3.4,29.7,0.8,44.2c-1.9,10.8-5.9,17.5-11.9,20.1
	C195.3,358.7,191.9,358.9,189.5,358.9z"/>
<path class="st5" d="M180.4,236.5c-3.8,0-7.6-1-11-2.8c-6.4-3.5-11.4-9.8-14.2-17.9c-2.2-6.4-3.2-13.9-2.8-23.4
	c0.4-12.3,2.8-21,7.8-27.2c3.9-4.9,9.2-7.5,15.5-7.5c0.8,0,1.7,0,2.5,0.1c8.9,0.9,17.6,7,21.5,15c4.5,9.1,4.5,20,3.9,29.5
	c-0.6,9.1-1.8,18.4-7,25.8c-1.6,2.2-3.3,4-5.3,5.4C188.2,235.4,184.4,236.5,180.4,236.5z"/>
<path class="st4" d="M161.6,128.4c-4.7,0-9.3-1.1-13.3-3.2l-2-1l-0.2-2.2c0-0.2-0.1-0.5-0.3-0.7l-2.2-2.2l1.7-2.7
	c2.4-3.9,3.7-8.4,4.7-12.3c3-12,3.8-22.7,2.4-32.6c-0.7-5-1.9-9.1-3.8-12.4l-1.2-2.2l1.5-2c0-0.1,0.1-0.1,0.1-0.2
	c2.1-4.5,7.3-7.6,14.9-9.2c2.5-0.5,4.8-0.7,6.9-0.7c2.9,0,5.5,0.5,7.7,1.5c6,2.7,10.2,9.7,12.1,20c2.5,13.7,1.5,28-3,41.2
	c-2,6.1-4.4,10.4-7.4,13.6C175.6,125.7,168.9,128.4,161.6,128.4z"/>
<path class="st3" d="M151.9,355.9c-1.6,0-3.2-0.2-4.6-0.4c-4.8-0.7-8.6-1.6-11.6-3.9c-3.7-2.8-6-7.7-7.2-15.3
	c-1.9-12-1.4-24.5,1.6-36.3c1.1-4.4,2.9-10,6.8-13.9c3.3-3.3,8.4-5.3,13.6-5.3c3,0,5.8,0.6,8.3,1.8c4.6,2.2,8.2,6.8,10.1,12.7
	c1.8,5.7,1.8,11.8,1.5,16.9c-0.4,6.8-1.3,14.2-3,23.8c-0.8,4.5-1.7,8.8-3.8,12.6c-1.9,3.4-4.6,5.8-7.6,6.7
	C154.7,355.7,153.4,355.9,151.9,355.9z"/>
<path class="st1" d="M69.9,208.7c0.1-7.4,0.2-13.6,0.3-19.5l0.1-3.9l3.9-0.1c10.4-0.2,21-0.3,31.4-0.3c13.7,0,27.5,0.2,41,0.5
	l4.1,0.1l-0.2,4.1c0,0.9-0.1,1.8-0.1,2.6c-0.2,5.2,0,9.8,0.6,14l0.6,4.4l-81.6,2.2L69.9,208.7z"/>
<path class="st2" d="M126,125.3c-5.2,0-10.3-2-14-5.5l-3-2.1l1.5-3.1c1.9-3.8,3.3-8.6,4.2-14.3c1.9-12.3,1.6-23.5-0.7-33.3
	c-0.5-2.2-1.4-5.4-3.1-8.4l-1.6-2.9l2.5-2.1c4.1-3.4,9.5-5.4,14.9-5.4c1,0,1.9,0.1,2.9,0.2c6.9,0.9,13.3,5.3,16.8,11.3
	c1.9,3.2,3.1,7.1,3.8,12.2c1.4,9.6,0.6,20-2.3,31.8c-1.2,4.7-2.7,9.6-5.7,13.6c-3.5,4.5-8.9,7.5-14.6,7.9
	C127.1,125.2,126.5,125.3,126,125.3z"/>
<path class="st0" d="M122,463.2c-4.8,0-9.5-1.3-13.6-3.6l-3.9-2.3l2.8-3.6c6.4-8.4,7.3-19.6,7.4-27.2c0.1-7.1-0.4-14.2-1.4-21.1
	c-0.7-4.3-1.6-8.9-4-12.8l-2.4-4l4.3-1.8c3.1-1.3,6.6-1.9,10.3-1.9c2.1,0,4.3,0.2,6.5,0.6c4.3,0.8,7.7,2.3,10.3,4.4
	c2.6,2.1,4.7,5.2,6.5,9.6c3.6,8.5,5.1,18.6,4.7,31c-0.2,5.5-0.8,11.9-3.5,17.6c-3.3,7-9.7,12.4-17.2,14.4
	C126.6,462.9,124.3,463.2,122,463.2z"/>
<path class="st1" d="M73.4,330.5l-0.2-3.6c-0.4-6-0.8-11.9-1.1-17.4l-0.3-4.3l54.8,0.9l-0.5,4.4c-0.7,5.8-0.9,11.7-0.5,17.5l0.3,4.4
	L73.4,330.5z"/>
<path class="st3" d="M84.5,125.3c-3.2,0-7.2-0.3-9.3-3c-0.1-0.1-0.2-0.2-0.4-0.3l-2.7-1l0.1-2.8c0.5-13.1,1-26.4,1.5-39.2l0.2-3.8
	c0.2-4.7,0.4-9.5,0.6-14.2l0.1-2.7l1.6-1.1c0.2-0.1,0.2-0.2,0.3-0.2c3.1-4.3,8.7-6.9,15-6.9c1.6,0,3.2,0.2,4.7,0.5
	c4.7,1,8.7,3.4,11.3,6.6c2,2.5,3.5,5.8,4.6,10.5c2.3,9.5,2.5,20.5,0.7,32.5c-1.7,11.2-5.4,18.4-11.1,21.9
	c-4.7,2.9-10.4,3.2-15.9,3.3C85.4,125.3,85,125.3,84.5,125.3z"/>
<path class="st3" d="M85.8,462c-1.7,0-3.3-0.2-5-0.5l-3.4-0.7l0.2-3.4c1.2-19.9,1.1-41.5-0.3-68.1l-0.2-3.2l3.1-0.8
	c3-0.8,5.9-1.2,8.7-1.2c1.8,0,3.6,0.2,5.3,0.5c5.4,1.1,10,4.1,12.8,8.2c2.5,3.7,3.5,8.4,4.2,12.8c1,6.9,1.5,13.9,1.4,20.8
	c-0.2,12.2-2.6,20.8-7.6,26.8C100.4,458.7,93.2,462,85.8,462z"/>
<path class="st0" d="M50.1,505c-10.4,0-22-1.1-28.3-9.3c-5.3-6.8-5.1-16.2-4.5-26.1c1.2-17,2.2-34.4,3-51.9
	c0.8-17.5,1.5-35.8,2.1-54.4c1.7-55.7,2-115.5,1.2-188c-0.3-27.8-0.8-56.8-1.6-94c-0.1-4.9-0.3-10-0.6-14.9l0-0.3
	C21,56,20.6,45.6,21.2,35.5c0.4-5.7,2.3-19.8,13-26.2C37.8,7.1,41.9,6,46.3,6c5,0,10,1.6,13.9,4.4c12.3,8.9,13.3,26.1,12.6,43.5
	L71.9,75c-3.1,76.4-6.3,155.3-2,232.8c0.7,12.4,1.6,25,2.5,37.2l0.1,1.4c3.3,45.9,6.7,93.3,0.3,139.4c-0.9,6.6-2.5,13.7-7.9,17
	c-3.4,2.1-7.8,2.2-11.6,2.2C52.3,505,51.2,505,50.1,505z"/>
<path class="st6" d="M501.6,469.2c-2.3-34-4-68.7-5.1-106c-1.7-55.6-2-115.3-1.2-187.8c0.3-27.3,0.8-56.3,1.6-94
	c0.1-4.9,0.3-10,0.6-14.9c0.5-10.3,1-21,0.3-31.4c-0.9-14.2-6.7-25.5-15.9-31c-9.9-5.9-23.3-5.4-32.6,1.4
	c-11.3,8.2-14.6,22-15.2,36.2c-8.6-2.3-18.2-0.2-25,5.7c-7.4,6.4-10.4,15.7-11.8,24.4c-0.8-0.5-1.7-0.8-2.7-0.7
	c-32.8,0.8-66.2-1.2-98.5-3.2c-32.1-2-65.3-4-98.2-3.3c-0.6,0-1.1,0.1-1.6,0.3c-2.3-12.1-7.6-20.4-15.4-23.9
	c-4.9-2.2-10.9-2.6-18.2-1.2c-7.9,1.6-13.8,4.8-17.2,9.4c-4.2-3.5-9.4-5.9-14.8-6.7c-8-1.1-16.5,1.5-22.6,6.7
	c-3-2.2-6.5-3.8-10.4-4.6C91,43,84.3,44,79,46.9c0-16-2.6-32.2-15.3-41.4C54.4-1.3,41-1.8,31.1,4.1c-9.2,5.6-15,16.9-15.9,31
	c-0.7,10.4-0.2,21.1,0.3,31.4c0.2,4.9,0.5,10,0.6,14.9c0.8,37.8,1.3,66.8,1.6,94c0.9,72.5,0.5,132.2-1.2,187.8
	c-1.1,37.3-2.8,72-5.1,106c-0.8,11.1-0.9,21.8,5.7,30.2c7.7,9.8,20.5,11.6,33.6,11.6c0.9,0,1.9,0,2.8,0c4.2-0.1,9.9-0.2,14.7-3.1
	c7.5-4.5,9.6-13.3,10.7-21.3c0.9-6.3,1.6-12.6,2.1-18.9c1.6,0.2,3.1,0.4,4.7,0.4c6,0,12.1-1.8,17.2-5c0.1,0.1,0.3,0.3,0.4,0.4
	c5.5,3.8,12.1,5.8,18.7,5.8c2.8,0,5.6-0.4,8.4-1.1c9.2-2.5,17.1-9.1,21.1-17.6c1.2-2.6,2.1-5.4,2.7-8.1c34.1-1.1,68.6-1,102.7,0.3
	c0.6,7,1.7,14.4,5.4,21c4.6,8.5,12.8,14.5,21.9,16c1.6,0.3,3.2,0.4,4.7,0.4c7.4,0,14.6-2.9,19.7-8c3.6,2.5,8.2,4,14,4.8
	c2,0.3,4,0.4,6,0.4c10.2,0,19-3.5,24.5-9.8c5.1,4,11.4,6.6,17.9,7.2c0.9,0.1,1.8,0.1,2.7,0.1c10,0,19.8-4.6,26.1-12.5c0,0,0,0,0-0.1
	c2.8,2.3,6,4.2,9.5,5.7c6.3,2.7,13.5,4,21.6,4c0.6,0,1.2,0,1.7,0c0.5,4.9,1,9.7,1.7,14.6c1.1,8,3.2,16.7,10.7,21.3
	c4.8,2.9,10.5,3,14.7,3.1c0.9,0,1.9,0,2.8,0c13.1,0,25.9-1.7,33.6-11.6C502.5,491,502.4,480.3,501.6,469.2z M286.1,293.4
	c4.5-5.6,10.3-6.3,14.4-5.9c7.6,0.8,15,5.9,18.4,12.8c4.1,8.3,4.1,18.1,3.5,27.4c-0.5,8.5-1.7,17.2-6.3,23.7
	c-1.3,1.8-2.7,3.3-4.3,4.4c-4.8,3.3-11.9,3.3-17.7,0.2c-5.5-3-9.9-8.6-12.3-15.7c-2.1-5.9-2.9-12.9-2.6-22
	C279.5,306.9,281.7,299,286.1,293.4z M327.9,295.9c-0.7-1.3-1.4-2.6-2.3-3.9c0.1-0.1,0.2-0.3,0.3-0.4c3-4.7,7.9-8.2,13.3-9.4
	c5.4-1.2,11.4-0.1,16,2.9c6,3.8,10.3,11.1,12,19.9c1.6,8.6,0.7,17.7-0.4,26.2c-0.8,6.5-1.8,12.9-4.7,18c-3.6,6.4-10.3,11-17.5,12
	c-6.8,1-14.1-1.3-19.2-5.9c5-8.2,6.3-17.8,6.9-27C333,318.2,333,306.3,327.9,295.9z M377.2,303.1c-1.1-5.9-3.3-11.4-6.2-16
	c5.2-2.6,10.6-5,16.1-5.6c4.9-0.6,11.4,0.3,15,4.7c2.7,3.3,3.5,8.2,4,13.1c1.2,11.5,1,23.1-0.5,34.6c-0.6,4.6-1.5,9.5-3.8,13.3
	c-1.7,2.9-4.5,5.6-8,7.8c-4,2.5-8.2,3.8-12.1,3.7c-4.1,0-8-1.7-10.4-4.3c-0.1-0.1-0.1-0.1-0.2-0.2c0,0,0,0,0,0
	c3.7-6.7,5-14.4,5.9-21.6C378,323.6,379.1,313.2,377.2,303.1z M385.8,271.5c-8,1-15.2,4.6-21.5,7.7c-1.1-0.9-2.2-1.8-3.4-2.6
	c-7-4.5-15.6-6-23.6-4.2c-7.4,1.6-14.1,6-18.5,12.2c-4.9-3.8-10.8-6.4-17-7c-9.2-1-17.8,2.5-23.4,9.6c-4.6,5.8-6.8,12.7-8,19.1
	l-51.9-1.3c-0.3,0-0.7,0-1,0.1c-0.4-4.5-1.1-8.9-2.1-13.3c-0.8-3.9-2-8.1-4.6-11.6c-4.7-6.4-13.5-9.6-22.6-8.2
	c-7.4,1.1-14,4.9-19.9,8.8c-0.3,0.2-0.6,0.4-0.8,0.7c-1.8-1.8-3.8-3.2-6-4.3c-9.3-4.5-21.7-2.6-28.8,4.6c-4.9,4.9-7,11.5-8.4,16.7
	c-0.2,0.6-0.3,1.2-0.4,1.8c-0.4-0.1-0.9-0.2-1.4-0.3L76,299.3c-0.2,0-0.3,0-0.5,0c-1.3-26.7-1.8-53.6-1.7-80.5l74.8-2
	c0.2,0,0.3,0,0.5-0.1c0.1,0.3,0.2,0.7,0.3,1.1c3.3,9.5,9.3,17,17,21.2c4.4,2.4,9.2,3.6,13.9,3.6c5.1,0,10.1-1.4,14.3-4.3
	c0.5-0.4,1-0.8,1.5-1.2c6.2,5.5,14.4,8.5,22.7,8.5c1.5,0,3-0.1,4.5-0.3c7-1,13.6-4.3,18.7-9.1c4.3,4.1,10.3,6.5,16.7,6.6h0.3
	c5.7,0,11.6-1.8,17.1-5.1c4.9-3,8.9-6.9,11.4-11.2c3-5,4.1-10.5,4.9-15.8c0.6,0.3,1.2,0.4,1.9,0.4c28.7,0.7,57.6,1.1,86.5,1.1
	c19,0,38-0.2,56.9-0.5c0.4,0,0.8-0.1,1.2-0.2c0.2,30-0.2,60.1-1.7,89.9l-20.2-1c-0.3,0-0.5,0-0.8,0c-0.1-0.8-0.1-1.5-0.2-2.3
	c-0.7-6.4-1.9-13-6.2-18.4C404.6,273.5,395.4,270.3,385.8,271.5z M218,315.1c0.1,0,0.1,0,0.1,0l51.1,1.2c0,0.6,0,1.1-0.1,1.7
	c-0.2,5.2,0,9.8,0.5,14l-52.6-0.3C217.8,326.2,218.1,320.7,218,315.1z M166.4,312c-0.4,6.7-1.3,13.9-3,23.3
	c-0.8,4.3-1.6,8.2-3.4,11.3c-1.4,2.5-3.3,4.2-5.3,4.8c-2,0.6-4.5,0.3-6.9,0c-4.2-0.6-7.4-1.3-9.7-3.1c-2.8-2.2-4.6-6.2-5.7-12.8
	c-1.8-11.4-1.3-23.4,1.6-34.6c1-3.9,2.6-8.9,5.8-12.1c4.1-4.1,11.8-5.3,17.3-2.7c3.6,1.7,6.5,5.5,8,10.3
	C166.7,301.6,166.6,307.2,166.4,312z M173.3,337.1c1.8-9.8,2.7-17.4,3.1-24.6c0.3-5.4,0.3-12.4-1.8-19.1c-0.4-1.4-0.9-2.7-1.5-3.9
	c0.2-0.1,0.4-0.2,0.6-0.3c5.8-3.8,10.8-6.5,16-7.3c4.4-0.7,10.2,0.4,13,4.2c1.4,1.9,2.2,4.5,2.9,7.8c3,13.9,3.2,28.6,0.7,42.6
	c-1.7,9.3-4.9,15.1-9.6,17.2c-2.5,1.1-5.6,1.2-8.4,1.1c-8.3-0.2-14.5-1.9-18.6-5.2C171.6,345.7,172.5,341.4,173.3,337.1z
	 M108.2,124.5c4.8,4.3,11.4,6.8,17.9,6.8c0.7,0,1.4,0,2-0.1c4.6-0.4,9.1-2,12.9-4.6c0.9,1.6,2.5,3,4.5,4c5.1,2.6,10.7,3.9,16.1,3.9
	c8.7,0,17-3.2,22.8-9.2c4.8-5,7.3-11.4,8.7-15.8c0.2-0.7,0.5-1.4,0.7-2.1l203.6-0.5c0.4,0,0.8-0.1,1.2-0.2
	c2.9,8.7,8.4,15.8,15.4,19.7c5.4,3,11.2,3.9,16.3,3.9c2.4,0,4.7-0.2,6.8-0.5c0.5,14.3,1,28.7,1.3,43.1c-0.3-0.1-0.7-0.1-1-0.1
	c0,0,0,0,0,0c-47.7,0.4-96.1,1.4-143.9,2.8c-0.1-1.1-0.2-2.1-0.3-3.2c-0.7-6.4-1.9-13-6.2-18.4c-5.2-6.4-14.4-9.6-24-8.4
	c-8,1-15.2,4.6-21.5,7.7c-1.1-0.9-2.2-1.8-3.4-2.6c-7-4.5-15.6-6-23.6-4.2c-7.4,1.6-14.1,6-18.5,12.2c-4.9-3.8-10.8-6.4-17-7
	c-9.3-1-17.8,2.5-23.4,9.6c-4.3,5.5-6.6,12-7.8,18.1c-24.3-0.5-48.9-0.6-73.3-0.2c0.4-16.5,0.8-33,1.4-49.4c3.1,1.2,6.3,1.4,8.6,1.4
	c0.6,0,1.1,0,1.5,0c6-0.1,13-0.6,18.9-4.2C106,126.3,107.1,125.4,108.2,124.5z M294,185.6c47.6-1.4,95.9-2.3,143.4-2.8
	c0.4,0,0.8-0.1,1.2-0.2c0.1,6.4,0.2,12.8,0.3,19.2c-0.4-0.1-0.8-0.2-1.2-0.2c0,0-0.1,0-0.1,0c-47.4,0.8-95.5,0.6-143-0.6
	c-0.4,0-0.8,0-1.1,0.1C294,196,294.1,190.8,294,185.6z M163.3,167.6c3.8-4.8,8.5-6,12.4-6c0.7,0,1.4,0,2,0.1
	c7.6,0.8,15,5.9,18.4,12.8c4.1,8.3,4,18.5,3.5,27.4c-0.5,8.5-1.7,17.2-6.3,23.7c-1.3,1.8-2.7,3.3-4.3,4.4
	c-4.8,3.3-11.9,3.3-17.7,0.2c-5.5-3-9.9-8.6-12.3-15.7c-2.1-5.9-2.9-12.9-2.6-22C156.7,181.1,158.9,173.1,163.3,167.6z M205.1,170.1
	c-0.7-1.3-1.4-2.6-2.3-3.9c0.1-0.1,0.2-0.3,0.3-0.4c3-4.7,7.9-8.2,13.3-9.4c5.4-1.2,11.4-0.1,16,2.9c6,3.8,10.3,11.1,12,19.9
	c1.6,8.6,0.7,17.7-0.4,26.2c-0.8,6.5-1.8,12.9-4.7,18c-3.6,6.4-10.3,11-17.5,12c-6.8,1-14.1-1.3-19.2-5.9c5-8.2,6.3-17.8,6.9-27
	C210.2,192.3,210.2,180.5,205.1,170.1z M254.4,177.3c-1.1-5.9-3.3-11.4-6.2-16c5.2-2.6,10.6-5,16.1-5.6c4.9-0.6,11.4,0.3,15,4.7
	c2.7,3.3,3.5,8.2,4,13.1c1.2,11.5,1,23.1-0.5,34.6c-0.6,4.6-1.5,9.5-3.8,13.3c-1.7,2.9-4.5,5.6-8,7.8c-4,2.5-8.2,3.8-12.1,3.7
	c-4.1,0-8-1.7-10.4-4.3c-0.1-0.1-0.1-0.1-0.2-0.2c0,0,0,0,0,0c3.7-6.7,5-14.4,5.9-21.6C255.2,197.7,256.3,187.3,254.4,177.3z
	 M74.2,189.3c24-0.4,48.3-0.3,72.3,0.2c-0.1,0.9-0.1,1.8-0.1,2.7c-0.2,5.4,0,10.2,0.6,14.6l-73,2C74,202.3,74.1,195.8,74.2,189.3z
	 M76.1,309.3l46,0.8c-0.8,6.1-0.9,12.2-0.5,18.3l-44.4-1.7C76.8,320.9,76.4,315.1,76.1,309.3z M416.8,310.5l20,0.9
	c-0.5,7.9-1,15.8-1.6,23.7c-6.6-0.2-13.2-0.3-19.7-0.1C416.6,326.9,417,318.7,416.8,310.5z M406.5,79.6c0.7-8.5,2.4-18.9,9.2-24.7
	c4.5-3.9,11.4-5.2,17-3.2c0.5,0.2,1,0.2,1.4,0.3c0,0.7,0,1.4,0.1,2.1c0.3,7.1,0.6,14.1,0.9,21.2c0.6,14.7,1.2,29.6,1.8,44.5
	c-4.9,0.9-12,1.2-17.9-2.1c-5.2-2.9-9.4-8.7-11.3-15.9C405.6,94.3,405.9,86.4,406.5,79.6z M198,74.5c0,0,0.1,0,0.1,0
	c32.4-0.8,65.4,1.3,97.3,3.3c27.4,1.7,55.7,3.4,83.8,3.4c5.2,0,10.4-0.1,15.6-0.2c0.5,0,1-0.1,1.5-0.3c-0.4,5-0.5,10.5,0.1,16.1
	l-200.1,0.5c1.4-7.5,1.8-15.2,1.2-22.8C197.7,74.5,197.9,74.5,198,74.5z M164.6,49.5c5.2-1,9.2-0.9,12.1,0.5
	c6.1,2.8,8.7,10.8,9.8,17c2.4,13.1,1.4,26.6-2.8,39.2c-1.9,5.5-3.9,9.4-6.5,12.1c-6.2,6.6-17.9,8-27,3.4c-0.1-1.2-0.6-2.3-1.5-3.2
	c2.7-4.3,4.1-9.1,5.2-13.4c3.1-12.5,3.9-23.7,2.4-34.1c-0.8-5.5-2.2-10-4.2-13.8c0.2-0.2,0.3-0.5,0.5-0.8
	C154.5,52.3,160.2,50.4,164.6,49.5z M129.2,52.3c5.7,0.8,11,4.3,13.9,9.3c1.6,2.8,2.6,6.2,3.3,10.8c1.3,9.1,0.5,19-2.2,30.3
	c-1.1,4.3-2.4,8.7-5,12.1c-2.8,3.6-7.2,6-11.8,6.4s-9.3-1.3-12.7-4.4c-0.1-0.1-0.3-0.3-0.5-0.4c2.1-4.2,3.6-9.4,4.6-15.5
	c2-12.8,1.7-24.5-0.8-34.8c-0.6-2.6-1.6-6.1-3.5-9.4C118.5,53.3,124,51.6,129.2,52.3z M79.7,59.1c3-4.2,9.5-6.2,15.7-4.9
	c3.8,0.8,7,2.7,9,5.2c1.6,2.1,2.8,4.8,3.8,8.9c2.2,9,2.4,19.5,0.6,31c-1.5,10-4.6,16.2-9.3,19.1c-3.8,2.3-8.9,2.6-13.9,2.8
	c-2.6,0.1-6.1,0-7.3-1.5c-0.6-0.7-1.3-1.2-2.1-1.5c0.5-14.4,1.1-28.7,1.7-43c0.2-5,0.4-10,0.6-15C79,59.9,79.4,59.6,79.7,59.1z
	 M68.9,485.2c-0.8,5.6-2.1,11.7-6,14.1c-2.5,1.5-6.3,1.6-9.6,1.6c-10.6,0.2-22.5-0.3-28.3-7.7c-4.4-5.7-4.2-14.3-3.6-23.4
	c2.3-34.1,4-68.9,5.1-106.4c1.7-55.7,2-115.5,1.2-188.2c-0.3-27.2-0.8-56.2-1.6-94.1c-0.1-5-0.3-10.2-0.6-15.1
	c-0.5-10-0.9-20.4-0.3-30.3c0.3-5.1,2-17.6,11.1-23.1c6.5-3.9,15.4-3.6,21.6,0.9c10.7,7.8,11.6,23.9,11,40.1
	c-0.3,7-0.6,14.1-0.9,21.1c-3.1,76.4-6.3,155.4-2,233.2c0.7,12.9,1.7,26,2.6,38.7C71.8,392.3,75.2,439.5,68.9,485.2z M81.6,457.6
	c1.4-22.8,0.9-45.8-0.3-68.5c4.3-1.2,8.5-1.4,12.2-0.6c4.4,0.9,8.1,3.3,10.3,6.5c2.1,3.1,2.9,7.2,3.5,11.2c1,6.7,1.5,13.4,1.4,20.1
	c-0.2,11.3-2.3,19-6.7,24.3C97.2,456.4,89,459.2,81.6,457.6z M145.4,430.2c-0.2,5.1-0.7,11-3.1,16c-2.8,6-8.3,10.5-14.6,12.2
	c-5.8,1.6-12.2,0.7-17.3-2.3c7.1-9.3,8.2-21.3,8.3-29.6c0.1-7.3-0.4-14.6-1.5-21.8c-0.7-4.8-1.8-9.8-4.5-14.3
	c4.2-1.7,9.3-2.1,14.5-1c3.6,0.7,6.5,1.9,8.5,3.5c2,1.7,3.8,4.3,5.4,8C144.5,408.8,145.9,418.4,145.4,430.2z M155.4,432.4
	c0-0.6,0.1-1.2,0.1-1.8c0.2-6.3,0-12.1-0.8-17.4c33.8,0.7,68.1,1.3,101.8,1.7c-0.4,5.9-0.5,11.9-0.3,17.9
	C222.8,431.4,188.9,431.3,155.4,432.4z M257.5,404.9c-0.1,0-0.2,0-0.3,0c-34.4-0.4-69.3-1-103.7-1.8c-0.3,0-0.6,0-0.9,0.1
	c-0.6-2.1-1.3-4.2-2.2-6.2c-2.2-5.3-4.9-9.1-8.2-11.9c-3.4-2.8-7.6-4.6-13-5.6c-5.6-1.1-14-1.5-22.1,2.4c-0.5,0.3-1,0.6-1.4,1
	c-3-2-6.4-3.5-10.1-4.3c-4.6-1-9.6-0.8-14.8,0.3c-0.7-11.1-1.5-22.1-2.2-33c-0.2-3.1-0.4-6.1-0.7-9.3l44.9,1.7
	c1,5.7,3.2,13.2,9.3,17.9c4.3,3.3,9.5,4.4,14.5,5.1c1.7,0.2,3.5,0.5,5.5,0.5c1.9,0,3.8-0.2,5.7-0.8c2.2-0.7,4.3-1.8,6.1-3.4
	c5.8,4.6,14,7,24.4,7.2c0.4,0,0.9,0,1.4,0c3.5,0,7.5-0.3,11.2-2c7.3-3.2,12.2-10.4,14.8-21.4c0.4,0.1,0.8,0.2,1.3,0.2l54.5,0.3h0
	c0.2,0,0.4,0,0.5-0.1c0.2,0.5,0.3,1.1,0.5,1.6c3.3,9.5,9.3,17,17,21.2c4.4,2.4,9.2,3.6,13.9,3.6c5.1,0,10.1-1.4,14.3-4.3
	c0.5-0.4,1-0.7,1.5-1.2c6.2,5.4,14.4,8.5,22.7,8.5c1.5,0,3-0.1,4.5-0.3c7-1,13.6-4.3,18.7-9.1c4.3,4.1,10.3,6.5,16.7,6.6
	c0.1,0,0.2,0,0.3,0c5.7,0,11.6-1.8,17.1-5.1c4.9-3,8.9-6.9,11.4-11.2c1.4-2.3,2.3-4.7,3.1-7.2h0c7-0.2,14-0.2,21,0
	c0,0.3,0,0.6-0.1,0.8c-0.7,9.6-1.4,19.4-2,29.1c-8.7-2.2-18.6-0.2-26.5,5.5c-2.4,1.7-4.4,3.6-6.2,5.6c-8.8-6.2-19.5-8.8-29.7-7.1
	c-6.4,1-12.5,3.9-17.4,7.9c-0.4-1.3-1.3-2.4-2.7-3c-9.1-4.2-17.1-5.6-24.5-4.5c-6.9,1-13.2,4.5-18.4,9.6c-0.2-0.2-0.3-0.4-0.5-0.6
	c-6.7-6.8-19.7-10.9-33.7-4.8c-3.3,1.4-5.8,3.1-7.9,5.1C260.3,393,258.4,399,257.5,404.9z M285.8,469.9c-6-1-11.7-5.2-14.8-11
	c-2.9-5.4-3.8-11.9-4.3-18.2c-0.7-9.8-0.7-19.8,0.1-29.6c0.5-5.9,1.5-11.8,5-15.3c1.2-1.2,2.8-2.2,4.9-3.1
	c6.7-2.9,16.6-3.3,22.6,2.7c0.5,0.5,1,0.9,1.6,1.1c-2.1,3.4-3.8,7.1-5,11.1c-3.9,13.2-2.3,27.3-0.2,39.4c1.1,6.3,2.6,12.7,5.9,17.9
	C297.8,468.9,291.6,470.9,285.8,469.9z M323.7,467c-4.4-0.6-7.7-1.7-10-3.4c-5-3.7-6.8-11-8.1-18.3c-2-11.5-3.4-23.6,0-34.8
	c2.8-9.4,10.5-19.6,21.3-21.2c5.4-0.8,11.5,0.4,18.8,3.7c0.2,0.1,0.5,0.2,0.8,0.3c-1,1.3-1.8,2.6-2.6,4c-2.5,4.6-4,10-4.9,17.1
	c-1,8-1,16.4,0.1,24.9c0.6,5.3,1.8,12.2,5.3,18.5c0.5,0.9,1,1.7,1.6,2.5c-0.2,0.2-0.3,0.3-0.5,0.5
	C341.4,465.9,333.3,468.2,323.7,467z M391.8,456c-4.7,5.9-12.6,9.3-20.1,8.6c-7.5-0.6-14.7-5.3-18.4-11.9
	c-2.7-4.7-3.6-10.4-4.1-14.8c-0.9-7.7-1-15.2-0.1-22.4c0.7-5.8,1.9-10.1,3.8-13.6c3.6-6.8,10.8-11.8,18.8-13.1
	c7.5-1.2,15.7,0.8,22.3,5.4c-1.8,3.2-3.1,6.4-4,9.1c-2.4,7.5-3.5,15.9-3.4,26.5c0.1,6.2,0.5,13.5,3.6,20.2c0.8,1.7,1.7,3.4,2.8,4.9
	C392.5,455.3,392.1,455.6,391.8,456z M413.1,458.8c-6.4-2.7-11.4-7.4-13.9-12.8c-2.2-4.9-2.6-10.9-2.7-16.1
	c-0.1-9.5,0.8-16.9,2.9-23.3c2.5-7.6,6.8-14,12.3-17.9c5.9-4.2,13.3-5.6,19.4-3.6c0.2,0.1,0.4,0.1,0.7,0.2
	c-1.4,25.5-2,51.2-0.2,76.7C424.5,462.1,418.3,461,413.1,458.8z M488,493.3c-5.8,7.4-17.6,7.9-28.3,7.7c-3.3-0.1-7.1-0.1-9.6-1.6
	c-3.9-2.4-5.2-8.5-6-14.1c-6.3-45.7-2.9-92.9,0.4-138.5c0.9-12.7,1.9-25.8,2.6-38.7c4.4-77.7,1.1-156.7-2-233.2
	c-0.3-7-0.6-14.1-0.9-21.2c-0.6-16.2,0.2-32.3,11-40.1c3.3-2.4,7.4-3.6,11.5-3.6c3.5,0,7,0.9,10,2.7c9,5.5,10.8,18,11.1,23.1
	c0.6,9.9,0.1,20.3-0.3,30.3c-0.2,5-0.5,10.1-0.6,15.1c-0.8,37.7-1.3,66.7-1.6,94.1c-0.9,72.7-0.5,132.5,1.2,188.2
	c1.1,37.5,2.8,72.3,5.1,106.4C492.2,478.9,492.4,487.6,488,493.3z"/>
</svg>
