<?xml version="1.0" encoding="utf-8"?>
<!-- Generator: Adobe Illustrator 25.2.3, SVG Export Plug-In . SVG Version: 6.00 Build 0)  -->
<svg version="1.1" id="Capa_1" xmlns="http://www.w3.org/2000/svg" xmlns:xlink="http://www.w3.org/1999/xlink" x="0px" y="0px"
	 viewBox="0 0 512 512" style="enable-background:new 0 0 512 512;" xml:space="preserve">
<style type="text/css">
	.st0{fill:#FFFFFF;}
	.st1{fill:#8CBEA3;}
	.st2{fill:#E1B946;}
	.st3{fill:#D4B1A6;}
	.st4{fill:#CFCB9D;}
	.st5{fill:#CC644F;}
	.st6{fill:#282828;}
</style>
<path class="st0" d="M259,110.7c-19.1,0-37.6-3.6-54.9-10.8c-5.8-2.4-19.1-9.1-18.1-20.1c0.6-6.9,6.7-12.5,18.1-16.6
	c17.3-6.3,36.4-9.6,55.2-9.6c3.2,0,6.4,0.1,9.6,0.3c7.8,0.5,34.7,3,50.8,15.9c5.8,4.6,10,13.4,6.4,20.6c-2.6,5.2-8.3,8-13.6,10.2
	C295.5,107.2,277.5,110.7,259,110.7z"/>
<path class="st1" d="M463.3,375.3c10.2-57.9-6.5-115.9-22.2-154.3c-32.9-80.2-77.7-116.2-109.5-132.3l-2.3-1.1l0.1-2.5
	c0.1-4.1-1.3-8.4-4.1-12.3l-3.1-4.4l5.1-1.7c13.3-4.5,27.3-6.9,41.6-6.9c14.9,0,29.4,2.5,43.1,7.4c0.1,0,0.2,0.1,0.4,0.1l0.7,0.2
	l0.6,0.4c9.6,7,18.5,14.7,26.6,23c23.3,23.8,41.5,53.6,52.8,86.1c11.2,32.5,15.3,67.2,11.8,100.3c-1.6,14.7-4.6,29.6-9.1,44.2
	c-5.8,19.1-14.2,38.2-24.9,56.6L463.3,375.3z"/>
<path class="st2" d="M327.4,479.2c33.2-49.2,47.1-112.9,39.2-179.2c-6.8-57.3-28-117.1-66.6-188.1l-2.3-4.3l4.7-1.4
	c3.7-1.2,7.4-2.5,10.9-3.8c5.1-2,10.6-4.8,13.8-9.6l2-3l3.2,1.7c56.1,29.1,89.2,87,107,130.4c19.1,46.5,37.2,115.6,15.1,180.8
	l-0.2,1l-0.5,0.7c-7,9.6-14.7,19.1-22.9,28.1c-21.9,23.9-58,43.2-99,52.9l-9.9,2.3L327.4,479.2z"/>
<path class="st3" d="M318.2,66c-4.9-3.3-15.8-9.3-33.5-12.5l-6.9-1.2l4.6-5.3c7.7-8.8,17.3-15.9,27.9-20.4c0.1,0,0.2-0.1,0.3-0.2
	L312,25l2,0.4c3.4,0.7,6.7,1.4,10.1,2.2c22.4,5.3,43.6,13.2,62.9,23.6l-2.4,7.5c-5.2-0.6-10.5-0.9-15.8-0.9c-16.3,0-32.1,2.9-47,8.7
	l-1.9,0.8L318.2,66z"/>
<path class="st1" d="M273.8,491.9c-21.2,0-44.4-2.5-68.8-7.3l-1.5-0.3l-0.9-1.3c-0.1-0.1-0.1-0.2-0.2-0.3
	c-23.6-29-33.8-66-40.6-98.4c-12.4-59.1-13.6-105.9-3.7-147.4c10.1-42.2,33.4-84,69.2-124.2c0,0,0.1-0.1,0.1-0.2l1.3-2.9l3.1,0.6
	c9,1.7,18.1,2.5,27.2,2.5c11.4,0,22.8-1.3,33.9-3.9l4-0.9l0.9,4c0,0.2,0.1,0.3,0.1,0.3c38.7,71.1,60,130.9,66.8,188.2
	c8.3,70.2-7.7,136.4-45.1,186.5l-0.9,1.3l-1.5,0.3c-0.7,0.1-1.5,0.3-2.2,0.4C301.8,490.8,288,491.9,273.8,491.9z"/>
<path class="st4" d="M231.7,51.2c-2.9-4.8-6.6-10.4-11.3-14.9c-1.8-1.8-4.5-3.7-7.4-5.4l-9.6-5.7l11-1.7c14.5-2.3,29.4-3.4,44.2-3.4
	c13,0,26.2,0.9,39.1,2.7l11.1,1.5l-9.5,5.9c-8.6,5.3-16.3,12.4-22.2,20.4l-1.3,1.8l-2.2-0.2c-1.4-0.1-2.9-0.2-4.4-0.3
	c-3.2-0.2-6.5-0.3-9.7-0.3c-7.9,0-15.8,0.6-23.6,1.7l-2.6,0.4L231.7,51.2z"/>
<path class="st2" d="M83.8,85c7.7-6.9,15.8-13.3,24.1-19.2c25.3-17.7,53.3-30.4,83-37.7c1.5-0.4,3-0.7,4.5-1l1.3-0.3l1.2,0.6
	c0.2,0.1,0.3,0.1,0.4,0.1c6,0.7,15.5,5.4,20.5,10.3c3,2.9,5.8,6.3,8.8,11.1l3.2,4.9l-5.7,1.2c-7.5,1.6-14.9,3.7-21.9,6.2
	c-7.1,2.6-12.4,5.9-15.7,9.8l-1.4,1.6l-2.1-0.2c-4.9-0.6-10-0.8-15.1-0.8c-26.5,0-55.2,7.1-80.8,20L83.8,85z"/>
<path class="st4" d="M190,481.4c-5-1.2-10-2.4-14.7-3.6C134,467,98.5,446.6,69.8,417.4l-0.7-0.7l-0.3-1c0-0.1,0-0.2-0.1-0.2
	c-0.5-1.3-1-2.6-1.5-3.9l-0.8-2.1c-6.2-16.6-12.1-32.3-12.9-49.5c-0.7-17.2,0.9-34.5,2.7-49.2c4.2-35.8,11.9-82,34-121.9
	c19.8-35.8,51.9-67.9,95.1-95.5l2.6-1.7l2.3,2.1c3.3,3.1,7.7,5.8,13,8c5.7,2.4,11.7,4.4,17.9,6l6.2,1.7l-4.2,4.8
	c-34.6,39.5-57.1,80.6-67.1,122.1c-10,41.8-8.9,88.9,3.7,148.3c6.1,29,15,62.5,34.4,90.5l5.9,8.5L190,481.4z"/>
<path class="st5" d="M51.1,395.8c-4.1-5.5-8.1-11.1-11.6-16.8c-44.7-70.6-44.6-167.5,0-241c4.8-7.9,10.3-15.7,16.3-23.3l0.9-1.1
	l1.4-0.3c0.1,0,0.3-0.1,0.4-0.2c29.2-24.1,72.8-39.6,111-39.6c3.7,0,7.4,0.1,11,0.4l4.3,0.4l-0.6,4.2c-0.1,0.3-0.1,0.7-0.1,1
	c-0.2,2.5,0.2,5,1.3,7.4l1.4,3.1l-2.9,1.9c-43.3,27.6-75.3,59.9-95.2,95.8c-22.3,40.3-30,86.7-34.3,122.6
	c-1.7,14.8-3.4,32.2-2.7,49.5c0.4,9.6,2.5,19.8,6.6,32.2L51.1,395.8z"/>
<path class="st6" d="M498.7,175c-11.5-33.3-30.3-63.8-54.1-88.3c-30.7-31.4-71.9-53.9-119-65c-44.6-10.5-91.6-10.3-135.9,0.5
	c-30.5,7.4-59.1,20.4-85.1,38.6c-28.6,20-52.8,45.6-70.1,74.1c0,0,0,0,0,0c-45.8,75.4-45.8,174.8,0,247.4
	c32.1,50.8,80.3,85.9,139.4,101.3c36.7,9.6,69.8,14.4,100,14.4c14.6,0,28.6-1.1,42-3.3c48.8-8.1,93.4-29.8,119.3-58.1
	c31.1-34.1,54.1-73.3,66.3-113.3c4.6-15,7.7-30.2,9.3-45.3C514.4,243.9,510.2,208.3,498.7,175z M385.2,54.7
	c-21.8-2.6-44.3,0.1-64.8,8c-5.6-3.8-17-9.8-35-13.1c7.2-8.3,16.3-15,26.4-19.3c0.6-0.2,1.1-0.6,1.5-1c3.3,0.7,6.6,1.4,9.9,2.1
	C345.4,36.7,366.2,44.5,385.2,54.7z M205.6,96.1c-3.9-1.6-16.4-7.5-15.6-16.1c0.6-6.5,8.8-10.8,15.5-13.3
	c19.9-7.2,41.8-10.4,63.2-9.1c7.5,0.5,33.3,2.9,48.5,15c4.6,3.7,7.8,10.6,5.3,15.7c-2,3.9-6.9,6.4-11.6,8.2
	C277.4,110.2,239,110,205.6,96.1z M297.1,26.7c-9,5.6-17.1,12.9-23.3,21.4c-1.5-0.1-3-0.3-4.5-0.4c-11.4-0.7-22.8-0.2-34.1,1.4
	c-3.3-5.5-7.1-11.1-12-15.7c-2.1-2-4.9-4.1-8.1-6C242.1,23.2,269.9,22.9,297.1,26.7z M110.2,69.1c24.9-17.4,52.4-29.9,81.7-37.1
	c1.5-0.4,2.9-0.7,4.4-1c0.5,0.2,1,0.4,1.6,0.5c5.2,0.6,13.8,4.9,18.2,9.2c3.1,3,5.7,6.4,8.3,10.4c-7.6,1.6-15.1,3.7-22.4,6.4
	c-8.7,3.2-14.1,7-17.4,10.9c-31.2-3.5-67.3,4-98.2,19.6C94,81.2,101.9,74.9,110.2,69.1z M42.9,140.1c4.8-7.9,10.1-15.5,16-22.9
	c0.7-0.2,1.5-0.5,2.1-1C92.8,90.1,141,74.7,180.1,78c-0.1,0.4-0.1,0.8-0.1,1.2c-0.3,3.3,0.3,6.4,1.6,9.5
	c-43.8,28-76.3,60.7-96.6,97.2C62.3,226.7,54.5,273.6,50.2,310c-1.8,14.9-3.5,32.6-2.7,50.2c0.5,11.5,3.3,22.6,6.8,33.3
	c-4-5.3-7.8-10.8-11.4-16.5C-1,307.5-1,212.4,42.9,140.1z M72.6,414.6c0-0.1-0.1-0.3-0.1-0.4c-0.8-2.1-1.5-4.1-2.3-6.2
	c-6.1-16.3-11.9-31.8-12.6-48.3c-0.7-16.9,0.9-34,2.6-48.5C64.4,275.7,72,230,93.8,190.7c19.5-35.2,51.1-66.8,93.8-94
	c3.6,3.3,8.3,6.3,14.2,8.7c6,2.5,12.1,4.5,18.4,6.2c-35,40-57.8,81.6-68,123.8c-10.2,42.4-9,90,3.6,150.1
	c6.3,29.9,15.4,63.6,35,91.9c-4.8-1.1-9.6-2.3-14.6-3.6C135.8,463.3,100.6,443.1,72.6,414.6z M205.8,480.7c-0.1-0.1-0.1-0.2-0.2-0.3
	c-23.2-28.4-33.2-64.9-39.9-96.9c-12.3-58.5-13.5-104.8-3.7-145.6c10-41.6,33-82.8,68.3-122.5c0.3-0.4,0.6-0.8,0.8-1.3
	c9.2,1.7,18.6,2.6,27.9,2.6c11.7,0,23.4-1.4,34.8-4.1c0.1,0.5,0.2,0.9,0.5,1.3c38.5,70.6,59.6,129.9,66.3,186.7
	c8.2,69.2-7.5,134.4-44.3,183.7c-0.7,0.1-1.4,0.2-2.1,0.4C282,490,246.3,488.7,205.8,480.7z M427.7,429.8
	c-21.5,23.5-57,42.2-97,51.7c33.8-50.1,47.9-114.2,39.9-181.9c-6.9-57.9-28.2-118.1-67-189.5c3.8-1.2,7.5-2.5,11.2-4
	c5.7-2.3,12-5.4,15.7-11.1c54.9,28.5,87.5,85.3,105.1,128.4c18.8,45.9,36.7,114,14.9,178.1c-0.1,0.2-0.1,0.4-0.1,0.6
	C443.4,411.6,435.8,420.8,427.7,429.8z M500.7,276.8c-1.5,14.4-4.6,29.1-8.9,43.4c-5.8,18.9-14.1,37.7-24.5,55.8
	c10.2-58-5.8-115.8-22.5-156.5c-33.3-81-78.6-117.8-111.4-134.3c0.1-5.3-1.8-10.5-4.8-14.8c26.4-9,56-8.9,82.2,0.6
	c0.1,0.1,0.3,0.1,0.4,0.1c9.4,6.9,18.1,14.4,26.1,22.6c22.9,23.4,40.8,52.7,51.8,84.6C500.2,210.2,504.2,244.3,500.7,276.8z"/>
</svg>
