<?xml version="1.0" encoding="utf-8"?>
<!-- Generator: Adobe Illustrator 25.2.3, SVG Export Plug-In . SVG Version: 6.00 Build 0)  -->
<svg version="1.1" id="Capa_1" xmlns="http://www.w3.org/2000/svg" xmlns:xlink="http://www.w3.org/1999/xlink" x="0px" y="0px"
	 viewBox="0 0 511 511" style="enable-background:new 0 0 511 511;" xml:space="preserve">
<style type="text/css">
	.st0{fill:#CC644F;}
	.st1{fill:#E1B946;}
	.st2{fill:#CFCB9D;}
	.st3{fill:#8CBEA3;}
	.st4{fill:#282828;}
</style>
<path class="st0" d="M380.2,483.7c-12.5,0-26-1.7-40-5.1c-20.9-5.1-40.3-13.6-56.1-24.7c-17.9-12.6-30.7-27.9-38-45.6
	c-6-14.5-8.6-31.2-8-51.1c1.1-37.5,13.6-72.6,35.1-98.7c13.1-16,29.9-28.7,48.6-36.8c13.2-5.7,27.8-8.6,43.4-8.6
	c18,0,37.1,4,55.1,11.5c31.7,13.3,58.1,37.8,72.6,67.1c6.1,12.4,9.9,24.8,11.3,37c1.7,14.8,0.2,30.9-4.6,49.3
	c-6.2,23.5-15.8,43.8-28.7,60.4c-14.5,18.7-33,32.3-53.3,39.3C406.3,481.8,393.7,483.7,380.2,483.7z M366.8,244.5
	c-12.1,0-23.4,2.2-33.5,6.6c-14.4,6.2-27.3,16-37.4,28.3c-16.5,20-26,46.9-26.9,75.6c-0.5,15.3,1.6,28.1,6.2,39.3
	c10.7,25.8,37,45.6,72.3,54.1c10.8,2.6,21.1,3.9,30.6,3.9c10.3,0,20-1.5,28.9-4.6c15.7-5.4,29.9-15.8,41.1-30.2
	c9.9-12.7,17.3-28.3,22-46.3c3.7-14.1,4.8-26.5,3.5-37.9c-1.1-9.4-4-19-8.7-28.5c-11.1-22.6-31.4-41.4-55.7-51.6
	C395.3,247.6,380.7,244.5,366.8,244.5z"/>
<g>
	<path class="st1" d="M79.8,382.3l-0.5-0.2c-0.2-0.1-0.5-0.2-0.7-0.3c-4.1-1.7-8.4-3-12.7-3.8l-3.7-0.7l0.4-3.7
		c3.8-34.2,24-67.5,61.7-102c32.7-29.9,69.7-54.5,109.8-73c17-7.8,34.7-14.7,51.8-21.3c21.6-8.3,43.8-16.9,65-27.6
		c22.4-11.4,38.6-22.9,51.1-36.3c6.1-6.5,19.6-23.5,12.3-39.6c-4.2-9.3-14.9-15.4-27.2-15.5h-0.3c-9.4,0-18.3,3.1-25.8,6.2l-4.6,1.9
		l-0.9-4.9c-0.1-0.4-0.1-0.7-0.2-1.1c-0.9-5.4-1.8-9.5-2.7-13.2l-0.8-3.3l3.1-1.4c12.8-5.7,27-8.7,41.1-8.7c5.7,0,11.3,0.5,16.8,1.4
		c13.9,2.4,24.2,7.6,30.5,15.3c10.8,13.3,9,32.7,3.7,46.6c-9.7,25.3-30.6,42.6-46.5,52.8c-18.6,11.9-39.5,20.3-59.8,28.4l-5.3,2.1
		c-51.6,20.7-111.5,47.1-165,85.1c-49.6,35.3-78.3,73.5-85.2,113.7l-0.9,5L79.8,382.3z"/>
	<path class="st1" d="M373,370.2c-2,0-4.2-0.3-6.5-0.8c-7.3-1.8-13-6-15.1-11.2c-0.9-2.3-1.4-5-1.3-8.2c0.2-6.1,2.2-11.8,5.7-16
		c2.1-2.6,4.8-4.6,7.8-5.9c2.1-0.9,4.4-1.4,6.9-1.4c2.9,0,6,0.6,8.9,1.9c5.1,2.1,9.4,6.1,11.7,10.8c1,2,1.6,4,1.8,5.9
		c0.3,2.4,0,5-0.7,7.9c-1,3.8-2.6,7.1-4.6,9.8c-2.3,3-5.3,5.2-8.5,6.3C377.1,369.9,375.1,370.2,373,370.2z"/>
	<path class="st1" d="M352,326.5c-5.6-23.1-11.8-46.5-18.5-69.4l-1-3.5l3.4-1.4c4.5-1.8,9.4-3.2,14.3-4.2l3.8-0.7l0.9,3.7
		c5.4,22.8,11.2,45.9,17.2,68.6l1.2,4.5l-4.7,0.4c-2,0.2-3.9,0.7-5.7,1.5c-1.6,0.7-3.1,1.6-4.5,2.6l-4.8,3.6L352,326.5z"/>
</g>
<path class="st2" d="M341.8,86c-2.9,0-5.9-1.2-8.4-3.3c-2.5-2.1-4.6-5.1-6.6-9.3c-5.1-11-6.2-24-3.1-35.7c0.5-1.9,1.2-4,2.4-5.7
	c2.2-3,6.4-4.9,10.4-4.9c0.2,0,0.3,0,0.5,0c3.9,0.2,5.9,2.1,6.9,3.6c5.6,8.9,8,22.7,9.3,30.1c0.9,5,1.5,10.3,0,15.2
	c-1.5,5.1-5.4,9.1-9.8,9.9C343,85.9,342.4,86,341.8,86z"/>
<path class="st1" d="M320.4,215.1L320.4,215.1c-2.2-6.8-3.9-13.8-5-20.9l-0.5-3.1l2.9-1.2c5.7-2.4,11.6-4.8,17.7-7.2l4.1-4.1l2,6.3
	l7,22.5l0,0l1.7,4.5l-4.8,0.8c-6.9,1.1-13.5,2.9-19.8,5.2l-4,1.5L320.4,215.1z"/>
<path class="st3" d="M284,85.7c-6.6,0-13.3-0.6-19.7-1.8c-8-1.5-18-5.1-20.2-13.7c-1.2-4.8,0.6-10.5,4.7-14.6
	c3.4-3.4,8.3-5.8,14.6-7.4c7.3-1.8,14.7-2,21.7-2c2,0,3.9,0,5.9,0c1.9,0,3.7,0,5.6,0c5.6,0,12.3-0.2,18.7-1.3l4.9-0.9l-0.2,4.9
	c-0.3,8.3,1.3,16.7,4.7,24.2l1.7,3.9l-3.9,1.5C310.3,83.3,297.1,85.7,284,85.7z"/>
<path class="st3" d="M124.4,197c-8.3,0-16.6-0.7-24.8-2.1c-11.6-2-20.2-5.1-27.1-9.7c-8.7-5.8-14.4-14.1-15.7-22.8
	c-1.6-11.2,4.6-23.8,15.2-30.7c7-4.5,15.7-7,25.3-7c3.3,0,6.6,0.3,10,0.8c9.1,1.5,17.5,4.7,26.5,8.2l0.1,0
	c10.2,3.9,20.7,7.9,31.7,8.9c1.6,0.1,3.3,0.2,4.9,0.2h0c5.6,0,11.4-0.8,17.3-2.5c0.4-0.1,0.9-0.3,1.3-0.4c2.4-0.7,4.1-1.1,5.5-1.1
	c2.5,0,3.9,1.2,4.8,2.1c5.6,5.7,6.5,19.5-1.3,30.3c-5.9,8.2-15.8,14.4-30.2,19C154,194.7,139.3,197,124.4,197z"/>
<path class="st1" d="M146.8,245.4c-0.1-0.1-0.2-0.1-0.2-0.1c-8.2-5-15-12.5-19-21.3c-1.6-3.4-2.8-7-3.9-10.5c-0.9-2.8-2-5.9-3.2-8.9
	L118,199h6.4c5.8,0,11.8-0.4,17.6-1.1l3.7-0.4l0.7,3.7c2.1,11.6,8.3,22.1,17.6,29.4l4.2,3.3l-4.3,3.1c-3.9,2.8-7.9,5.7-11.8,8.7
	l-2.8,2.1L146.8,245.4z"/>
<path class="st0" d="M62,485.6c-4.9,0-10.2-0.7-15.8-2c-17.9-4.3-31.7-14.6-37-27.6c-2.4-5.7-3.4-12.3-3.1-20.1
	c0.4-14.8,5.4-28.7,13.8-39c5.2-6.3,11.8-11.3,19.1-14.5c5.2-2.2,10.9-3.4,17.1-3.4c7.1,0,14.6,1.6,21.7,4.5
	c12.5,5.2,22.9,14.9,28.6,26.4c2.4,4.9,3.9,9.8,4.5,14.5c0.7,5.8,0.1,12.1-1.8,19.4c-2.4,9.3-6.2,17.3-11.3,23.8
	c-5.6,7.3-13.1,12.7-20.9,15.4C72.3,484.8,67.3,485.6,62,485.6z M57.7,412.9c-2.2,0-4.4,0.4-6.3,1.3c-2.7,1.2-5.1,3-7,5.3
	c-3.1,3.7-4.8,8.7-5,14c-0.1,2.8,0.3,5.3,1.2,7.4c2,4.9,6.9,8.6,13.5,10.2c2,0.5,3.9,0.7,5.7,0.7c1.9,0,3.8-0.3,5.4-0.9
	c3-1,5.6-3,7.7-5.7c1.8-2.4,3.2-5.3,4.1-8.6c0.7-2.6,0.9-4.9,0.6-7.1c-0.2-1.8-0.8-3.6-1.6-5.4c-2.1-4.2-5.9-7.7-10.4-9.6
	C63,413.4,60.3,412.9,57.7,412.9z"/>
<path class="st1" d="M59.7,449.7c-1.6,0-3.4-0.2-5.2-0.7c-5.9-1.4-10.4-4.7-12.1-9c-0.7-1.8-1.1-4-1-6.5c0.1-4.9,1.8-9.4,4.5-12.8
	c1.7-2,3.8-3.7,6.2-4.7c1.7-0.7,3.5-1.1,5.5-1.1c2.3,0,4.7,0.5,7.1,1.5c4.1,1.7,7.5,4.8,9.4,8.6c0.8,1.6,1.3,3.2,1.4,4.7
	c0.2,1.8,0,3.9-0.6,6.3c-0.8,3.1-2,5.7-3.7,7.9c-1.8,2.4-4.3,4.2-6.8,5C63.1,449.5,61.5,449.7,59.7,449.7z"/>
<path class="st4" d="M510.3,328.2c-1.5-12.8-5.5-26-11.9-39c-15.1-30.7-42.7-56.2-75.6-70c-22.3-9.4-45.5-13.3-67.1-11.6
	c-0.2-1.1-0.7-2-1.5-2.7l-7-22.5c19.2-7.7,38.9-15.9,56.7-27.3c23.8-15.3,40.7-34.5,48.8-55.7c3.4-8.9,5-18.2,4.6-26.8
	c-0.5-10-3.7-18.9-9.3-25.7c-7.3-8.9-18.8-14.8-34.2-17.5c-20.2-3.5-41.5-0.9-60.3,7.2c-1.2-3.3-2.7-6.4-4.4-9.1
	c-2.5-3.9-6.7-6.2-11.8-6.4c-6.2-0.3-12.4,2.6-16,7.3c-1.9,2.5-2.8,5.4-3.5,7.8c-0.2,0.8-0.4,1.6-0.6,2.5c-8.3,2-17,1.9-26.2,1.8
	c-9.5-0.1-19.4-0.2-29.1,2.1c-7.4,1.8-13.2,4.8-17.4,8.9c-5.7,5.6-8.1,13.4-6.3,20.3c2.3,9.1,11.2,15.5,24.9,18.1
	c6.8,1.3,13.8,1.9,20.8,1.9c12.3,0,24.6-2,36.2-5.8c-2.4,8.8-10,15.7-17.4,19.2c-9.1,4.2-20.5,5.3-34.8,3.4
	c-2.7-0.4-5.3,1.6-5.6,4.3c-0.4,2.7,1.6,5.3,4.3,5.6c4.9,0.7,9.6,1,14,1c10,0,18.7-1.7,26.3-5.2c11.7-5.4,20.4-15.5,23.1-26.6
	c3.6,2.8,7.7,4.4,11.8,4.4c0.9,0,1.9-0.1,2.8-0.2c6.7-1.2,12.4-6.7,14.5-14.1c0.6-2.1,0.9-4.2,1-6.3c9-3.8,17.9-7,26.9-7
	c8.2,0.1,18.1,3.8,21.8,12c6,13.1-7.1,28.5-11.2,33c-12,12.8-27.7,24-49.5,35c-20.7,10.5-42.9,19.1-64.4,27.4
	c-17.3,6.6-35.1,13.5-52.2,21.4c-21.6,10-42.2,21.7-61.8,34.9c-0.3-0.6-0.8-1.1-1.3-1.5c-8.3-6.2-14.2-15.9-16-26.1
	c5.9-1.1,11.7-2.5,17.4-4.3c15.8-5,26.7-11.9,33.3-21.2c6.8-9.5,10.7-28,0.6-38.1c-5.6-5.6-11.8-3.8-16.4-2.5
	c-0.4,0.1-0.8,0.2-1.2,0.4c-6.9,1.9-13.6,2.6-20,2.1c-10.2-0.9-19.9-4.6-30.1-8.5c-8.9-3.4-18-6.9-27.8-8.5c-14.8-2.5-28.8,0-39.5,7
	c-12.7,8.2-19.9,23-17.9,36.6c1.5,10.4,8.2,20.3,18.3,27c7.6,5.1,17,8.4,29.4,10.6c4.7,0.8,9.4,1.4,14.2,1.8
	c0.1,0.1,0.1,0.2,0.1,0.3c2.1,3.8,3.5,8,5,12.5c1.2,3.7,2.5,7.4,4.2,11.1c4.2,9,11,17,19.3,22.5c-7.2,5.8-14.3,11.8-21.1,18.1
	c-38.9,35.6-59.8,70.3-63.7,106c-7.1-0.1-13.9,1.2-19.9,3.8c-8.2,3.6-15.6,9.2-21.4,16.2C5.9,404.4,0.5,419.5,0,435.7
	c-0.3,8.7,0.9,16.1,3.6,22.6c6.2,15,21.2,26.3,41.2,31.2c6,1.5,11.8,2.2,17.2,2.2c6,0,11.5-0.9,16.7-2.6c9.1-3.1,17.3-9.1,23.7-17.4
	c5.6-7.2,9.8-15.9,12.4-26c2.1-8,2.7-15.1,2-21.6c-0.6-5.5-2.3-11-5-16.5c-4.6-9.4-12-17.6-21.1-23.7c0-0.2,0.1-0.4,0.1-0.5
	c5.7-39.6,33.7-77.5,83.2-112.6c43.7-31,91.7-54.2,135.9-72.9c1.2,6.6,2.8,13.2,4.9,19.6c0.1,0.4,0.3,0.7,0.5,1
	c-17.9,8.5-33.9,21.1-46.7,36.5c-22.3,27.2-35.3,63.5-36.4,102.4c-0.6,20.8,2.2,38.3,8.5,53.6c14.6,35.3,50.4,62.2,98.2,73.8
	c14.6,3.5,28.4,5.3,41.4,5.3c14.1,0,27.3-2.1,39.4-6.2c21.4-7.3,40.8-21.6,56.1-41.3c13.4-17.2,23.4-38.3,29.7-62.6
	C510.5,360.5,512.1,343.7,510.3,328.2z M265,80c-5.6-1.1-15.3-3.9-17.1-10.8c-0.9-3.4,0.6-7.7,3.7-10.8c2.9-2.8,7.1-5,12.7-6.3
	c8.5-2,17.3-1.9,26.6-1.9c8.2,0.1,16.7,0.2,25-1.3c-0.3,8.9,1.4,17.8,5,26C303.3,81.7,283.6,83.5,265,80z M349.5,74.8
	c-1.1,3.7-3.8,6.5-6.6,7c-2.2,0.4-4.8-0.5-6.9-2.3c-2.1-1.7-3.8-4.2-5.5-7.9c-4.7-10.2-5.8-22.2-2.9-33c0.4-1.5,0.9-3.2,1.8-4.3
	c1.5-2,4.7-3.4,7.6-3.3c1.7,0.1,3,0.7,3.7,1.8c5.2,8.3,7.5,21.6,8.8,28.7C350.2,66,350.7,70.7,349.5,74.8z M74.8,181.9
	c-7.7-5.1-12.8-12.5-13.9-20.1C59.4,152.1,65,141,74.3,135c6.4-4.2,14.4-6.3,23.1-6.3c3,0,6.1,0.3,9.3,0.8c8.7,1.4,17,4.6,25.8,8
	c10.4,4,21.2,8.1,32.8,9.2c7.6,0.7,15.6-0.1,23.6-2.4c0.4-0.1,0.9-0.3,1.3-0.4c4.3-1.3,5.2-1.3,6.5-0.1c3.9,3.9,5.1,15.6-1.7,25.2
	c-5.4,7.5-14.6,13.2-28.2,17.5c-21.4,6.7-44.4,8.3-66.5,4.4C89.3,189,81.2,186.1,74.8,181.9z M148.7,241.8
	c-7.6-4.6-13.8-11.5-17.5-19.6c-1.5-3.2-2.6-6.5-3.8-10.1c-1-3-2-6.1-3.3-9.2c0.1,0,0.2,0,0.3,0c6.1,0,12.1-0.4,18.1-1.1
	c2.2,12.5,9,24,19,31.8c-4,2.9-8,5.8-11.9,8.8C149.3,242.3,149,242,148.7,241.8z M102.8,411.8c2.2,4.5,3.6,8.9,4.1,13.2
	c0.6,5.3,0.1,11.2-1.7,17.9c-2.3,8.8-5.9,16.3-10.6,22.4c-5.2,6.7-11.9,11.7-19.1,14.1c-8,2.7-17.5,2.8-28.3,0.2
	c-16.6-4-29.4-13.5-34.3-25.2c-2.1-5.2-3.1-11.2-2.8-18.5c0.4-13.9,5-26.9,12.9-36.5c4.8-5.8,10.9-10.4,17.6-13.3
	c10.2-4.4,23.2-4,35.6,1.2C87.8,392.2,97.5,401.1,102.8,411.8z M168.2,262.4c-50.6,35.9-79.7,75-86.8,116.3
	c-0.4-0.2-0.8-0.4-1.3-0.6c-4.5-1.9-9-3.2-13.6-4c3.7-33.1,23.5-65.7,60.4-99.5c32.4-29.6,69-54,108.8-72.4
	c16.8-7.8,34.5-14.6,51.6-21.2c21.7-8.4,44.2-17,65.3-27.8c22.8-11.6,39.4-23.4,52.2-37.1c6.7-7.1,21.3-25.7,13-44
	c-4.9-10.7-17-17.7-30.8-17.8c-9.7-0.1-19,2.9-27.7,6.4c-0.1-0.3-0.1-0.7-0.2-1c-0.8-4.6-1.7-9.2-2.8-13.6c17.3-7.7,37-10.2,55.7-7
	c12.9,2.2,22.4,6.9,28.1,13.9c9.8,11.9,8,29.8,3.1,42.6c-9.3,24.2-29.6,41-44.9,50.9c-18.3,11.7-39.1,20.1-59.2,28.1l-5.2,2.1
	C282.3,197.6,222.1,224.1,168.2,262.4z M337.8,186.1L337.8,186.1l7,22.5c0,0.1,0.1,0.2,0.1,0.2c-7.1,1.2-14,3-20.5,5.4
	c0-0.1,0-0.2-0.1-0.2c-2.2-6.6-3.8-13.5-4.9-20.4C325.6,191,331.7,188.5,337.8,186.1z M495.8,377.1c-6,23-15.4,42.8-28,59
	c-14.1,18.1-31.9,31.3-51.4,38c-21.4,7.3-46.8,7.6-75.2,0.7c-20.5-4.9-39.4-13.3-54.8-24.1c-17.3-12.1-29.6-26.9-36.6-43.8
	c-5.8-14-8.3-30.2-7.7-49.5c1.1-36.7,13.2-70.9,34.2-96.3c12.7-15.5,29-27.8,47.1-35.6c12.7-5.5,27-8.2,41.9-8.2
	c17.4,0,35.8,3.8,53.6,11.2c30.8,12.9,56.5,36.7,70.5,65.2c5.9,12,9.6,24,11,35.7C502,343.6,500.5,359.2,495.8,377.1z"/>
<path class="st4" d="M67.1,410.9c-6-2.5-12.1-2.6-17.3-0.4c-3.3,1.4-6.2,3.6-8.5,6.4c-3.6,4.4-5.7,10.2-5.9,16.5
	c-0.1,3.4,0.4,6.4,1.5,9c2.5,6.1,8.4,10.6,16.3,12.5c2.3,0.6,4.5,0.8,6.6,0.8c2.4,0,4.6-0.4,6.7-1.1c3.7-1.3,7-3.7,9.6-7
	c2.2-2.8,3.8-6.2,4.8-10c0.8-3.1,1.1-5.9,0.7-8.6c-0.3-2.2-0.9-4.5-2-6.7C77.1,417.3,72.5,413.1,67.1,410.9z M71.2,435.1
	c-0.7,2.5-1.7,4.7-3,6.4c-1.4,1.8-3.1,3.1-4.9,3.7c-2.1,0.7-4.7,0.7-7.7,0c-4.6-1.1-8.1-3.6-9.4-6.6c-0.5-1.3-0.8-2.9-0.7-4.9
	c0.1-4,1.4-7.7,3.6-10.4c1.3-1.6,2.9-2.8,4.7-3.6c1.2-0.5,2.5-0.8,3.9-0.8c1.8,0,3.7,0.4,5.6,1.2c3.2,1.3,5.9,3.8,7.3,6.7
	c0.6,1.2,0.9,2.3,1.1,3.4C71.8,431.6,71.6,433.2,71.2,435.1z"/>
<path class="st4" d="M468.4,303.2c-11.5-23.4-32.6-42.9-57.7-53.5c-27.1-11.4-55.9-12.2-78.9-2.2c-14.9,6.5-28.4,16.6-38.9,29.4
	c-17,20.7-26.9,48.4-27.8,78.1c-0.5,15.9,1.6,29.3,6.5,41c11.2,27,38.5,47.6,75,56.4c11.1,2.7,21.6,4,31.6,4
	c10.8,0,20.9-1.6,30.2-4.8c16.4-5.6,31.3-16.5,42.9-31.6c10.2-13.2,17.8-29.2,22.7-47.7c3.8-14.6,5-27.5,3.6-39.3
	C476.3,323.1,473.3,313.1,468.4,303.2z M358.8,336.5c1.7-2.1,3.9-3.7,6.3-4.8c3.6-1.5,8.2-1.4,12.7,0.5c4.2,1.8,7.7,5,9.7,8.9
	c0.8,1.6,1.3,3.1,1.4,4.6c0.2,1.9,0,4-0.6,6.4c-0.9,3.3-2.2,6.1-3.9,8.4c-1.8,2.4-4.2,4.1-6.7,5c-2.8,1-6.3,1-10.2,0
	c-6.1-1.5-10.7-4.8-12.4-8.9c-0.7-1.8-1-4-1-6.6C354.2,344.8,355.9,340,358.8,336.5z M361.2,322.5c-1.9,0.8-3.6,1.8-5.3,3.1
	c-5.6-23.2-11.9-46.6-18.6-69.5c4.3-1.7,8.9-3.1,13.6-4c5.4,22.9,11.2,46,17.2,68.7C365.7,321,363.3,321.6,361.2,322.5z
	 M464.2,369.8c-4.5,17.2-11.5,32-20.9,44.1c-10.5,13.5-23.7,23.3-38.3,28.2c-16,5.5-34.8,5.6-56.1,0.5
	c-33.4-8.1-58.2-26.5-68.1-50.5c-4.3-10.4-6.2-22.4-5.7-36.8c0.8-27.4,9.9-53,25.5-72c7.7-9.3,17.1-17.1,27.5-22.8
	c6.9,23.7,13.4,47.9,19.1,71.9c0.2,0.8,0.5,1.4,1,2c-2.5,4.5-4,9.8-4.2,15.4c-0.1,4.1,0.4,7.6,1.7,10.7c3,7.2,10,12.5,19.3,14.8
	c2.8,0.7,5.4,1,7.9,1c2.8,0,5.5-0.4,7.9-1.3c4.4-1.5,8.3-4.4,11.3-8.3c2.6-3.3,4.5-7.4,5.7-12c1-3.7,1.3-7,0.9-10.2
	c-0.3-2.6-1.1-5.3-2.4-7.9c-3-6-8.3-11-14.8-13.7c-1-0.4-2-0.8-3-1.1c0-0.1,0-0.1,0-0.2c-6.3-23.5-12.2-47.3-17.8-71
	c14.7-1,30.6,1.7,45.9,8.2c23,9.6,42.2,27.4,52.6,48.6c4.4,8.9,7.1,17.9,8.2,26.6C468.8,344.7,467.7,356.4,464.2,369.8z"/>
</svg>
