<?xml version="1.0" encoding="utf-8"?>
<!-- Generator: Adobe Illustrator 25.2.3, SVG Export Plug-In . SVG Version: 6.00 Build 0)  -->
<svg version="1.1" id="Capa_1" xmlns="http://www.w3.org/2000/svg" xmlns:xlink="http://www.w3.org/1999/xlink" x="0px" y="0px"
	 viewBox="0 0 511 511" style="enable-background:new 0 0 511 511;" xml:space="preserve">
<style type="text/css">
	.st0{fill:#8CBEA3;}
	.st1{fill:#FFFFFF;}
	.st2{fill:#CFCB9D;}
	.st3{fill:#E1B946;}
	.st4{fill:#CC644F;}
	.st5{fill:#282828;}
</style>
<path class="st0" d="M378.5,451.5c-22.5,0-39.8-0.7-56-2.3c-6.6-0.7-14.3-1.6-21.4-4c-4-1.4-6.3-3-7.5-5.2c-0.9-1.8-1-4.1-1-6.2
	c-0.4-13.7-0.7-27.3-1.1-41l-1.1-40.7c-0.2-6.2-0.5-12.7-0.8-19l-0.1-1c-1-20-2.1-40.7,1.1-60.1c0.6-3.5,1.5-7.4,4.4-9.5
	c1.7-1.2,3.8-1.7,5.9-1.9l1.2-0.2c12.1-1.4,25.4-2.2,40.8-2.5l2.8,0c1.9,0,3.7,0.1,5.6,0.1l7.9,0.1c7.9,0.1,16.1,0.2,24.3,0.2
	c5.3,0,10.6-0.1,16-0.1h0.1c28,0.5,55.2,1.8,81,4.1c17.4,1.5,21.9,12.3,23.6,29.2c1.4,14.1,0,28.4-1.3,42.2
	c-0.5,5.1-0.9,9.6-1.2,14.2c-0.6,7.9-0.9,16-1.2,23.8c-0.9,22.8-1.8,44.3-8.5,65.7c-1.1,3.7-2.6,7.7-5.9,9.9
	c-2.6,1.8-5.9,2.1-9.6,2.3c-22.1,1.3-45.2,1.5-65.6,1.7l-13,0.1C392.7,451.4,385.6,451.5,378.5,451.5z M368.6,280
	c-12,0-27.7,0.2-43.2,2l-1,0.1c-0.8,0.1-1.7,0.3-2.7,0.6c-1,0.3-1.8,0.7-2.5,1.2c-2.6,1.9-3.5,5.3-4,8.3
	c-2.4,14.7-1.6,30.3-0.9,45.4l0,0.4c0.2,4.9,0.5,10,0.6,14.8l0.4,15.6c0.4,15.3,0.8,30.6,1.2,45.8c0,1.7,0.1,3.6,1,5.4
	c1.4,2.7,4.3,4,6.6,4.8c5.5,1.9,11.4,2.6,16.5,3.1c12.3,1.2,25.3,1.7,42.3,1.7c5.1,0,10.2-0.1,14.7-0.1c3.2,0,6.5-0.1,9.7-0.1l0.4,0
	c16.1-0.2,32.8-0.3,49.1-1.3c2.4-0.1,5.6-0.3,8.1-2c2.6-1.8,3.9-4.7,5.1-8.4c5.1-16.3,5.8-33.4,6.5-49.8c0.2-5.9,0.5-11.9,0.9-17.9
	c0.2-3.2,0.5-6.5,0.8-9.6l0.1-1c1-10.6,2-21.4,1-32.1c-1.3-13.2-5.1-22.3-19.4-23.5c-21.6-1.9-44.2-2.9-67.3-3.2l-5.9-0.1
	C380.9,280.1,374.7,280,368.6,280z"/>
<path class="st1" d="M383,427.2c-16.9,0-29.9-0.5-42-1.7c-5-0.5-10.7-1.2-16-3c-3-1-4.7-2.2-5.5-3.9c-0.6-1.1-0.7-2.5-0.7-4.5
	c-0.3-11.2-0.6-22.4-0.9-33.6l-0.7-27.8c-0.1-4.5-0.4-9.3-0.6-13.8l-0.1-1.2c-0.8-15.1-1.5-30.6,0.8-45.1c0.6-3.7,1.6-5.8,3.2-7
	c1.2-0.9,2.9-1.2,4.4-1.4l0.9-0.1c15.3-1.7,31-2,42.9-2c6.1,0,12.3,0.1,18.2,0.1l6,0.1c23.1,0.2,45.7,1.3,67.1,3.2
	c12.9,1.1,16.3,9.1,17.5,21.7c1.1,10.6,0.1,20.8-1,31.7l-0.1,0.9c-0.3,3.2-0.6,6.5-0.9,9.8c-0.4,6-0.7,12.1-0.9,18
	c-0.7,17.1-1.3,33.2-6.4,49.3c-0.8,2.7-2,5.7-4.3,7.3c-1.9,1.3-4.3,1.5-7,1.7c-16.4,0.9-33,1.1-49.1,1.3l-0.3,0
	c-3.3,0-6.5,0.1-9.8,0.1C393.6,427.2,388.3,427.2,383,427.2z M378,304.1c-4.1,0-7.1,0.7-9.2,2.1c-1.8,1.2-2.9,2.9-3.4,5.1
	c-0.6,3.3-0.5,6.8-0.4,10.2l0,0.2c0.1,1.7,0.1,3.3,0.1,4.9c-0.2,6.8-0.5,13.8-0.9,20.7c-0.4,7.4-1,15.2-1.8,23l-0.4,3.8
	c-0.8,7.8-1.6,15.9-1.4,23.9c0,1,0,2.7,1.1,3.9c1.1,1.4,2.9,1.6,4.4,1.8c20.2,2,40.8,3,61.1,3c3.4,0,6.9,0,10.4-0.1
	c1.4,0,3-0.2,3.9-1.4c0.6-0.8,0.7-1.7,0.8-2.3c1.1-7.3,1.5-14.7,1-22c0-0.9-0.1-2-0.8-3c-1.1-1.6-3.1-2-4.8-2.1
	c-1.7-0.1-3.5-0.2-5.4-0.2c-5.8,0-11.5,0.7-17.2,1.3l-0.1,0c-4.3,0.5-8.3,0.9-12.5,1.1l-5,0.2l0.8-4.9c2.2-12.6,2.8-25.6,3.4-38.2
	l0.8-17.3c0.1-2.3,0.3-6.6-2.4-9.1c-1.6-1.5-4-2-5.4-2.2c0,0-1.5-0.3-1.9-0.4C388.1,305.1,382.7,304.1,378,304.1z"/>
<path class="st2" d="M397.7,256.1c-2,0-4.1-0.1-6.2-0.1l-8.6-0.1c-7.7-0.1-15.7-0.2-23.6-0.2c-5.9,0-11.2,0-16.2,0.1H343
	c-27.7-0.5-54.9-1.8-80.8-4.1c-17.4-1.5-21.9-12.3-23.6-29.2c-1.4-14,0-28.3,1.3-42.2l0.2-1.8c0.4-4.1,0.8-8.3,1.1-12.5
	c0.6-7.7,0.9-15.5,1.2-23.1l0-0.8c0.9-22.7,1.7-44.2,8.5-65.6c1.2-3.8,2.7-7.8,5.9-9.9c2.6-1.8,5.9-2.1,9.6-2.3
	c21.7-1.2,43.8-1.5,65.2-1.7l0.4,0c4.4,0,8.7-0.1,13.1-0.1c6.2-0.1,12.8-0.1,19.5-0.1c22.5,0,39.8,0.7,56,2.3
	c6.6,0.7,14.2,1.6,21.4,4c4,1.4,6.3,3,7.5,5.2c0.9,1.8,1,4.1,1.1,6.2c0.6,21.5,1.1,42.9,1.7,64.4l0.5,17.3c0.2,6.5,0.5,13.2,0.9,20
	c1,20.1,2.1,40.8-1.1,60.1c-0.6,3.5-1.5,7.4-4.4,9.5c-1.7,1.3-4,1.7-5.9,2c-0.4,0.1-0.8,0.1-1.2,0.1c-12,1.4-25.4,2.2-40.8,2.5h-0.1
	L397.7,256.1z M360,84.7c-5.3,0-10.4,0.1-14.7,0.1l-9.8,0.1c-15.3,0.1-32.7,0.3-49.4,1.3c-2.4,0.1-5.6,0.3-8.1,2
	c-2.6,1.8-3.9,4.6-5.1,8.4c-5.1,16.3-5.8,33.3-6.5,49.8c-0.2,5.9-0.5,11.9-0.9,17.9c-0.2,3.2-0.5,6.5-0.8,9.7l-0.1,0.9
	c-1,10.5-2.1,21.3-1,32.1c1.3,13.2,5.1,22.3,19.4,23.5c21.5,1.9,44.2,2.9,67.3,3.2l5.9,0.1c5.7,0.1,12.1,0.1,18.3,0.1
	c11.9,0,27.6-0.2,43.1-2l0.1,0c0.3,0,0.5-0.1,0.8-0.1c1.2-0.2,2.1-0.3,2.9-0.6c1-0.3,1.8-0.7,2.5-1.2c2.6-1.9,3.5-5.3,4-8.3
	c2.4-14.8,1.6-30.4,0.9-45.6c-0.3-5-0.5-10.1-0.6-15l-0.4-14.7c-0.4-15.6-0.8-31.1-1.2-46.7c0-1.7-0.1-3.7-1-5.4
	c-1.4-2.7-4.3-4-6.6-4.8c-5.5-1.9-11.1-2.6-16.5-3.1C390,85.3,377,84.7,360,84.7z"/>
<path class="st0" d="M427.2,404.7c-20.3,0-40.7-1-60.8-3c-0.4,0-0.7-0.1-1.1-0.2l-2.7-0.9l-0.1-2.8c-0.1-7.8,0.6-15.7,1.4-23.4
	l0.4-3.9c0.7-7.6,1.3-15.4,1.8-23.1c0.4-6.8,0.7-13.8,0.9-20.7c0.1-1.7,0-3.5-0.1-5.2c-0.1-3.2-0.2-6.7,0.4-9.8
	c0.3-1.6,1.1-2.8,2.5-3.7c1.8-1.2,4.4-1.8,7.9-1.8c5.4,0,11.8,1.3,14.9,2l0.9,0.2c0.4,0.1,0.8,0.2,1.1,0.2c2.4,0.5,3.6,0.9,4.5,1.8
	c1.7,1.5,1.9,4,1.7,7.6l-0.8,17.3c-0.6,13.2-1.3,26.8-3.8,40c-0.3,1.4-0.4,2.9,0.6,4c0.7,0.8,1.7,1.1,3.2,1.1c0.2,0,0.3,0,0.4,0
	c4.9-0.1,9.9-0.7,14.7-1.2l0.3,0c5.5-0.6,11.3-1.3,16.9-1.3c1.8,0,3.5,0.1,5.2,0.2h3.5l0,0.3l0.2,0v3.4l0,0.1
	c0.4,6.5,0.1,13-0.8,19.5l-0.5,3.4l-3.4,0.1C433.5,404.7,430.3,404.7,427.2,404.7z"/>
<path class="st1" d="M374.4,232c-6.1,0-12.3-0.1-18.3-0.1l-6-0.1c-23-0.2-45.6-1.3-67.1-3.2c-12.9-1.1-16.3-9.1-17.5-21.7
	c-1.1-10.5-0.1-20.7,1-31.6l0-0.1c0.3-3.5,0.7-7.1,0.9-10.7c0.4-5.8,0.7-11.7,0.9-17.4l0-0.6c0.7-17.1,1.3-33.2,6.4-49.3
	c1.1-3.4,2.2-5.9,4.3-7.3c1.9-1.3,4.5-1.6,7.1-1.7c16.3-0.9,32.9-1.1,49-1.3l0.7,0c3.1,0,6.3-0.1,9.4-0.1c4.5,0,9.6-0.1,14.7-0.1
	c16.9,0,29.9,0.5,42.1,1.7c5,0.5,10.7,1.2,16,3c2.9,1,4.6,2.2,5.5,3.8c0.6,1.2,0.7,2.6,0.8,4.4l0,0.1c0.4,15.6,0.8,31.2,1.2,46.7
	l0.4,14.7c0.1,4.9,0.4,10,0.6,14.9l0,0.2c0.8,15.1,1.5,30.6-0.8,45.2c-0.6,3.7-1.5,5.8-3.2,7c-1.3,0.9-2.9,1.2-4.4,1.4
	c-0.2,0-0.5,0.1-0.8,0.1C402,231.8,386.3,232,374.4,232z M354.6,112.9c-5.5,0-10.7,1.4-17.6,4.8c-6.8,3.3-12.7,7.6-17.6,12.6
	c-8.9,9.2-14.1,21.2-14.2,32.9c-0.2,12.8,5.8,25,15.6,31.9c3.9,2.8,8.6,4.8,14,6.2c4.5,1.2,9.1,1.7,13.8,1.7c1.7,0,3.4-0.1,5.2-0.2
	c6-0.5,10.9-2,14.9-4.4c6-3.6,10.2-9.5,13.3-14.2c5-7.8,8.3-15,10.1-22c2.2-8.6,2-16.9-0.4-24.2c-3.8-11.4-13.4-19.9-26.1-23.4
	C361.3,113.4,357.9,112.9,354.6,112.9z"/>
<path class="st2" d="M348.7,200.9c-4.5,0-9-0.6-13.3-1.7c-5.2-1.3-9.7-3.3-13.4-5.9c-9.2-6.5-14.9-18.1-14.7-30.2
	c0.1-11.2,5.1-22.7,13.6-31.5c4.7-4.8,10.4-8.9,17-12.2c6.7-3.3,11.5-4.6,16.7-4.6c3.1,0,6.4,0.5,10.4,1.6
	c12.3,3.3,21.1,11.1,24.7,22c2.3,6.9,2.5,14.9,0.4,23.1c-1.7,6.8-4.9,13.8-9.8,21.4c-3.1,4.8-7,10.3-12.6,13.6
	c-3.8,2.2-8.4,3.6-14,4.1C352,200.9,350.3,200.9,348.7,200.9z M351.3,140.6c-2.1,0-4.2,0.6-6.8,1.8c-2.6,1.3-4.9,2.9-6.7,4.8
	c-1.7,1.7-3.1,3.8-4,6c-0.9,2.2-1.4,4.4-1.4,6.6c-0.1,5,2.3,9.7,6,12.4c1.5,1.1,3.3,1.9,5.4,2.4c1.7,0.4,3.5,0.7,5.3,0.7
	c0.6,0,1.3,0,2-0.1c2.3-0.2,4.2-0.8,5.8-1.7c2.3-1.4,3.9-3.6,5.1-5.5c1.9-3,3.1-5.7,3.8-8.4c0.8-3.3,0.8-6.5-0.2-9.4
	c-1.5-4.4-5.2-7.7-10.1-9.1C354,140.8,352.6,140.6,351.3,140.6z"/>
<path class="st1" d="M349.1,173.3c-1.6,0-3.2-0.2-4.8-0.6c-1.8-0.5-3.4-1.2-4.7-2.1c-3.3-2.3-5.3-6.4-5.2-10.7c0-4,1.8-8.1,4.9-11.2
	c1.7-1.8,3.8-3.2,6.1-4.4c2-1,3.8-1.6,5.9-1.6c1.1,0,2.2,0.2,3.7,0.6c4.3,1.2,7.5,4,8.7,7.8c1,3.1,0.6,6.2,0.1,8.2
	c-0.6,2.4-1.8,5-3.6,7.8c-1.1,1.8-2.5,3.7-4.5,4.8c-1.3,0.8-2.9,1.3-5,1.4C350.3,173.2,349.7,173.3,349.1,173.3z"/>
<path class="st3" d="M142.8,448.9c-22.5,0-39.8-0.7-56-2.3c-6.6-0.7-14.3-1.6-21.4-4c-4-1.4-6.3-3-7.5-5.2c-0.9-1.8-1-4.1-1.1-6.2
	c-0.6-21.5-1.1-42.9-1.7-64.4l-0.5-17.3c-0.2-6.5-0.5-13.2-0.9-20c-1-20.1-2.1-40.8,1.1-60.1c0.6-3.5,1.5-7.4,4.4-9.5
	c1.7-1.3,4-1.7,5.9-2c0.4-0.1,0.8-0.1,1.2-0.1c12.5-1.4,26.1-2.2,42.6-2.5h0.1c3.4,0.1,6.8,0.1,10.3,0.1l7.9,0.1
	c7.9,0.1,16.1,0.2,24.3,0.2c4.8,0,9.7,0,14.5-0.1h0.1c27,0.5,53.5,1.9,78.7,4c17.4,1.5,21.9,12.3,23.6,29.2c1.4,14,0,28.3-1.3,42.2
	c-0.4,4.2-0.9,9.4-1.3,14.3c-0.6,8.2-0.9,16.9-1.2,23.9c-0.9,22.8-1.8,44.2-8.5,65.6c-1.2,3.7-2.7,7.8-5.9,9.9
	c-2.6,1.8-5.9,2.1-9.6,2.3c-21.7,1.2-43.8,1.5-65.2,1.7l-0.4,0c-4.4,0-8.7,0.1-13.1,0.1C156.9,448.8,149.9,448.9,142.8,448.9z
	 M88.5,279.5c-1.7,0.2-3.5,0.6-5,1.8c-2.6,1.9-3.5,5.3-4,8.3c-2.4,14.7-1.6,30.4-0.9,45.6l0,0.1c0.2,4.9,0.5,10,0.6,14.9l0.8,29.8
	c0.3,10.5,0.6,21.1,0.8,31.6c0,1.7,0.1,3.6,1,5.4c1.4,2.7,4.3,4,6.6,4.8c5.5,1.9,11.1,2.6,16.5,3.1c12.3,1.2,25.3,1.7,42.3,1.7
	c5,0,9.9-0.1,14.7-0.1l9.8-0.1c15.3-0.1,32.7-0.3,49.4-1.3c2.4-0.1,5.6-0.3,8.1-2c2.6-1.8,3.9-4.7,5.1-8.4
	c5.1-16.3,5.8-33.4,6.5-49.8c0.2-5.8,0.5-11.9,0.9-17.9c0.2-3.2,0.5-6.5,0.8-9.7l0.1-0.9c1-10.5,2.1-21.3,1-32.1
	c-1.3-13.2-5.1-22.3-19.4-23.5c-21.6-1.9-44.2-2.9-67.3-3.2l-5.9-0.1c-6-0.1-12.2-0.1-18.4-0.1c-11.9,0-27.6,0.2-43.1,2l-0.1,0
	c-0.3,0-0.5,0.1-0.8,0.1L88.5,279.5L88.5,279.5z"/>
<path class="st1" d="M147.4,424.6c-17,0-30-0.5-42.2-1.7c-5-0.5-10.7-1.2-16-3c-2.9-1-4.6-2.2-5.5-3.8c-0.6-1.2-0.7-2.5-0.8-4.6
	c-0.3-10.4-0.6-20.9-0.8-31.3l-0.4-15.9l-0.4-14.2c-0.1-4.9-0.4-9.9-0.6-15c-0.8-15-1.5-30.6,0.8-45.2c0.6-3.7,1.6-5.8,3.2-7
	c1.3-0.9,2.9-1.2,4.3-1.4c0.3,0,0.6-0.1,0.9-0.1c15.3-1.7,31-2,42.9-2c6.1,0,12.3,0.1,18.2,0.1l6,0.1c23,0.2,45.6,1.3,67.1,3.2
	c12.9,1.1,16.3,9.1,17.5,21.7c1.1,10.5,0.1,20.7-1,31.6l0,0.1c-0.3,3.5-0.7,7.1-0.9,10.7c-0.4,5.9-0.7,11.9-0.9,18l0,0.2
	c-0.7,17-1.3,33.1-6.4,49.1c-0.9,2.7-2,5.7-4.3,7.3c-1.9,1.3-4.5,1.5-7.1,1.7c-16.3,0.9-32.9,1.1-49,1.3l-0.8,0
	c-3.1,0-6.3,0.1-9.4,0.1C158,424.6,152.7,424.6,147.4,424.6z M164.1,302.8c-6,0-11.9,0.2-17.3,0.5c-6.9,0.3-13.2,1-19.2,2
	c-1.7,0.3-4,0.8-6,1.6c-1.9,0.8-3.3,1.9-4.3,3.3c-1.7,2.4-2.1,5.3-2.3,8.1c-0.7,9.9-0.4,19.8-0.1,29.4l1.6,48.6
	c0.1,1.6,0.1,3.8,1.4,5.4c1.1,1.4,2.8,2,4.4,2.5c6.2,1.8,12.8,2.4,18.5,2.7c8.2,0.5,16.5,0.8,24.7,0.8c5.2,0,10.7-0.1,16.2-0.3
	c0.9,0,2.1-0.1,3.1-0.8c1.2-0.9,1.6-2.5,1.8-3.4c1-4.5,1.6-9.1,1.8-13.6c0-0.9,0.1-2.3-0.6-3.5c-0.6-1-1.7-1.5-2.6-1.9
	c-2.2-0.9-4.7-1.3-7.6-1.3c-2.6,0-5,0.3-7.4,0.6l-16.1,2l-0.4,0l-3,0.3l-1.1-2.8c-0.2-0.5-0.4-1.1-0.5-1.8c-0.5-2.1-0.8-4.1-1.1-6.2
	l-0.7-5.1l5.1,0.5c3.1,0.3,6.2,0.8,9.2,1.5l0.5,0.1c1.7,0.4,3.4,0.7,5.1,0.7c0.9,0,1.8-0.1,2.6-0.3c2.8-0.7,5.2-2.9,6.7-6.1
	c1.3-2.7,1.8-5.6,2.3-8.4c0.4-2.2,1.1-6.6-1.6-9.1c-1.1-1.1-2.5-1.5-4.3-1.5c-2.1,0-4.2,0.7-6,1.2c-3.9,1.2-7.9,1.9-12,2.2l-0.1,0
	c-0.2,0-0.4,0-0.6,0h-2.5l-1.1-2.2l-0.1-0.2c-1.4-2.9-2.4-6.1-2.8-9.3c-0.2-1.6-0.6-6.8,2.7-8.6c0.7-0.4,1.5-0.6,2.5-0.6
	c1.5,0,3.4,0.5,5.2,1.1l0.3,0.1c5.1,1.5,10.5,2.4,15.8,2.6c0.4,0,0.7,0,1.1,0c1.8,0,3.1-0.2,4.3-0.7c3.6-1.4,5.7-5.1,6.7-7.9
	c1.6-4.3,3.5-13.1,0.4-18.1c-1.3-2.1-3.2-3.2-5.8-3.5C175.8,303.1,170.3,302.8,164.1,302.8z"/>
<path class="st4" d="M166,253.5c-3.4-0.1-6.8-0.1-10.2-0.1l-7.9-0.1c-7.8-0.1-15.9-0.2-24.1-0.2c-5.3,0-10.1,0-14.6,0.1H109
	c-27.1-0.5-53.6-1.9-78.8-4C12.8,247.7,8.3,236.9,6.6,220c-1.4-14.1,0-28.4,1.3-42.2c0.5-5.1,0.9-9.6,1.2-14.2
	c0.6-7.9,0.9-16,1.2-23.8c0.9-22.8,1.8-44.3,8.5-65.7c1.1-3.7,2.6-7.7,5.9-9.9c2.6-1.8,5.9-2.1,9.6-2.3c22.1-1.3,45.2-1.5,65.6-1.7
	l13-0.1c6.2-0.1,12.8-0.1,19.5-0.1c22.5,0,39.8,0.7,56,2.3c6.6,0.7,14.3,1.6,21.4,4c4,1.4,6.3,3,7.5,5.2c0.9,1.8,1,4.1,1.1,6.2
	c0.4,13.7,0.7,27.3,1.1,41l1.1,40.7c0.2,6.3,0.5,12.8,0.8,19.1l0,0.9c1,20,2.1,40.7-1.1,60.1c-0.6,3.5-1.5,7.4-4.4,9.5
	c-1.7,1.2-3.8,1.7-5.9,1.9l-1.2,0.2c-12.5,1.4-26.4,2.2-42.6,2.5H166z M128,82.1c-5.3,0-10.4,0.1-14.7,0.1c-3.2,0-6.5,0.1-9.7,0.1
	l-0.4,0C87,82.5,70.4,82.7,54,83.6c-2.4,0.1-5.6,0.3-8.1,2c-2.6,1.8-3.9,4.7-5.1,8.4c-5.1,16.3-5.8,33.4-6.5,49.8
	c-0.2,5.9-0.5,11.9-0.9,17.9c-0.3,3.6-0.6,7.2-0.9,10.7c-1,10.5-2,21.4-1,32.1c1.3,13.2,5.1,22.3,19.4,23.5
	c21.6,1.9,44.2,2.9,67.3,3.2l5.9,0.1c5.9,0.1,12.1,0.1,18.3,0.1c12,0,27.7-0.2,43.1-2l1-0.1c0.7-0.1,1.7-0.3,2.7-0.6
	c1-0.3,1.8-0.7,2.5-1.2c2.6-1.9,3.5-5.3,4-8.3c2.4-14.7,1.6-30.3,0.9-45.4l0-0.4c-0.2-4.9-0.5-9.9-0.6-14.8l-0.4-15.6
	c-0.4-15.3-0.8-30.6-1.2-45.8c0-1.7-0.1-3.7-1-5.4c-1.4-2.7-4.3-4-6.6-4.8c-5.5-1.9-11.4-2.6-16.5-3.1C158,82.7,145,82.1,128,82.1z"
	/>
<path class="st1" d="M142.4,229.4c-6.1,0-12.3-0.1-18.2-0.1l-6-0.1c-23-0.2-45.6-1.3-67.1-3.2c-12.9-1.1-16.3-9.1-17.5-21.7
	c-1.1-10.6-0.1-20.8,1-31.7l0.1-1c0.3-3.2,0.6-6.5,0.8-9.7c0.4-6,0.7-12.1,0.9-18c0.7-17.1,1.3-33.3,6.4-49.3c0.8-2.7,2-5.7,4.3-7.3
	c1.9-1.3,4.3-1.5,7-1.7c16.4-0.9,33-1.1,49.1-1.3h0.3c3.3,0,6.5-0.1,9.8-0.1c5.4-0.1,10.2-0.1,14.7-0.1c10.5,0,26.3,0.2,42.1,1.7
	c5,0.5,10.7,1.2,16,3c2.9,1,4.7,2.2,5.5,3.9c0.6,1.1,0.7,2.5,0.7,4.5c0.3,11.2,0.6,22.4,0.9,33.6l0.7,27.8c0.1,4.5,0.4,9.3,0.6,13.8
	l0.1,1.2c0.8,15.1,1.5,30.6-0.8,45.1c-0.6,3.7-1.6,5.8-3.2,7c-1.2,0.9-2.9,1.2-4.4,1.4l-0.9,0.1C170,229.2,154.4,229.4,142.4,229.4z
	 M102.4,113.9c-0.4,0-0.8,0.1-1.1,0.1l-21,2.8c-0.5,0.1-1.2,0.2-1.8,0.5c-1.8,0.9-2.2,3.1-2.3,5c-0.7,13.3-1.5,28.4-1.9,43
	c-0.2,8-0.2,15.1-0.1,21.9c0,1.8-0.1,3.5-0.2,5.3l0,0.2c-0.3,3.8-0.6,7.8,0.7,11.8c0.3,1.1,0.8,2.2,1.8,3c0.8,0.6,1.8,0.9,2.3,1
	c2.7,0.6,5.4,1,8.1,1c0.7,0,1.4,0,2.1-0.1c1.5-0.1,3.1-0.3,4.5-1.1c3.3-2.1,3.6-6.7,3.8-9.2c0.5-7.7,1.3-15.5,2.5-23.1l2.3-14.5
	l5.4,13.6c0.7,1.7,1.3,3.5,1.8,5.6c0.8,3,1.4,6,2,9c0.6,3.2,1.3,6.7,2.3,10.2c0.4,1.6,1.2,1.8,1.5,1.9c0.2,0.1,0.5,0.1,0.7,0.1
	c0.2,0,0.4,0,0.6-0.1l34.6-4.8c2.4-0.3,5.5-0.8,7.6-2.9c2.9-2.8,2.6-7.4,2.4-10.2l-3.8-68.7c-0.1-1.9-0.2-4.6-2-6.4
	c-1.7-1.7-4.3-2-6-2.2c-5-0.5-10.1-0.7-15.1-0.7l-0.6,0c-0.5,0-1.1,0-1.8,0.3c-1.4,0.6-2,2.2-1.9,4.6c0.6,11.8,0.6,23.7,0,35.4
	l-0.7,12.3l-6.7-10.3c-6.4-9.9-11.9-20.5-16.3-31.4c-0.4-1-1-2.2-2.1-2.7C103.4,114,102.9,113.9,102.4,113.9z"/>
<path class="st3" d="M165.5,405.7c-8.2,0-16.4-0.3-24.5-0.8c-5.9-0.4-12.1-0.9-18-2.6c-0.8-0.2-1.5-0.5-2-0.7l-1.6-0.8l-0.5-1.8
	c-0.2-0.7-0.3-1.5-0.3-2.8l-1.6-48.8c-0.3-9.5-0.6-19.3,0.1-28.9c0.2-2.5,0.5-5.1,1.9-7.1c1.9-2.6,5.4-3.5,9-4.1
	c5.9-1,12.1-1.6,19-2c5.4-0.3,11.2-0.5,17.2-0.5c6.2,0,11.6,0.3,16.6,0.8c2,0.2,3.4,1.1,4.3,2.6c2.5,4,1,11.9-0.6,16.3
	c-0.9,2.5-2.6,5.6-5.5,6.7c-1.2,0.5-2.5,0.5-3.6,0.5c-0.3,0-0.6,0-1,0c-5.2-0.2-10.3-1-15.3-2.5l-0.2-0.1c-1.9-0.6-3.9-1.2-5.9-1.2
	c-1.3,0-2.5,0.3-3.5,0.8c-3,1.6-4.4,5.6-3.7,10.6c0.5,3.4,1.5,6.8,3,9.9c0.3,0.7,1,2.1,2.3,2.9c0.8,0.5,1.8,0.7,3,0.7
	c0.4,0,0.8,0,1.1,0c4.2-0.3,8.4-1.1,12.4-2.3c2.6-0.8,4.1-1.1,5.3-1.1c0.3,0,0.6,0,0.8,0.1l2.7,0.4l0.7,2.6c0.3,1.2,0.3,2.8-0.1,5.2
	c-0.5,2.8-1,5.5-2.1,7.9c-1.3,2.6-3.2,4.4-5.4,5c-0.7,0.2-1.3,0.3-2.1,0.3c-1.5,0-3.1-0.4-4.7-0.7l-0.5-0.1c-4-0.9-8-1.5-12.1-1.7
	c-0.3,0-0.5,0-0.7,0c-2.3,0-2.9,0.9-3.2,1.3c-0.6,1-0.5,2-0.5,2.8c0.3,3.1,0.8,6.3,1.5,9.3c0.5,2.2,1.4,4.9,3.9,5.8
	c0.5,0.2,1.1,0.3,1.7,0.3c0.6,0,1.1-0.1,1.6-0.1l16.1-2c2.2-0.3,4.7-0.6,7.2-0.6c2.3,0,4.3,0.3,6.1,0.8l3,0.9l-0.2,3.1
	c-0.2,4.2-0.8,8.3-1.6,12.4l-0.6,3l-3.1,0.1C175.9,405.6,170.7,405.7,165.5,405.7z"/>
<path class="st4" d="M86.8,207.5c-2.5,0-4.9-0.3-7.3-0.8l-2.3-0.5l-0.7-2.2c-1.1-3.7-0.8-7.2-0.6-11l0-0.1c0.1-1.8,0.3-3.7,0.2-5.6
	c-0.1-6.7-0.1-13.9,0.1-21.8c0.3-14.5,1.1-29.5,1.9-42.8v-3.4l3.5-0.5l21.6-2.9l1.2,2.9c6.2,15.1,14.3,29.4,24.3,42.4
	c0.2,0.3,0.5,0.4,0.8,0.4c0.1,0,0.2,0,0.3,0c0.4-0.1,0.7-0.5,0.7-0.9c1.5-16,1.9-32.2,1.2-48.3l-0.2-4.2l4.2,0.1
	c4.4,0.1,8.8,0.3,13,0.7c1.7,0.2,2.7,0.4,3.5,0.7l1.5,0.6l0.6,1.5c0.4,0.9,0.5,2.1,0.6,3.7l3.8,68.8c0.2,3.3,0.2,6.6-1.8,8.6
	c-1.5,1.5-3.8,1.9-6.4,2.3l-35,4.9l-0.8-3.5c-0.5-2.2-1-4.5-1.4-6.8l-0.1-0.3c-0.6-3-1.2-6.1-2-9.1c-2.1-7.8-5.2-13.5-9.5-17.4
	c-0.2-0.2-0.4-0.3-0.7-0.3c-0.1,0-0.2,0-0.3,0.1c-0.3,0.1-0.6,0.4-0.7,0.8c-2.4,11.6-4,23.6-4.8,35.6c-0.3,4.4-1,6.5-2.8,7.6
	l-0.1,0.1l-0.1,0.1c-0.8,0.4-1.8,0.7-3.4,0.8C88.1,207.5,87.4,207.5,86.8,207.5z"/>
<path class="st5" d="M224.7,276.8c-21.7-1.9-44.4-2.9-67.6-3.2l-5.9-0.1c-20.4-0.2-41.5-0.5-62,1.9c-0.3,0-0.7,0.1-1,0.1
	c0,0,0,0,0,0c-2.1,0.3-4.8,0.8-7.1,2.5c-3.8,2.8-5,7.3-5.6,10.9c-2.5,15.2-1.7,31.1-0.9,46.4c0.2,4.9,0.5,10,0.6,14.9l0.4,14.2
	c0.4,15.8,0.8,31.5,1.3,47.3c0.1,1.9,0.1,4.6,1.4,7.1c2.1,4,6,5.8,8.9,6.8c5.9,2.1,12.1,2.8,17.4,3.3c14.4,1.4,28.7,1.8,42.7,1.8
	c5,0,9.9,0,14.7-0.1c3.3,0,6.5-0.1,9.8-0.1c16.3-0.2,33.1-0.3,49.6-1.3c2.7-0.2,6.7-0.4,10.2-2.7c3.8-2.6,5.4-6.6,6.7-10.5
	c5.3-16.8,6-34.1,6.6-50.9c0.2-5.8,0.5-11.9,0.9-17.8c0.3-3.5,0.6-7.1,0.9-10.6c1-10.7,2.1-21.8,1-32.9
	C246.5,291.4,242.8,278.3,224.7,276.8z M236.8,335.8c-0.3,3.5-0.7,7.2-1,10.8c-0.4,6.1-0.7,12.2-0.9,18.1
	c-0.7,16.8-1.3,32.7-6.2,48.2c-0.7,2.2-1.5,4.4-2.8,5.3c-1.1,0.8-3.4,0.9-5.1,1c-16.3,0.9-33,1.1-49.1,1.3c-3.3,0-6.6,0.1-9.8,0.1
	c-18.1,0.2-37.3,0.3-56.3-1.6c-4.7-0.5-10.2-1.1-15.1-2.8c-2.5-0.9-3.1-1.6-3.2-1.9c-0.3-0.5-0.3-1.9-0.3-2.8
	c-0.4-15.8-0.8-31.5-1.3-47.3L85.3,350c-0.1-5-0.4-10.2-0.6-15.2c-0.7-14.8-1.5-30.2,0.8-44.3c0.4-2.4,0.9-3.9,1.6-4.4
	c0.6-0.4,2-0.6,2.5-0.7c0.3,0,0.5-0.1,0.8-0.1c19.9-2.3,40.6-2,60.7-1.8l5.9,0.1c22.9,0.2,45.4,1.3,66.8,3.1
	c9.2,0.8,12.6,5.2,13.9,18.1C238.8,315,237.8,325.1,236.8,335.8z"/>
<path class="st5" d="M510.4,290.8c-1.6-16-6.3-32.6-29.1-34.6c-9-0.8-18.2-1.4-27.5-2c2.8-3.3,3.8-7.6,4.4-11.2
	c3.3-20,2.2-41,1.2-61.4c-0.3-6.6-0.7-13.4-0.8-19.9l-0.5-17.3c-0.6-21.5-1.2-42.9-1.7-64.4c-0.1-2.4-0.1-5.7-1.7-8.7
	c-2.5-4.8-7.4-7-10.8-8.2c-7.7-2.7-15.8-3.6-22.8-4.3c-25.9-2.5-51.8-2.5-76.1-2.2c-4.3,0-8.7,0.1-13,0.1
	c-21.6,0.2-43.9,0.4-65.9,1.7c-3.6,0.2-8.5,0.5-12.7,3.3c-4.6,3.1-6.7,8.2-8.2,13.1c-7,22.2-7.9,45-8.7,67.2
	c-0.3,7.8-0.6,15.8-1.2,23.7c-0.3,4.7-0.8,9.4-1.2,14.1c-1.4,14.1-2.8,28.8-1.3,43.4c1.2,12,4.2,24.4,15.3,30.6
	c-0.8-0.1-1.5-0.2-2.3-0.3c-7.9-0.7-15.8-1.3-23.9-1.8c2.9-3.3,4-7.7,4.6-11.4c3.3-20,2.2-41,1.2-61.4c-0.3-6.6-0.7-13.4-0.8-19.9
	l-0.5-17.9c-0.6-21.3-1.1-42.5-1.7-63.8c-0.1-2.4-0.1-5.7-1.7-8.7c-2.5-4.8-7.4-7-10.8-8.2c-7.7-2.7-15.8-3.6-22.8-4.3
	c-25.9-2.5-51.8-2.5-76.1-2.2c-4.3,0.1-8.7,0.1-13,0.1c-21.6,0.2-44,0.4-65.9,1.7c-3.6,0.2-8.5,0.5-12.7,3.3
	c-4.6,3.1-6.7,8.2-8.2,13.1c-7,22.1-7.9,45-8.7,67.2c-0.3,7.8-0.6,15.8-1.2,23.7c-0.3,4.7-0.8,9.5-1.2,14.1
	c-1.4,14.1-2.7,28.8-1.3,43.4c1.6,16,6.3,32.6,29.1,34.6c7.9,0.7,15.8,1.3,23.9,1.8c-2.9,3.3-4,7.7-4.6,11.4
	c-3.3,20-2.2,41-1.2,61.4c0.3,6.6,0.7,13.4,0.9,19.9l0.5,17.3c0.6,21.5,1.2,42.9,1.7,64.4c0.1,2.4,0.2,5.7,1.7,8.7
	c2.5,4.8,7.4,7,10.8,8.2c7.7,2.7,15.8,3.6,22.8,4.3c19,1.9,38.1,2.3,56.5,2.3c6.6,0,13.2-0.1,19.6-0.1c4.3,0,8.7-0.1,13-0.1
	c21.6-0.2,43.9-0.4,65.9-1.7c3.6-0.2,8.5-0.5,12.7-3.3c4.6-3.1,6.7-8.2,8.2-13.1c7-22.2,7.9-45,8.7-67.2c0.3-7.8,0.6-15.8,1.2-23.7
	c0.3-4.7,0.8-9.4,1.2-14.1c1.4-14.1,2.8-28.8,1.3-43.4c-1.2-12-4.2-24.4-15.3-30.6c0.8,0.1,1.5,0.2,2.3,0.3c9,0.8,18.2,1.4,27.5,2
	c-2.8,3.3-3.8,7.6-4.4,11.2c-3.3,20-2.2,41-1.2,61.4c0.3,6.6,0.7,13.4,0.8,19.9l0.5,17.9c0.6,21.3,1.1,42.5,1.7,63.8
	c0.1,2.4,0.1,5.7,1.7,8.7c2.5,4.8,7.4,7,10.8,8.2c7.7,2.7,15.8,3.6,22.8,4.3c19,1.9,38.1,2.3,56.5,2.3c6.6,0,13.2-0.1,19.6-0.1
	c4.3-0.1,8.7-0.1,13-0.1c21.6-0.2,44-0.4,65.9-1.7c3.6-0.2,8.5-0.5,12.7-3.3c4.6-3.1,6.7-8.2,8.2-13.1c7-22.1,7.9-45,8.7-67.2
	c0.3-7.8,0.6-15.8,1.2-23.7c0.3-4.7,0.8-9.5,1.2-14.1C510.4,320,511.8,305.4,510.4,290.8z M10.6,219.7c-1.4-13.7,0-27.8,1.3-41.4
	c0.4-4.7,0.9-9.5,1.3-14.3c0.6-8,0.9-16.2,1.2-24c0.9-22.5,1.7-43.7,8.3-64.6c1-3,2.1-6.4,4.3-7.9c1.7-1.2,4.5-1.4,7.6-1.6
	c21.7-1.2,43.9-1.5,65.4-1.7c4.4,0,8.7-0.1,13-0.1c6.4-0.1,12.9-0.1,19.5-0.1c18.2,0,36.9,0.5,55.6,2.3c6.4,0.6,13.8,1.5,20.4,3.8
	c2.9,1,4.6,2.1,5.2,3.3c0.5,1,0.6,2.9,0.6,4.5c0.6,21.3,1.1,42.6,1.7,63.8l0.5,17.9c0.2,6.6,0.5,13.5,0.9,20.1
	c1,19.8,2,40.3-1.1,59.3c-0.4,2.6-1.1,5.7-2.8,6.9c-1,0.7-2.6,1-4.1,1.2c-0.4,0.1-0.8,0.1-1.1,0.1c-13.9,1.6-28,2.2-42.2,2.5
	c-3.4-0.1-6.8-0.1-10.3-0.1l-7.9-0.1c-12.8-0.1-25.8-0.3-38.8-0.1c-26.9-0.5-53.3-1.8-78.5-4C17.4,244.1,12.4,237.6,10.6,219.7z
	 M264.7,289.2c1.4,13.7,0,27.8-1.3,41.4c-0.4,4.7-0.9,9.5-1.3,14.3c-0.6,8-0.9,16.2-1.2,24c-0.9,22.5-1.7,43.7-8.3,64.6
	c-1,3-2.1,6.4-4.3,7.8c-1.8,1.2-4.5,1.4-7.6,1.6c-21.7,1.2-43.9,1.5-65.4,1.7c-4.4,0-8.7,0.1-13.1,0.1c-24.1,0.3-49.7,0.3-75-2.1
	c-6.4-0.6-13.8-1.5-20.4-3.8c-2.9-1-4.6-2.1-5.2-3.3c-0.5-1-0.6-2.8-0.6-4.5c-0.6-21.5-1.1-42.9-1.7-64.4l-0.5-17.3
	c-0.2-6.6-0.5-13.5-0.9-20.1c-1-19.8-2-40.3,1.1-59.3c0.4-2.6,1.1-5.7,2.8-6.9c1-0.7,2.6-1,4.1-1.2c0.4,0,0.7-0.1,1.1-0.1
	c13.9-1.6,28-2.2,42.2-2.5c3.4,0.1,6.8,0.1,10.3,0.1l7.9,0.1c8.1,0.1,16.2,0.2,24.4,0.2c4.8,0,9.7,0,14.6-0.1
	c26.9,0.5,53.2,1.8,78.4,4C257.8,264.7,262.9,271.2,264.7,289.2z M242.6,222.2c-1.4-13.7,0-27.8,1.3-41.4c0.4-4.7,0.9-9.5,1.3-14.3
	c0.6-8,0.9-16.2,1.2-24c0.9-22.5,1.7-43.7,8.3-64.6c1-3,2.1-6.4,4.3-7.8c1.7-1.2,4.5-1.4,7.6-1.6c21.7-1.2,43.9-1.5,65.4-1.7
	c4.4,0,8.7-0.1,13.1-0.1c6.4-0.1,12.9-0.1,19.4-0.1c18.2,0,37,0.4,55.6,2.3c6.4,0.6,13.8,1.5,20.4,3.8c2.9,1,4.6,2.1,5.2,3.3
	c0.5,1,0.6,2.8,0.6,4.5c0.6,21.5,1.1,42.9,1.7,64.4l0.5,17.3c0.2,6.6,0.5,13.5,0.9,20.1c1,19.8,2,40.3-1.1,59.3
	c-0.4,2.6-1.1,5.7-2.8,6.9c-1,0.7-2.6,1-4.1,1.2c-0.4,0-0.7,0.1-1.1,0.1c-13.3,1.5-26.9,2.2-40.5,2.5c-2.8,0-5.5-0.1-8.3-0.1
	l-7.9-0.1c-13.4-0.1-27-0.3-40.6,0c-27.6-0.5-54.7-1.8-80.5-4.1C249.4,246.7,244.4,240.2,242.6,222.2z M499.1,333.2
	c-0.4,4.7-0.9,9.5-1.3,14.3c-0.6,8-0.9,16.2-1.2,24c-0.9,22.5-1.7,43.7-8.3,64.6c-1,3-2.1,6.4-4.3,7.9c-1.7,1.2-4.5,1.4-7.6,1.6
	c-21.7,1.2-43.9,1.5-65.4,1.7c-4.4,0-8.7,0.1-13,0.1c-24.1,0.3-49.7,0.3-75-2.1c-6.4-0.6-13.8-1.5-20.4-3.8c-2.9-1-4.6-2.1-5.2-3.3
	c-0.5-1-0.6-2.9-0.6-4.5c-0.6-21.3-1.1-42.6-1.7-63.8l-0.5-17.9c-0.2-6.6-0.5-13.5-0.9-20.1c-1-19.8-2-40.3,1.1-59.3
	c0.4-2.6,1.1-5.7,2.8-6.9c1-0.7,2.6-1,4.1-1.2c0.4-0.1,0.8-0.1,1.1-0.1c13.3-1.5,26.9-2.2,40.5-2.5c2.8,0,5.5,0.1,8.3,0.1l7.9,0.1
	c8.1,0.1,16.2,0.2,24.4,0.2c5.3,0,10.7,0,16-0.1c27.7,0.5,54.8,1.8,80.7,4.1c13.1,1.1,18.2,7.6,20,25.6
	C501.8,305.4,500.4,319.5,499.1,333.2z"/>
<path class="st5" d="M460.5,279.4c-21.6-1.9-44.4-2.9-67.6-3.2l-5.9-0.1c-20.4-0.2-41.5-0.5-62,1.9c-0.3,0-0.7,0.1-1,0.1
	c0,0,0,0,0,0c-2.1,0.3-4.8,0.8-7.1,2.5c-3.8,2.8-5,7.3-5.6,10.9c-2.5,15.2-1.7,31.1-0.9,46.4c0.2,4.9,0.5,10,0.6,14.9l0.3,11.2
	c0.5,16.8,0.9,33.5,1.3,50.3c0,1.9,0.1,4.6,1.4,7.1c2.1,4,6,5.8,8.9,6.8c5.9,2.1,12.1,2.8,17.4,3.3c14.4,1.4,28.7,1.8,42.6,1.8
	c5,0,9.9,0,14.8-0.1c3.3,0,6.5-0.1,9.8-0.1c16.3-0.2,33.1-0.3,49.6-1.3c2.7-0.2,6.7-0.4,10.2-2.7c3.8-2.6,5.4-6.6,6.7-10.5
	c5.3-16.8,6-34.1,6.6-50.8c0.2-5.8,0.5-11.9,0.9-17.8c0.3-3.5,0.6-7.1,0.9-10.6c1-10.7,2.1-21.8,1-32.9
	C482.2,293.9,478.5,280.9,460.5,279.4z M472.5,338.4c-0.3,3.5-0.7,7.2-1,10.8c-0.4,6.1-0.7,12.2-0.9,18.1
	c-0.7,16.8-1.3,32.7-6.2,48.2c-0.7,2.2-1.5,4.4-2.8,5.3c-1.1,0.8-3.4,0.9-5.1,1c-16.3,0.9-33,1.1-49.1,1.2c-3.3,0-6.5,0.1-9.8,0.1
	c-18.1,0.2-37.3,0.3-56.3-1.6c-4.7-0.5-10.2-1.1-15.1-2.8c-2.5-0.9-3.1-1.6-3.2-1.9c-0.3-0.5-0.3-1.9-0.3-2.8
	c-0.4-16.8-0.9-33.5-1.3-50.3l-0.3-11.2c-0.1-5-0.4-10.2-0.6-15.2c-0.7-14.8-1.5-30.2,0.8-44.3c0.4-2.4,0.9-3.9,1.6-4.4
	c0.6-0.4,2-0.6,2.5-0.7c0.3,0,0.5-0.1,0.8-0.1c19.9-2.3,40.6-2,60.7-1.8l6,0.1c22.9,0.2,45.4,1.3,66.8,3.1
	c9.2,0.8,12.6,5.2,13.9,18.1C474.5,317.6,473.5,327.7,472.5,338.4z"/>
<path class="st5" d="M350.1,237.8l5.9,0.1c6.1,0.1,12.2,0.1,18.4,0.1c14.5,0,29.2-0.4,43.6-2c0.3,0,0.7-0.1,1-0.1l0,0
	c2.1-0.3,4.8-0.8,7.1-2.5c3.8-2.8,5-7.3,5.6-10.9c2.5-15.2,1.7-31.1,0.9-46.4c-0.2-4.9-0.5-10-0.6-14.9l-0.4-14.7
	c-0.4-15.6-0.8-31.1-1.2-46.7c-0.1-1.9-0.1-4.6-1.4-7.1c-2.1-4-6-5.8-8.9-6.8c-5.9-2.1-12.1-2.8-17.4-3.3
	c-19.5-1.9-39.1-1.9-57.4-1.7c-3.3,0-6.5,0.1-9.8,0.1c-16.3,0.2-33.1,0.3-49.6,1.3c-2.7,0.2-6.7,0.4-10.2,2.7
	c-3.8,2.6-5.4,6.6-6.7,10.5c-5.3,16.8-6,34.1-6.6,50.9c-0.2,5.8-0.5,11.9-0.9,17.8c-0.3,3.5-0.6,7.1-0.9,10.6
	c-1,10.7-2.1,21.8-1,32.9c1.3,12.5,5,25.5,23,27.1C304.2,236.5,326.9,237.6,350.1,237.8z M269.5,206.5c-1-10.1,0-20.2,1-30.9
	c0.3-3.5,0.7-7.2,1-10.8c0.4-6.1,0.7-12.2,0.9-18.1c0.7-16.8,1.3-32.7,6.2-48.2c0.7-2.2,1.5-4.4,2.8-5.3c1.1-0.8,3.4-0.9,5.1-1
	c16.3-0.9,33-1.1,49.1-1.3c3.3,0,6.6-0.1,9.8-0.1c4.8-0.1,9.7-0.1,14.6-0.1c13.7,0,27.7,0.3,41.7,1.7c4.7,0.5,10.2,1.1,15.1,2.8
	c2.5,0.9,3.1,1.6,3.2,1.9c0.3,0.5,0.3,1.9,0.3,2.8c0.4,15.6,0.8,31.1,1.2,46.7l0.4,14.7c0.1,5,0.4,10.2,0.6,15.2
	c0.7,14.8,1.5,30.2-0.8,44.3c-0.4,2.4-0.9,3.9-1.6,4.4c-0.6,0.4-2,0.6-2.5,0.7c-0.3,0-0.5,0.1-0.8,0.1c-19.9,2.3-40.6,2-60.7,1.8
	l-5.9-0.1c-22.9-0.2-45.4-1.3-66.8-3.1C274.2,223.9,270.8,219.5,269.5,206.5z"/>
<path class="st5" d="M118.1,235.2l5.9,0.1c6.1,0.1,12.2,0.1,18.4,0.1c14.5,0,29.2-0.4,43.6-2c0.3,0,0.7-0.1,1-0.1
	c2.1-0.3,4.8-0.8,7.1-2.5c3.8-2.8,5-7.3,5.6-10.9c2.5-15.2,1.7-31.1,0.9-46.4c-0.2-4.9-0.5-10-0.6-14.9l-0.3-11.2
	c-0.5-16.8-0.9-33.5-1.3-50.3c-0.1-1.9-0.1-4.6-1.4-7.1c-2.1-4-6-5.8-8.9-6.8c-5.9-2.1-12.1-2.8-17.4-3.3
	c-19.5-1.9-39.1-1.9-57.4-1.7c-3.3,0-6.5,0.1-9.8,0.1c-16.3,0.2-33.1,0.3-49.6,1.3c-2.7,0.2-6.7,0.4-10.2,2.7
	c-3.8,2.6-5.4,6.6-6.7,10.5c-5.3,16.8-6,34.1-6.6,50.9c-0.2,5.8-0.5,11.9-0.9,17.8c-0.3,3.5-0.6,7.1-0.9,10.6
	c-1,10.7-2.1,21.8-1,32.9c1.3,12.5,5,25.5,23,27.1C72.2,233.9,94.9,235,118.1,235.2z M37.5,203.9c-1-10.1,0-20.2,1-30.9
	c0.3-3.5,0.7-7.2,1-10.8c0.4-6.1,0.7-12.2,0.9-18.1c0.7-16.8,1.3-32.7,6.2-48.2c0.7-2.2,1.5-4.4,2.8-5.3c1.1-0.8,3.4-0.9,5.1-1
	c16.3-0.9,33-1.1,49.1-1.3c3.3,0,6.5-0.1,9.8-0.1c4.8-0.1,9.7-0.1,14.6-0.1c13.7,0,27.7,0.3,41.7,1.7c4.7,0.5,10.2,1.1,15.1,2.8
	c2.5,0.9,3.1,1.6,3.2,1.9c0.3,0.5,0.3,1.9,0.3,2.8c0.4,16.8,0.9,33.5,1.3,50.3l0.3,11.2c0.1,5,0.4,10.2,0.6,15.2
	c0.8,14.8,1.5,30.2-0.8,44.3c-0.4,2.4-0.9,3.9-1.6,4.4c-0.6,0.4-2,0.6-2.5,0.7c-0.3,0-0.5,0.1-0.8,0.1c-19.9,2.3-40.6,2-60.7,1.8
	l-6-0.1c-22.9-0.2-45.4-1.3-66.8-3.1C42.2,221.3,38.8,216.9,37.5,203.9z"/>
<path class="st5" d="M73.9,210.8c1.5,1.2,3.1,1.5,3.9,1.7c2.9,0.7,5.9,1,9,1c0.8,0,1.5,0,2.3-0.1c1.9-0.1,4.2-0.4,6.3-1.7
	c5.1-3.1,5.5-9.4,5.7-12.4c0.5-7.6,1.3-15.2,2.5-22.7c0.6,1.6,1.2,3.3,1.7,5.1c0.7,2.8,1.3,5.7,1.9,8.7c0.7,3.4,1.4,7,2.4,10.5
	c0.8,2.9,2.6,4.1,4,4.6c1.4,0.5,2.7,0.3,3.2,0.3l34.6-4.8c2.7-0.4,6.8-1,9.8-4c4.1-4.1,3.8-10,3.6-13.2l-3.8-68.7
	c-0.1-2.3-0.3-6.1-3.1-9c-2.7-2.8-6.4-3.2-8.4-3.4c-5.3-0.5-10.8-0.8-16.1-0.8c-0.7,0-2,0-3.4,0.6c-1.7,0.8-4.6,2.9-4.3,8.5
	c0.6,11.6,0.6,23.4,0,35c-6.3-9.7-11.6-20-15.9-30.8c-0.4-1.1-1.5-3.6-4.2-4.8c-1.9-0.9-3.7-0.6-4.6-0.5l-21,2.8
	c-0.7,0.1-1.9,0.2-3.1,0.9c-4.2,2.1-4.4,6.8-4.5,8.4c-0.8,14.1-1.5,28.7-1.9,43.1c-0.2,8-0.2,15.2-0.1,22c0,1.7-0.1,3.4-0.2,5.2
	c-0.3,4-0.6,8.5,0.8,13.3C71.3,207.4,72.1,209.3,73.9,210.8z M80,193.3c0.1-2,0.3-4,0.3-6.1c-0.1-6.7-0.1-13.8,0.1-21.6
	c0.3-14.3,1.1-28.8,1.9-42.8c0,0,0,0,0,0l18.5-2.5c6.3,15.5,14.7,30,24.8,43.3c1.3,1.6,3.4,2.3,5.4,1.8c2-0.6,3.4-2.3,3.6-4.3
	c1.6-16.2,2-32.6,1.2-48.9c4.2,0.1,8.5,0.3,12.7,0.7c1.4,0.1,2,0.3,2.2,0.4c0.2,0.5,0.3,2,0.3,2.5l3.8,68.7c0.1,1.4,0.3,4.7-0.7,5.6
	c-0.7,0.7-2.9,1-4.2,1.2l-31.4,4.4c-0.5-2.2-1-4.5-1.5-6.9c-0.6-3-1.2-6.2-2-9.3c-2.3-8.6-5.8-14.9-10.7-19.4
	c-1.3-1.2-3.2-1.6-4.9-1c-1.7,0.6-3,2-3.3,3.7c-2.5,11.9-4.1,24-4.9,36.1c-0.2,3.9-0.8,4.4-0.9,4.5c-0.1,0.1-0.5,0.2-1.7,0.3
	c-2.7,0.2-5.5-0.1-8.1-0.7C79.5,199.9,79.7,196.8,80,193.3z"/>
<path class="st5" d="M318.5,198.3c4.3,3,9.5,5.3,15.3,6.8c4.8,1.2,9.8,1.9,14.8,1.9c1.8,0,3.7-0.1,5.5-0.3c6.6-0.6,12-2.2,16.6-4.9
	c6.7-4,11.3-10.4,14.6-15.5c5.2-8.2,8.7-15.8,10.6-23.2c2.4-9.3,2.2-18.5-0.5-26.5c-4.3-12.7-14.8-22.2-28.9-25.9
	c-11.6-3.1-19.8-2.2-31.3,3.4c-7.2,3.5-13.5,8-18.7,13.4c-9.6,9.9-15.2,22.9-15.3,35.6C301.1,177.1,307.7,190.6,318.5,198.3z
	 M323.8,134.4c4.4-4.5,9.7-8.3,15.9-11.3c9.4-4.6,15.1-5.2,24.3-2.7c10.9,2.9,18.8,9.8,22,19.5c2.1,6.2,2.2,13.4,0.3,20.8
	c-1.6,6.3-4.6,13-9.3,20.2c-2.8,4.5-6.4,9.4-11.3,12.3c-3.2,1.9-7.3,3.1-12.4,3.6c-5.7,0.5-11.4,0.1-17-1.3c-4.7-1.2-8.7-3-12.1-5.3
	c-8.2-5.8-13.2-16.1-13-26.9C311.4,153,315.9,142.5,323.8,134.4z"/>
<path class="st5" d="M336.1,175.5c1.9,1.3,4.2,2.4,6.7,3c2.1,0.5,4.2,0.8,6.3,0.8c0.8,0,1.6,0,2.3-0.1c2.9-0.3,5.4-1,7.5-2.2
	c3.1-1.8,5.1-4.6,6.5-6.8c2.1-3.3,3.5-6.4,4.3-9.5c1-4,0.9-8.1-0.3-11.6c-1.9-5.7-6.6-10-12.9-11.7c-5-1.3-8.9-0.9-13.8,1.5
	c-3,1.5-5.6,3.4-7.8,5.6v0c-4.1,4.2-6.5,9.8-6.6,15.4C328.3,166,331.3,172,336.1,175.5z M342.2,151.4c1.4-1.4,3-2.6,5-3.6
	c2.8-1.4,4.1-1.5,6.8-0.8c1.7,0.5,4.8,1.8,6,5.2c0.7,2.2,0.4,4.4,0,5.9c-0.5,2-1.5,4.2-3,6.6c-0.8,1.3-1.9,2.8-3.1,3.5
	c-0.8,0.5-1.9,0.8-3.3,0.9c-1.8,0.2-3.5,0-5.2-0.4c-1.4-0.4-2.5-0.9-3.4-1.5c-2.2-1.5-3.5-4.4-3.5-7.4
	C338.4,157,339.8,153.8,342.2,151.4z"/>
<path class="st5" d="M186.6,380.5c-5.9-2.3-12.1-1.5-17-0.9l-16.1,2c-0.1,0-0.2,0-0.3,0c-0.1-0.3-0.2-0.7-0.4-1.3
	c-0.4-1.9-0.8-3.9-1.1-5.9c3,0.3,5.9,0.8,8.8,1.4l0.5,0.1c2.7,0.6,6.1,1.3,9.6,0.4c3.9-1,7.3-4,9.3-8.2c1.6-3.2,2.1-6.5,2.7-9.5
	c0.4-2.6,1.5-8.7-2.8-12.6c-4.6-4.2-10.6-2.3-14.1-1.2c-3.6,1.1-7.3,1.8-11.1,2c-0.2,0-0.3,0-0.4,0c0-0.1-0.1-0.1-0.1-0.2
	c-1.3-2.5-2.1-5.2-2.4-8c-0.3-2.6,0.2-4.3,0.6-4.5c0.7-0.4,3.2,0.3,4.6,0.8l0.3,0.1c5.5,1.6,11.1,2.6,16.8,2.7
	c2.2,0.1,4.6,0,6.9-0.9c4-1.5,7.1-5.1,9.1-10.3c0.5-1.4,4.8-13.8,0-21.5c-1.9-3.1-4.9-5-8.7-5.4c-11.8-1.3-24.1-0.9-34.7-0.3
	c-7.1,0.4-13.6,1-19.7,2.1h0c-4.6,0.8-9.7,2.1-12.8,6.4c-2.4,3.2-2.8,7-3.1,10.2c-0.7,10-0.4,20.1-0.1,29.8l1.6,48.5
	c0.1,1.9,0.2,5.1,2.3,7.8c1.8,2.3,4.3,3.3,6.4,3.9c6.6,1.9,13.4,2.5,19.3,2.9c8.3,0.5,16.6,0.8,24.9,0.8c5.5,0,10.9-0.1,16.4-0.3
	c1.2-0.1,3.3-0.1,5.3-1.6c2.4-1.8,3-4.6,3.3-5.8c1-4.7,1.7-9.5,1.9-14.2c0.1-1.2,0.2-3.6-1.3-5.8C189.8,382,187.9,381.1,186.6,380.5
	z M180.8,401.4c-13.1,0.5-26.5,0.4-39.6-0.5c-5.6-0.4-11.6-0.8-17.1-2.5c-0.8-0.2-1.2-0.4-1.4-0.5c-0.1-0.5-0.1-1.4-0.2-1.9
	l-1.6-48.6c-0.3-9.5-0.6-19.3,0-28.7c0.1-1.9,0.3-3.9,1.1-5c1.1-1.4,3.8-2.1,6.4-2.5c5.8-1,11.8-1.6,18.5-1.9
	c10.2-0.5,22.1-0.9,33.1,0.3c0.9,0.1,1.1,0.4,1.3,0.7c1.3,2.1,0.9,8-0.9,12.8c-0.9,2.4-2,3.9-3.2,4.4c-0.7,0.3-1.9,0.3-3.1,0.2
	c-4.8-0.2-9.6-0.9-14.2-2.3l-0.3-0.1c-3.4-1-8-2.4-12.4,0c-4.5,2.5-6.6,7.9-5.7,14.6c0.5,3.9,1.7,7.6,3.4,11.1
	c0.5,0.9,1.5,3.1,3.8,4.5c2.5,1.5,5.1,1.3,6.4,1.3c4.5-0.3,9-1.1,13.4-2.5c1-0.3,3.4-1.1,4.4-0.9c0.1,0.4,0.2,1.3-0.2,3.5
	c-0.4,2.5-0.8,4.9-1.8,6.8c-0.7,1.5-1.8,2.6-2.9,2.9c-1.2,0.3-2.9-0.1-4.8-0.5l-0.5-0.1c-4.1-0.9-8.4-1.5-12.6-1.8
	c-3.4-0.3-6,0.8-7.5,3c-1.5,2.1-1.2,4.4-1.1,5.4c0.3,3.3,0.9,6.6,1.6,9.8c0.4,1.7,1.6,7,6.5,8.7c2,0.7,3.9,0.5,5.1,0.3l16.1-2
	c3.8-0.5,8.1-1,11.5,0.1C182.1,393.6,181.6,397.6,180.8,401.4z"/>
<path class="st5" d="M445.9,375.8c-2.3-3.5-6.4-3.8-7.8-3.9c-7.9-0.6-15.7,0.2-23.3,1.1c-4.2,0.5-8.3,0.9-12.3,1.1
	c2.2-12.9,2.9-26,3.5-38.7l0.8-17.3c0.1-2.8,0.4-8.5-3.6-12.3c-2.5-2.3-5.7-2.9-7.4-3.3c-0.6-0.1-1.2-0.2-1.9-0.4
	c-9.7-2-20.7-3.8-27.4,0.7c-2.7,1.8-4.4,4.4-5.1,7.6c-0.7,3.7-0.6,7.5-0.5,11.1c0.1,1.7,0.1,3.3,0.1,4.8c-0.2,6.8-0.5,13.7-0.9,20.5
	c-0.5,7.6-1.1,15.3-1.8,22.8c-0.1,1.3-0.2,2.5-0.4,3.8c-0.8,8-1.6,16.2-1.5,24.4c0,1.3,0.1,4.1,2,6.4c2.2,2.7,5.5,3,7.1,3.2
	c20.4,2,41,3,61.5,3c3.5,0,7,0,10.4-0.1c1.3,0,4.8-0.1,7-2.9c1.2-1.6,1.5-3.3,1.6-4.2c1.2-7.5,1.5-15.2,1.1-22.8
	C447.3,379.7,447.2,377.7,445.9,375.8z M436.6,400.6c-23.2,0.4-46.8-0.6-69.9-2.9c0,0-0.1,0-0.1,0c-0.1-7.6,0.6-15.5,1.4-23.1
	c0.1-1.3,0.3-2.5,0.4-3.8c0.7-7.7,1.4-15.5,1.8-23.2c0.4-6.9,0.7-13.9,0.9-20.9c0-1.8,0-3.7-0.1-5.5c-0.1-3.1-0.2-6.3,0.3-8.8
	c0.1-0.6,0.3-0.9,0.8-1.2c3.8-2.5,15.4-0.1,19.8,0.8c0.8,0.2,1.5,0.3,2,0.4c0.5,0.1,2.1,0.4,2.5,0.8c0.2,0.2,0.6,1.1,0.4,4.4
	L396,335c-0.6,13-1.3,26.5-3.7,39.4c-0.2,1.3-0.9,4.7,1.5,7.4c2.3,2.6,5.5,2.5,6.8,2.5c5.2-0.1,10.4-0.7,15.4-1.3
	c7.4-0.8,14.4-1.6,21.4-1.1h0C437.7,388.1,437.5,394.4,436.6,400.6z"/>
</svg>
