<?xml version="1.0" encoding="utf-8"?>
<!-- Generator: Adobe Illustrator 25.2.3, SVG Export Plug-In . SVG Version: 6.00 Build 0)  -->
<svg version="1.1" id="Capa_1" xmlns="http://www.w3.org/2000/svg" xmlns:xlink="http://www.w3.org/1999/xlink" x="0px" y="0px"
	 viewBox="0 0 511 511" style="enable-background:new 0 0 511 511;" xml:space="preserve">
<style type="text/css">
	.st0{fill:#E1B946;}
	.st1{fill:#8CBEA3;}
	.st2{fill:#CFCB9D;}
	.st3{fill:#FFFFFF;}
	.st4{fill:#CC644F;}
	.st5{fill:#282828;}
</style>
<g>
	<path class="st0" d="M500.2,366.9c-5.8-0.6-11.5-1.6-16.9-3c-4.3-1.1-10.2-3.1-12.1-7.8c-0.8-2.1-0.8-4.4-0.8-6.6
		c0.1-8.3,0.1-16.8,2.3-24.9c0.6-2.2,1.4-4.9,3.2-7c2.3-2.9,6.3-4.6,10.9-4.9c0.4,0,0.9,0,1.3,0c3.9,0,7.9,0.9,11.5,1.7
		c0,0,0,0,0.1,0c0.1,0,0.1,0,0.2,0l4.1-0.4l0.2,4.2c0.8,14.9,1,30,0.4,45l-0.2,4.3L500.2,366.9z"/>
	<path class="st0" d="M397,437.4c-7.1,0-13.8-2.3-19-6.6c-3.2-2.7-5.7-5.9-7.1-9.3c-1.6-3.9-2.2-8.5-1.5-13.4
		c0.7-5.7,3.8-12.5,8.1-17.9c5.1-6.5,11.3-10.2,17.3-10.3c0.2,0,0.4,0,0.7,0c12.1,0,25.3,9.4,28.9,20.6c3.7,11.5-1.5,25.8-11.7,32.4
		C408.1,435.9,402.7,437.4,397,437.4z"/>
	<path class="st0" d="M108.4,437.4c-7.1,0-13.8-2.3-19-6.6c-3.2-2.7-5.6-5.9-7.1-9.3c-1.6-3.9-2.2-8.5-1.5-13.4
		c1.4-11,12.3-27.8,25.4-28.2c0,0,0.5,0,0.6,0c12.1,0,25.4,9.4,28.9,20.6c3.7,11.5-1.5,25.8-11.7,32.4
		C119.5,435.9,114.1,437.4,108.4,437.4z"/>
	<path class="st0" d="M6.1,360c0.2-17.8,0.7-35.9,1.6-53.8l0.2-3.6l3.6-0.2c1.1-0.1,2.1-0.1,3.1-0.1c6,0,10.1,1.5,12.5,4.5
		c2.8,3.5,3,8.4,2.9,12.8c-0.2,13.3-1.7,26.6-4.5,39.5l0,0.2c0,0.2-0.1,0.4-0.1,0.6l-0.6,2.4l-2.4,0.5c-0.2,0.1-0.5,0.1-1,0.2
		c-3.6,0.7-7.4,1-11.2,1.1L6,364.1L6.1,360z"/>
</g>
<path class="st1" d="M318.1,416.9c-45.3-1.3-91.3-2.2-136.7-2.6l-3.9,0l-0.1-3.9c-0.2-11.9-3-23.2-8-32.9
	c-8.6-16.4-25-28.5-44.9-33.2c-6-1.4-12.2-2.1-18.4-2.1c-15.9,0-31.2,4.7-43.1,13.3c-15.4,11.1-25.8,28.3-28.7,47.1
	c-0.2,1.5-0.4,3-0.5,4.6l-0.3,3.7h-4.1l-0.1,0l-22.7-0.1l-0.1-3.9C6.2,395.1,6,382.7,6.1,370l0-3.9l3.9,0c4,0,7.9-0.4,11.7-1.1
	c1.1-0.2,3-0.5,4.2-1.9c1-1.1,1.3-2.5,1.5-3.5c2.8-13.1,4.4-26.5,4.5-39.9c0.1-5.1-0.3-10.3-3.4-14.1c-2.9-3.5-7.5-5.3-14.1-5.3
	c-0.7,0-1.5,0-2.1,0.1l-4.4,0.2l0.2-4.4c0.2-3.4,0.4-6.8,0.6-10.3c0.2-3,0.5-4.1,1.1-4.9l0.5-0.8l0.8-0.5c1-0.6,2.2-0.8,4.5-0.8
	c0.3,0,0.5,0,0.7,0c3.1,0.1,6.3,0.1,9.4,0.1c16.4,0,32.9-0.7,49.1-2.1c3.2-0.3,7.5-0.7,10.8-3.1c4.5-3.3,5.7-9.3,6.6-13.6l17.5-85
	c0.6-3.1,1.4-7,3.7-9.7c3.6-4.5,10.1-5.2,16.5-5.7c63-4,127.2-6,190.8-6c16.4,0,33,0.1,49.3,0.4c2.5,0,5.6,0.1,7.8,1.7
	c2.2,1.6,3.3,4.5,4.2,7.6l29.2,97c2.2,7.2,5.4,18,13.7,23.1c5.7,3.6,12.8,3.9,18.9,3.9l1.7,0l48.2-0.2c3.1,0,5.2,0.3,6.6,1.6
	c1.3,1.2,1.7,3,2,6c0.5,4.3,0.9,8.7,1.2,13.1l0.4,5.4l-5.3-1.2c-3.2-0.7-6.9-1.5-10.6-1.5c-0.5,0-0.9,0-1.4,0
	c-5.2,0.3-9.7,2.3-12.4,5.7c-2,2.4-3,5.4-3.6,7.8c-2.2,8.4-2.3,17-2.4,25.4c0,2.4,0,5,0.9,7.4c2.3,5.6,8.8,7.8,13.5,9
	c5.7,1.4,11.7,2.5,17.7,3.1l3.8,0.4l-0.2,3.8c-0.8,12.7-2.1,25.5-3.8,37.9l-0.5,3.3l-33.8,1.5v-4.2c0-12.4-2.8-24.2-8-34.3
	c-8.6-16.4-25-28.5-44.9-33.2c-6-1.4-12.2-2.1-18.4-2.1c-15.9,0-31.2,4.7-43.1,13.3c-15.4,11.2-25.8,28.3-28.7,47.1
	c-0.5,3.4-0.8,6.9-0.8,10.3l0,4.1L318.1,416.9z M221.9,176.9c-25.1,0-50.7,1.6-78,4.8c-1.7,0.2-4,0.5-5.6,1.9c-1.4,1.2-2,3-2.4,4.3
	c-8.4,24.8-13.9,50.6-16.4,76.7c-0.2,2.1-0.5,5.1,0.8,7.5c2.4,4.6,8.7,5.2,11.4,5.5c16.8,1.7,33.8,1.7,50.2,1.7l197.8,0.1
	c0.3,0,0.5-0.1,0.7-0.3c0.2-0.2,0.3-0.4,0.3-0.7c-0.2-16.6-2.5-34.7-7.3-57c-0.6-2.7-1-5.9-1.4-9.3l0-0.3
	c-1.6-12.9-3.7-29-16.6-32.9c-2.6-0.8-5.4-1.2-9-1.2c-2.5,0-5,0.2-7.4,0.4l-0.9,0.1c-9.3,0.7-19.3,1-30.5,1
	c-15.1,0-30.2-0.6-44.8-1.2c-6.9-0.3-14.9-0.6-22.8-0.8C233.9,177,227.9,176.9,221.9,176.9z"/>
<path class="st2" d="M405.1,474.7c-11.9,0-24.5-2.4-37.3-7.3c-16.4-6.2-28.3-14.7-35.3-25.3c-7-10.6-9.7-24.9-7.6-39.2
	c2.7-18,13.2-35.1,27.9-45.7c11.6-8.4,26.4-13,41.9-13c6,0,12.1,0.7,18,2.1c19.6,4.6,35.1,16,43.6,32.1c9.6,18.3,10.4,42,2.2,63.4
	c-3.1,7.9-6.7,14-11.3,18.5c-5.5,5.5-13.1,9.6-22.4,12C418.5,473.9,411.9,474.7,405.1,474.7z M394.8,378c-14.4,0.4-25.8,18-27.3,30
	c-0.7,5.2-0.1,10.2,1.7,14.4c1.6,3.7,4.2,7.2,7.7,10c5.5,4.6,12.7,7.1,20.2,7.1c6.1,0,11.9-1.7,16.7-4.8
	c11.2-7.2,16.6-22.2,12.6-34.7c-3.9-12.1-17.7-22-30.9-22H394.8z"/>
<path class="st3" d="M271.4,277.4l-0.2-3.8c-1.6-29.7-2.3-59.7-2.2-89.2l0-4.1l4.1,0.2c10.2,0.4,22.2,0.8,34.3,0.8
	c11.2,0,21.3-0.3,30.7-1l0.9-0.1c2.4-0.2,4.9-0.4,7.3-0.4c3.3,0,5.9,0.3,8.3,1.1c11.7,3.6,13.6,18.9,15.2,31.2
	c0.4,3.4,0.9,6.9,1.5,9.8c4.3,20,6.6,36.3,7.2,51.5l0.2,4.1L271.4,277.4z"/>
<path class="st4" d="M279.3,127.8c-4.5,0-9.2-0.6-13.9-1.7c-8.2-2-14.6-5.4-19.2-10c-0.3-0.3-0.6-0.3-0.7-0.3
	c-0.2,0-0.4,0.1-0.6,0.2c-6.5,4.6-14.5,7.1-22.7,7.1c-5.3,0-10.5-1.1-15.2-3c-12.2-5.2-21.3-17-23.4-30.1c-1-6.4-0.4-13.4,1.7-20.7
	c1.8-6.3,4.5-11.5,7.8-15.6c6.1-7.5,16-12.4,26.5-13.2c1.2-0.1,2.4-0.1,3.6-0.1c11.5,0,26.4,4,32.3,12.9c0.2,0.3,0.5,0.5,0.8,0.5
	c0.4,0,0.7-0.2,0.9-0.5c5.8-9.2,16.8-15,28.5-15c2.7,0,5.3,0.3,7.9,0.9c13.2,3.2,24.5,14.2,28.6,28c3.9,13,1.6,28.1-6.1,40.4
	c-3.4,5.5-7.5,10-12.2,13.3C297.3,125.3,288.8,127.8,279.3,127.8z M281.4,68c-3.2,0-5.9,1.4-7.9,4.1c-1.5,2-2.3,4.2-3,6.4
	c-0.9,2.6-1.5,5.4-0.7,8.1c0.7,2.2,2.5,4.2,4.9,5.5c1.9,1,4,1.5,6.9,1.8c0.8,0.1,1.5,0.1,2.2,0.1c3,0,5.4-0.6,7.3-1.8
	c3.9-2.4,5.8-7.8,4.6-12.6c-1.4-5.4-6.5-10.3-12-11.3C282.9,68.1,282.1,68,281.4,68z M222.3,68c-3.2,0-5.9,1.4-7.9,4.1
	c-1.5,2-2.4,4.3-3,6.4c-0.9,2.6-1.5,5.4-0.7,8.1c0.7,2.2,2.5,4.2,4.9,5.5c1.9,1,4,1.5,6.9,1.8c0.8,0.1,1.5,0.1,2.2,0.1
	c3,0,5.4-0.6,7.3-1.8c3.9-2.4,5.9-7.8,4.6-12.6c-1.4-5.4-6.6-10.3-12-11.3C223.8,68.1,223.1,68,222.3,68z"/>
<path class="st0" d="M236.1,277.4l-0.2-3.8c-1.4-29.9-2.4-60.4-2.8-90.4l-0.1-4.1l4.1,0.1l2.6,0c6.8,0.2,13.7,0.5,20.3,0.8
	c0,0,3,0.1,3.1,0.1l3.8,0.2l0,3.8c-0.1,29.4,0.7,59.4,2.2,89.2l0.2,4.2L236.1,277.4z"/>
<path class="st0" d="M234.7,148.7c0.1-7.6,0-15.2-0.2-22.5l-0.1-2.9l2.7-1c2.1-0.8,4.1-1.7,6-2.8l2.4-1.3l2.1,1.7
	c2.7,2.2,6,4.1,9.7,5.6l2.7,1.1l-0.2,2.9c0.4,6.2,0.5,12.4,0.3,18.6c0,0.1,0,0.1,0,0.2v3.9l-3.9,0.1c-5.7,0.1-11.5,0.3-17.2,0.4
	l-4.2,0.1L234.7,148.7z"/>
<path class="st3" d="M181.7,277.4c-16.4,0-33.4,0-49.9-1.7c-3.9-0.4-8.2-1.2-9.8-4.4c-0.9-1.8-0.8-4.1-0.6-6.4
	c2.5-25.9,8-51.6,16.3-76.2c0.5-1.6,0.8-2.3,1.4-3l0.4-0.5l0.5-0.3c0.9-0.6,1.9-0.9,4.1-1.1c27.3-3.2,52.8-4.7,77.8-4.7
	c1.7,0,3.5,0,5.2,0l3.9,0l0.1,3.9c0.4,29.9,1.3,60.3,2.8,90.3l0.2,4.2L181.7,277.4z"/>
<path class="st2" d="M116.4,474.7c-11.9,0-24.5-2.4-37.3-7.3c-16.4-6.2-28.3-14.7-35.3-25.3c-7-10.6-9.7-24.9-7.6-39.2
	c2.7-18,13.2-35.1,27.9-45.7c11.6-8.4,26.4-13,41.9-13c6,0,12.1,0.7,18,2.1c19.6,4.6,35.1,16,43.6,32.1c9.6,18.3,10.4,42,2.2,63.3
	c-3.1,7.9-6.8,14-11.3,18.5c-5.5,5.5-13,9.6-22.4,12C129.8,473.9,123.2,474.7,116.4,474.7z M106.2,378c-14.4,0.4-25.8,18-27.4,30
	c-0.7,5.2-0.1,10.2,1.7,14.4c1.6,3.7,4.2,7.2,7.7,10c5.5,4.6,12.7,7.1,20.2,7.1c6.1,0,11.9-1.7,16.7-4.8
	c11.2-7.2,16.6-22.2,12.6-34.7c-3.9-12.1-17.7-22-30.9-22C106.6,377.9,106.4,378,106.2,378z"/>
<path class="st5" d="M106.1,374c-16.7,0.4-29.5,19.8-31.2,33.4c-0.8,5.9-0.1,11.6,2,16.5c1.8,4.3,4.8,8.3,8.8,11.5
	c6.4,5.3,14.6,8,22.8,8c6.7,0,13.3-1.8,18.9-5.4c12.6-8.2,18.7-25.1,14.2-39.3C137.1,384.7,121.1,373.6,106.1,374z M121.9,429.6
	c-8.8,5.7-21.7,4.9-29.9-1.9c-2.7-2.2-4.8-4.9-5.9-7.7c-1.4-3.2-1.8-7.1-1.3-11.3c1.3-9.8,10.9-24.4,21.6-24.7c0.2,0,0.3,0,0.5,0
	c10.4,0,22.1,8.2,25.1,17.8C135.1,411.7,130.7,423.9,121.9,429.6z"/>
<path class="st5" d="M395.5,374c-0.3,0-0.5,0-0.8,0c-16.7,0.4-29.5,19.8-31.2,33.4c-0.8,5.9-0.1,11.6,2,16.5
	c1.8,4.3,4.9,8.3,8.8,11.5c6.4,5.3,14.6,8,22.8,8c6.7,0,13.3-1.8,18.9-5.4c12.6-8.2,18.7-25.1,14.2-39.3
	C425.8,384.9,410.3,374,395.5,374z M410.5,429.6c-8.8,5.7-21.7,4.9-29.9-1.9c-2.7-2.2-4.8-4.9-5.9-7.7c-1.4-3.2-1.8-7.1-1.3-11.3
	c1.3-9.8,10.9-24.4,21.6-24.7c10.5-0.3,22.5,8,25.6,17.8C423.7,411.7,419.3,423.9,410.5,429.6z"/>
<path class="st5" d="M508.3,294.2c-0.3-2.5-0.7-6.8-3.9-9.8c-3.5-3.3-8.4-3.3-11-3.3l-47.9,0.2c-7.2,0-13-0.2-17.5-2.9
	c-5.9-3.7-8.6-11.4-11.1-19.7l-29.2-97c-0.9-3.1-2.4-7.9-6.5-10.8c-3.7-2.7-8.2-2.7-11.2-2.8c-34.6-0.6-69.3-0.5-104.1,0.1
	c0.2-5.3,0.1-10.6-0.1-15.8c4.5,1,9.1,1.5,13.5,1.5c10.6,0,20.4-2.8,28.3-8.3c5.3-3.7,10-8.8,13.9-15c8.6-13.8,11.1-30.8,6.7-45.4
	c-4.8-15.9-17.7-28.5-33-32.1c-14.1-3.4-29.5,1.4-39,11.6c-3.8-3.3-8.9-6-14.9-7.9c-7.1-2.2-15.1-3.1-22-2.5
	c-12.3,1-23.5,6.6-30.7,15.4c-3.9,4.8-6.9,10.7-8.9,17.8c-2.4,8.2-3,16-1.9,23.3c2.3,15.1,12.9,28.8,27,34.8
	c7.5,3.2,15.8,4.2,23.8,3.1c0.2,6.8,0.3,13.7,0.2,20.5c-33.2,1-66.3,2.5-99.2,4.6c-7.3,0.5-15.6,1.5-20.8,7.9
	c-3.1,3.9-4.1,8.6-4.9,12.3l-17.5,84.9c-0.9,4.2-1.9,8.2-4.3,10c-1.8,1.3-4.5,1.6-7.7,1.9c-19.2,1.7-38.6,2.4-57.9,2
	c-2.5,0-6.7-0.1-10,2.8c-3.3,3-3.6,7.4-3.7,9.8c-2.7,41.9-3.4,84.5-2.2,126.5c0.1,2.7,2.3,4.8,5,4.9l24,0.1h0c0,0,0,0,0.1,0
	c0.7,10.5,3.8,20.3,9.2,28.5c7.7,11.7,20.5,21,38.2,27.7c13.5,5.1,26.8,7.7,39.4,7.7c7.3,0,14.4-0.9,21.1-2.6
	c10.4-2.7,18.9-7.3,25.1-13.6c5.1-5.1,9.3-11.9,12.6-20.6c3-7.7,4.8-15.7,5.6-23.6c45.8,0.5,92.2,1.4,138,2.7
	c1.3,8.2,4.2,15.8,8.5,22.4c7.7,11.7,20.5,21,38.2,27.7c13.5,5.1,26.8,7.7,39.4,7.7c7.3,0,14.4-0.9,21.1-2.6
	c10.4-2.7,18.9-7.3,25.1-13.6c5.1-5.1,9.3-11.9,12.6-20.6c2.8-7.2,4.6-14.7,5.5-22.2l31.5-1.4c2.4-0.1,4.4-1.9,4.7-4.3
	C511.7,375.8,512.6,334.8,508.3,294.2z M500.2,318.3c0.8,14.9,1,29.7,0.4,44.6c-5.5-0.6-11-1.5-16.4-2.9c-5.4-1.4-8.5-3.1-9.4-5.4
	c-0.5-1.3-0.5-3.2-0.5-5.1c0.1-8,0.1-16.3,2.2-23.9c0.5-1.8,1.2-4,2.4-5.5c1.6-2,4.6-3.2,8.1-3.4c3.7-0.2,7.8,0.7,11.7,1.6
	C499.2,318.3,499.7,318.4,500.2,318.3z M208.7,116.3c-10.9-4.7-19.2-15.3-21-27.1c-0.9-5.9-0.4-12.3,1.6-19c1.7-5.7,4-10.5,7.1-14.2
	c5.4-6.6,14.3-11.1,23.7-11.8c11.4-0.9,27,3,32.3,11c0.9,1.4,2.5,2.3,4.2,2.3c1.7,0,3.3-0.9,4.2-2.3c6.4-10.1,19.9-15.3,32.1-12.3
	c11.9,2.8,22,12.8,25.7,25.3c3.6,11.9,1.5,25.8-5.6,37.2c-3.2,5.1-6.9,9.2-11.1,12.1c-9.2,6.4-22.1,8.2-35.4,4.9
	c-7.5-1.8-13.3-4.8-17.3-8.9c-1-1-2.3-1.5-3.6-1.5c-1,0-2,0.3-2.9,0.9C233,119.5,219.6,121,208.7,116.3z M238.5,126.1
	c2.3-0.8,4.4-1.8,6.5-3c3,2.4,6.6,4.5,10.6,6.2c0,0.1,0,0.2,0,0.4c0.4,6.2,0.5,12.5,0.3,18.7c0,0,0,0.1,0,0.1
	c-5.7,0.1-11.5,0.3-17.2,0.4C238.8,141.2,238.8,133.6,238.5,126.1z M11.6,306.3c5-0.3,10,0,12.3,2.9c2,2.4,2.1,6.6,2,10.2
	c-0.2,13-1.7,26-4.4,38.7c0,0.1-0.1,0.4-0.1,0.6c-0.2,0-0.4,0.1-0.8,0.2c-3.5,0.6-7,1-10.6,1C10.2,342.1,10.8,324.2,11.6,306.3z
	 M166,440.3c-2.9,7.4-6.3,13-10.4,17.1c-5,5-11.9,8.7-20.6,11c-20.5,5.4-40.9,0.4-54.5-4.7c-15.6-5.9-26.8-13.9-33.3-23.8
	c-6.4-9.8-9-23.1-7-36.4c2.6-16.9,12.4-33.1,26.3-43.1c11-8,25-12.2,39.5-12.2c5.7,0,11.4,0.7,17.1,2c18.5,4.3,33,15,40.9,30.1
	C173.1,397.6,173.8,420,166,440.3z M454.6,440.3c-2.9,7.4-6.3,13-10.4,17.1c-5,5-11.9,8.7-20.6,11c-20.5,5.4-40.9,0.4-54.5-4.7
	c-15.6-5.9-26.8-13.9-33.3-23.8c-6.4-9.8-9-23.1-7-36.4c2.6-16.9,12.4-33.1,26.3-43.1c11-8,25-12.2,39.5-12.2c5.7,0,11.4,0.7,17.1,2
	c18.5,4.3,33,15,40.9,30.1C461.7,397.6,462.5,420,454.6,440.3z M470,411.7c0-12.8-2.8-25.3-8.5-36.1c-9.2-17.4-26.5-30.3-47.5-35.2
	c-22.9-5.4-47.1-0.9-64.7,11.9C333,364,322,382.2,319,402c-0.6,3.7-0.8,7.3-0.8,10.9c-45.4-1.3-91.4-2.2-136.8-2.6
	c-0.2-12.3-3-24.3-8.5-34.7c-9.2-17.4-26.5-30.3-47.5-35.2c-22.9-5.4-47.1-0.9-64.7,11.9C44.4,364,33.4,382.2,30.3,402
	c-0.2,1.6-0.4,3.3-0.6,4.9c-0.1,0-0.1,0-0.2,0l-19.2-0.1C10.2,394.5,10,382.3,10,370c4.2,0,8.3-0.4,12.4-1.2
	c1.4-0.3,4.3-0.8,6.5-3.1c1.7-1.9,2.2-4.1,2.5-5.4c2.9-13.4,4.4-27.1,4.6-40.7c0.1-5.9-0.4-11.9-4.3-16.7c-5.2-6.3-13.4-7-19.5-6.7
	c0.2-3.4,0.4-6.8,0.6-10.2c0.1-1.7,0.3-2.7,0.5-3c0.5-0.3,2.5-0.3,3.1-0.3c19.6,0.3,39.4-0.4,58.9-2.1c3.4-0.3,8.6-0.8,12.8-3.8
	c5.7-4.2,7.2-11.3,8.2-16l17.5-84.9c0.6-2.8,1.3-6.1,2.8-8c2.6-3.2,8.2-3.9,13.6-4.2c79.5-5,160.1-6.9,239.7-5.6
	c1.8,0,4.4,0.1,5.6,0.9c1.3,0.9,2.1,3.6,2.7,5.5l29.2,97c2.3,7.7,5.8,19.4,15.4,25.4c7.3,4.5,15.9,4.5,22.8,4.4l47.9-0.2
	c0.9,0,3.4,0,4,0.5c0.5,0.5,0.8,2.7,0.8,3.6c0.5,4.3,0.8,8.6,1.2,12.9c-4-0.9-8.5-1.8-13.1-1.5c-6.3,0.3-11.9,2.9-15.3,7.1
	c-2.5,3-3.6,6.5-4.3,9.3c-2.3,8.8-2.4,17.8-2.5,26.4c0,2.6-0.1,5.8,1.2,8.9c2.9,7.3,10.7,10,16.3,11.4c6,1.5,12.2,2.6,18.3,3.2
	c-0.8,12.6-2,25.1-3.8,37.6L470,411.7z"/>
<path class="st5" d="M375.7,211.3c-1.7-13.3-4-31.5-19.4-36.2c-6-1.8-12.3-1.4-17.9-1l-0.9,0.1c-24.8,1.8-50.3,0.8-74.8-0.2
	c-7.5-0.3-15.2-0.6-22.8-0.8c-31-0.9-62.6,0.5-96.6,4.5c-2,0.2-5.3,0.6-7.8,3c-2.1,1.9-2.9,4.4-3.5,6c-8.5,25.1-14,51.2-16.6,77.6
	c-0.2,2.5-0.6,6.2,1.2,9.8c3.4,6.5,11.5,7.3,14.5,7.6c16.9,1.7,34,1.7,50.5,1.7l197.8,0.1h0c1.3,0,2.6-0.5,3.6-1.5
	c0.9-1,1.5-2.2,1.5-3.6c-0.2-16.9-2.5-35.3-7.4-57.9C376.6,218,376.2,214.8,375.7,211.3z M262.4,184c0.2,0,0.4,0,0.5,0
	c-0.1,29.7,0.7,59.7,2.2,89.4l-25.3,0c-1.4-29.9-2.4-60.3-2.8-90.3c0.8,0,1.7,0,2.6,0.1C247.2,183.4,254.9,183.7,262.4,184z
	 M132.2,271.7c-3.8-0.4-6.1-1.2-6.7-2.3c-0.5-0.9-0.3-2.9-0.1-4.2c2.5-25.6,7.9-51,16.1-75.4c0.2-0.5,0.5-1.5,0.7-1.7
	c0.4-0.2,1.8-0.4,2.3-0.5c27-3.2,52.5-4.7,77.4-4.7c1.7,0,3.4,0,5.2,0c0.4,30,1.3,60.4,2.8,90.4l-48.1,0
	C165.4,273.4,148.6,273.3,132.2,271.7z M275.2,273.4c-1.6-29.5-2.3-59.4-2.2-89c21.5,0.8,43.6,1.4,65.4-0.3l0.9-0.1
	c5.1-0.4,9.9-0.8,14.2,0.5c9.2,2.8,10.9,16.1,12.4,27.9c0.5,3.7,0.9,7.1,1.6,10.2c4.3,19.6,6.5,35.9,7.1,50.8L275.2,273.4z"/>
<path class="st5" d="M225.3,64.3c-5.6-1.1-10.7,0.9-14.1,5.4v0c-1.8,2.5-2.9,5.2-3.6,7.5c-1,3.1-1.9,6.8-0.7,10.6
	c1,3.3,3.5,6.1,6.9,7.8c2.3,1.2,5,1.9,8.4,2.2c0.9,0.1,1.7,0.1,2.5,0.1c3.7,0,6.8-0.8,9.4-2.4c5.4-3.3,8-10.5,6.4-17
	C238.7,71.7,232.3,65.7,225.3,64.3z M228.8,87.1c-1.2,0.8-3.1,1-5.8,0.8c-2-0.2-3.5-0.5-4.6-1.1c-1-0.5-1.7-1.2-1.9-1.9
	c-0.3-1.1,0.2-3,0.7-4.4c0.5-1.6,1.2-3.4,2.1-4.6c1.1-1.5,2.4-1.9,4.2-1.6c3.2,0.6,6.6,3.8,7.4,6.9C231.3,83.4,230.5,86,228.8,87.1z
	"/>
<path class="st5" d="M272.8,95.7c2.3,1.2,5,1.9,8.4,2.2c0.9,0.1,1.7,0.1,2.5,0.1c3.7,0,6.8-0.8,9.4-2.4c5.4-3.3,8-10.5,6.4-17
	c-1.8-6.9-8.1-12.9-15.1-14.3c-5.6-1.1-10.7,0.9-14.1,5.4c-1.8,2.5-2.9,5.2-3.6,7.5c-1,3.1-1.9,6.8-0.7,10.6
	C267,91.1,269.5,94,272.8,95.7z M276.2,80.4c0.5-1.6,1.2-3.4,2.1-4.6c1.1-1.5,2.4-2,4.2-1.6c3.2,0.6,6.6,3.8,7.4,6.9
	c0.6,2.3-0.3,4.9-2,6c-1.2,0.8-3.1,1-5.8,0.8c-2-0.2-3.5-0.5-4.6-1.1c-1-0.5-1.7-1.2-1.9-1.9C275.2,83.7,275.7,81.9,276.2,80.4z"/>
</svg>
