<?xml version="1.0" encoding="utf-8"?>
<!-- Generator: Adobe Illustrator 25.2.3, SVG Export Plug-In . SVG Version: 6.00 Build 0)  -->
<svg version="1.1" id="Capa_1" xmlns="http://www.w3.org/2000/svg" xmlns:xlink="http://www.w3.org/1999/xlink" x="0px" y="0px"
	 viewBox="0 0 511 511" style="enable-background:new 0 0 511 511;" xml:space="preserve">
<style type="text/css">
	.st0{fill:#FFFFFF;}
	.st1{fill:#8CBEA3;}
	.st2{fill:#E1B946;}
	.st3{fill:#CC644F;}
	.st4{fill:#D4B1A6;}
	.st5{fill:#CFCB9D;}
	.st6{fill:#939BAA;}
	.st7{fill:#282828;}
</style>
<path class="st0" d="M160.7,272.5c-2.7,0-4.5-0.3-5.7-1.1l-0.7-0.4l-0.5-0.7c-1.5-2.1-1.4-5.1,0.6-12.2c0.3-1,0.6-2.1,0.8-3
	c3.4-16.1,7.4-32.5,11.8-48.6c0,0,0.2-0.7,0.2-0.8l0.7-2.4l2.5-0.4c0.4-0.1,0.8-0.1,1-0.1c10.4-1,21.6-1.4,34.2-1.4
	c16.5,0,33.2,0.8,49.3,1.6l0.1,0c16.3,0.8,33,1.6,49.6,1.6c6.6,0,12.7-0.1,18.6-0.4c0.4,0,1,0,1.7,0c1.9,0,3.4,0.2,4.6,1.2
	c1.3,1,1.8,2.5,2.5,4.5l0.1,0.2c5.2,17.1,9.6,34.6,13.1,52.1c0.1,0.2,0.1,0.5,0.1,0.7l0.5,3.8l-3.6,0.6l-0.2,0.1l-1,0
	c-3.6,0-7.2,0-10.9,0c-15.2,0-30.7,0.1-47.6,0.5c-35.6,0.6-71.2,1.9-104.4,3.1c-1.5,0.1-3.4,0.3-6,0.6
	C169.2,271.9,164.4,272.5,160.7,272.5z"/>
<path class="st1" d="M350.4,397.3c-32.4-1-65.1-1.7-97.3-1.8l-3.8,0l-0.1-3.8c-1.4-38.7-1.9-77.6-1.5-115.9c0,0,0-0.1,0-0.3
	l-1.1-4.7l-0.8,4.7c0,0.1,0,0.2,0,0.3c-0.4,38.2,0.1,77.1,1.5,115.5l0.1,4.1l-4.2,0c-3.9,0-7.9,0-11.8,0c-24.3,0-48.7,0.2-72.5,0.7
	l-4.1,0.1l0-4.1c0.1-12.4-3.7-24.5-10.6-34c-9.9-13.7-26.7-22.5-46-24.3c-2.2-0.2-4.5-0.3-6.7-0.3c-16.8,0-31.9,5.6-42.5,15.9
	c-8.9,8.6-15,20.4-17.1,33.1l-0.5,3.1l-3.3,0.3c0,0-0.3,0-0.3,0c-2.4,0.2-5,0.4-7.5,0.4c-3.5,0-7-0.2-10.4-0.7l-3.6-0.5L8.5,329
	l4.7,1.1c2.5,0.6,5.1,0.9,7.7,0.9c7.3,0,14.4-2.3,20.1-6.5c2.6-1.9,4.2-3.7,5.2-5.8c1-2.1,1.4-4.5,1.5-6.7
	c0.6-7.4,0.1-14.8-1.4-22.1c-0.2-0.7-0.3-1.3-0.3-1.8l-0.1-1.5l0.7-1l1-2.1l52.9-2.6c4.3-0.2,9.2-0.5,13.4-2.8
	c7.2-4,9.8-12.9,11.7-20.9l14-58.7c0.7-2.7,1.5-6,3.6-8.1c2.2-2,5.4-2.6,8.8-3c48.3-6.2,97.5-9.4,146.4-9.4c16.1,0,32.5,0.3,48.5,1
	c2.6,0.1,4.8,0.3,6.4,1.6c1.3,1.1,2,2.8,2.7,5l20.6,62.8c2.1,6.3,4.4,13.4,10,18.1c6.2,5.1,15.1,5.9,21.6,6.4l55.7,4.5l-1.8,4.9
	c-3.3,9-4.1,19-4.8,27.8c-0.2,2.7-0.5,6,1,8.9c2,3.9,6.7,5.6,10,6.5c7,1.9,14.2,2.9,21.4,2.9c1.1,0,2.3,0,3.5-0.1
	c0.2,0,0.4-0.1,0.5-0.2l5.6-4.1l0.8,6.9c2.3,20.2,3.7,40.3,4.4,59.8l0.1,4.1h-26.7l-0.1-3.9c-0.2-12-3.9-23.6-10.6-32.8
	c-9.9-13.7-26.7-22.5-46-24.3c-2.2-0.2-4.5-0.3-6.7-0.3c-16.8,0-31.9,5.6-42.5,15.9c-11.5,11.1-18.2,27.4-17.8,43.8l0.1,4.2
	L350.4,397.3z M217.2,310.6c2.2,0,4.4,0.2,6.5,0.5c0.1,0,0.1,0,0.2,0c0.4,0,0.9-0.3,1-0.8c0.1-0.4-0.1-0.6-0.2-0.8
	c-0.1-0.2-0.3-0.4-0.7-0.4c-2.3-0.4-4.6-0.6-6.9-0.6s-4.6,0.2-6.9,0.6c-0.3,0.1-0.5,0.3-0.7,0.4c-0.1,0.2-0.2,0.4-0.2,0.7
	c0.1,0.6,0.6,0.9,1,0.9c0.1,0,0.1,0,0.2,0C212.8,310.8,215,310.6,217.2,310.6z M276.3,305.2c-2.8,0-5.7,0.2-8.6,0.6
	c-0.4,0.1-0.6,0.3-0.7,0.4c-0.1,0.2-0.2,0.4-0.2,0.7c0.1,0.5,0.5,0.9,1,0.9c0.1,0,0.1,0,0.2,0c2.7-0.4,5.5-0.6,8.3-0.6
	c2.6,0,5.2,0.2,7.7,0.5c0,0,0.1,0,0.1,0c0.5,0,0.9-0.4,1-0.9c0-0.3-0.1-0.6-0.2-0.7c-0.1-0.1-0.3-0.3-0.7-0.4
	C281.6,305.4,278.9,305.2,276.3,305.2z M205.6,199.3c-12.7,0-23.9,0.5-34.5,1.4c-1.2,0.1-2.9,0.3-4.2,1.3c-1.3,1.1-1.7,2.7-2,3.9
	c-4.3,15.9-8.3,32.3-11.8,48.7c-0.1,0.7-0.4,1.5-0.6,2.4l-0.1,0.4c-2.2,7.8-2.7,13.1,1.5,15.6c1.5,0.9,3.9,1.4,7.1,1.4
	c3,0,6.5-0.4,11.2-1c2.5-0.3,4.4-0.6,5.8-0.6c23.3-0.9,43.1-1.6,63.5-2.1l4.8-0.1l4.9-0.1c10.2-0.3,20.6-0.5,31-0.7
	c17.1-0.3,33-0.5,48.3-0.5c3.4,0,6.8,0,10.1,0h0.4c1.7,0,3.6-0.2,4.9-1.6c1.5-1.7,1.3-4.1,0.9-6.1c-3.5-17.6-7.9-35.2-13.1-52.3
	c-0.5-1.8-1.3-4.2-3.2-5.7c-1.4-1.1-3.3-1.6-5.9-1.6c-0.6,0-1.2,0-1.7,0c-5.9,0.3-11.9,0.4-18.5,0.4c-16.6,0-33.3-0.8-49.4-1.6
	l-0.1,0C238.9,200.1,222.2,199.3,205.6,199.3z"/>
<path class="st2" d="M493.8,326.5c-0.1-0.1-0.3-0.1-0.4-0.1c-1.2,0-2.3,0.1-3.4,0.1c-7.1,0-14.1-1-20.9-2.8c-4.8-1.3-7.5-3-8.7-5.5
	c-1.2-2.3-1-5.3-0.8-7.7c0.8-10.2,1.6-20.7,5.8-30.1l1.1-2.6l17,1.4c3.3,0.3,6.5,0.7,8.4,2.7c1.7,1.8,2.2,4.5,2.5,6.7l0,0.1
	c1.8,10.7,3.4,22,4.9,33.7l0.9,6.9L493.8,326.5z"/>
<path class="st3" d="M416,450.1c-2.9,0-5.9-0.2-8.8-0.6c-7.8-1.1-15.5-3.8-22.2-7.8c-15.1-9-25.9-25.3-28.1-42.6
	c-2.3-17.5,4.2-35.9,16.8-48.1c10.1-9.7,25.2-15.3,41.4-15.3c2.1,0,4.2,0.1,6.3,0.3c18.5,1.7,35.1,10.4,44.5,23.4
	c10.1,14,13,33.1,7.5,49.8c-5.4,16.5-18.5,30.2-35,36.7C431.2,448.7,423.7,450.1,416,450.1z M415.6,364.6c-8,0-15.2,2.7-20.3,7.6
	c-6.2,6-9.4,15.1-8.3,23.8c1.1,8.7,6.3,16.5,13.9,21c3.3,2,7.1,3.3,10.9,3.8c1.4,0.2,2.9,0.3,4.3,0.3c3.8,0,7.5-0.7,11-2.1
	c8.2-3.2,14.6-9.9,17.3-18.1c2.7-8.3,1.3-17.7-3.7-24.7c-4.7-6.5-12.7-10.7-21.9-11.6C417.8,364.6,416.7,364.6,415.6,364.6z"/>
<path class="st4" d="M416.2,419.1c-1.3,0-2.7-0.1-4-0.3c-3.6-0.5-7.1-1.8-10.2-3.6c-6.9-4.1-11.9-11.6-12.9-19.5
	c-1-8,1.9-16.5,7.7-22c4.6-4.5,11.6-7,19-7c1,0,2,0,2.9,0.1c8.5,0.8,16.1,4.8,20.4,10.7c4.6,6.4,6,15.2,3.4,22.9
	c-2.4,7.5-8.6,13.9-16.1,16.8C423.2,418.5,419.7,419.1,416.2,419.1z"/>
<path class="st5" d="M251.3,119.5c-5.4,0-11.3-1.7-17.5-5c-6.3-3.3-10.6-7.1-13.1-11.4c-5-8.6-2.8-21.3,5-29.5
	c6.8-7.2,17.8-11.7,28.6-11.7c0.5,0,0.9,0,1.4,0c9.2,0.3,17.1,4,22.3,10.3c5.4,6.6,7.1,16.5,4.1,24.5c-1.7,4.5-4.7,8.8-9.4,13.1
	c-5.8,5.4-11.8,8.6-17.8,9.5C253.6,119.4,252.5,119.5,251.3,119.5z"/>
<path class="st6" d="M244.7,173.1c0.2-16.2,0.8-32.3,1.6-47.8l0.2-3.8h3.8c0.2,0,0.4,0,0.6,0c0.1,0,0.2,0,0.2,0
	c1.3,0,2.6-0.1,3.8-0.3c0.4-0.1,0.8-0.1,1.1-0.2l5.6-1.1l-0.8,5.6c0,0.1,0,0.1,0,0.2c0.5,15.4,2.3,30.9,5.4,46.1l0.9,4.6l-4.7,0.1
	c-4.5,0.1-9.1,0.3-13.6,0.5l-4.2,0.2L244.7,173.1z"/>
<path class="st3" d="M92.4,450.1c-2.9,0-5.9-0.2-8.8-0.6c-7.8-1.1-15.5-3.8-22.2-7.8c-15.1-9-25.9-25.3-28.1-42.6
	c-2.3-17.5,4.2-35.9,16.8-48.1c10.1-9.7,25.2-15.3,41.4-15.3c2.1,0,4.2,0.1,6.3,0.3c18.5,1.7,35.1,10.4,44.5,23.4
	c10.1,14,13,33.1,7.5,49.8c-5.4,16.5-18.5,30.2-35,36.7C107.7,448.7,100.1,450.1,92.4,450.1z M92.1,364.6c-8,0-15.2,2.7-20.3,7.6
	c-6.2,6-9.4,15.1-8.3,23.8c1.1,8.7,6.3,16.5,13.9,21c3.3,2,7.1,3.3,10.9,3.8c1.4,0.2,2.9,0.3,4.3,0.3c3.8,0,7.5-0.7,11-2.1
	c8.2-3.2,14.6-9.9,17.3-18.1c2.7-8.3,1.3-17.8-3.7-24.7c-4.7-6.5-12.7-10.8-21.9-11.6C94.2,364.6,93.1,364.6,92.1,364.6z"/>
<path class="st4" d="M92.6,419.1c-1.3,0-2.7-0.1-4-0.3c-3.6-0.5-7.1-1.8-10.2-3.6c-6.9-4.1-11.9-11.6-12.9-19.5
	c-1-8,1.9-16.5,7.7-22.1c2.3-2.3,5.2-4,8.6-5.2c3.2-1.2,6.7-1.8,10.4-1.8c1,0,2,0,2.9,0.1c8.5,0.8,16.1,4.8,20.4,10.7
	c4.6,6.4,6,15.2,3.4,22.9c-2.4,7.5-8.6,13.9-16.1,16.8C99.6,418.5,96.1,419.1,92.6,419.1z"/>
<path class="st2" d="M20.9,328.9c-3.2,0-6.3-0.5-9.3-1.4l-3-0.9l1.5-35.2c0.1-1.8,0.2-2.6,0.4-3.1l0.6-2l1.9-0.7
	c0.6-0.2,1.5-0.4,3.6-0.5l27.2-1.4l0.1,4c0,1.1,0.3,2,0.4,2.6c1.5,7.1,2,14.3,1.4,21.5c-0.2,2.1-0.5,4.2-1.3,6
	c-0.9,1.8-2.4,3.4-4.6,5.1C34.5,326.8,27.8,328.9,20.9,328.9z"/>
<path class="st7" d="M95.6,360.7c-10.3-0.9-20,2.2-26.6,8.5c-7.1,6.9-10.8,17.3-9.5,27.2c1.3,9.9,7.2,18.8,15.8,24
	c3.7,2.2,8,3.7,12.4,4.4c1.6,0.2,3.3,0.4,4.9,0.4c4.3,0,8.5-0.8,12.5-2.3c9.3-3.6,16.6-11.3,19.6-20.6c3.1-9.5,1.5-20.3-4.3-28.3
	C115,366.5,106,361.7,95.6,360.7z M115.2,399.1c-2.1,6.4-7.3,11.9-13.7,14.3c-3.9,1.5-8.2,2-12.3,1.4c-3.1-0.4-6.1-1.5-8.7-3.1
	c-5.9-3.5-10.1-9.9-11-16.6c-0.9-6.8,1.6-14,6.5-18.7c3.9-3.8,9.8-5.9,16.2-5.9c0.8,0,1.7,0,2.6,0.1c7.4,0.7,13.9,4.1,17.6,9.1
	C116.2,385.2,117.3,392.6,115.2,399.1z"/>
<path class="st7" d="M419.2,360.7c-10.3-0.9-20,2.2-26.6,8.5c-7.1,6.9-10.8,17.3-9.5,27.2c1.3,9.9,7.2,18.8,15.8,24
	c3.7,2.2,8,3.7,12.4,4.4c1.6,0.2,3.3,0.4,4.9,0.4c4.3,0,8.5-0.8,12.5-2.3c9.2-3.6,16.6-11.3,19.6-20.6c3.1-9.5,1.5-20.3-4.3-28.3
	C438.6,366.5,429.6,361.7,419.2,360.7z M438.8,399.1c-2.1,6.4-7.3,11.9-13.7,14.3c-3.9,1.5-8.2,2-12.3,1.4c-3.1-0.4-6.1-1.5-8.7-3.1
	c-5.9-3.5-10.1-9.9-11-16.6c-0.9-6.8,1.6-14,6.5-18.7c3.9-3.8,9.8-5.9,16.2-5.9c0.8,0,1.7,0,2.6,0.1c7.4,0.7,13.9,4.1,17.6,9.1
	C439.8,385.2,440.9,392.6,438.8,399.1z"/>
<path class="st7" d="M500.4,287.6c-0.5-2.7-1.2-6.9-4.2-10c-3.7-3.8-9.1-4.3-12.3-4.5l-75.1-6.1c-7.4-0.6-13.9-1.4-18.3-5
	c-4-3.3-6-8.7-8.2-15.3l-20.6-62.8c-0.7-2.2-1.8-5.4-4.5-7.7c-3.3-2.8-7.5-2.9-10-3c-24.9-1.1-49.8-1.3-74.8-0.7
	c-3.2-15.4-5.1-31.2-5.6-46.9c0-1.3-0.6-2.5-1.5-3.4c3.8-1.9,7.6-4.5,11.3-7.9c5.3-4.9,8.9-10,10.9-15.4c3.8-10.1,1.8-22.1-5-30.4
	c-6.3-7.7-15.8-12.1-26.7-12.5c-12.9-0.5-26.2,4.7-34.5,13.5c-9.7,10.3-12.2,25.7-5.9,36.7c3.1,5.4,8.2,9.9,15.5,13.7
	c3.3,1.7,6.4,3,9.5,4c0,0.2-0.1,0.4-0.1,0.6c-0.9,16.3-1.5,32.8-1.7,49.2c-29.2,1.5-58.4,4.1-87.4,7.9c-3.3,0.4-8.4,1.1-12.1,4.6
	c-3.5,3.3-4.6,7.8-5.4,11.1l-14,58.7c-1.7,7.1-3.8,14.2-8.8,17c-2.9,1.6-6.9,1.8-10.8,2l-83.9,4.2c-2.3,0.1-6.5,0.3-9.4,3.6
	c-2.5,2.8-2.7,6.3-2.8,8.5L0,385.7c-0.1,2.5,1.6,4.7,4,5.1c7.5,1.5,15.2,1.9,22.9,1.3c0,2.6,0.2,5.2,0.5,7.7
	c2.5,19.1,14.3,37.1,31,47c7.4,4.4,15.8,7.3,24.4,8.6c3.2,0.5,6.4,0.7,9.6,0.7c8.4,0,16.7-1.6,24.6-4.6
	c18.2-7.1,32.6-22.2,38.6-40.4c1-2.9,1.6-5.9,2.1-8.9c63.9-1.3,128.7-0.9,192.6,1.2h0.2c0.3,0,0.7,0,1-0.1
	c3.4,17.8,14.8,34.2,30.5,43.5c7.4,4.4,15.8,7.3,24.4,8.6c3.2,0.5,6.4,0.7,9.6,0.7c8.4,0,16.7-1.6,24.6-4.6
	c18.2-7.1,32.6-22.2,38.6-40.4c1.1-3.3,1.9-6.7,2.4-10.1H506c1.4,0,2.6-0.5,3.6-1.5c0.9-1,1.5-2.3,1.4-3.6
	C510,359.7,506.4,323.3,500.4,287.6z M489,284.6c0.9,0.9,1.2,3.1,1.5,4.7c1.9,11.1,3.5,22.3,4.9,33.5c-0.7-0.3-1.4-0.4-2.2-0.4
	c-7.8,0.3-15.6-0.5-23.1-2.6c-3.5-1-5.6-2.1-6.3-3.4c-0.7-1.3-0.5-3.7-0.3-5.6c0.8-9.8,1.6-20,5.4-28.8l14.2,1.2
	C485.1,283.2,488,283.5,489,284.6z M224.1,101.1c-4.1-7.1-2.2-17.8,4.5-24.8c6.4-6.7,16.9-10.8,26.9-10.4c8,0.3,14.9,3.4,19.4,8.8
	c4.6,5.6,5.9,13.8,3.4,20.5c-1.5,3.9-4.2,7.7-8.4,11.6c-5.2,4.9-10.5,7.7-15.7,8.5c-5.4,0.8-11.7-0.7-18.6-4.3
	C230,108,226.2,104.8,224.1,101.1z M250.4,125.5c0.3,0,0.6,0,0.9,0c1.5,0,2.9-0.1,4.3-0.3c0.4-0.1,0.9-0.1,1.3-0.2
	c0,0.3-0.1,0.5-0.1,0.8c0.5,15.7,2.3,31.4,5.4,46.8c-4.5,0.1-9.1,0.3-13.6,0.5C249,157.3,249.5,141.3,250.4,125.5z M14.4,289.4
	c0.4-0.1,1.2-0.2,2.5-0.3L40,288c0,1.3,0.3,2.5,0.5,3.3c1.5,6.7,1.9,13.5,1.3,20.3c-0.1,1.7-0.3,3.4-0.9,4.6
	c-0.6,1.1-1.7,2.3-3.4,3.6c-6.9,5.1-16.5,6.6-24.7,4.1l1.4-32.2C14.2,291.1,14.2,290,14.4,289.4z M146.1,408
	c-5,15.4-17.3,28.2-32.7,34.2c-9.2,3.6-19.3,4.8-29.2,3.3c-7.3-1.1-14.4-3.6-20.7-7.3c-14.1-8.4-24.1-23.6-26.2-39.7
	c-2.1-16.3,3.9-33.4,15.6-44.7c10.7-10.3,27.3-15.5,44.6-13.9c17.3,1.6,32.9,9.7,41.6,21.8C148.5,374.7,151.2,392.4,146.1,408z
	 M469.7,408c-5,15.4-17.3,28.2-32.7,34.2c-9.2,3.6-19.3,4.8-29.2,3.3c-7.3-1.1-14.4-3.6-20.7-7.3c-14.1-8.4-24.1-23.6-26.2-39.7
	c-2.1-16.3,3.9-33.4,15.6-44.7c10.7-10.3,27.3-15.5,44.6-13.9c17.3,1.6,32.9,9.7,41.6,21.8C472.1,374.7,474.8,392.4,469.7,408z
	 M482.2,390.9c-0.2-12.6-4.1-25-11.3-35.1c-10.6-14.6-28.4-24.1-48.9-25.9c-20.4-1.8-39.5,4.3-52.4,16.7
	c-12.4,12-19.4,29.4-19.1,46.7c-32.3-1-64.9-1.7-97.4-1.8c-1.4-38.4-1.9-77.3-1.5-115.7c0-0.4-0.1-0.8-0.2-1.2
	c10.3-0.3,20.6-0.5,31-0.7c20.8-0.4,39.9-0.5,58.4-0.4c1.8,0,5.6,0,8.2-2.8c3.1-3.4,2.2-7.9,1.9-9.6c-3.5-17.7-8-35.4-13.2-52.7
	c-0.6-2-1.6-5.4-4.5-7.7c-3.4-2.7-7.7-2.5-10.3-2.4c-22.4,1-45.4-0.1-67.6-1.2c-27.7-1.3-56.3-2.7-84.5-0.1
	c-1.5,0.1-4.2,0.4-6.4,2.3c-2.2,1.9-2.9,4.4-3.3,5.9c-4.4,16.1-8.4,32.6-11.9,48.9c-0.1,0.7-0.4,1.6-0.7,2.6
	c-1.5,5.4-4.3,15.6,3.3,20.1c2.4,1.4,5.5,1.9,9.2,1.9c3.4,0,7.4-0.4,11.7-1c2.2-0.3,4.2-0.5,5.5-0.6c20.4-0.8,41.7-1.5,63.5-2.1
	c-0.1,0.3-0.1,0.6-0.1,0.9c-0.4,38.4,0.1,77.4,1.5,115.8c-28.2-0.1-56.4,0.1-84.5,0.7c0.1-13-3.8-25.9-11.4-36.3
	c-10.6-14.6-28.4-24.1-48.9-25.9c-20.4-1.8-39.5,4.3-52.4,16.7c-9.7,9.3-16.1,22-18.3,35.4c-0.1,0-0.2,0-0.3,0
	c-5.7,0.6-11.5,0.5-17.2-0.3l2.1-47.7c2.8,0.7,5.7,1,8.6,1c8,0,16-2.5,22.5-7.2c3.1-2.3,5.2-4.6,6.5-7.3c1.3-2.7,1.7-5.5,1.9-8.1
	c0.6-7.8,0.1-15.6-1.5-23.2c-0.1-0.6-0.2-1.1-0.2-1.4c0.1-0.1,0.1-0.2,0.2-0.3l50.6-2.5c4.5-0.2,10.2-0.5,15.2-3.3
	c8.6-4.8,11.6-14.6,13.7-23.4l14-58.7c0.5-2.2,1.2-4.9,2.5-6.1c1.3-1.2,3.8-1.6,6.6-2c64.2-8.3,129.6-11.1,194.3-8.3
	c1.2,0,3.3,0.1,4,0.7c0.6,0.5,1.1,2.1,1.4,3.2l20.6,62.8c2.1,6.5,4.8,14.5,11.3,19.9c7.2,5.9,16.8,6.7,23.9,7.3l50.5,4.1
	c-3.5,9.5-4.3,19.8-5,28.9c-0.2,3-0.6,7.1,1.4,11c2.7,5.3,8.4,7.4,12.5,8.5c7.3,2,14.9,3,22.5,3c1.2,0,2.5,0,3.7-0.1
	c1,0,2-0.4,2.8-1c2.2,19.8,3.7,39.7,4.4,59.5L482.2,390.9z M170.8,207.6c0-0.2,0.1-0.5,0.2-0.7c0.3,0,0.6-0.1,0.7-0.1
	c27.5-2.5,55.7-1.2,83.1,0.2c22.4,1.1,45.6,2.2,68.5,1.2c0.9,0,3.1-0.1,3.6,0.3c0.4,0.3,1,2.1,1.2,2.7c5.2,16.9,9.5,34.3,13,51.7
	c0,0.2,0.1,0.4,0.1,0.5c-0.1,0-0.1,0-0.2,0c0,0-0.1,0-0.1,0c-18.5-0.1-37.7,0.1-58.6,0.4c-35.9,0.6-71.4,1.9-104.5,3.1
	c-1.7,0.1-3.9,0.3-6.4,0.7c-3.7,0.5-12.5,1.6-14.5,0.4c-0.9-1.2,0.7-7,1.2-8.8c0.3-1.1,0.6-2.2,0.8-3.2
	C162.5,239.8,166.4,223.5,170.8,207.6z"/>
<path d="M284.7,301.8c-5.8-0.7-11.7-0.7-17.6,0.1c-2.7,0.4-4.7,2.9-4.3,5.6c0.3,2.5,2.5,4.3,5,4.3c0.2,0,0.5,0,0.7,0
	c5-0.7,10-0.7,15-0.1c2.8,0.3,5.3-1.6,5.6-4.3C289.4,304.6,287.5,302.1,284.7,301.8z"/>
<path d="M211.3,315.1c3.9-0.6,7.9-0.6,11.8,0c0.3,0,0.5,0.1,0.8,0.1c2.4,0,4.5-1.7,4.9-4.2c0.4-2.7-1.4-5.3-4.1-5.8
	c-5-0.8-10-0.8-15,0c-2.7,0.4-4.6,3-4.1,5.8C206,313.7,208.5,315.5,211.3,315.1z"/>
</svg>
