<?xml version="1.0" encoding="utf-8"?>
<!-- Generator: Adobe Illustrator 27.8.1, SVG Export Plug-In . SVG Version: 6.00 Build 0)  -->
<svg version="1.1" id="Capa_1" xmlns="http://www.w3.org/2000/svg" xmlns:xlink="http://www.w3.org/1999/xlink" x="0px" y="0px"
	 viewBox="0 0 512 512" style="enable-background:new 0 0 512 512;" xml:space="preserve">
<style type="text/css">
	.st0{fill:none;}
	.st1{fill:#D3B0A5;}
	.st2{fill:#CB644F;}
	.st3{fill:#DFB745;}
	.st4{fill:#8BBDA2;}
	.st5{fill:#FFFFFF;}
	.st6{fill:#282827;}
</style>
<g>
	<path class="st0" d="M228.3,99.3c0.4-0.2,1.4-0.7,1.6-0.8c3.6-1.8,7.9-4.3,9.7-6.1c0.9-0.9,1.4-1.3,1.8-1.6
		c-4.7,3.5-9.9,6.7-15.7,9.5c0.1,0,0.1,0,0.2-0.1C226.2,100.2,227.8,99.5,228.3,99.3z"/>
	<path class="st0" d="M101.3,247.1L101.3,247.1L101.3,247.1L101.3,247.1L101.3,247.1z"/>
	<path class="st0" d="M187.7,403.1c-0.5,0-0.9,0-1,0c0,0,0,0,0,0.1C186.8,403.3,187.3,403.2,187.7,403.1z"/>
	<path class="st0" d="M196.8,393.6c0.1,0.8,0,1.8-0.1,2.7C199.1,392.4,196.5,390.4,196.8,393.6z"/>
	<path class="st0" d="M165.4,362.2C165.5,362.2,165.5,362.2,165.4,362.2C165.5,362.2,165.5,362.2,165.4,362.2
		C164.9,362.5,164.9,362.6,165.4,362.2z"/>
	<path class="st0" d="M234.5,344.6c0.2,0,0.3,0,0.5,0c-0.1,0-0.2-0.1-0.3-0.2C234.5,344.5,234.5,344.5,234.5,344.6z"/>
	<path class="st0" d="M339.2,146.2c2.2-4.4,4-8.7,5.4-12.8c-0.7,1.2-1.3,2.3-1.6,3C341.5,139.7,340.4,143,339.2,146.2z"/>
	<path class="st0" d="M237.4,145.3l-0.1-0.1l0,0C237.3,145.2,237.3,145.2,237.4,145.3z"/>
	<path class="st0" d="M244.6,132.6c-0.3,0.2-0.5,0.4-0.5,0.4C244.2,133.1,244.4,132.9,244.6,132.6z"/>
	<path class="st1" d="M279.4,90.7c-1.2-0.8-2.3-1.7-3.5-2.6c-6.3-4.9-11.9-10.5-16-17c0.3,0.5-3.1,4.6-3.5,5.1
		c-1.3,1.8-2.8,3.5-4.3,5.1c-12.1,13-28.7,21.4-45.4,26.7c-5,1.6-9.9,2.9-14.5,3.9c-0.6,0.1-1.3,0.3-1.9,0.4
		c-8.6,1.9-16,2.8-20.6,3.3c0.5,3.4,1.5,8.5,3.3,14.4c0.3,0.9,0.5,1.7,0.8,2.6c1.9,5.8,4.6,12.3,8.4,18.7
		c15.5,26.3,41.2,39.7,76.4,39.7h1.1c35.3,0,61.2-13.4,76.8-39.9c1-1.6,1.8-3.3,2.7-4.9c1.3-3.2,1.9-4.2,3.3-7.3
		c0.3-0.8,1.3-4.2,2-5.4c2.5-7.4,3.9-13.8,4.5-17.9C336.5,113.7,303.5,107.4,279.4,90.7z M283,123.8c0,4-3.5,7.2-7.8,7.2
		s-7.8-3.2-7.8-7.2s3.5-7.2,7.8-7.2C279.5,116.6,283,119.8,283,123.8z M186,144.9c-0.2-1.1-0.3-2.3-0.3-3.5c0-1.8,0.3-3.5,0.9-5.1
		c2.2-7,8.5-12.2,16.1-12.2c0.4,0,0.7,0.1,1.1,0.1c4.9,0.3,9.3,2.8,12.2,6.6c2.3,2.9,3.7,6.6,3.7,10.6c0,0.9-0.1,1.8-0.3,2.7
		c-1.3,8.3-8.3,14.6-16.7,14.6c-2.4,0-4.7-0.5-6.8-1.5C190.9,155.1,187.1,150.5,186,144.9z M229.5,124.9c0-4,3.5-7.2,7.8-7.2
		c2.7,0,5.1,1.3,6.5,3.2c0.8,1.1,1.3,2.5,1.3,4c0,4-3.5,7.2-7.8,7.2c-3.6,0-6.6-2.3-7.5-5.4C229.6,126.1,229.5,125.5,229.5,124.9z
		 M244.6,132.6c-0.2,0.3-0.4,0.5-0.5,0.4C244.2,133,244.4,132.8,244.6,132.6z M237.4,145.3l-0.1-0.1l0,0
		C237.3,145.2,237.3,145.2,237.4,145.3z M286,158.6c-8.4,7.8-18,11.9-27.9,11.9c-0.6,0-1.3,0-1.9,0c-9.6-0.5-18.4-4.8-24.8-12.2
		c-1.8-2.1-1.6-5.2,0.5-7s5.2-1.6,7,0.5c4.6,5.3,11,8.5,17.9,8.8c7.8,0.4,15.6-2.8,22.5-9.2c2-1.9,5.2-1.8,7,0.2
		C288.1,153.5,288,156.7,286,158.6z M314.3,159.3c-9.4,0-17-7.8-17-17.3c0-9.6,7.6-17.3,17-17.3s17,7.8,17,17.3
		S323.6,159.3,314.3,159.3z"/>
	<path class="st1" d="M357,278.5l63.6-8.8c0.8-0.2,5.6-1.6,10-5.3c6.1-5.2,8.7-12.6,7.9-22.1c-0.3-1.9-4.2-21.1-22.6-22.4l-84.3,9.6
		C340.1,246,348.9,262.9,357,278.5z"/>
	<path class="st1" d="M181.4,240.2C181.5,240.1,181.5,240.1,181.4,240.2c1.1-2.7,3-7.3,5.2-10.9l-83.8-9.6
		c-7.9,0.6-14,4.4-18.3,11.5c-3.1,5.1-4.1,10.1-4.3,10.9C78.2,264,96,269,98,269.5l63.7,8.9C168,266.1,174.7,253.1,181.4,240.2z
		 M101.3,247.2C101.3,247.1,101.3,247.1,101.3,247.2C101.3,247.1,101.3,247.1,101.3,247.2C101.3,247.1,101.3,247.1,101.3,247.2
		C101.3,247.1,101.3,247.1,101.3,247.2z"/>
	<path class="st1" d="M172.4,381.5l-10.8,82.4c1,18.3,20,22.5,22,22.9c9.5,1,16.9-1.5,22.2-7.5c3.7-4.2,5.2-8.9,5.5-9.8l10.5-74.2
		c-15.9-2.4-31.4-6.6-46.4-12.5C174.3,382.3,173.3,381.9,172.4,381.5z"/>
	<path class="st1" d="M357.2,464.1l-10.8-82.4c-1,0.4-1.9,0.9-2.9,1.3c-15,6-30.5,10.1-46.4,12.5l10.5,74.2c0.3,0.9,1.7,5.6,5.5,9.8
		c5.3,6,12.8,8.5,22.2,7.5C337,486.7,356.1,482.5,357.2,464.1z"/>
	<path class="st2" d="M259.2,203.4c-1.9,3-5.5,7.7-9.6,11.2c-11.2,9.4-25.2,12-37.4,12c-4.1,0-8.1-0.3-11.6-0.8
		c-0.2,0-0.3-0.1-0.5-0.2c-7.1,13.7-15.6,30.2-24.1,46.6c-26.2,50.5-36.2,69.6-40.4,77c5,3.9,15.9,11.6,31.8,19.1
		c3.8,1.8,7.7,3.5,11.6,5c3,1.2,6.1,2.3,9.2,3.4c8.7,3,17.6,5.3,26.6,7.1c16,3.1,31.6,5.2,48.2,4.4c0.8,0,2.2-0.6,2.9-0.3
		c14.6-0.1,28.9-1.7,42.9-4.8c10.5-2.3,20.9-5.5,31-9.5c0.9-0.3,1.7-0.8,2.6-1.1c3-1.3,6.1-2.5,9-3.9c15.8-7.5,26.8-15.2,31.8-19.1
		c-4.2-7.4-14.2-26.5-40.4-77c-8.4-16.2-16.8-32.5-23.8-46.1c-5.8,0.8-11.2,1.3-16.3,1.3c-14,0-25-3.2-33-9.6
		c-5.6-4.5-8.8-10.6-10.3-14.5 M165.4,362.2C164.9,362.6,164.9,362.5,165.4,362.2C165.5,362.2,165.5,362.2,165.4,362.2
		C165.5,362.2,165.5,362.2,165.4,362.2z M234.5,344.6c0-0.1,0.1-0.1,0.1-0.2c0.1,0.1,0.2,0.1,0.3,0.2
		C234.8,344.6,234.6,344.6,234.5,344.6z M342.2,313.8c-1.9,20.5-12.2,27.8-20.6,30.3c-0.9,0.3-5,1.6-10.4,1.6
		c-4.7,0-10.3-0.9-16-4.1c-10.9-6.2-18.1-18.6-21.6-36.9c-0.3-1.4,0.1-2.7,0.9-3.9c0.8-1.1,2.1-1.8,3.4-2c0.4,0,41.3-5,56.5-10.7
		c1.4-0.5,2.9-0.4,4.1,0.3c1.3,0.7,2.2,1.9,2.5,3.3C341.1,292.2,343.2,302.5,342.2,313.8z"/>
	<path class="st2" d="M181.4,240.2c1.9-3.6,3.8-7.3,5.6-10.9l-0.5-0.1C184.4,232.8,182.6,237.4,181.4,240.2
		C181.5,240.1,181.5,240.1,181.4,240.2z"/>
	<path class="st3" d="M166.6,71.4c3,2.2,5.5,4.9,7.3,8.3c3.2,5.9,4,12.8,2.2,19.2c-0.6,2.3-1.7,4.3-2.8,6.2c7.5-1,18.8-2.9,30.7-6.7
		c18.6-5.9,42.7-17.7,51.3-40.3c0.7-1.9,2.6-3.2,4.6-3.2l0,0c2.1,0,3.9,1.3,4.6,3.2c1.1,2.9,2.6,5.7,4.3,8.3
		c3.5,5.3,8.1,9.9,13.4,14c19.4,14.9,48,21.7,62.9,24.4c-1-1.8-1.9-3.6-2.5-5.7c-1.8-6.5-1-13.3,2.2-19.2c2.4-4.3,5.8-7.7,10-10.1
		c-2.6-3.8-5.4-7.5-8.4-10.8c-22.3-24.5-58.5-37.3-97-34.2C212.6,27.8,181.8,45.2,166.6,71.4z"/>
	<path class="st3" d="M145,115.9c-6.4-2-11.7-6.3-15-12.2c-1.2-2.1-1.9-4.4-2.4-6.7c-2.4,0.8-15.7,5.8-29.4,18.5
		c-19.2,17.9-30.5,42.2-33.7,72.4c8.4,1.4,28.9,3.1,47.7-8.5c4.9-3.1,9.4-6.8,13.4-11.3c1.4-1.6,2.8-3.3,4.2-5
		c0.4-0.5,0.8-1,1.2-1.6c8.2-11.5,14.2-26.4,17.8-44.7C147.5,116.5,146.2,116.3,145,115.9z"/>
	<path class="st3" d="M388.7,103.9c-4,7.4-11.1,12-18.8,13.1c6,30.2,18.3,51.3,36.7,62.7c18.9,11.7,39.2,9.9,47.6,8.5
		c-7.3-70.1-58.2-89.2-63-90.9C390.6,99.5,389.8,101.7,388.7,103.9z"/>
	<path class="st4" d="M374.2,78.3c-2.2-1.2-4.6-1.8-7.1-1.8c-1.5,0-3,0.2-4.4,0.7c-1.4,0.4-2.6,1.1-3.8,1.9c-2.2,1.4-4,3.3-5.3,5.6
		c-0.6,1.1-1,2.2-1.3,3.3c-0.8,2.7-0.8,5.6,0,8.4c0,0.1,0.1,0.2,0.1,0.4c0.4,1.4,1.1,2.7,1.9,3.9c1.3,1.9,3,3.6,5.1,4.7
		c3.2,1.7,6.7,2.1,10,1.4c1.6-0.3,3.1-0.8,4.5-1.6c2.5-1.4,4.7-3.5,6.2-6.2c2-3.6,2.5-7.8,1.4-11.8
		C380.2,83.4,377.7,80.2,374.2,78.3z"/>
	<path class="st4" d="M146,105.6c0.6,0.3,1.2,0.6,1.9,0.8c3.9,1.2,8,0.8,11.5-1.1s6.1-5.1,7.2-9c1.1-3.9,0.6-8.1-1.4-11.8
		c-1.6-2.9-4-5.1-6.9-6.5c-0.7-0.4-1.5-0.7-2.3-1c-1.5-0.4-2.9-0.7-4.4-0.7c-2.5,0-4.9,0.6-7.1,1.8l0,0c-3.5,1.9-6.1,5.1-7.2,9
		c0,0.1,0,0.2-0.1,0.3c-0.7,2.7-0.7,5.5,0.1,8.2c0.3,1.1,0.7,2.3,1.3,3.3C140.4,101.9,142.9,104.2,146,105.6z"/>
	<path class="st5" d="M301.8,193.4c-3.8,1.5-8,2.9-12.3,4c-6.3,1.6-13.2,2.7-20.7,3.2c1,2.7,3,6.5,7.3,9.9c8,6.3,21.1,8.5,38,6.5
		c-1.3-2.4-2.4-4.7-3.5-6.9C305.7,201.1,302.5,194.9,301.8,193.4z"/>
	<path class="st5" d="M248.9,200.9c-11.4-0.8-28.2-3.2-33.9-4.1c-2.1,4-5.6,10.9-10,19.4C231.2,218.7,243.6,208.2,248.9,200.9z"/>
	<path class="st6" d="M279.2,151.3c-6.9,6.4-14.7,9.6-22.5,9.2c-6.9-0.4-13.2-3.5-17.9-8.8c-1.8-2.1-4.9-2.3-7-0.5s-2.3,4.9-0.5,7
		c6.4,7.4,15.3,11.7,24.8,12.2c0.6,0,1.3,0,1.9,0c9.9,0,19.6-4.1,27.9-11.9c2-1.9,2.1-5,0.2-7C284.3,149.5,281.2,149.4,279.2,151.3z
		"/>
	<ellipse class="st2" cx="314.3" cy="142" rx="7" ry="7.4"/>
	<path class="st6" d="M314.3,124.7c-9.4,0-17,7.8-17,17.3s7.6,17.3,17,17.3s17-7.8,17-17.3C331.3,132.4,323.6,124.7,314.3,124.7z
		 M314.3,149.4c-3.9,0-7-3.3-7-7.4c0-4.1,3.2-7.4,7-7.4c3.9,0,7,3.3,7,7.4C321.3,146.1,318.2,149.4,314.3,149.4z"/>
	<path class="st2" d="M202.7,148.8c3.9,0,7-3.3,7-7.4c0-4.1-3.2-7.4-7-7.4c-2.7,0-5,1.6-6.2,3.9l0,0c-0.5,1-0.9,2.2-0.9,3.5
		C195.6,145.5,198.8,148.8,202.7,148.8z"/>
	<path class="st6" d="M219.4,144.1c0.1-0.9,0.3-1.8,0.3-2.7c0-4-1.4-7.7-3.7-10.6c-2.9-3.7-7.2-6.2-12.2-6.6c-0.4,0-0.7-0.1-1.1-0.1
		c-7.6,0-14,5.1-16.1,12.2c-0.5,1.6-0.9,3.3-0.9,5.1c0,1.2,0.1,2.3,0.3,3.5c1.1,5.6,4.9,10.2,9.9,12.4c2.1,0.9,4.4,1.5,6.8,1.5
		C211.1,158.7,218.1,152.4,219.4,144.1z M196.5,138L196.5,138c1.2-2.3,3.5-3.9,6.2-3.9c3.9,0,7,3.3,7,7.4c0,4.1-3.2,7.4-7,7.4
		s-7-3.3-7-7.4C195.6,140.2,195.9,139,196.5,138z"/>
	<path class="st0" d="M129.8,163c-1.3,1.7-2.7,3.4-4.2,5"/>
	<path class="st6" d="M437.4,119.3c-2.7-3.3-5.4-6.3-8.1-8.9c-0.8-0.8-1.6-1.6-2.5-2.3c-2.6-2.4-5.2-4.5-7.7-6.4
		c-6.9-5.3-13.3-8.8-17.9-11c-4.5-2.1-7.4-3-7.7-3.1c-0.7-0.2-1.5-0.2-2.2-0.1c-0.2-0.9-0.2-1.9-0.5-2.8c-1.8-6.5-6.1-11.8-12-15.1
		c-4.4-2.4-9.3-3.4-14.3-2.9c-3.3-5.1-6.9-10-10.9-14.4c-21.8-24-55.7-37.7-92.3-37.8c-1.5,0-3,0-4.6,0c-2.7,0.1-5.5,0.2-8.3,0.4
		c-18.9,1.5-37,6.8-52.4,15.1c-16.9,9.2-29.9,21.7-38.7,37.1c-6.1-1.5-12.3-0.8-17.8,2.2c-5.9,3.2-10.1,8.6-12,15.1
		c-0.3,0.9-0.4,1.9-0.5,2.8c-0.7-0.1-1.4-0.1-2.2,0.1c-0.7,0.2-16.6,5.1-33.3,20.5c-15.3,14.1-34.3,40-37.6,83.6
		c-0.2,2.4,1.3,4.5,3.6,5.2c0.6,0.2,8.3,2.3,19.2,2.3c11.3,0,26-2.2,40.3-11c21.2-13.1,35.2-37.1,41.6-71.2c0-0.2,0-0.4,0-0.6
		c0.2-0.1,0.5-0.1,0.7-0.2c1,7.6,4.2,23.8,13.8,40.2c6.7,11.5,17.5,24.3,34.3,33.3c-1.1,2-2.1,4.1-3.2,6.2c-2.2,4.2-4.4,8.6-6.7,13
		c-1.9,3.7-3.9,7.5-5.9,11.4l-88.5-10.1c-0.3,0-0.6,0-0.8,0C80.8,211,72,230.5,70.4,240.6c0,0.1,0,0.2,0,0.3
		C68,266.2,86.1,277,96.1,279.2c0.1,0,0.3,0,0.4,0.1l37.5,5.2l19.3,2.7l3.6,0.5c-16.6,31.8-29.7,56.8-31.5,59.8
		c-0.6,0.8-1,1.8-1.1,2.9c-0.1,1.5,0.6,2.9,1.7,3.9c0.5,0.5,13.5,12,37,23.1l-1.8,13.5l-0.1,1l-9.4,71.2c0,0.3-0.1,0.6,0,0.8
		c0.9,21.9,20.2,31,30.4,32.8c0.1,0,0.2,0,0.3,0c1.8,0.2,3.6,0.3,5.3,0.3c21.6,0,31.3-16.2,33.4-25.4c0-0.1,0.1-0.3,0.1-0.4
		l10.5-74.7c7.4,0.8,14.9,1.2,22.5,1.2c0.2,0,0.4,0,0.5,0l0,0c3.4,0.2,6.7,0.2,10.1,0.2c7.6,0,15-0.4,22.5-1.2l1.4,10.2l5.3,37.7
		l3.8,26.7c0,0.2,0,0.3,0.1,0.4c2.2,9.2,11.9,25.4,33.4,25.4c1.7,0,3.4-0.1,5.3-0.3c0.1,0,0.2,0,0.3,0c10.1-1.8,29.5-10.9,30.4-32.8
		c0-0.3,0-0.6,0-0.8l-1.9-14.4l-4.8-36.3l-4.6-34.9c23.5-11.1,36.5-22.6,37-23.1c1.1-1,1.7-2.4,1.7-3.9c0-1.1-0.4-2.1-1.1-2.9
		c-1.9-3-15-28-31.5-59.8l60.4-8.4c0.1,0,0.3,0,0.4-0.1c10-2.2,28.2-13,25.7-38.3c0-0.1,0-0.2,0-0.3c-1.6-10.1-10.4-29.7-32.2-30.9
		c-0.3,0-0.6,0-0.8,0l-87.6,10l-0.9,0.1c-0.6-1.1-1.1-2.2-1.7-3.3c-4.9-9.6-9.7-18.9-14.2-27.6c16.7-8.9,27.5-21.7,34.2-33.1
		c9.6-16.3,12.9-32.5,13.9-40.1c0.2,0.1,0.5,0.2,0.7,0.2c0,0.2,0,0.4,0,0.6c6.4,34.1,20.4,58.1,41.6,71.2c14.3,8.8,29,11,40.3,11
		c11,0,18.6-2.1,19.2-2.3c2.3-0.6,3.8-2.8,3.6-5.2C461.9,157.7,449.8,134.5,437.4,119.3z M454.1,188.1c-8.4,1.4-28.7,3.2-47.6-8.5
		c-18.4-11.4-30.7-32.5-36.7-62.7c7.7-1.1,14.8-5.7,18.8-13.1c1.2-2.1,1.9-4.4,2.4-6.7C396,98.9,446.8,118,454.1,188.1z M137.3,87.4
		c0-0.1,0-0.2,0.1-0.3c1.1-3.9,3.6-7.1,7.2-9l0,0c2.2-1.2,4.6-1.8,7.1-1.8c1.5,0,3,0.2,4.4,0.7c0.8,0.2,1.6,0.6,2.3,1
		c2.9,1.4,5.3,3.6,6.9,6.5c2,3.6,2.5,7.8,1.4,11.8c-1.1,3.9-3.6,7.1-7.2,9c-3.5,1.9-7.6,2.3-11.5,1.1c-0.7-0.2-1.3-0.5-1.9-0.8
		c-3.1-1.4-5.6-3.7-7.3-6.7c-0.6-1.1-1-2.2-1.3-3.3C136.6,92.9,136.6,90.1,137.3,87.4z M380,99.1c-1.5,2.7-3.7,4.8-6.2,6.2
		c-1.4,0.8-2.9,1.3-4.5,1.6c-3.3,0.7-6.8,0.3-10-1.4c-2.1-1.1-3.8-2.8-5.1-4.7c-0.8-1.2-1.5-2.5-1.9-3.9c0-0.1-0.1-0.2-0.1-0.4
		c-0.8-2.8-0.7-5.7,0-8.4c0.3-1.1,0.7-2.3,1.3-3.3c1.3-2.4,3.1-4.2,5.3-5.6c1.2-0.8,2.5-1.4,3.8-1.9c1.5-0.4,2.9-0.7,4.4-0.7
		c2.4,0,4.9,0.6,7.1,1.8c3.5,1.9,6.1,5.1,7.2,9C382.4,91.3,382,95.5,380,99.1z M346.4,59c3,3.3,5.8,7,8.4,10.8
		c-4.2,2.3-7.6,5.8-10,10.1c-3.2,5.9-4,12.8-2.2,19.2c0.6,2,1.5,3.9,2.5,5.7c-14.9-2.7-43.5-9.5-62.9-24.4c-5.3-4-9.9-8.7-13.4-14
		c-1.7-2.6-3.2-5.3-4.3-8.3c-0.7-1.9-2.6-3.2-4.6-3.2l0,0c-2.1,0-3.9,1.3-4.6,3.2c-8.6,22.6-32.6,34.4-51.3,40.3
		c-11.9,3.8-23.2,5.7-30.7,6.7c1.2-1.9,2.2-4,2.8-6.2c1.8-6.5,1-13.3-2.2-19.2c-1.8-3.3-4.3-6.1-7.3-8.3
		c15.2-26.2,46-43.5,82.8-46.6C287.9,21.7,324.1,34.5,346.4,59z M129.8,163c-1.3,1.7-2.7,3.4-4.2,5c-4,4.4-8.5,8.2-13.4,11.3
		c-18.8,11.7-39.2,10-47.7,8.5c3.1-30.2,14.4-54.5,33.7-72.4c13.7-12.7,27-17.7,29.4-18.5c0.5,2.3,1.3,4.5,2.4,6.7
		c3.2,5.9,8.6,10.3,15,12.2c1.3,0.4,2.5,0.7,3.8,0.8c-3.6,18.3-9.6,33.3-17.8,44.7C130.6,162,130.2,162.5,129.8,163z M438.4,242.3
		c0.9,9.5-1.8,16.9-7.9,22.1c-4.4,3.7-9.1,5.1-10,5.3l-63.6,8.8c-8.1-15.7-16.9-32.5-25.4-49l84.3-9.6
		C434.2,221.2,438.1,240.4,438.4,242.3z M312.9,479.6c-3.7-4.2-5.2-8.9-5.5-9.8L297,395.5c15.9-2.4,31.4-6.6,46.4-12.5
		c1-0.4,1.9-0.9,2.9-1.3l10.8,82.4c-1,18.3-20.1,22.6-22,22.9C325.7,488.1,318.2,485.6,312.9,479.6z M351.3,368.7
		c-2.9,1.4-6,2.6-9,3.9c-0.9,0.4-1.7,0.8-2.6,1.1c-10.1,4-20.5,7.2-31,9.5c-19.8,4.4-39.9,5-60.1,4.5c-11.4-0.3-22.8-1.6-33.9-3.8
		c-9-1.8-17.9-4.1-26.6-7.1c-3.1-1.1-6.1-2.2-9.2-3.4c-3.9-1.6-7.8-3.2-11.6-5c-15.8-7.5-26.8-15.2-31.8-19.1
		c4.2-7.4,14.2-26.5,40.4-77c8.5-16.5,17.1-32.9,24.1-46.6c0.2,0,0.3,0.1,0.5,0.2c3.6,0.5,7.5,0.8,11.6,0.8c12.2,0,26.2-2.7,37.4-12
		c4.1-3.4,6.9-7,8.9-10c0.2-0.4,0.5-0.8,0.7-1.1c0.1,0.4,0.3,0.8,0.4,1.2c1.5,4,4.4,9.1,10,13.6c8,6.4,19.1,9.6,33,9.6
		c5,0,10.5-0.4,16.3-1.3c7,13.6,15.4,29.8,23.8,46.1c26.2,50.5,36.2,69.6,40.4,77C378.1,353.5,367.2,361.2,351.3,368.7z
		 M211.2,469.5c-0.3,1-1.7,5.6-5.5,9.8c-5.3,6-12.8,8.5-22.2,7.5c-2-0.4-21-4.6-22-22.9l10.8-82.4c1,0.4,1.9,0.9,2.9,1.3
		c15,6,30.5,10.1,46.4,12.5L211.2,469.5z M215,196.8c5.8,0.9,22.5,3.2,33.9,4.1c-5.3,7.2-17.8,17.8-44,15.4
		C209.4,207.7,212.9,200.9,215,196.8z M314,217c-16.9,2-30-0.2-38-6.5c-4.3-3.4-6.3-7.2-7.3-9.9c7.5-0.5,14.4-1.6,20.7-3.2
		c4.4-1.1,8.5-2.4,12.3-4c0.8,1.5,4,7.7,8.7,16.8C311.5,212.3,312.7,214.6,314,217z M98,269.5c-2-0.5-19.8-5.4-17.8-27.4
		c0.2-0.8,1.2-5.9,4.3-10.9c4.3-7,10.4-10.9,18.3-11.5l83.8,9.6l0.5,0.1c-1.9,3.6-3.7,7.2-5.6,10.9c-6.7,13-13.4,25.9-19.8,38.1
		L98,269.5z M339.2,146.2c-0.8,1.6-1.7,3.2-2.7,4.9c-15.6,26.5-41.4,39.9-76.8,39.9h-1.1c-35.2,0-60.9-13.3-76.4-39.7
		c-3.8-6.4-6.5-12.9-8.4-18.7c-0.3-0.9-0.6-1.8-0.8-2.6c-1.8-5.9-2.8-11-3.3-14.4c4.6-0.5,12-1.4,20.6-3.3c0.6-0.1,1.3-0.3,1.9-0.4
		c4.6-1,9.5-2.3,14.5-3.9c6.9-2.2,13.2-4.7,19-7.6c5.8-2.8,11-6,15.7-9.5c7.8-5.8,14.1-12.4,18.5-19.8c4.2,6.6,9.7,12.2,16,17
		c1.1,0.9,2.3,1.8,3.5,2.6c24.1,16.7,57.1,23,69.6,24.9c-0.6,4.1-1.9,10.5-4.5,17.9C343.2,137.5,341.4,141.8,339.2,146.2z"/>
	<path class="st6" d="M237.2,132.1c4.3,0,7.8-3.2,7.8-7.2c0-1.5-0.5-2.9-1.3-4c-1.4-1.9-3.8-3.2-6.5-3.2c-4.3,0-7.8,3.2-7.8,7.2
		c0,0.6,0.1,1.2,0.3,1.8C230.6,129.8,233.6,132.1,237.2,132.1z"/>
	<path class="st6" d="M267.4,123.8c0,4,3.5,7.2,7.8,7.2s7.8-3.2,7.8-7.2s-3.5-7.2-7.8-7.2C270.9,116.6,267.4,119.8,267.4,123.8z"/>
	<path class="st4" d="M332.1,299.3c-14.3,4-37.2,7.3-47.6,8.7c3.1,12.4,8.3,20.8,15.5,24.9c8.9,5.1,18.4,1.9,18.5,1.9
		s0.2-0.1,0.3-0.1C333.5,330.3,333.2,309.4,332.1,299.3z"/>
	<path class="st6" d="M338.5,288.4c-1.3-0.7-2.8-0.8-4.1-0.3c-15.2,5.7-56.1,10.6-56.5,10.7c-1.4,0.2-2.6,0.9-3.4,2
		s-1.1,2.5-0.9,3.9c3.4,18.3,10.7,30.8,21.6,36.9c5.7,3.2,11.4,4.1,16,4.1c5.5,0,9.5-1.3,10.4-1.6c8.4-2.5,18.7-9.8,20.6-30.3
		c1-11.4-1.1-21.6-1.2-22.1C340.7,290.3,339.8,289.1,338.5,288.4z M318.7,334.6c-0.1,0-0.2,0.1-0.3,0.1c-0.1,0-9.5,3.3-18.5-1.9
		c-7.2-4.1-12.4-12.5-15.5-24.9c10.4-1.4,33.3-4.6,47.6-8.7C333.2,309.4,333.5,330.3,318.7,334.6z"/>
</g>
</svg>
