<?xml version="1.0" encoding="utf-8"?>
<!-- Generator: Adobe Illustrator 25.3.1, SVG Export Plug-In . SVG Version: 6.00 Build 0)  -->
<svg version="1.1" id="Capa_1" xmlns="http://www.w3.org/2000/svg" xmlns:xlink="http://www.w3.org/1999/xlink" x="0px" y="0px"
	 viewBox="0 0 512 512" style="enable-background:new 0 0 512 512;" xml:space="preserve">
<style type="text/css">
	.st0{fill:#E1B946;}
	.st1{fill:#D4B1A6;}
	.st2{fill:#8CBEA3;}
	.st3{fill:#FFFFFF;}
	.st4{fill:#CC644F;}
	.st5{fill:#282828;}
</style>
<g>
	<path class="st0" d="M243.8,506c-25.2,0-51.8-1.2-79.1-3.6c-31-2.7-64-6.9-95-19.2c-9.1-3.6-20.2-9.1-24.9-19.1
		c-2.4-5.2-2-12.3,1.1-17.5c2-3.4,4.8-5.5,8.1-6.2l3.5-0.8l1.1,3.4c0.5,1.5,1.1,2.8,1.8,4c4.4,7.4,13.4,10.2,21.5,12.2
		c51.9,13,105.4,19.6,159.3,19.6c53.3,0,106.4-6.5,157.8-19.2c14.3-3.6,29.6-7.8,43.9-14.8c2.5-1.2,5.1-2.6,6.7-5.1
		c1.8-2.7,1.9-6,2-8.5l0.1-3.1l3-0.7c0.7-0.1,1.3-0.2,2-0.2c2.8,0,5.1,1.3,6.5,2.3c3.6,2.7,6,7.2,6.1,11.5
		c0.3,8.6-5.7,16.1-10.8,20.9c-14.9,14-35.3,20.5-55.2,25.4C353.7,499.9,301.4,506,243.8,506z"/>
	<path class="st1" d="M353.5,158.6c-2.4-2.7-5.2-4.9-8.2-6.6c-0.1-0.1-0.2-0.1-0.3-0.2l-3.6-2.1l59.4-90.6
		c7.2-10.9,14.5-22.2,22.6-32.6c5.4-6.9,11.4-13.9,19.2-17.9c1.9-1,5.6-2.6,9.8-2.6c2.5,0,4.6,0.6,6.5,1.7c5.2,3.1,6.8,9.8,6,15.1
		c-0.9,6-4.1,11.3-7.3,16.3c-14.2,22-31.5,42.1-48.3,61.5L356.5,162L353.5,158.6z"/>
	<path class="st2" d="M275.1,318c-30,0-63.4-1.6-102.3-4.9c-32.4-2.7-66.8-6.2-99.7-16.2c-6.5-2-14-4.5-19.9-9.2
		c-6.2-4.9-9.8-12-9.4-18.4c0.1-1.6,0.4-3.3,1.1-4.9l2-5.6l4.4,4c10.3,9.3,24,13.7,37.3,17.2c25.3,6.6,67.8,15.3,144.7,15.3
		c11.2,0,23.4-0.2,37.1-0.5c59.1-1.4,126.8-5.6,182.9-36.9l3.4-1.9l2,3.2c0.1,0.2,0.2,0.3,0.3,0.5c3.1,6.2,0.6,13.4-2.5,17.6
		c-3.9,5.3-9.9,9-15.2,11.8c-19.9,10.6-43.9,17.8-75.6,22.6C346.1,314.5,318.1,318,275.1,318z"/>
	<path class="st3" d="M233.3,293c-76.7,0-119.1-8.7-144.2-15.2c-13.4-3.5-27.2-8-37.3-17.5l-3.3-3.1l3.4-2.9c1.1-1,2.3-1.8,3.5-2.6
		c6.1-3.8,13.1-5.6,21-7.4c28.3-6.4,56.6-11.4,84-15c34.5-4.5,68.7-6.8,101.6-6.8c16.8,0,33.6,0.6,49.8,1.8
		c25.5,1.9,50.7,5.2,74.9,9.9c5.2,1,10.5,1.9,15.1,2.6c16.1,2.6,31.2,5.1,46.2,13.2l0.4,0.2c0.2,0.1,0.4,0.2,0.6,0.3l6.1,3.6
		l-6.2,3.3c-55.1,29.4-121.1,33.4-178.6,34.8C256.5,292.8,244.4,293,233.3,293z"/>
	<path class="st4" d="M442.7,421.7c-24.2-40.4-46.1-73.3-68.8-103.6L370,313l6.4-1.1c26.4-4.7,47.9-11.6,65.7-21.1
		c0.2-0.1,0.3-0.2,0.4-0.2c0.2-0.1,0.4-0.2,0.6-0.3l5.5-2.9l0.3,6.2c2.3,41.9,2.6,84.4,1,126.4l-0.5,13.5L442.7,421.7z"/>
	<path class="st3" d="M251.7,470.8c26.9-53.1,58.8-103.9,94.8-151c0.1-0.1,0.2-0.3,0.2-0.5l0.3-3.2l3.2-0.4
		c5.5-0.7,10.4-1.3,15.1-2.1l2.5-0.4l1.5,2.3c25.9,34.1,50,70.6,78.1,118.2l2.2,2.5l-1.8,2.6c-1.4,2-3.6,3.2-5.8,4.2
		c-2.5,1.2-5.1,2.4-8.1,3.6l-3.1,1.3L429,445c-3-4.8-6.4-9.5-9.4-13.6l-1.3-1.8c-21.4-29.7-41.1-61-58.6-93.1
		c-0.2-0.3-0.5-0.5-0.9-0.5l0,0c-0.4,0-0.7,0.2-0.9,0.5l-89,137.6l-1.1,2.2l-2.4,0.1c-3.7,0.1-7,0.2-10.2,0.3l-6.7,0.1L251.7,470.8z
		"/>
	<path class="st4" d="M358.8,339.1l3.2,5.8c16.5,29.6,34.9,58.5,54.7,86l1.3,1.8c2.4,3.4,5.5,7.6,8.2,11.7l2.8,4.3l-4.8,1.7
		c-9.3,3.2-18.5,5.6-25.6,7.3c-39.3,9.7-79.9,15.8-120.6,18.1l-7.9,0.4L358.8,339.1z"/>
	<path class="st0" d="M330.3,208.3c-4.5,0-9.4-0.8-14.5-2.5c-10.1-3.3-21.4-10.7-23.1-21.9c-0.8-5.8,1.1-12.1,5.2-17.4
		c7.5-9.6,20.6-16,32.6-16c5.1,0,9.7,1.1,13.8,3.3c10.1,5.5,16.5,17.8,15.1,29.2c-1.4,11.5-10.5,21.8-21.7,24.5
		C335.4,208,332.9,208.3,330.3,208.3z"/>
	<path class="st4" d="M244.6,468.2c-13.2-15.3-22.7-33.5-32-51.1c-3.4-6.4-7.2-13.7-11.1-20.6c-5.8-10.2-12.2-20.3-18.4-30l-0.1-0.1
		c-9.5-14.9-19.3-30.4-27.1-46.7l-3-6.4l7,0.7c4.2,0.4,8.4,0.8,12.6,1.1c27,2.3,62.8,4.9,100.3,4.9c23.2,0,44.4-1,64.7-2.9l9.1-0.9
		l-5.5,7.3c-34.1,45.1-64.4,93.5-90,143.9l-2.7,5.3L244.6,468.2z"/>
	<path class="st3" d="M240.6,476.8c-3.5,0-7.3,0-12.3-0.1h-2.4l-1.1-2.1c-21.2-40.9-43-83.3-71.6-120.9l-0.6-0.8
		c-3.7-4.9-7.2-9.5-9-15c-0.1-0.4-0.5-0.7-0.9-0.7l0,0c-0.5,0-0.8,0.2-1,0.6c-19.3,39.6-42.5,77.5-69.1,112.8l-2.3,3.1l-3.2-2.2
		c-2.2-1.5-3.9-3.3-5.1-5.3l-1.2-2.2l1-1.9c21.9-43.5,46.1-86.2,72-127.1c0,0,0-0.1,0.1-0.3l1-3.2l3.3,0.4c3.4,0.4,6.8,0.8,10.2,1.1
		l2.3,0.2l0.9,2.1c8.2,18.5,19.1,35.7,29.7,52.3c5.9,9.2,12.5,19.7,18.3,29.9c3.7,6.5,7.2,13.3,10.7,19.9l0.3,0.7
		c9.4,18,19.1,36.6,32.8,52.1l5.8,6.6H240.6z"/>
	<path class="st0" d="M176.8,208.3c-2.6,0-5.1-0.3-7.4-0.8c-11.2-2.7-20.3-13-21.7-24.5c-1.4-11.4,5-23.6,15.1-29.2
		c4.1-2.2,8.7-3.3,13.8-3.3c12,0,25.1,6.4,32.6,16c4.1,5.3,6,11.6,5.2,17.4c-1.6,11.2-13,18.7-23,21.9
		C186.2,207.5,181.3,208.3,176.8,208.3z"/>
	<path class="st4" d="M216.8,476.3c-45.4-1.7-90.6-8.1-134.3-19c-1.8-0.5-3.3-0.9-4.6-1.3l-5.5-1.6l3.4-4.6
		c24-32.2,45.3-66.6,63.4-102.3l3.1-6.2l3.8,5.8c1.6,2.4,3.4,4.8,5,6.9l0.6,0.8c26.2,34.6,46.7,72.9,68.8,115.7l3.1,6.1L216.8,476.3
		z"/>
	<path class="st1" d="M97.8,100.7C81,81.2,63.7,61.1,49.5,39.2c-3.2-5-6.4-10.4-7.3-16.3c-0.8-5.3,0.8-12,6-15.1
		c1.8-1.1,4-1.7,6.5-1.7c4.2,0,7.9,1.6,9.8,2.6c7.8,4,13.8,10.9,19.2,17.9c8.1,10.5,15.5,21.8,22.6,32.6l59.4,90.6L162,152l-0.2,0.1
		c-3,1.6-5.8,3.9-8.2,6.6l-3,3.4L97.8,100.7z"/>
	<path class="st4" d="M58.4,428.1c-4.4-44-5.4-89-5.8-131.1l-0.1-6.6l5.9,3.1c4.5,2.3,9.4,4,14,5.4c16.2,4.9,34.2,8.7,55.1,11.6
		l6.1,0.8l-3.3,5.2c-23,36.6-44.7,74.7-64.5,113.1l-6.2,12L58.4,428.1z"/>
	<path class="st5" d="M467,424.9c-3.4-2.5-7.1-3.7-10.9-3.5c1.7-44.4,1.3-89.3-1.3-133.5c0-0.1-0.1-0.3-0.1-0.4
		c2.4-1.9,4.6-4.1,6.5-6.7c5.4-7.4,6.6-16.8,2.9-24c-2.9-5.7-8.3-9.2-13.2-11.8c-15.9-8.7-31.6-11.2-48.1-13.9
		c-4.9-0.8-9.9-1.6-14.9-2.6c-24.4-4.8-49.9-8.2-75.6-10c-48.6-3.5-99.9-1.8-152.6,5c-27.6,3.6-56.1,8.7-84.6,15.1
		c-8.5,1.9-16,3.8-22.9,8.1c-8.6,5.3-14,13.6-14.5,22.2c-0.4,7.5,2.8,15.1,8.9,21.1c-0.1,0.3-0.1,0.6-0.1,0.9
		c0.4,43.6,1.2,94.3,6.4,143.1c0,0.2,0,0.4,0.1,0.5c-5,1-9.4,4.2-12.2,9.1c-4.1,7-4.7,16.1-1.3,23.2c5.6,11.9,18,18.1,28.1,22.1
		c31.7,12.6,65.2,16.8,96.7,19.6c27.5,2.4,54,3.6,79.6,3.6c57.9,0,111.2-6.2,161.1-18.6c20.7-5.2,42-12,57.9-26.9
		c8.5-8,12.9-16.8,12.7-25.4C475.4,434.9,472.1,428.7,467,424.9z M432.5,443c-3-4.8-6.3-9.4-9.5-13.8l-1.3-1.8
		c-21.3-29.5-40.9-60.7-58.3-92.7c-0.8-1.6-2.4-2.6-4.2-2.6c-1.8-0.1-3.4,0.8-4.4,2.3l-89.1,137.8c-0.1,0.1-0.1,0.2-0.1,0.3
		c-3.4,0.1-6.8,0.2-10.1,0.3c26.7-52.8,58.5-103.4,94.4-150.4c0.6-0.8,0.9-1.7,1-2.6c5.1-0.6,10.2-1.3,15.3-2.1
		c0,0.1,0.1,0.1,0.1,0.2c25.8,34,49.9,70.4,78,118c0.2,0.3,0.4,0.5,0.6,0.8c-0.8,1.1-2.5,2.1-4.3,2.9
		C437.7,440.7,435.1,441.9,432.5,443z M422.9,446.6c-8.5,2.9-17,5.2-25.3,7.2c-39.3,9.8-79.5,15.7-119.9,18l80.9-125
		c16.6,29.8,35,58.8,54.9,86.4l1.3,1.8C417.5,438.8,420.3,442.6,422.9,446.6z M228.4,472.7c-21.3-41.2-43.3-83.7-71.9-121.5
		l-0.6-0.8c-3.5-4.6-6.8-9-8.4-13.9c-0.6-2-2.4-3.3-4.4-3.5s-4,1-4.9,2.8C119,375.3,95.9,413,69.6,448.1c-1.6-1.1-3-2.5-4-4.1
		c0-0.1-0.1-0.1-0.1-0.2c21.8-43.2,45.9-85.9,71.8-126.8c0.2-0.4,0.4-0.8,0.5-1.2c3.4,0.4,6.8,0.8,10.2,1.1
		c8.3,18.7,19.3,36.1,30,52.9c6.2,9.7,12.5,19.7,18.2,29.7c3.8,6.7,7.4,13.6,11,20.4c9.6,18.3,19.4,37.1,33.3,52.9
		C236.5,472.8,232.5,472.8,228.4,472.7z M217,472.3c-45-1.7-89.8-8-133.5-18.9c-1.5-0.4-3-0.8-4.5-1.2
		c24.1-32.3,45.5-66.9,63.8-102.9c1.6,2.5,3.4,4.8,5.1,7.1l0.6,0.8C175.5,392.8,196.6,433.1,217,472.3z M62.4,427.7
		c-4.5-44.5-5.4-90.4-5.8-130.8c4.9,2.5,10,4.2,14.7,5.6c18.4,5.6,37.2,9.2,55.8,11.7C104,351.1,82.3,389.1,62.4,427.7z
		 M247.6,465.6c-12.8-14.9-22.3-32.9-31.4-50.3c-3.6-6.8-7.3-13.9-11.1-20.7c-5.8-10.3-12.3-20.4-18.5-30.2
		c-9.5-14.9-19.3-30.3-26.9-46.4c4.2,0.4,8.5,0.8,12.6,1.1c31.3,2.6,65.4,4.9,100.7,4.9c21.5,0,43.3-0.8,65.1-3
		C303.8,366.4,273.4,414.9,247.6,465.6z M446.2,419.7c-24.5-40.8-46.1-73.4-69-103.9c19.4-3.5,44.3-9.5,66.9-21.5
		c0.4-0.2,0.7-0.4,1.1-0.6C447.4,335.5,447.7,377.8,446.2,419.7z M453.2,274.8c-3.4,4.7-8.9,8-13.9,10.6
		c-19.5,10.4-43.1,17.4-74.3,22.2c-36.9,5.6-88.6,10.2-192,1.5c-32.2-2.7-66.3-6.2-98.9-16.1c-6.2-1.9-13.2-4.2-18.6-8.5
		c-5.2-4.1-8.2-9.9-7.9-15.1c0.1-1.3,0.4-2.6,0.8-3.8c10.9,9.8,25.1,14.5,39,18C135.2,296,185,299,233.3,299
		c12.5,0,24.9-0.2,37.2-0.5c59.6-1.5,127.8-5.7,184.7-37.4c0,0.1,0.1,0.1,0.1,0.2C457.5,265.6,455.8,271.2,453.2,274.8z M77.4,248.3
		c28.2-6.4,56.3-11.4,83.7-15c52-6.8,102.7-8.4,150.6-5c25.4,1.8,50.4,5.2,74.4,9.9c5.2,1,10.3,1.8,15.3,2.6
		c15.7,2.5,30.5,5,44.9,12.8c0.3,0.1,0.5,0.3,0.8,0.4c-54.2,29-119.6,32.9-176.8,34.3c-58.8,1.4-121.3,0.7-180.2-14.6
		c-13-3.4-26.2-7.7-35.6-16.5c0.9-0.8,2-1.5,3-2.2C63.1,251.7,69.8,250,77.4,248.3z M456,459.2c-14.2,13.4-34.1,19.7-53.4,24.5
		c-70.9,17.7-148.6,22.5-237.5,14.8c-30.7-2.7-63.3-6.8-93.8-18.9c-8.5-3.3-18.7-8.3-22.8-17c-1.9-4-1.5-9.7,0.9-13.8
		c1-1.7,2.8-3.8,5.5-4.4c0.5,1.6,1.2,3.3,2.1,4.8c5.2,8.7,15.1,11.8,24,14.1c52.4,13.1,106.3,19.7,160.2,19.7
		c53.4,0,106.8-6.4,158.8-19.3c14.5-3.6,30-7.9,44.7-15.1c2.9-1.4,6.2-3.2,8.3-6.5c2.3-3.5,2.5-7.5,2.7-10.5c2.1-0.5,4,0.5,5.3,1.4
		c2.6,1.9,4.4,5.3,4.5,8.4C465.7,448.5,460.4,455,456,459.2z"/>
	<path class="st5" d="M313.9,211.6c5.8,1.9,11.3,2.8,16.4,2.8c3.1,0,6-0.3,8.8-1c13.8-3.3,24.6-15.5,26.3-29.7
		c0.8-6.5-0.4-13.1-3.2-19l51.7-60c16.9-19.6,34.4-39.9,48.8-62.2c3.4-5.3,7.2-11.6,8.2-18.8c1-7.3-1.3-16.6-8.9-21.2
		c-6-3.6-14.3-3.3-22.2,0.7c-8.9,4.5-15.4,12.1-21.2,19.5c-8.2,10.7-15.7,22-22.9,33L337.3,145c-16.2-2.9-34.6,5.5-44.1,17.7
		c-5.1,6.6-7.5,14.6-6.4,22C288.5,196.6,298.6,206.6,313.9,211.6z M404.2,61.3c7.1-10.8,14.4-22,22.4-32.4
		c5.1-6.5,10.7-13.1,17.8-16.7c3.7-1.9,8.9-3.2,12.4-1c3.6,2.2,4.7,7.3,4.1,11.2c-0.7,5.1-3.7,10.1-6.7,14.7
		c-14,21.7-31.3,41.7-48,61.1L356.5,156c-2.6-3-5.8-5.5-9.3-7.5c-0.1,0-0.1-0.1-0.2-0.1L404.2,61.3z M301.1,169
		c8.9-11.3,28-18.9,41.3-11.7c8.8,4.8,14.2,15.4,13.1,25.2c-1.2,9.9-9.1,18.8-18.7,21.1c-5.6,1.4-12.3,0.8-19.7-1.6
		c-8.9-2.9-19-9.3-20.3-18.7C296,178.6,297.6,173.4,301.1,169z"/>
	<path class="st5" d="M93.2,104.7l51.7,60c-2.8,5.9-4,12.5-3.2,19c1.7,14.1,12.5,26.3,26.3,29.7c2.8,0.7,5.7,1,8.8,1
		c5.1,0,10.6-0.9,16.4-2.8c15.3-4.9,25.5-15,27.2-26.8c1.1-7.4-1.3-15.4-6.4-22c-9.5-12.2-27.9-20.7-44.1-17.7l-58.5-89.3
		c-7.2-11-14.7-22.4-22.9-33c-5.8-7.5-12.3-15-21.2-19.5c-7.9-4-16.2-4.3-22.2-0.7c-7.6,4.5-9.9,13.9-8.9,21.2
		c1,7.2,4.8,13.4,8.2,18.8C58.8,64.8,76.3,85,93.2,104.7z M176.6,154.5c11.1,0,23,6.3,29.5,14.5c3.5,4.4,5.1,9.7,4.4,14.4
		c-1.3,9.4-11.4,15.8-20.3,18.7c-7.5,2.4-14.1,2.9-19.7,1.6c-9.6-2.3-17.5-11.2-18.7-21.1c-1.2-9.8,4.3-20.4,13.1-25.2
		C168.4,155.3,172.5,154.5,176.6,154.5z M50.3,11.1c3.5-2.1,8.7-0.9,12.4,1c7.1,3.6,12.8,10.2,17.8,16.7c8,10.4,15.3,21.6,22.4,32.4
		l57.1,87.1c0,0-0.1,0-0.1,0.1c-3.5,1.9-6.6,4.5-9.3,7.5L100.7,98C84.1,78.7,66.9,58.7,52.9,37c-3-4.6-6-9.6-6.7-14.7
		C45.6,18.4,46.7,13.3,50.3,11.1z"/>
</g>
</svg>
