<?xml version="1.0" encoding="utf-8"?>
<!-- Generator: Adobe Illustrator 25.2.3, SVG Export Plug-In . SVG Version: 6.00 Build 0)  -->
<svg version="1.1" id="Capa_1" xmlns="http://www.w3.org/2000/svg" xmlns:xlink="http://www.w3.org/1999/xlink" x="0px" y="0px"
	 viewBox="0 0 511 511" style="enable-background:new 0 0 511 511;" xml:space="preserve">
<style type="text/css">
	.st0{fill:#CFCB9D;}
	.st1{fill:#D4B1A6;}
	.st2{fill:#E1B946;}
	.st3{fill:#8CBEA3;}
	.st4{fill:#CC644F;}
	.st5{fill:#FFFFFF;}
	.st6{fill:#282828;}
</style>
<path class="st0" d="M292.5,505c-38.8,0-77.3-3.9-106.4-7.4c-42.3-5-77.4-10.6-111.4-21.8c-13.8-4.5-29.6-10.7-41.8-22
	c-9.6-8.9-15-19.9-14.9-30.1c0.2-12.4,8.7-24.9,21.6-32c12.8-7,27.9-8.4,39.7-8.9l1.4-0.1c11.4-0.4,23.2-0.9,31.3-8.7
	c8.3-8,9-20.3,8.6-30.1l-0.2-5.8l5.5,1.9c4.8,1.6,9.9,3.2,15.6,4.6c4.9,1.3,10.1,2.5,15.4,3.5l4.5,0.9l-1.5,4.3
	c-5.2,14.4-5.5,26.6-1.1,36.2c2.6,5.7,7.1,10.9,13.3,15.5c12.5,9.3,28.1,13.2,41.6,15.9c17.2,3.4,34.9,5.4,52.5,5.9
	c2.7,0.1,5.4,0.1,8,0.1c14.8,0,26.7-1.4,37.6-4.5c11.4-3.2,27.3-10,38.5-24.2c9.6-12.1,13.6-28.2,10.3-41.9l-1-4.3l4.4-0.6
	c12.9-1.6,24.6-3.8,35.6-6.6l4.5-1.1l0.4,4.7c1.7,18.4,5.2,36.7,19.5,45.8c9.1,5.8,20.3,6.2,31.1,6.5c2.9,0.1,5,0.1,7,0.2
	c7.7,0.4,26.1,2.8,31.5,16.2c5.9,14.6-8.4,29.9-12.9,34.2c-16.9,16.3-39.9,28.6-70.4,37.8C375.6,499.9,337,505,292.5,505z"/>
<path class="st1" d="M255.3,354.3c-17.1,0-32-0.4-45.4-1.3l-3.5-0.2l-0.2-3.5c-0.5-8.1-1.9-16.5-4.2-24.7l-1.6-5.9l6.1,0.9
	c2.7,0.4,5.7,0.6,8.8,0.6c2.5,0,5.1-0.1,8-0.4c30.6-2.4,75.2-8.7,108.7-35.1c9.9-7.8,18.8-17.3,27.4-26.4l0.1-0.1
	c14.3-15.3,27.9-29.8,46.3-37.9c0.2-0.1,0.3-0.2,0.4-0.4l1.6-2.3l2.7,0.7c19.5,4.8,36.9,9.5,53,18.2c5.8,3.1,13.9,8.2,18.1,16
	c4.7,8.9,3.4,19.1,1.5,26.1c-10.3,38.4-53.5,55.6-71.6,61.2c-37,11.5-75.8,13.2-119.1,14.1C281.3,354,268.3,354.3,255.3,354.3z"/>
<path class="st2" d="M215.1,318.1c-5.3,0-10.1-0.6-14-1.7l-1.9-0.6l-0.7-1.9c-7.1-19.1-18.7-37-33.6-51.8
	c-20.8-20.7-48.6-36.5-80.6-45.9l-4.1-1.2l1.5-4c2.8-7.6,6.1-17.6,7.4-28.1c2.7-21.5-3.2-42.6-9.4-62.4l-1.7-5.5l5.8,0.3
	c1.2,0.1,2.6,0.1,4,0.1c9.5,0,19.4-1.8,27.5-3.2l2-0.3c1.3-0.2,2.5-0.4,3.7-0.6c11.9-2,22.5-3.8,32.4-5.6l4.3-0.8l0.4,4.4
	c1.3,16.1,3,36.1,7.5,54.8c4.9,20.6,12.9,37.8,23.6,51.1c20.1,25.1,53.8,40,90,40c3,0,5.9-0.1,8.6-0.3c33.1-2.2,67.4-16.4,99.3-41.1
	l1.6-1.2l1.9,0.5c2,0.5,4,1.1,5.9,1.6l9.7,2.5l-8.7,4.9c-15.3,8.7-27.7,21.9-39.6,34.6c-8.5,9.1-17.4,18.6-27.2,26.3
	c-15.8,12.5-44.2,29.6-107.6,34.7C220.1,317.9,217.5,318.1,215.1,318.1z"/>
<path class="st3" d="M279.1,253.3c-35.6,0-68.6-14.7-88.4-39.3c-10.5-13.1-18.3-30-23.2-50.3c-4.5-18.6-6.1-38.2-7.5-55.5l-0.3-3.6
	l3.5-0.7c5.5-1,10.5-2,15.2-2.9l4.3-0.9l0.4,4.4c1.9,18.7,4.6,40.3,11.6,60.3c5.5,15.6,16.4,37.1,36.7,50.9
	c8.2,5.6,18,9.9,29.1,12.9c9.5,2.5,19.3,3.8,29.2,3.8c26.9,0,52.1-9.2,70.9-25.9c0,0,0.1-0.1,0.1-0.2l1.8-2.1l2.8,1
	c3.9,1.5,8,2.9,13.2,4.5l7.6,2.4l-6.4,4.7c-29.8,21.6-61.6,34.1-92.1,36.2C284.8,253.2,281.9,253.3,279.1,253.3z"/>
<path class="st4" d="M289.8,230.4c-9.7,0-19.4-1.3-28.7-3.7c-10.9-2.9-20.5-7.1-28.5-12.6c-19.8-13.5-30.4-34.6-35.9-49.9
	c-7-19.8-9.6-40.9-11.6-60.8l-0.4-3.6l3.5-0.7c3.7-0.8,7.4-1.5,11-2.3c15-3.3,28.9-6.6,42.4-10.2l0.5-0.1c4.9-1.3,10-2.8,14.7-4.9
	l4.5-2.1l1.1,4.8c0.8,3.5,1.6,7,2.6,10.3l1.2,4.2l-4.3,0.8c-16,2.9-31.6,6.1-46.4,12.1c-2.3,0.9-4.7,2-6.6,3.8
	c-2.2,2.1-3.2,5-2.7,7.5c0.8,3.4,4.2,5.9,9.4,6.8c2.2,0.4,4.7,0.6,7.2,0.6c6.2,0,12.4-1.2,17.6-2.3c10.8-2.3,22-5.1,31-7.5l3.1-0.8
	l1.4,2.9c0.6,1.3,1.3,2.6,2,3.8l2.4,4.6l-5,1.2c-15.9,3.7-30,7.4-43.2,14.4c-3.6,1.9-7.6,4.4-10.5,8c-2.1,2.7-3,5.5-2.3,7.9
	c0.6,2.4,2.8,4.4,5.6,5.3c1.2,0.4,2.6,0.6,4.2,0.6c1.1,0,2.2-0.1,3.1-0.2c20-1.7,38.3-8.6,58.4-16.7l2.8-1.1l1.9,2.3
	c1.2,1.5,2.5,3.1,4,4.8l3.2,3.7l-4.3,2.4c-10.7,5.9-24.1,13.2-33.4,24.1c-1.5,1.8-3,3.7-3.2,6.1c-0.2,2.1,0.6,4.3,2.3,6.2
	c2.8,3.2,7.4,4.9,13,4.9c10.4,0,19.8-5.3,28.5-10.9c5.7-3.7,11.5-7.9,16.1-11.2l2.4-1.7l2.3,1.8c9.3,7.1,19.2,13.1,29.4,17.9
	l5.8,2.7l-5,4C338.1,222.3,314.5,230.3,289.8,230.4z"/>
<path class="st5" d="M276.7,203c-5,0-9-1.5-11.5-4.3c-1.3-1.5-1.9-3.2-1.8-4.7c0.1-1.7,1.2-3.2,2.7-4.9
	c9.1-10.6,21.6-17.5,33.7-24.1c0,0,0.1,0,0.2-0.2l2.9-3l2.9,3c3.9,4,8,8,12.4,11.7l3.9,3.3l-4.1,3c-4.1,2.9-8.9,6.3-13.8,9.5
	C295.6,197.9,286.5,203,276.7,203L276.7,203L276.7,203z"/>
<path class="st5" d="M229.1,166.4c-1.4,0-2.6-0.2-3.7-0.5c-1.7-0.5-3.6-1.8-4.2-3.8c-0.6-2.4,1-4.8,2-6.1c2.7-3.4,6.5-5.7,9.9-7.5
	c14-7.5,29.7-11.2,44.9-14.7l0,0l3.1-1.2l1.8,2.8c1.8,3,3.8,6.1,6.1,9.3l2.9,4.1l-4.7,1.9c-17.4,7-36,13.9-55.3,15.6
	C231.1,166.3,230.1,166.4,229.1,166.4z"/>
<path class="st3" d="M87.8,113.4c-11.9,0-20.6-2.9-26.6-8.7c-4.1-4.1-6.6-9.4-8.4-14.1c-3.7-9.4-6.1-19.2-7.2-29.2
	c-1.1-10,0.2-16.9,4-21.7c2.8-3.5,7-5.7,10.4-7.3c9.7-4.5,20.4-7,29.6-8.9c33.1-7.1,69.2-12,113.8-15.4C216,7,231,6,246,6
	c5.4,0,10.6,0.1,15.6,0.4c4.6,0.2,9.3,0.7,12.5,3.6c4,3.5,4.5,9.6,4.5,15c-0.1,8.5-0.9,17-2.4,25.3c-1.3,7-3.4,15-8.6,21
	c-6.4,7.4-16.2,10.5-26.5,13.3c-6.9,1.8-13.6,3.5-20.5,5.2c-6.9,1.7-14,3.3-21.7,5c-22.6,4.9-46.8,9.4-78.2,14.6
	c-1.8,0.3-3.7,0.6-5.7,1C106.9,111.7,97,113.4,87.8,113.4z"/>
<path class="st5" d="M222.8,128.3c-2.4,0-4.7-0.2-6.9-0.6c-2-0.3-6.9-1.6-7.7-5.2c-0.5-2.2,0.8-4.3,2.1-5.6c1.6-1.6,3.8-2.5,5.9-3.4
	c14.7-6,30.1-9.1,47.2-12.2l3.3-0.6l1.1,3.2c1.1,3.2,2.4,6.5,3.8,9.8l1.8,4.3l-4.5,1.2c-9.3,2.4-19.3,4.9-29.1,7
	C234.8,127.1,228.8,128.3,222.8,128.3z"/>
<path class="st3" d="M199.7,352.2c-21-1.8-39.9-5-57.7-9.6c-20.6-5.3-35.8-11.9-47.9-20.7c-15.2-11.1-25.5-26.5-28.2-42.3
	c-3.3-19.3,3.7-37.4,11.2-56.6l2.4-6l3.5,1c31.9,9.2,59.7,24.9,80.5,45.6c23.5,23.4,38.3,54.1,40.6,84.4l0.4,4.7L199.7,352.2z"/>
<path class="st6" d="M499.4,415.1c-4.7-11.7-18.1-19-36.8-20c-2.4-0.1-4.8-0.2-7.1-0.3c-10.4-0.3-20.3-0.6-28-5.5
	c-12.9-8.3-15.5-26.5-16.9-43.1c0.9-0.3,1.7-0.5,2.6-0.8c40.3-12.5,67.8-36.3,75.6-65.4c2.2-8.1,3.6-19.9-2-30.5
	c-4.9-9.3-14.1-15-20.6-18.5c-18.2-9.8-38.4-14.8-57.9-19.6c-13.6-3.4-27.7-6.8-40.7-11.9c-50.2-19.5-89.4-66.2-99.9-119
	c-0.1-0.3-0.2-0.6-0.3-0.9c1.7-1.3,3.3-2.8,4.7-4.5c6.1-7.1,8.5-16.5,9.9-23.8c1.6-8.7,2.5-17.6,2.5-26.4c0-6.4-0.7-14.3-6.5-19.5
	c-4.7-4.2-10.8-4.8-16.2-5.1c-20.1-1-40.2,0.2-59,1.6C158,5.4,121.6,10.4,88.3,17.6c-9.5,2.1-20.6,4.6-30.8,9.4c-4,1.8-9,4.5-12.6,9
	c-6.4,8-6.1,18.7-5.3,26.1c1.2,10.5,3.7,20.9,7.6,30.7c2,5,4.8,11.3,9.8,16.2c4.5,4.5,9.9,7.2,15.8,8.7c0,0.6,0,1.1,0.2,1.7
	c6.8,21.3,12.7,42.2,10.1,62.8c-1.3,10.1-4.6,20.3-8.4,30.3c-0.4,0.5-0.8,1.2-1,1.9c-0.1,0.4-0.1,0.7-0.2,1.1
	c-0.7,1.8-1.4,3.5-2.1,5.3c-7.5,19.1-15.2,38.9-11.5,59.9c3,17.3,14.1,34.1,30.6,46.1c6.9,5,14.7,9.4,23.9,13.2
	c0.8,11.1,0.6,23-6.5,29.7c-6.5,6.2-17.1,6.6-27.4,7l-1.5,0.1c-12.4,0.5-28.5,2-42.4,9.7c-14.8,8.1-24.5,22.7-24.7,37.2
	c-0.2,12,6,24.6,16.8,34.6c13,12.1,29.6,18.5,44,23.3c34.4,11.3,69.9,17,112.5,22c35,4.1,71.1,7.4,107.2,7.4
	c40.4,0,80.7-4.1,119.7-15.9c31.4-9.5,55.2-22.3,72.9-39.2C505.1,436.7,501.8,420.9,499.4,415.1z M477.9,254.3
	c4.1,7.7,2.9,16.9,1.2,23.2c-9.8,36.5-51.5,53-68.9,58.4c-36.5,11.3-75.1,13-118,13.9c-28.7,0.6-55.8,0.9-82-0.8
	c-0.5-8.5-2-17.1-4.4-25.5c3.2,0.5,6.4,0.6,9.3,0.6c3.1,0,5.9-0.2,8.4-0.4c31.1-2.5,76.5-8.9,110.9-35.9c10.2-8,19.2-17.6,27.9-26.9
	c14-15,27.3-29.2,45-36.9c0.9-0.4,1.7-1.1,2.2-1.8c18.5,4.6,36,9.2,52,17.8C466.7,242.8,474.2,247.4,477.9,254.3z M345.7,394.7
	c-10.3,12.9-24.9,19.2-35.5,22.1c-12.1,3.4-25.6,4.7-43.7,4.1c-17.3-0.5-34.6-2.5-51.5-5.8c-12.9-2.5-27.6-6.3-39.2-14.8
	c-5.4-4-9.2-8.4-11.4-13.1c-3.8-8.3-3.3-19.2,1.5-32.3c0.1-0.3,0.2-0.6,0.2-0.9c28.9,5,58.2,6.4,89.1,6.4c12.1,0,24.5-0.2,37.2-0.5
	c21.7-0.5,42.3-1.1,62.2-3.1C357.9,369,354.6,383.5,345.7,394.7z M377.4,213.6c-29.2,21.2-60.2,33.4-90.1,35.4
	c-37.1,2.5-73-11.9-93.5-37.5c-10.1-12.6-17.7-29-22.4-48.8c-4.4-18.3-6-37.7-7.4-54.9c5.2-1,10.3-1.9,15.2-2.9
	c2.1,20.1,4.8,41.2,11.8,61.2c5.7,16.2,17,38.5,38.2,52.9c8.6,5.9,18.8,10.4,30.4,13.4c10,2.6,20.1,3.9,30.2,3.9
	c27.3,0,53.8-9.4,73.6-26.9c0.2-0.2,0.4-0.4,0.5-0.6c0,0,0.1,0,0.1,0C368.4,210.7,372.9,212.2,377.4,213.6z M315.5,179.6
	c-4.5,3.2-9.1,6.4-13.6,9.4c-7.9,5.2-16.3,9.9-25.1,9.9c0,0,0,0,0,0c-3.8,0-6.8-1.1-8.4-2.9c-0.6-0.7-0.8-1.4-0.8-1.7
	c0.1-0.8,1.3-2.2,1.7-2.7c8.6-10,20.8-16.7,32.5-23.1c0.4-0.2,0.8-0.6,1.1-0.9C306.8,171.9,311.1,175.9,315.5,179.6z M279.5,137.4
	c2,3.2,4.1,6.4,6.3,9.5c-18.8,7.6-36.1,13.8-54.2,15.3c-1.8,0.2-3.6,0.3-5-0.2c-0.9-0.3-1.4-0.8-1.5-1c-0.1-0.3,0.1-1.3,1.2-2.6
	c2.2-2.8,5.6-4.8,8.7-6.4c13.6-7.2,29.1-10.9,44-14.4C279.2,137.6,279.3,137.5,279.5,137.4z M268.1,115.2
	c-9.5,2.5-19.3,4.9-28.9,6.9c-7.3,1.5-15.1,2.9-22.5,1.6c-2.9-0.5-4.4-1.6-4.5-2.2c-0.1-0.3,0.2-1.1,0.9-1.8
	c1.1-1.1,2.9-1.9,4.7-2.6c14.7-6,30.8-9.1,46.4-12C265.3,108.6,266.6,111.9,268.1,115.2z M261.1,95.6c-15.8,2.9-31.9,6.1-47.2,12.3
	c-2.5,1-5.4,2.3-7.8,4.6c-3.2,3.1-4.6,7.4-3.8,11.2c1.1,5.1,5.7,8.7,12.6,9.9c2.6,0.5,5.2,0.6,7.9,0.6c6.5,0,12.8-1.2,18.4-2.3
	c10.5-2.2,21-4.9,31.2-7.5c0.7,1.3,1.3,2.6,2,3.9c-14.9,3.5-30.1,7.3-44.1,14.8c-3.9,2.1-8.4,4.8-11.8,9c-2.9,3.7-4,7.7-3.1,11.4
	c1,3.7,4.1,6.8,8.3,8.1c1.8,0.6,3.7,0.7,5.4,0.7c1.2,0,2.3-0.1,3.4-0.2c20.3-1.7,39-8.7,59.5-17c1.3,1.7,2.7,3.3,4.1,4.9
	c-11.8,6.4-24.9,13.8-34.5,25c-1.9,2.2-3.8,4.9-4.1,8.4c-0.3,3.2,0.9,6.4,3.3,9.2c3.6,4.1,9.2,6.3,16,6.3h0
	c11.4,0,21.5-5.6,30.6-11.6c5.5-3.6,10.9-7.5,16.2-11.3c9.4,7.2,19.5,13.3,30.1,18.4c-24.5,19.8-59.2,26.8-91.6,18.2
	c-10.4-2.8-19.6-6.8-27.3-12c-18.9-12.9-29.1-33.2-34.4-48c-6.8-19.2-9.4-40.1-11.4-59.8c3.7-0.8,7.4-1.5,11-2.3
	c15.1-3.3,29-6.6,42.5-10.2c5.3-1.4,10.8-3,15.8-5.3C259.2,88.6,260.1,92.1,261.1,95.6z M56.5,89.1c-3.6-9-5.9-18.5-7-28.1
	c-1-8.9,0-14.9,3.1-18.8c2.3-2.9,6-4.8,8.9-6.1c9.3-4.3,19.7-6.7,28.8-8.7c32.8-7.1,68.8-12,113.2-15.4c13.6-1,28-2,42.4-2
	c5.1,0,10.3,0.1,15.4,0.4c3.9,0.2,7.8,0.6,10.1,2.6c2.8,2.5,3.1,7.7,3.1,12c-0.1,8.2-0.9,16.5-2.4,24.6c-1.2,6.5-3.1,13.8-7.6,19.1
	c-5.7,6.6-14.8,9.4-24.5,12c-13.4,3.6-27.1,6.9-42.1,10.1c-22.6,4.9-46.6,9.4-78,14.5c-1.8,0.3-3.8,0.6-5.8,1
	c-16.3,2.9-38.7,6.8-50.1-4.5C60.4,98.3,58.2,93.4,56.5,89.1z M83.5,119.3c1.4,0.1,2.8,0.1,4.3,0.1c9.7,0,19.7-1.8,28.2-3.3
	c2-0.3,3.9-0.7,5.7-1c11.8-1.9,22.5-3.8,32.5-5.6c1.4,17.3,3.1,36.7,7.6,55.4c5.1,21.2,13.3,38.9,24.3,52.7
	c20.9,26.1,56,41.5,93.1,41.5c3,0,5.9-0.1,8.9-0.3c33.9-2.3,68.9-16.8,101.5-41.9c2,0.5,4,1.1,6,1.6c-15.8,8.9-28.4,22.3-40.5,35.4
	c-8.4,9-17.2,18.4-26.8,25.9c-15.4,12.1-43.2,28.9-105.5,33.8c-5.5,0.4-13.6,0.8-20.5-1.2c-7.2-19.4-19-37.8-34.5-53.2
	c-21.3-21.2-49.7-37.4-82.3-46.9c3.4-9.4,6.4-19,7.6-28.9C95.7,161.8,90.2,140.7,83.5,119.3z M69.8,278.9
	c-3.1-18.2,3.7-35.9,11-54.5c0.3-0.9,0.7-1.7,1-2.6c31.3,9,58.4,24.3,78.7,44.6c22.9,22.8,37.2,52.5,39.4,81.9
	c-19.4-1.7-38.3-4.6-57-9.4c-20.1-5.2-34.9-11.6-46.5-20.1C82.1,308.2,72.4,293.7,69.8,278.9z M478.1,448.7
	c-16.4,15.8-39,27.8-68.8,36.8c-72.1,21.7-149.7,16.7-222.8,8.1c-42.1-5-77-10.5-110.6-21.6c-13.4-4.4-28.7-10.4-40.3-21.1
	c-8.8-8.1-13.7-18-13.6-27.1c0.2-10.9,7.8-22.2,19.5-28.6c12-6.6,26.6-8,38-8.4l1.4-0.1c11.6-0.4,24.7-1,33.9-9.8
	c9-8.6,10.3-21.1,9.8-33.1c4.9,1.7,10.2,3.2,15.8,4.7c5.2,1.3,10.4,2.5,15.6,3.6c-5.5,15.4-5.8,28.6-1,39.2c2.9,6.3,7.8,12,14.6,17
	c13.2,9.7,29.3,13.9,43.2,16.6c17.5,3.4,35.4,5.5,53.2,6c2.8,0.1,5.5,0.1,8.1,0.1c15.3,0,27.4-1.5,38.6-4.6
	c11.9-3.3,28.7-10.5,40.6-25.5c10.5-13.2,14.6-30.4,11.1-45.3c12.3-1.5,24.3-3.7,36.1-6.7c1.8,19.7,5.8,38.9,21.3,48.8
	c10.1,6.4,21.8,6.8,33.1,7.1c2.4,0.1,4.6,0.1,6.9,0.2c6.9,0.4,23.5,2.4,28,13.7C495.1,431.1,482.2,444.8,478.1,448.7z"/>
</svg>
