<?xml version="1.0" encoding="utf-8"?>
<!-- Generator: Adobe Illustrator 25.2.3, SVG Export Plug-In . SVG Version: 6.00 Build 0)  -->
<svg version="1.1" id="Capa_1" xmlns="http://www.w3.org/2000/svg" xmlns:xlink="http://www.w3.org/1999/xlink" x="0px" y="0px"
	 viewBox="0 0 512 512" style="enable-background:new 0 0 512 512;" xml:space="preserve">
<style type="text/css">
	.st0{fill:#FFFFFF;}
	.st1{fill:#8CBEA3;}
	.st2{fill:#E1B946;}
	.st3{fill:#CC644F;}
	.st4{fill:#282828;}
</style>
<g>
	<path class="st0" d="M392.4,387.1l0.4-4.3c2.2-23,3.5-46.5,3.8-69.8l0-3.9l3.9,0c5.1,0,9.7-0.2,13.8-0.4c0.5,0,0.9-0.4,1-0.9
		c2.4-30.1,2.7-60.8,0.8-91.2l-0.3-4.6l4.6,0.4c7.7,0.6,15.5,1.3,23.2,2c0.9,0.1,1.6,0.2,2.1,0.3l2.7,0.6l0.4,2.7
		c0.1,0.6,0.1,1.4,0.1,2.5c0,54.2-1.2,109.3-3.7,163.6l-0.2,3.9L392.4,387.1z"/>
	<path class="st0" d="M327.1,386.3l0.2-80.3l22.1,0c0.6,0,1-0.5,1-1l0.8-96.6l4.1,0.2c5.9,0.2,11.9,0.5,17.9,0.8l4.2,0.2l-0.4,4.2
		c-3.3,31.1-3.9,62.6-1.7,93.6c0,0.5,0.4,0.9,0.9,0.9c4.5,0.3,9.2,0.5,14.4,0.6l4,0.1l0,4c-0.3,23.5-1.5,47.2-3.8,70.4l-0.4,3.7
		L327.1,386.3z"/>
	<path class="st0" d="M247.6,385.4l9.1-178l3.8,0c5,0,10.1,0,15.1,0c9.4,0,18.7,0.1,27.8,0.2l4,0l-1.5,97.5c0,0.3,0.1,0.5,0.3,0.7
		c0.2,0.2,0.4,0.3,0.7,0.3l18.5,0l-0.2,80.3L247.6,385.4z"/>
	<path class="st0" d="M187,384.6l0.2-80l4.1,0.1c5.1,0.2,9.3,0.3,13.2,0.3c0.5,0,1-0.4,1-1c1.7-31-1.4-61.8-4.4-91.6l-0.4-4.3
		l4.3-0.1c16.2-0.4,31.1-0.6,45.4-0.7l4.2,0l-9.1,178L187,384.6z"/>
	<path class="st0" d="M122,383.8l-0.2-80.5l3.8-0.2c5.8-0.3,10.9-0.5,15.7-0.9c0.6,0,1-0.5,0.9-1.1l-5.6-91.1l4.1-0.1
		c5.7-0.2,11.4-0.4,17.1-0.6l4.3-0.1l-0.2,4.3c-1.2,28.4-1.5,57.1-0.8,85.2c0,0.8,0,1.9,0.7,2.8c0.9,1.3,2.4,1.6,4,1.7
		c4.7,0.4,9.7,0.7,15.5,1l3.8,0.2l-0.2,80L122,383.8z"/>
	<path class="st0" d="M62.5,383.1v-4c0-0.1,0-0.3,0-0.4l-3.1-151.6c-0.1-2.7-0.1-6,1.3-8.6c2.7-4.9,9.4-5.9,15.7-6.1l21-0.8
		l-0.1,4.2c-0.4,27.5,0.3,55.2,2.2,82.4c0.1,1.2,0.2,3.4,1.8,4.6c1,0.8,2.3,0.9,3.4,0.9c0.1,0,0.5,0,0.5,0c3.1,0,6.5-0.1,10.4-0.2
		l4.1-0.1l0.2,80.4L62.5,383.1z"/>
</g>
<path class="st1" d="M479.7,388.2l-32.5-0.4l0.2-4.1c2.4-54.1,3.6-109,3.6-163.3c0-1.7,0-4.3-1.7-6.1c-1.6-1.6-3.9-1.8-5.5-2
	c-50.6-4.8-105.5-7.1-167.8-7.1c-67,0-134.3,2.6-199.5,5.2l-0.2,0c-4.5,0.2-13.8,0.5-17.4,7.2c-1.6,3-1.6,6.7-1.5,9.6l3.2,155.9
	l-37.2-0.5c-4.1,0-8.2-0.5-10.3-3.2c-1.4-1.9-1.6-4.5-1.8-7.3C8.5,301.6,6.7,230,6,159.3c-0.1-8.7,0.4-18.4,6.7-23.9
	c4.1-3.6,9.8-4.6,15.8-5.4c40.6-5.3,81.6-6,119.9-6c9.6,0,19.3,0.1,28.6,0.1l72.9,0.4l57.1,0.3c23.7,0.1,47.3,0.2,71,0.4
	c31.4,0.2,64.9,2.3,99.6,6.2c8,0.9,17,2.4,22,8.6c4,5,4.6,11.6,4.9,19.2c2.7,69.6,1.7,140.2-3.1,209.7c-0.4,5.9-1,11.4-4.7,15
	c-3.8,3.8-9.7,4.3-15.6,4.3C480.7,388.2,480.2,388.2,479.7,388.2z M441.7,148.7c-4.5,0-8.9,1-12.8,2.9c-8.1,3.9-14,12.1-14.9,20.7
	c-0.8,7.4,2.3,14.3,8.4,19c1.3,1,2.8,1.9,4.6,2.8c1.8,0.9,3.7,1.6,6,2.3c4.1,1.2,8.1,1.8,12,1.8c5.1,0,9.5-1.1,13.4-3.2
	c9.4-5.1,14.2-17.2,11.1-27.4c-2.2-7.3-7.6-13-15-16.3C450.4,149.6,446,148.7,441.7,148.7z M64.1,142.1c-0.6,0-1.1,0-1.7,0.1
	c-11.2,0.6-21.2,7.1-26.1,17c-1.8,3.7-2.8,7.8-2.8,11.9c0,5,1.4,9.6,3.9,13.4c4.7,7,13.6,11.1,23.8,11.1c2,0,4-0.2,5.8-0.5
	c5.5-1,10.5-3.1,14.2-6c9.9-7.9,12.5-23.7,5.6-34.5C81.8,146.6,73.7,142.1,64.1,142.1z M266.8,174.2c-41.2,0-82.8,0.6-123.5,1.9
	c-0.6,0-1,0.5-1,1s0.5,1,1,1h0.1c40.8-1.2,82.4-1.9,123.6-1.9c28.9,0,58.1,0.3,86.7,0.9c0.6,0,1-0.5,1-1c0-0.6-0.4-1-1-1
	C325,174.5,295.7,174.2,266.8,174.2z M364.3,155.5c0.5,0,1-0.4,1-1c0-0.4-0.1-0.6-0.3-0.7c-0.1-0.1-0.4-0.3-0.7-0.3
	c-50.8-1.7-102.6-2.6-153.8-2.6c-24.7,0-49.7,0.2-74.2,0.6c-0.4,0-0.6,0.2-0.7,0.3c-0.1,0.1-0.3,0.4-0.3,0.7c0,0.6,0.5,1,1,1
	c24.5-0.4,49.3-0.6,74-0.6c51.4,0,103.2,0.9,154,2.6H364.3z"/>
<path class="st2" d="M445,196.1c-4.6,0-8.8-1-11.5-1.8c-4.1-1.2-7.4-2.8-9.9-4.7c-5.6-4.3-8.3-10.4-7.6-17.1
	c0.8-8,6.2-15.4,13.7-19.1c3.5-1.7,7.7-2.6,11.9-2.6c4.1,0,8.2,0.8,11.8,2.4c6.9,3,11.8,8.3,13.9,15c2.9,9.3-1.6,20.3-10.1,25
	C453.8,195.1,449.6,196.1,445,196.1z"/>
<path class="st3" d="M398.1,307c-5.8,0-11.6-0.2-17.3-0.5l-3.6-0.2l-0.2-3.6c-1.8-29.6-1.1-59.7,2.1-89.4l0.4-3.8l3.8,0.2
	c9.1,0.5,18.2,1,27.1,1.7l3.5,0.2l0.2,3.5c1.9,29.2,1.8,58.8-0.4,87.8l-0.3,3.6l-3.6,0.1C405.9,307,402,307,398.1,307z"/>
<path class="st3" d="M307.8,304l1.5-96.5l4,0.1c10.8,0.2,21.6,0.4,32,0.8l3.9,0.1l-0.8,95.6L307.8,304z"/>
<path class="st3" d="M199.6,303c-10.9-0.2-21.9-0.7-32.7-1.6l-3.6-0.3l-0.1-3.6c-0.6-27.9-0.3-56.4,0.9-84.5l0.2-3.7l3.7-0.1
	c8-0.2,17.5-0.5,26.9-0.8l3.7-0.1l0.4,3.9c2.8,28.5,5.8,57.9,4.6,87l-0.2,3.9L199.6,303z"/>
<path class="st3" d="M101.6,298.1c-1.9-27.3-2.6-55.1-2.1-82.7l0.1-3.8l3.9-0.2c9.1-0.3,18.2-0.7,27.4-1l3.9-0.1l5.5,90.1l-4,0.2
	c-10.2,0.6-20.5,1-30.6,1.2l-3.8,0.1L101.6,298.1z"/>
<path class="st2" d="M61.1,193.6c-9.6,0-17.6-3.7-22-10.3c-4.3-6.4-4.7-15.7-1-23.3c2.2-4.5,5.6-8.3,10-11.1
	c4.3-2.8,9.3-4.4,14.4-4.7c0.5,0,1.1,0,1.6,0c8.8,0,16.5,4.2,21.2,11.5c6.4,10,4.1,24.6-5.1,31.8c-3.5,2.8-8.1,4.7-13.3,5.6
	C64.9,193.5,63,193.6,61.1,193.6z"/>
<path class="st4" d="M510.5,158.9c-0.3-8.3-1-16.3-6.2-22.8c-6.4-8-16.8-9.8-26-10.8c-34.8-4-68.5-6.1-100.2-6.3
	c-28.5-0.2-57.1-0.3-85.6-0.4c-14.3-0.1-28.5-0.1-42.8-0.2l-72.4-0.4c-49-0.2-99.8-0.5-149.4,5.9c-6.7,0.9-13.6,2.1-19,6.8
	C0.5,138-0.1,149.3,0,159.3c0.6,70.8,2.4,142.5,5.4,213.1c0.1,2.9,0.3,7.2,3,10.7c4.1,5.4,11.5,5.5,15,5.5l456.3,5.6
	c0.6,0,1.3,0,2,0c5.7,0,13.8-0.5,19.4-6.1c5.1-5.1,6-12.1,6.4-18.9C512.2,299.5,513.2,228.8,510.5,158.9z M63.5,227.1
	c0-2.3-0.1-5,0.8-6.6c1.7-3.2,7.5-3.8,12.4-4c5.6-0.2,11.2-0.4,16.8-0.7c-0.4,27.5,0.3,55.3,2.2,82.8c0.1,1.6,0.4,5.2,3.4,7.5
	c2.1,1.6,4.4,1.8,5.9,1.8c0.2,0,0.4,0,0.6,0c3.5-0.1,6.9-0.1,10.4-0.2l0.2,72.2l-49.4-0.6c0-0.1,0-0.2,0-0.3L63.5,227.1z
	 M441.3,383.7l-44.5-0.5c2.3-23.2,3.5-46.8,3.8-70.1c4.7,0,9.3-0.1,14-0.4c2.5-0.1,4.5-2.1,4.8-4.6c2.5-30.4,2.7-61.3,0.8-91.8
	c7.7,0.6,15.4,1.3,23.1,2c0.3,0,1.1,0.1,1.6,0.2c0.1,0.4,0.1,1,0.1,1.8C445,274.6,443.8,329.6,441.3,383.7z M410.1,215.6
	c1.9,29,1.7,58.3-0.4,87.3c-9.5,0.3-19.1,0.3-28.6-0.2c-1.8-29.5-1.1-59.3,2-88.7C392.1,214.4,401.1,214.9,410.1,215.6z
	 M371.3,307.7c0.2,2.5,2.2,4.5,4.7,4.7c4.8,0.3,9.7,0.5,14.6,0.6c-0.2,23.3-1.5,46.9-3.8,70.1l-55.7-0.7l0.2-72.3l18.1,0h0
	c2.8,0,5-2.2,5-5l0.8-92.5c5.9,0.2,11.9,0.5,17.8,0.8C369.7,244.6,369.1,276.3,371.3,307.7z M344.4,300l-32.5,0l1.4-88.4
	c10.6,0.2,21.3,0.4,31.9,0.8L344.4,300z M303.2,308.5c0.9,1,2.2,1.5,3.6,1.5l14.5,0l-0.2,72.2l-69.2-0.8l8.6-170.1
	c14.2-0.1,28.5-0.1,42.8,0.1l-1.5,93.5C301.8,306.3,302.3,307.6,303.2,308.5z M241.8,381.3l-50.8-0.6l0.2-71.9
	c4.4,0.1,8.9,0.3,13.3,0.3h0c2.7,0,4.9-2.1,5-4.7c1.7-31-1.4-62.1-4.4-92.2c15.1-0.3,30.2-0.6,45.3-0.7L241.8,381.3z M195,212.4
	c2.8,28.4,5.8,57.7,4.6,86.6c-10.8-0.2-21.7-0.7-32.4-1.6c-0.6-28-0.3-56.3,0.9-84.3C177.1,212.8,186.1,212.6,195,212.4z
	 M157.2,298.9c0,1.1,0.1,3.1,1.4,5c2.1,3,5.6,3.3,6.9,3.4c5.2,0.4,10.4,0.8,15.6,1l-0.2,72.2l-55-0.7l-0.2-72.7
	c5.3-0.2,10.6-0.5,15.8-0.9c2.8-0.2,4.8-2.6,4.7-5.3l-5.3-87c5.7-0.2,11.4-0.4,17.1-0.6C156.8,241.8,156.5,270.6,157.2,298.9z
	 M131,214.4l5.1,82.2c-10.1,0.6-20.3,1-30.4,1.2c-1.9-27.3-2.6-55-2.1-82.4C112.6,215,121.8,214.7,131,214.4z M497.4,368.6
	c-0.3,5.1-0.9,9.8-3.5,12.5c-3,3-8.6,3.2-14.2,3.1l-28.3-0.3c2.4-54.2,3.7-109.2,3.6-163.5c0-2.1,0-6-2.8-8.9c-2.6-2.7-6.1-3-8-3.2
	c-122.5-11.5-247.3-6.6-368-1.9c-4.8,0.2-16.1,0.6-20.8,9.3c-2.2,4-2.1,8.4-2,11.6L56.5,379l-33-0.4c-1.8,0-6-0.1-7.2-1.6
	c-0.8-1-0.9-3.3-0.9-5c-2.9-70.6-4.7-142.2-5.3-212.8c-0.1-7.8,0.3-16.5,5.3-20.8c3.3-2.8,8.4-3.7,13.7-4.4c39.4-5.1,79.8-6,119.4-6
	c9.6,0,19.2,0.1,28.7,0.1l72.4,0.4c14.3,0.1,28.5,0.1,42.8,0.2c28.5,0.1,57.1,0.3,85.6,0.4c31.3,0.2,64.7,2.3,99.1,6.2
	c7.2,0.8,15.3,2.1,19.3,7.1c3.3,4,3.8,10,4,16.8C503.2,228.8,502.2,299.2,497.4,368.6z"/>
<path class="st4" d="M455.9,147.6c-9.3-4-20.1-3.9-28.8,0.3c-9.4,4.5-16.1,13.9-17.1,23.9c-0.9,8.8,2.7,17,9.9,22.6
	c3.1,2.4,7,4.3,11.9,5.7c4.5,1.3,8.9,2,13.1,2c5.7,0,10.9-1.2,15.3-3.7c11-6,16.6-20.1,13-32.1C470.6,158,464.5,151.3,455.9,147.6z
	 M455.4,189.6c-7.2,3.9-16,2.2-20.7,0.8c-3.7-1.1-6.5-2.4-8.6-4.1c-5.7-4.4-6.4-9.8-6-13.6c0.7-6.6,5.2-12.8,11.5-15.9
	c6-2.9,13.8-3,20.4-0.1c5.8,2.5,9.9,7,11.6,12.5C465.9,176.8,462.2,185.9,455.4,189.6z"/>
<path class="st4" d="M62.1,138.2c-12.7,0.7-23.9,8.1-29.4,19.2c-4.7,9.6-4.1,21.1,1.4,29.3c6.2,9.2,17.2,12.9,27.1,12.9
	c2.2,0,4.4-0.2,6.5-0.6c6.2-1.1,11.8-3.4,16.1-6.8c11.5-9.1,14.4-27.3,6.4-39.8C84.1,142.7,73.8,137.6,62.1,138.2z M77.6,184.4
	c-3,2.4-7,4-11.5,4.8c-8.1,1.4-18.5-0.6-23.6-8.1c-3.5-5.2-3.8-13-0.8-19.3v0c3.8-7.8,12-13.1,21-13.6c8-0.4,15,3.1,19.1,9.6
	C87.1,166.1,85.1,178.5,77.6,184.4z"/>
<path class="st4" d="M364.5,149.4c-75.7-2.6-152.5-3.3-228.3-2c-2.8,0-5,2.3-4.9,5.1c0,2.7,2.3,4.9,5,4.9c0,0,0.1,0,0.1,0
	c75.6-1.2,152.2-0.6,227.8,2h0.2c2.7,0,4.9-2.1,5-4.8C369.4,151.9,367.2,149.5,364.5,149.4z"/>
<path class="st4" d="M353.8,171.1c-69.9-1.5-140.8-1.2-210.7,0.9c-2.8,0.1-4.9,2.4-4.9,5.2c0.1,2.7,2.3,4.9,5,4.9c0.1,0,0.1,0,0.2,0
	c69.7-2.1,140.4-2.4,210.2-0.9c2.7,0,5.1-2.1,5.1-4.9C358.8,173.5,356.6,171.2,353.8,171.1z"/>
</svg>
