<?xml version="1.0" encoding="utf-8"?>
<!-- Generator: Adobe Illustrator 25.2.3, SVG Export Plug-In . SVG Version: 6.00 Build 0)  -->
<svg version="1.1" id="Capa_1" xmlns="http://www.w3.org/2000/svg" xmlns:xlink="http://www.w3.org/1999/xlink" x="0px" y="0px"
	 viewBox="0 0 511 511" style="enable-background:new 0 0 511 511;" xml:space="preserve">
<style type="text/css">
	.st0{fill:#E1B946;}
	.st1{fill:#CC644F;}
	.st2{fill:#D4B1A6;}
	.st3{fill:#282828;}
	.st4{fill:#8CBEA3;}
</style>
<path class="st0" d="M347.2,203.4c-2.3,0-4.7-1-6.5-2.8c-2.2-2.1-3.7-5.3-4.6-9.6c-0.1-0.5-0.5-0.8-1-0.8c-0.3,0-0.5,0.1-0.7,0.2
	c-0.2,0.1-0.3,0.3-0.3,0.6c-0.7,3.4-2.3,7.8-5.9,9.6c-1.1,0.6-2.3,0.9-3.6,0.9c-3.6,0-7.6-2.4-9.7-5.7c-2.9-4.6-3.3-10.4-3.2-16
	c0.1-10.4,5.1-17.7,13.3-19.5c1.1-0.2,2.3-0.4,3.7-0.4c2.1,0,4.2,0.3,6.1,0.5l0.2,0c0.9,0.1,1.9,0.2,2.8,0.3
	c6.8,0.6,13.4,1.3,19.7,2c5.1,0.5,9.6,1.1,14.1,2.5l0.5,0.2l2.4,0.8l0.3,2.7c0.7,5.2,1.1,10.6,1.1,15.8c0,4.3-0.3,7.7-1.8,10.7
	c-1.3,2.6-4.1,5.1-7.3,5.1c-0.3,0-0.5,0-0.7,0c-3.3-0.4-6.2-3.7-8-8.9c-0.1-0.4-0.5-0.7-1-0.7c-0.5,0-0.9,0.4-1,0.8
	c-1,4.8-2.4,9.5-6.1,11.2C349.1,203.2,348.2,203.4,347.2,203.4z"/>
<path class="st0" d="M345,340.7c-6.1,0-11.5-0.2-16.5-0.6l-3.4-0.3l-0.2-3.4c-1-15.2-1.8-30.9-2.2-46.6l-0.1-4.1l47.1,0.3l0.1,3.9
	c0.4,18.4,0.7,32.3,0.7,45.1c0,0.3,0,0.9,0,1.3l-0.2,3.1l-3,0.6c-0.6,0.1-1.5,0.2-2.6,0.3C358.2,340.5,351.6,340.7,345,340.7z"/>
<path class="st1" d="M322.5,283.7l-0.1-3.9c-0.5-24.6-0.1-49.1,1.1-72.8l0.2-3.1l3-0.6c0.9-0.2,1.7-0.5,2.5-0.9c1-0.5,2-1.3,2.8-2.1
	l3.2-3.4l2.9,3.7c0.4,0.5,0.8,1,1.3,1.4c2.2,2.2,5.1,3.4,7.9,3.4c1.3,0,2.5-0.3,3.6-0.8c1.7-0.8,3-2,4.2-3.7l2.5-3.9l3.5,3.1
	c1.2,1.1,2.5,1.8,3.9,2.1l3,0.7l0,3.1c0.2,20,0.7,40.3,1.3,62.9l0,0.5c0.1,3.5,0.2,6.9,0.3,10.4l0.1,4.1L322.5,283.7z"/>
<path class="st2" d="M346.8,373.1c-2.5,0-4.8-0.8-6.5-2.1c-1.8-1.5-3-3.8-3.7-5.4c-2.7-6-3.8-12.7-3.2-19.3l0.3-3.7l3.8,0.1
	c2.7,0.1,5.1,0.1,7.5,0.1c5.1,0,10.1-0.1,13.8-0.2l3.4-0.1l0.6,3.4c0.8,4.5,1.2,11.1-1.6,17.1c-2.6,5.7-7.9,9.7-13.4,10.2
	C347.5,373.1,347.1,373.1,346.8,373.1z"/>
<path class="st3" d="M295.8,505c-6,0-12.1-0.1-18.1-0.2c-4.7-0.1-7.8-1.6-9.4-4.4c-3.9-7.1,2.5-21.1,6.9-28.3
	c4.5-7.3,10.7-12.5,17.4-14.6c2.7-0.8,5.7-1.3,8.9-1.3c1.5,0,3.2,0.1,4.8,0.3c5.4,0.6,9.5,2.1,12.5,4.5c5,4,7.2,10.7,8.5,16.1
	c2.3,9.3,2.9,17.1,1.8,24l-0.5,3.2l-3.3,0.1C315.6,504.8,305.7,505,295.8,505z"/>
<path class="st4" d="M275.4,457.8c1.4-32.5,1.7-66.7,1.1-98.9c0-0.1,0-0.3-0.1-0.4l-0.6-1.1l0.2-1.9c0.8-8.6,0.7-17.4-0.4-26
	l-0.6-4.4l4.4-0.1c13.3-0.3,26.3-0.7,38.6-1.3l3.9-0.2l0.2,3.9c0.2,3.6,0.4,7.2,0.7,10.7c0,0.5,0.1,1.2,0.4,1.9l0.4,0.8v0.9
	c0,0.1,0,0.3,0,0.4c0.1,4.9-0.3,9.8-0.7,14.6l0,0.2c-0.4,4.9-0.8,9.9-0.7,14.8c0.5,26.6,0.9,54.1-0.4,81.5l-0.3,5.9l-5.4-2.5
	c-2.6-1.2-5.8-2-9.5-2.5c-1.7-0.2-3.4-0.3-5-0.3c-3.5,0-6.7,0.5-9.6,1.4c-3.5,1.1-6.9,3-10.1,5.6l-6.9,5.8L275.4,457.8z"/>
<path class="st1" d="M247.3,323.3c-17.5,0-35.2-0.3-52.5-0.9l-4.1-0.1l0.2-4.1c2-38.1,2.1-75.8,0.2-112.2l-0.1-2.7l2.4-1.1
	c2.5-1.2,4.8-3.2,6.2-5.4c3.2-5.1,3.6-11.5,3.5-17.1c-0.1-4.6-1-8.7-2.8-12.1l-2-3.7l22.9-10.7l1.8,3.1c4.5,7.7,10,13.6,16.2,17.5
	c5.5,3.5,11.9,5.4,18,5.4c2,0,3.9-0.2,5.8-0.6c6.4-1.4,12.5-5,17.7-10.7c3.3-3.6,6.3-8,9.3-13.6l2.2-4.2l3.7,2.9
	c4.5,3.5,9.4,7.1,14.5,10.4l3,1.9l-1.5,3.2c-1.5,3.3-2.3,7.1-2.4,11.2c-0.1,5.6,0.3,12,3.5,17.1c1.4,2.2,3.7,4.2,6.2,5.4l2.4,1.1
	l-0.1,2.7c-1.9,36.1-1.8,73.6,0.2,111.5l0.2,4l-4,0.2C294.5,322.8,270.8,323.3,247.3,323.3z M258,279.1c1.6,1.1,3.3,2.2,4.9,3.3
	c1.2,0.8,2.4,1.6,3.6,2.3l1.8,1.1c8.2,5.2,16,10.2,23,16.6c0.2,0.2,0.5,0.3,0.7,0.3c0.2,0,0.5,0,0.8-0.3c0.2-0.3,0.3-0.5,0.3-0.7
	c0-0.2-0.1-0.5-0.3-0.7c-7.1-6.4-15.3-11.7-23.2-16.7l-0.1-0.1c-1.8-1.1-3.6-2.3-5.4-3.4c-0.8-0.5-1.5-1-2.2-1.5l-4.6-3.1l38.8-30.6
	c0.2-0.2,0.4-0.5,0.4-0.8c0-0.3-0.1-0.6-0.4-0.8c-9.6-7.8-20.2-16-34.2-26.4l-4.4-3.3l4.4-3.2c9.1-6.6,18.4-13,27.7-19.2
	c0.5-0.3,0.6-0.9,0.3-1.4c-0.3-0.4-0.7-0.5-0.9-0.5c-0.2,0-0.4,0.1-0.6,0.2c-10,6.7-20.2,13.7-30.3,21.1l-2.4,1.7l-2.4-1.7
	c-3.7-2.8-7.5-5.5-11.2-8.2l-16.9-12.4c-0.2-0.1-0.4-0.2-0.6-0.2c-0.2,0-0.5,0-0.8,0.4c-0.2,0.3-0.2,0.6-0.2,0.8
	c0,0.2,0.1,0.5,0.4,0.7l16.9,12.4c2.9,2.1,13,9.6,13,9.6l-4.3,3.2c-11.8,8.8-23.3,17.8-34.2,26.8c-0.2,0.2-0.4,0.5-0.4,0.8
	c0,0.3,0.1,0.6,0.3,0.8c10.7,9.6,22.1,18.8,34,27.3l4.3,3.1l-29.4,23.2c-0.3,0.2-0.4,0.5-0.4,0.7c0,0.2,0,0.5,0.2,0.8
	c0.3,0.3,0.7,0.4,0.8,0.4c0.2,0,0.4,0,0.6-0.2l29.9-23.6L258,279.1z"/>
<path class="st4" d="M199.7,90.5c-2.7,0-4.4-0.4-5.7-1.3l-0.3-0.2l-1.3-1.4l-0.1-1.5c-0.2-4.5,6.2-11.5,9.5-14.1
	c6.5-5.1,14.7-7.5,21.1-9c10.1-2.4,20.6-3.6,31.1-3.6c8.8,0,17.6,0.9,26.2,2.5c15.2,3,26.1,8.3,33.5,16.1c1.1,1.2,2.7,3.1,3.9,5.4
	l2.8,5.7l-6.4,0.1c-1.8,0-3.8,0-6,0c-4.6,0-10.5,0-17.6-0.1l-1.9,0c-1.5,0-2.7,0-3.4,0h-0.5c-21,0.1-42.4,0.4-63.6,0.7l-0.7,0
	c-5.1,0.1-10.2,0.2-15.3,0.3c-0.6,0-1.3,0.1-2.1,0.1l-0.2,0C202.1,90.4,200.9,90.5,199.7,90.5z"/>
<path class="st1" d="M196,66.4c-2-17.5-3.5-35.1-4.5-52.4l-0.2-3.6l3.5-0.6C209.5,7.3,225.1,6,242.6,6c22,0,43.6,2,63.6,4.1l3.9,0.5
	l0.3,3.2c0,0.4,0.1,1,0.1,1.8c0.3,16.1-0.4,32.5-2,48.7l-0.6,5.9l-5.3-2.8c-6.1-3.3-13.4-5.7-22.1-7.4c-8.7-1.7-17.6-2.6-26.5-2.6
	c-10.7,0-21.3,1.2-31.6,3.6c-6,1.4-13.7,3.6-20.2,8.2l-5.5,3.8L196,66.4z"/>
<path class="st2" d="M256,153.9c-2.7,0-5.4-0.2-8.1-0.5c-10.4-1.2-19.9-4.4-27.6-9.4c-8.6-5.6-15-13.5-18.1-22.3
	c-2.8-8-3-16.6-2.8-25.5l0-3.7l3.7-0.2c0.8,0,1.5-0.1,2.1-0.1c5.3-0.1,10.6-0.2,16-0.3c21.2-0.4,42.5-0.6,63.5-0.7l0.5,0
	c0.7,0,1.9,0,3.3,0l1.8,0c4.1,0,10,0.1,15.3,0.1l3.9,0l0.1,3.9c0,0.2,0,0.2,0,0.2c4.7,15.2-1.3,33.7-14.6,45
	C285,149.2,271.1,153.9,256,153.9z"/>
<path class="st1" d="M253.1,273.3c-11-7.7-21.7-16.1-31.8-25l-3.6-3.1l3.7-3c10.3-8.4,21.1-16.8,32.1-24.9l2.4-1.8l2.4,1.8
	c12.7,9.4,22.8,17.1,31.7,24.3l3.9,3.1L255.5,275L253.1,273.3z"/>
<path class="st2" d="M257.1,177.2c-5.7,0-11.6-1.8-16.8-5.1c-5.4-3.4-10.2-8.3-14.2-14.7l-6.4-10l11.2,4.1c5.4,2,11,3.3,16.8,4
	c2.8,0.3,5.6,0.5,8.3,0.5c9,0,17.5-1.6,25.3-4.8l10.9-4.4l-6,10.2c-2.2,3.8-4.5,7-7,9.7c-3.4,3.7-9.1,8.5-16.6,10.1
	C260.8,177,259,177.2,257.1,177.2z"/>
<path class="st4" d="M259.2,358.3c-5.3,0-10.9-0.4-15.7-0.7c-4.8-0.3-7.3-1.4-8.3-3.5c-0.6-1.1-0.6-2.4-0.6-4.1v-0.2
	c0.1-6.8,0.3-13.8,0.6-20.7l0.2-3.8l6.5,0c1.8,0,3.7,0,5.5,0c7.2,0,14.6-0.1,22.2-0.2l3.5-0.1l0.5,3.5c1.2,8.4,1.4,16.9,0.7,25.3
	l-0.3,3.2l-3.2,0.4C267.1,358,263.3,358.3,259.2,358.3z"/>
<path class="st3" d="M213.7,505c-9.9,0-19.8-0.2-29.6-0.6l-3.3-0.1l-0.5-3.2c-1.1-6.9-0.5-14.8,1.8-24c1.3-5.4,3.5-12.2,8.5-16.1
	c3-2.4,7.1-3.9,12.5-4.5c1.7-0.2,3.3-0.3,4.8-0.3c3.2,0,6.2,0.4,8.9,1.3c6.8,2.1,12.9,7.3,17.4,14.6c7.1,11.5,9.9,22.9,6.9,28.3
	c-1.6,2.9-4.6,4.3-9.4,4.4C225.9,504.9,219.8,505,213.7,505z"/>
<path class="st4" d="M227.2,460.8c-3.1-2.5-6.3-4.3-9.7-5.3c-2.9-0.9-6.1-1.4-9.6-1.4c-1.6,0-3.3,0.1-5,0.3
	c-3.7,0.4-6.8,1.3-9.5,2.5l-5.4,2.5l-0.3-5.9c-1.4-27.6-0.9-56.2-0.4-81.5l0.5-30l1-1.1c0.1-0.1,0.2-0.2,0.3-0.3
	c0.5-0.7,0.5-1.6,0.6-2.2c0.2-3.4,0.4-6.7,0.7-10l0.2-3.9l3.9,0.1c11,0.4,22.6,0.6,34.6,0.8l4.1,0.1l-0.2,4.1
	c-0.3,6.9-0.5,13.8-0.5,20.4c0,1,0,2,0.2,3.1l0.1,0.6l-0.1,0.6c-0.6,32.8-0.2,71.4,1,103.4l0.4,8.8L227.2,460.8z"/>
<path class="st0" d="M165.4,203.4c-1,0-1.9-0.2-2.8-0.6c-3.8-1.7-5.2-6.4-6.1-11.3c-0.1-0.4-0.4-0.8-0.9-0.8c-0.1,0-0.1,0-0.2,0
	c-0.4,0-0.8,0.3-0.9,0.7c-1.7,5.3-4.6,8.5-8,8.9c-0.2,0-0.5,0-0.7,0c-3.3,0-6-2.6-7.3-5.1c-1.6-3.3-1.8-7.2-1.8-10.7
	c0-5.2,0.4-10.6,1.1-15.8l0-0.1l0.3-2.5l2.4-0.9l0.5-0.2c4.5-1.4,9-2,14.1-2.5c6.3-0.7,12.9-1.3,19.7-2c0.9-0.1,1.8-0.2,2.8-0.3
	l0.2,0c1.9-0.2,4-0.5,6.1-0.5c1.4,0,2.6,0.1,3.7,0.4c8.2,1.8,13.2,9,13.3,19.5c0.1,5.6-0.3,11.4-3.2,16c-2.1,3.4-6.1,5.7-9.7,5.7
	c-1.3,0-2.5-0.3-3.6-0.9c-3.6-1.9-5.2-6.3-5.9-9.6c-0.1-0.5-0.5-0.8-1-0.8c-0.3,0-0.5,0.1-0.7,0.2c-0.1,0.1-0.3,0.3-0.4,0.6
	c-0.9,4.3-2.4,7.4-4.6,9.6C170.2,202.3,167.7,203.4,165.4,203.4z"/>
<path class="st1" d="M143.2,279.9c0.1-3.5,0.2-6.9,0.3-10.4l0-0.5c0.6-22.6,1.1-42.9,1.3-62.9l0-3.1l3-0.7c1.4-0.3,2.7-1.1,3.9-2.1
	l3.5-3.1l2.5,3.9c1.1,1.7,2.5,3,4.2,3.7c1.1,0.5,2.3,0.8,3.6,0.8c2.8,0,5.7-1.2,7.9-3.4c0.5-0.4,0.9-0.9,1.3-1.4l2.9-3.7l3.2,3.4
	c0.8,0.9,1.8,1.6,2.8,2.1c0.7,0.4,1.5,0.7,2.4,0.9l3,0.6l0.2,3.1c1.2,23.7,1.6,48.2,1.1,72.8l-0.1,3.9l-47.1,0.3L143.2,279.9z"/>
<path class="st0" d="M167.6,340.7c-6.6,0-13.2-0.2-19.5-0.4c-1.1,0-2-0.1-2.6-0.3l-3-0.6l-0.2-3.1c0-0.4,0-1,0-1.3
	c0.1-12.8,0.3-26.7,0.7-45.1l0.1-3.9l47.1-0.3l-0.1,4.1c-0.4,15.7-1.2,31.4-2.2,46.6l-0.2,3.4l-3.4,0.3
	C179.1,340.5,173.7,340.7,167.6,340.7z"/>
<path class="st2" d="M165.9,373.1c-0.4,0-0.8,0-1.1-0.1c-5.5-0.5-10.7-4.5-13.4-10.2c-2.8-6-2.4-12.6-1.6-17.1l0.6-3.4l3.4,0.1
	c3.8,0.1,8.7,0.2,13.8,0.2c2.4,0,4.9,0,7.6-0.1l3.8-0.1l0.3,3.7c0.6,6.7-0.5,13.3-3.2,19.3c-0.7,1.6-1.8,3.9-3.7,5.4
	C170.7,372.4,168.4,373.1,165.9,373.1z"/>
<path class="st3" d="M379.5,198c2.2-4.3,2.4-9,2.4-13.4c0-5.5-0.4-11.1-1.1-16.6c-0.1-1.1-0.4-2.9-1.5-4.6c-1.8-2.7-4.7-3.6-5.9-4
	c-4.9-1.5-9.8-2.1-15.2-2.7c-6.6-0.7-13.3-1.4-19.9-2c-0.9-0.1-1.8-0.2-2.8-0.3c-3.6-0.4-7.8-0.9-11.8,0c-3.5,0.8-6.6,2.3-9.2,4.4
	c-5.9-3.6-11.6-8-17.1-12.3c0.6-0.5,1.2-0.9,1.8-1.4c14.6-12.4,21.4-32.7,16.9-49.8c0.3,0,0.6,0,0.8,0c3.4-0.1,7.6-0.2,8.1-4.7
	c0.6-5.5-1.8-11.2-6.8-16.6c-1.3-1.4-2.7-2.7-4.2-3.9c0.1-0.3,0.2-0.7,0.2-1.1c1.9-17.7,2.8-35.8,2.4-53.6c0-1.9-0.1-6.5-3.7-9.2
	c-2.1-1.6-4.5-1.9-6-2c-35-3.7-75.7-7.1-115,0.1c-1.1,0.2-4,0.7-5.6,3.5c-1.1,1.8-1,3.6-0.9,4.5c1.1,20.2,2.9,40.7,5.3,60.8
	c0.1,0.5,0.2,1,0.4,1.5c-2.6,3.4-4.9,7.6-4.8,11.7c0.1,3.2,1.6,6,4.2,7.9c0.9,0.6,1.8,1.1,2.8,1.4c-0.1,10.2,0,19.3,3.2,28.2
	c3.5,9.8,10.5,18.7,20,25l-19.5,9.1c-2.3-1.7-5-2.9-8-3.5c-4-0.9-8.1-0.4-11.8,0c-0.9,0.1-1.9,0.2-2.8,0.3c-6.6,0.6-13.3,1.2-19.9,2
	c-5.4,0.6-10.3,1.2-15.2,2.7c-1.2,0.4-4.2,1.3-5.9,4c-1.1,1.7-1.4,3.5-1.5,4.6c-0.7,5.5-1.1,11-1.1,16.6c0,4.4,0.2,9.1,2.4,13.4
	c1.3,2.7,3.3,4.8,5.6,6.3c-0.1,21.1-0.7,43.2-1.3,64.5c-0.6,21.9-1.2,44.6-1.3,66.2c0,1.7,0,4.6,1.8,7.1c1.5,2.2,3.7,3.2,5.8,3.7
	c-1.1,7.2-0.4,14,2.2,19.6c3.5,7.6,10.7,13,18.3,13.7c0.6,0.1,1.1,0.1,1.7,0.1c3.9,0,7.6-1.2,10.4-3.5c2.6-2.1,4.1-4.8,5.1-7
	l-0.1,3.2c-0.5,29.3-1,59.5,0.8,89.4c0,0.1,0,0.1,0,0.2c-3.1,4.5-4.7,9.7-5.9,14.2c-3,12.1-3.3,22.2-0.9,31c0.6,2.1,2.4,3.6,4.6,3.7
	c11.2,0.5,22.5,0.7,33.7,0.7c6.1,0,12.2-0.1,18.3-0.2c8.7-0.2,12.7-4.2,14.5-7.6c5.6-10.4-2.8-27-6.2-32.8
	c-1.6-31.5-2.3-71.8-1.8-107.4c1.8,0.4,3.4,0.5,4.5,0.6c5.4,0.4,10.8,0.7,16.1,0.7c3.8,0,7.6-0.2,11.4-0.6c0.6,35.3,0,73-1.8,106.9
	c0,0.2,0,0.4,0,0.5c-3.6,6.4-11.2,22.1-5.8,32.1c1.8,3.3,5.8,7.4,14.5,7.6c6.1,0.1,12.2,0.2,18.3,0.2c11.3,0,22.5-0.2,33.7-0.7
	c2.2-0.1,4-1.6,4.6-3.7c2.4-8.8,2.1-18.9-0.9-31c-1.1-4.5-2.8-9.7-5.9-14.2c0-0.1,0-0.1,0-0.2c1.9-29.8,1.3-60.1,0.8-89.4
	c-0.1-3.5,0.1-6.9,0.4-10.5c0.6,2.3,1.4,4.6,2.4,6.7c1,2.3,2.6,5.3,5.4,7.6c2.8,2.3,6.5,3.5,10.4,3.5c0.6,0,1.1,0,1.7-0.1
	c7.6-0.7,14.8-6.1,18.3-13.7c2.6-5.6,3.3-12.4,2.2-19.6c2-0.5,4.2-1.5,5.8-3.7c1.8-2.5,1.8-5.4,1.8-7.1c-0.1-21.6-0.7-44.2-1.3-66.2
	c-0.6-21.4-1.1-43.5-1.3-64.5C376.2,202.8,378.2,200.7,379.5,198z M366.4,335c0,0.3,0,0.7,0,1.1c-0.4,0.1-0.9,0.1-2,0.2
	c-11.7,0.4-23.8,0.7-35.6-0.1c-1.1-15.6-1.8-31-2.2-46.4l39.1,0.3C366.1,305.1,366.4,320.4,366.4,335z M228.7,353.5
	c0,0.1,0,0.2,0,0.3c-0.7,33.2-0.2,71.7,1,103.9c-3.4-2.7-7.1-4.8-11-6c-4.8-1.5-10.3-1.9-16.3-1.2c-4.1,0.5-7.7,1.4-10.7,2.8
	c-1.3-27.1-0.9-54.6-0.4-81.2l0.5-28.5c0.2-0.2,0.4-0.5,0.6-0.8c1.1-1.6,1.2-3.3,1.2-4.1c0.2-3.4,0.5-6.7,0.7-10.1
	c11.5,0.4,23.1,0.6,34.7,0.8c-0.3,6.8-0.5,13.7-0.5,20.5C228.5,350.8,228.5,352.1,228.7,353.5z M147.5,269.1
	c0.5-20.8,1.1-42.3,1.2-63c2-0.5,3.9-1.5,5.6-3c1.4,2.1,3.2,4,5.9,5.2c1.7,0.8,3.5,1.1,5.3,1.1c3.8,0,7.7-1.6,10.7-4.5
	c0.6-0.6,1.1-1.2,1.6-1.8c1.1,1.2,2.4,2.2,3.9,2.9c1.1,0.6,2.3,1,3.5,1.2c1.2,23.7,1.6,48,1.1,72.5l-39.1,0.3
	C147.3,276.3,147.4,272.7,147.5,269.1z M148.2,336.3c-1,0-1.6-0.1-2-0.2c0-0.4,0-0.9,0-1.1c0.1-14.7,0.4-29.9,0.7-45l39.1-0.3
	c-0.4,15.4-1.2,30.9-2.2,46.4C172,337.1,159.9,336.7,148.2,336.3z M194.9,318.5c2-38.3,2.1-76.1,0.2-112.6c3.2-1.5,6-4,7.8-6.9
	c3.8-6,4.2-13.1,4.1-19.3c-0.1-5.3-1.2-10-3.3-13.9l15.8-7.4c4.8,8.2,10.7,14.6,17.5,18.8c6.2,3.9,13.3,6,20.1,6
	c2.2,0,4.5-0.2,6.6-0.7c7.2-1.5,14-5.6,19.8-11.9c4.3-4.6,7.5-9.8,9.9-14.5c4.7,3.7,9.7,7.3,14.9,10.6c-1.7,3.7-2.7,8.1-2.8,12.9
	c-0.1,6.2,0.4,13.3,4.1,19.3c1.8,2.8,4.6,5.3,7.8,6.9c-1.9,36.3-1.8,73.9,0.2,111.9C277,319.6,235.7,319.8,194.9,318.5z
	 M229.4,155.3c5.5,2.1,11.5,3.5,17.8,4.2c2.9,0.3,5.9,0.5,8.8,0.5c9.5,0,18.6-1.7,26.8-5.1c-2.1,3.6-4.2,6.5-6.5,9
	c-3,3.3-8,7.5-14.5,8.9c-6.1,1.3-13.2-0.1-19.3-4C237.5,165.7,233.2,161.1,229.4,155.3z M280.5,358.9c0-0.8-0.2-1.6-0.6-2.2
	c0-0.3,0.1-0.5,0.1-0.7c0.9-9,0.8-18-0.4-26.9c12.9-0.3,25.8-0.7,38.7-1.3c0.2,3.6,0.4,7.2,0.7,10.8c0.1,0.7,0.1,2,0.8,3.4
	c0,0.1,0,0.2,0,0.3c0.1,4.7-0.3,9.4-0.7,14.4c-0.4,5-0.9,10.2-0.8,15.4c0.5,26.7,0.9,54.2-0.4,81.2c-3-1.4-6.6-2.3-10.7-2.8
	c-6-0.7-11.5-0.3-16.3,1.2c-4.1,1.3-7.9,3.4-11.4,6.4C280.7,425.9,281.1,391.2,280.5,358.9z M326.4,279.7
	c-0.5-24.6-0.1-48.8,1.1-72.5c1.2-0.2,2.3-0.6,3.5-1.2c1.4-0.7,2.7-1.7,3.9-2.9c0.5,0.7,1.1,1.3,1.6,1.8c3,2.9,6.9,4.5,10.7,4.5
	c1.8,0,3.6-0.4,5.3-1.1c2.6-1.2,4.5-3.1,5.9-5.2c1.7,1.5,3.6,2.5,5.6,3c0.2,20.6,0.7,42.1,1.3,63c0.1,3.6,0.2,7.3,0.3,10.9
	L326.4,279.7z M325.8,164.2c2.4-0.5,5.5-0.1,8.5,0.2c1,0.1,2.1,0.2,3.1,0.3c6.5,0.6,13.1,1.2,19.7,1.9c5.1,0.6,9.3,1.1,13.3,2.3
	c0.2,0.1,0.3,0.1,0.5,0.2c0,0.1,0,0.2,0,0.2c0.7,5.1,1,10.2,1.1,15.3c0,3.7-0.2,6.6-1.3,8.9c-0.9,1.8-2.7,3.1-4,2.9
	c-1.7-0.2-3.5-2.6-4.7-6.2c-0.7-2.2-2.8-3.6-5.1-3.5c-2.3,0.1-4.2,1.8-4.6,4c-0.7,3.6-1.7,7.4-3.9,8.4c-1.3,0.6-3.4,0-4.8-1.4
	c-1.6-1.6-2.7-4-3.5-7.6c-0.5-2.3-2.5-4-4.9-4h0c-2.4,0-4.4,1.7-4.9,4c-0.4,2.1-1.5,5.7-3.9,6.9c-2.6,1.3-6.4-0.7-8.2-3.5
	c-2.4-3.7-2.6-8.9-2.6-13.8C315.7,175.8,316.8,166.1,325.8,164.2z M290.4,85.2c-3,0-5.1,0-5.8,0c-21.1,0.1-42.5,0.4-63.6,0.7
	c-5.3,0.1-10.7,0.2-16,0.3c-0.7,0-1.6,0.1-2.4,0.1c-2,0.1-5.3,0.3-6.3-0.4c0,0,0,0,0,0c-0.1-2,4.2-7.8,8-10.7
	c5.9-4.6,13.6-6.8,19.6-8.3c18.1-4.3,37.3-4.6,55.6-1c14.3,2.8,24.6,7.7,31.3,14.9c1,1,2.3,2.7,3.2,4.5
	C307.2,85.4,295.7,85.3,290.4,85.2z M305.8,14.1c0.1,0,0.4,0,0.6,0.1c0,0.3,0.1,0.7,0.1,1.4c0.3,16.1-0.4,32.3-1.9,48.3
	c-6.5-3.4-14.2-6-23.2-7.8c-19.6-3.9-40.3-3.5-59.8,1.1c-6.4,1.5-14.5,3.9-21.6,8.8c-2-17.3-3.5-34.8-4.5-52.2
	C232.9,7.2,272,10.5,305.8,14.1z M206,120.4c-2.5-7.2-2.7-15.2-2.6-24.1c0.7,0,1.3-0.1,1.9-0.1c5.3-0.1,10.6-0.2,16-0.3
	c21-0.3,42.4-0.6,63.5-0.7c0.7,0,2.8,0,5.6,0c4.1,0,10,0.1,15.4,0.1c0,0.4,0.1,0.9,0.2,1.3c4.2,13.7-1.3,30.5-13.4,40.8
	c-11.2,9.5-27.3,13.9-44.3,12c-9.8-1.1-18.7-4.1-25.8-8.8C214.6,135.6,208.8,128.4,206,120.4z M141.8,169.4c0-0.1,0-0.1,0-0.2
	c0.1,0,0.3-0.1,0.5-0.2c4-1.3,8.2-1.8,13.3-2.3c6.5-0.7,13.1-1.4,19.7-1.9c1-0.1,2-0.2,3.1-0.3c3-0.4,6.1-0.7,8.5-0.2
	c9,1.9,10.1,11.6,10.2,15.6c0.1,5-0.2,10.1-2.6,13.8c-1.7,2.7-5.6,4.8-8.2,3.5c-2.4-1.2-3.4-4.8-3.9-6.9c-0.5-2.3-2.5-4-4.9-4
	c0,0,0,0,0,0c-2.4,0-4.4,1.7-4.9,4c-0.7,3.5-1.9,6-3.5,7.6c-1.4,1.4-3.5,2-4.8,1.4c-2.1-1-3.1-4.8-3.9-8.4c-0.4-2.2-2.3-3.9-4.6-4
	c-0.1,0-0.2,0-0.3,0c-2.2,0-4.1,1.4-4.8,3.5c-1.2,3.6-3,6-4.7,6.2c-1.3,0.2-3.1-1.2-4-2.9c-1.3-2.5-1.3-5.9-1.3-8.9
	C140.8,179.5,141.1,174.4,141.8,169.4z M172.4,364c-0.5,1.2-1.4,3-2.6,3.9c-1.1,0.9-2.9,1.4-4.8,1.2c-4-0.4-8.1-3.5-10.1-7.9
	c-2.3-5-2-10.7-1.3-14.7c4.6,0.1,9.3,0.2,13.9,0.2c2.5,0,5.1,0,7.7-0.1C175.8,352.5,174.8,358.6,172.4,364z M237.7,498.4
	c-0.3,0.6-1.2,2.2-6,2.4c-15.8,0.4-31.7,0.3-47.5-0.4c-1-6.3-0.5-13.7,1.7-22.4c1.2-4.8,3.1-10.7,7.2-14c2.4-1.9,5.8-3.1,10.4-3.6
	c4.6-0.5,8.7-0.3,12.1,0.8c5.8,1.8,11.2,6.4,15.2,12.9C237.8,485.4,239.6,495,237.7,498.4z M243.8,353.6c-4.4-0.3-5-1.2-5.1-1.3
	c-0.2-0.4-0.2-1.7-0.2-2.4c0.1-6.8,0.3-13.7,0.6-20.5c2.7,0,5.5,0,8.2,0c7.4,0,14.8-0.1,22.2-0.2c1.1,8.1,1.3,16.3,0.6,24.4
	C261.7,354.7,253.2,354.2,243.8,353.6z M325.3,500.4c-15.8,0.6-31.7,0.7-47.5,0.4c-4.8-0.1-5.7-1.8-6-2.4
	c-2.5-4.5,1.7-15.9,6.8-24.3c4-6.5,9.4-11.1,15.2-12.9c3.5-1.1,7.5-1.4,12.1-0.8c4.6,0.5,8,1.7,10.4,3.6c4.1,3.2,5.9,9.2,7.1,14
	C325.7,486.7,326.3,494.1,325.3,500.4z M357.6,361.2c-2,4.4-6.1,7.5-10.1,7.9c-1.9,0.2-3.7-0.3-4.8-1.2c-1.2-1-2-2.7-2.6-3.9
	c-2.4-5.4-3.4-11.5-2.9-17.3c2.6,0.1,5.1,0.1,7.7,0.1c4.7,0,9.3-0.1,13.9-0.2C359.6,350.5,360,356.2,357.6,361.2z"/>
<path class="st3" d="M260.8,285.8c1.8,1.2,3.6,2.3,5.4,3.5c8.1,5.2,15.7,10.1,22.5,16.2c1,0.9,2.2,1.3,3.4,1.3
	c1.4,0,2.7-0.6,3.7-1.6c1.9-2.1,1.7-5.2-0.3-7.1c-7.4-6.7-15.7-12-23.8-17.2c-1.8-1.1-3.6-2.3-5.3-3.4c-0.7-0.5-1.4-1-2.2-1.4
	l34.5-27.2c1.2-0.9,1.9-2.4,1.9-3.9c0-1.5-0.7-3-1.9-3.9c-11.2-9.1-22.8-17.9-34.4-26.5c9.1-6.5,18.3-12.9,27.5-19.1
	c2.3-1.5,2.9-4.6,1.4-6.9c-1.5-2.3-4.6-2.9-6.9-1.4c-10.3,6.8-20.4,13.9-30.4,21.2c-3.7-2.8-7.5-5.5-11.2-8.2l-16.9-12.5
	c-2.2-1.6-5.4-1.2-7,1.1c-1.6,2.2-1.2,5.4,1.1,7l16.9,12.5c2.9,2.1,5.8,4.2,8.7,6.4c-11.7,8.7-23.2,17.7-34.4,27
	c-1.1,0.9-1.8,2.3-1.8,3.8c0,1.5,0.6,2.9,1.7,3.8c10.9,9.8,22.4,19.1,34.4,27.6L222,296.4c-2.2,1.7-2.5,4.9-0.8,7
	c1,1.3,2.5,1.9,3.9,1.9c1.1,0,2.2-0.4,3.1-1.1l27.6-21.8C257.5,283.6,259.1,284.7,260.8,285.8z M223.9,245.3
	c10.4-8.5,21.1-16.7,31.9-24.8c10.6,7.9,21.3,15.9,31.6,24.2l-32,25.3C244.5,262.4,233.9,254.1,223.9,245.3z"/>
</svg>
