<?xml version="1.0" encoding="utf-8"?>
<!-- Generator: Adobe Illustrator 25.2.3, SVG Export Plug-In . SVG Version: 6.00 Build 0)  -->
<svg version="1.1" id="Capa_1" xmlns="http://www.w3.org/2000/svg" xmlns:xlink="http://www.w3.org/1999/xlink" x="0px" y="0px"
	 viewBox="0 0 511 511" style="enable-background:new 0 0 511 511;" xml:space="preserve">
<style type="text/css">
	.st0{fill:#FFFFFF;}
	.st1{fill:#D4B1A6;}
	.st2{fill:#8CBEA3;}
	.st3{fill:#CFCB9D;}
	.st4{fill:#CC644F;}
	.st5{fill:#282828;}
</style>
<path class="st0" d="M161.3,128.9c-2.3,0-5.1-1.5-8.3-4.5l-27.3-25.2l1.1-2.6c12.8-30,27.7-60,40.9-86.5l3.2-6.5l3.8,6.2
	c17.9,29.2,33.6,60.3,46.6,92.2l3.5,8.5l-38.7-14.6c-0.4-0.1-0.9-0.4-1.6-0.4c-0.2,0-0.4,0-0.6,0.1c-1,0.3-1.6,1.1-2.1,1.9l-15.2,27
	c-0.9,1.7-1.7,2.9-3,3.7C163,128.7,162.2,128.9,161.3,128.9z"/>
<path class="st1" d="M443.1,441.7c-4.5,0-8.8-0.1-12.1-0.2c-20-0.5-40.3-1.8-60.4-3.7l-3.7-0.4l0.7-24l4,0.1
	c3.3,0.1,6.8,0.2,10.5,0.2c11.4,0,22.9-0.5,34-1.1l0.3,0c11.1-0.5,22.5-1.1,33.9-1.1c16.3,0,29.6,1.1,41.8,3.5
	c3.1,0.6,6.6,1.5,8.6,4c2.6,3.3,1.3,8.5-1.4,11.5c-3,3.3-7.4,4.9-11.8,6.1C471.5,441.2,454.5,441.7,443.1,441.7z"/>
<path class="st2" d="M250.5,305.7l138-1.8c3,0,6.7-0.1,9.6-2.1c1.8-1.2,3.3-3.1,4.3-5.7c3.4-8.3,0.3-19-7.4-25.5
	c-5.8-4.9-14-7.6-23.1-7.6c-1,0-2,0-3,0.1c-5.8,0.4-11.7,1.6-19.7,4.1l-5.5,1.8l0.3-5.8c0.1-1.4,0.2-2.9,0.3-4.3
	c0.4-6,0.8-12.7,0.5-19.3l-0.2-4.5l4.5,0.3c16.1,1,32.1,1.5,47.5,1.5c12,0,24-0.3,35.9-0.8c1,0,2.3-0.1,3.3-0.9
	c1.3-1,1.5-2.6,1.7-3.7c2.7-17.9,5.8-39.2,8.2-61.3l7.7-1c38.5,100.4,41,159,39.6,194.4l-0.2,5.1l-4.9-1.4
	c-31.5-9.3-73.2-19.9-116.2-19.9c-1.1,0-2.1,0-3.2,0c-43.1,0.5-83,12.7-112.6,34.4l-6.5,4.7L250.5,305.7z"/>
<path class="st3" d="M256.6,416.9c-1.6,0-3.1,0-4.7,0l-4.6,0l0.7-4.6c1-6.4,1.1-12.9,1.2-19.2l0.1-3.7l1.4-1.2
	c29.8-24.5,71.5-38.3,117.7-38.8c1,0,2.1,0,3.1,0c29.7,0,61.5,4.9,100,15.4l6.4,1.7l-4.5,4.8c-4.7,5.1-7.6,12-7.9,18.8
	c-0.2,4.8,0.8,9.6,2.8,14l2.8,6l-6.6-0.3c-4.5-0.2-9.1-0.3-14.1-0.3c-11.4,0-22.8,0.5-33.9,1.1l-0.1,0c-11.1,0.5-22.5,1.1-34.1,1.1
	c-3.7,0-7.2-0.1-10.5-0.2l-4-0.1l0.8-26.4c0-0.3-0.1-0.5-0.3-0.7c-0.2-0.2-0.4-0.3-0.7-0.3c-5.2-0.2-10.4-0.2-15.6-0.2
	c-7.3,0-14.6,0.2-21.9,0.5c-0.5,0-1,0-1.6,0c-1.2,0-2.7,0-4.3-0.1c-2.7-0.1-4.8-0.1-6.6-0.1c-8.8,0-18.1,0.5-21,4.4
	c-2,2.6-1.5,7.7-1.2,11.8c0.1,1.4,0.2,2.6,0.2,3.4c0,2,0,4,0,6l0,5.7l-3.6,0.3C281,416.5,269.5,416.9,256.6,416.9z"/>
<path class="st3" d="M396.6,234.9c-16.4,0-33.1-0.5-49.4-1.6l-3-0.2l-0.6-3c-2.6-12.6-11.4-26.4-25.3-28.6l-3.6-0.4l-0.1-3.5
	c-0.8-48.3-6.5-96.7-16.9-143.8l-1-4.6l40-2.5l1.2,40.5c0,1.7,0.3,4.1,2.2,5.2c0.6,0.4,1.3,0.5,2.2,0.5c0.5,0,0.9,0,1.3-0.1
	l16.8-1.7c1-0.1,2.5-0.2,3.5-1.2c1.2-1.1,1.3-3,1.4-4c0.5-10.9-0.3-21.8-2.4-32.4L362,49l32.4-1.4l-3.7,38.7c0,0.3,0.1,0.6,0.3,0.8
	c0.2,0.2,0.4,0.3,0.7,0.3l17.8,0.2c1.2,0,2.5-0.1,3.6-0.9c1.5-1.2,1.7-3.2,1.8-4.3c1.2-11,1.1-22.2-0.3-33.2l-0.6-4.6l22.3,0.6
	c3.9,0.1,5.9,0.7,7.2,2l0.3,0.3l0.2,0.4c0.5,0.9,0.7,1.9,0.9,3.6c7.1,61.4-1.1,124.7-9.4,179.3l-0.5,3.2l-3.3,0.1
	C420,234.6,408.3,234.9,396.6,234.9z"/>
<path class="st0" d="M152,305c-17,0-39.4-0.6-61.4-4.8c-3.2-0.6-6.5-1.4-9.2-3.3c-2.3-1.7-4.3-4.7-3.6-7.8c0.6-2.5,2.8-4.6,6.5-6.2
	c4.6-2.1,9.8-3.2,15-3.2c4.1,0,8.1,0.7,12,2c0.1,0,0.2,0.1,0.3,0.1c0.3,0,0.6-0.1,0.8-0.4c0.3-0.3,0.3-0.8,0-1.2
	c-5.7-8.4-3.9-21,4.1-28.7c5.3-5,13-7.9,21.4-7.9c2.8,0,5.7,0.3,8.4,1c0.1,0,0.2,0,0.2,0c0.3,0,0.6-0.1,0.8-0.3
	c0.2-0.3,0.3-0.7,0.2-1c-3.9-11.1-8-22.5-7.7-34.4c0.3-10.6,5.5-23.6,16.3-28.6c3-1.4,6.2-2,9.5-2c10.7,0,21.8,7.1,27.1,17.2
	c0.2,0.3,0.5,0.5,0.9,0.5c0.1,0,0.1,0,0.2,0c0.4-0.1,0.8-0.4,0.8-0.9c2.2-14.7,16.4-26.9,32.5-27.9c0.7,0,1.5-0.1,2.3-0.1
	c10.8,0,22,4.7,30.9,12.9l0.2,0.2l0.2,0.2c0,0,0.1,0.1,0.2,0.2l0.2,0.2l0.2,0.2c2.1,2,4,4.2,5.6,6.4c10.8,14.7,13.1,32.3,13.1,44.4
	c0,0.5,0.4,0.9,0.8,1c0.1,0,0.1,0,0.2,0c0.4,0,0.8-0.3,0.9-0.6c3.5-9.2,7.9-16.1,13.2-21c5.5-5,12.5-7.9,19.1-7.9
	c1.2,0,2.3,0.1,3.4,0.3c6.2,1,11.8,4.6,16.2,10.4c3.7,4.8,6.3,10.9,7.5,17.1c1.8,9.1,1.2,18.2,0.6,27.9l0,0.7
	c-0.2,3.6-0.5,7.4-0.5,11c0,0.3,0.1,0.6,0.4,0.8c0.2,0.1,0.4,0.2,0.6,0.2c0.1,0,0.2,0,0.3-0.1c9.1-3.2,17.3-5.8,26-6.4
	c1-0.1,2-0.1,2.9-0.1c8.6,0,16.4,2.5,21.8,7.1c7,5.9,9.9,15.6,6.8,23.2c-0.9,2.2-2.1,3.8-3.6,4.8c-2.5,1.7-6,1.7-8.5,1.7l-192.1,2.5
	c-5.5,0.1-11,0.2-16.5,0.3l-0.2,0C170.6,304.8,161.3,305,152,305z"/>
<path class="st4" d="M355.3,501.6c-4.7-3.4-8.4-8.1-12.4-13c-3.1-3.9-6.2-7.8-9.9-11.1c-0.7-0.6-2-1.8-3.6-1.9c0,0-0.2,0-0.3,0
	c-1.3,0-2.5,0.7-3.3,1.1c-8.3,4.7-16.3,10.1-23.8,16.2l-6.4,5.3l-0.1-8.3c0-1.1,0-2.4-0.1-3.7l0-0.2c0-2.2-0.1-3.5,0-4.4
	c0.4-6.8,0.8-13.8,1.1-20.6c0.5-12.6,0.9-25.3,1.1-37.9c0.1-6.8,0.1-13.3,0.1-19.3c0-1-0.1-2.3-0.2-3.6c-0.5-5.3-0.4-7.8,0.3-9.5
	l0.4-1l0.8-0.7c1.9-1.5,5.5-2.8,19.3-2.8c2.4,0,4.5,0,5.9,0.1c1.6,0,3.1,0.1,4.3,0.1c0.7,0,1.2,0,1.7,0c7.2-0.3,14.6-0.5,21.9-0.5
	c3.5,0,7,0,10.4,0.1l4,0.1l-0.8,24.7l-0.8,1c-0.1,0.1-0.2,0.3-0.2,0.6c0,0.1,0,0.3,0.2,0.6l0.7,1.1l-1.7,54.5
	c-0.3,10-0.6,20.4-2.4,30.7l-1.1,6.4L355.3,501.6z"/>
<path class="st2" d="M280.8,215c-2-11.1-6.1-20.8-12-28.8c-1.6-2.2-3.3-4.2-5.2-6l-1-1l-0.1-1.4c-0.9-9.4-0.6-19,0.8-28.3l0.3-1.8
	l1.5-1c11.8-7.4,25.4-12.3,39.2-14.2l4.1-0.6l0.4,4.1c2.1,20.5,3.4,41.3,3.7,61.8l0.1,3.3l-3.3,0.7c-5.5,1.1-10.8,3.8-15.3,7.9
	c-2.2,2-4.2,4.3-6.1,6.9l-5.5,7.7L280.8,215z"/>
<path class="st1" d="M291.1,438.6c-73.8-1.1-148.3-4.3-220.4-7.5l-46.2-2c-3.2-0.1-6.7-0.3-9.7-1.7c-2.6-1.2-5.1-3.9-4.9-7
	c0.2-3,2.9-5.2,5.1-6.1c2.8-1.2,6-1.2,8.9-1.3c4.8-0.1,9.7-0.1,15-0.1c13.8,0,27.8,0.3,40.1,0.5c35.3,0.6,71.7,1.3,107.9,3
	c5,0.2,10,0.5,15,0.7c17.7,0.9,36.1,1.8,54.4,1.8c12.6,0,23.9-0.4,34.6-1.3l4.4-0.4l-0.1,4.4c0,0.4,0,0.7,0,1.1
	c-0.1,4-0.1,7.9-0.2,11.9l-0.1,4L291.1,438.6z"/>
<path class="st2" d="M253.9,172.3c-1.9-1.2-4-2.3-6-3.2l-2.2-1l-0.1-2.4c0-0.1,0-0.1,0-0.2c-2-7-4.2-14-6.4-20.9l-2.5-7.6l7.6,2.6
	c5.3,1.8,10.4,4.2,15.1,7.2l2.2,1.4l-0.4,2.6c-0.9,6-1.2,12.1-1.1,18.1l0.1,7.3L253.9,172.3z"/>
<path class="st2" d="M241.7,383c-37.5-16.7-71.6-26.6-104.4-30.3c-9.3-1-18.6-1.6-27.7-1.6c-29,0-55.9,5.2-80.1,15.4l-6.2,2.6
	l0.7-6.7c6.6-64.2,13.5-121.9,30.7-177.6c1.5-4.9,3.1-9.7,4.7-14.7l0-0.1c4.7-14.2,9.5-28.9,12.1-43.9c0.3-1.9,0.5-2.6,0.8-3.1
	l0.7-1.5l1.5-0.6c0.8-0.3,1.6-0.4,2.9-0.4c0.4,0,0.9,0,1.6,0.1c9.5,0.6,19.3,1.5,29.3,2.9l4.9,0.7l-1.7,4.7
	c-3.1,8.2-5.9,16.3-8.3,23.9C97.1,172.1,92,191.9,87,211c-0.1,0.3,0,0.6,0.2,0.9c0.2,0.3,0.5,0.4,0.8,0.4l49.8,1.2l0.4,3.4
	c0.9,7.3,3,14.2,4.7,19.4l1.8,5.4l-5.7-0.2c-0.4,0-0.8,0-1.2,0c-8.8,0-17,3.1-22.7,8.5c-6.2,5.9-9.1,14.8-7.6,23.1l0.9,5.2l-5.3-0.5
	c-1.3-0.1-2.6-0.2-3.9-0.2c-5.5,0-10.9,1.2-15.8,3.4c-4.3,2-6.9,4.5-7.6,7.6c-0.8,3.4,1,7.5,4.3,9.9c3,2.1,6.7,3,10,3.6
	c22.3,4.3,44.7,4.9,61.8,4.9c9.4,0,18.7-0.2,27.7-0.4l2.8-0.1c4.6-0.1,9.3-0.2,13.9-0.2l52-0.7l-1.2,79.8L241.7,383z"/>
<path class="st3" d="M241.7,416.8c-13.7-0.3-27.4-1-39.5-1.6l-0.4,0c-4.9-0.2-9.8-0.5-14.7-0.7c-35.6-1.7-71.8-2.3-106.8-3l-2.4,0
	c-10.5-0.2-21.3-0.4-32-0.4l-6.9,0l3.4-5.9c3.7-6.4,5.2-12.6,4.6-18.7c-0.6-5.8-3.6-11.3-8.1-14.7l-5.9-4.5l7-2.5
	c21.4-7.6,44.7-11.4,69.5-11.4c9,0,18.3,0.5,27.5,1.6c33.7,3.8,68.9,14.2,107.7,31.9l2.4,1.1l-0.1,5.3c-0.1,6.8-0.2,13.7-1.4,20.4
	l-0.6,3.4L241.7,416.8z"/>
<path class="st1" d="M89.3,210.3l1.3-4.9c4.4-16.8,9.1-34.7,14.7-51.9c4.8-15,10.5-30.4,17.4-47l2.2-5.3l26.8,24.7
	c3.6,3.3,6.9,5.1,9.7,5.1c1.2,0,2.3-0.3,3.4-1c1.8-1.1,2.9-3.1,3.7-4.5l15.8-28.1l38.3,14.4c0,0,0,0,0,0c0,0,0.1,0,0.3,0l2.5,0.2
	l0.9,2.3c2.5,6.4,4.9,13.1,7.2,19.9l0.3,0.8l-0.1,0.8c0,0.3,0.1,0.5,0.2,0.7l0.5,0.6l0.3,0.8c2.5,7.3,4.9,15,7.2,22.7l1.9,6.3
	l-6.4-1.2c-2.6-0.5-5.2-0.7-7.8-0.7c-0.8,0-1.6,0-2.4,0.1c-13.1,0.8-25.8,9.1-31.5,20.7l-2.5,5.1l-3.9-4.1c-3.3-3.4-7.2-6.2-11.4-8
	c-4-1.7-8-2.6-12-2.6c-3.6,0-7.1,0.7-10.3,2.2c-9.8,4.5-16.7,16-17.5,29.2l-0.2,3.9L89.3,210.3z"/>
<path class="st5" d="M505.4,415.3c-3.1-3.9-7.6-5.2-12.1-6.1c-5.4-1.1-10.8-1.8-16.2-2.4c-3.9-4.5-5.9-10.5-5.6-16.4
	c0.3-6.1,3-12,7.4-16.1c0.9-0.8,1.3-1.8,1.5-2.9c3.9,1.1,7.8,2.3,11.6,3.4c1.5,0.4,3.1,0.2,4.3-0.7c1.3-0.9,2-2.3,2.1-3.8
	c2-35.3-1.5-71.7-10.6-111.3c-7.4-32.1-18.5-66-34.8-106.7c-0.4-0.9-1-1.6-1.7-2.2c2.7-32.6,3.2-66.3-0.6-99.5
	c-0.2-1.6-0.5-4.1-1.9-6.3c-3.3-5.1-9.7-5.2-12.4-5.3l-23.7-0.6c-1.5,0-2.9,0.6-3.9,1.7c-1,1.1-1.4,2.6-1.2,4.1
	c2.1,12.3,2.5,24.8,1.2,37.2l-11.6-0.1l2.9-29.7c0.1-1.3,0.3-3.6-1-5.9c-1.7-2.9-4.8-4.2-9.3-4L360.4,43c-1.5,0.1-2.9,0.8-3.8,2
	c-0.9,1.2-1.2,2.7-0.9,4.2c2.9,11.8,4.1,23.9,3.5,36L344,86.7l-1.1-37.3c0-1.4-0.1-4.6-2.8-6.8c-2.4-2-5.3-1.8-6.5-1.8l-38.4,2.4
	c-1.5,0.1-2.8,0.8-3.7,2c-0.9,1.2-1.2,2.7-0.9,4.1c5.8,25.4,10.2,51.1,13.2,77.1c-14.8,2-29.1,7.1-41.7,15c-7.2-4.4-15-7.7-23.2-9.7
	c-15.4-44.4-35.7-87.1-60.4-127.2c-0.7-1.1-2-3.2-4.5-4.2c-3.2-1.2-8.1-0.4-11.3,6.1c-17.9,36-36.2,73-51.1,111.4
	c-10.6-1.6-21.4-2.7-32-3.3c-2.3-0.1-7.1-0.4-10.5,3c-2.4,2.4-2.9,5.4-3.3,7.5c-2.6,14.6-7.4,29.1-12,43.2
	c-1.6,4.8-3.2,9.9-4.8,14.8c-18.9,61-25.5,125.3-31.9,187.4c-0.2,1.8,0.6,3.6,2.1,4.6c1.5,1,3.4,1.2,5.1,0.4
	c1.5-0.7,3.1-1.4,4.6-2.1c0.6,0.4,1.3,0.8,2.1,0.9c5.2,0.9,9.6,6.3,10.2,12.6c0.6,5.8-1.6,12.4-6.2,18.7c-0.3,0.4-0.5,0.8-0.7,1.3
	c-3.5,0-6.9,0-10.3,0.1c-3.2,0.1-7.2,0.1-11.1,1.7c-5,2.1-8.4,6.4-8.8,11.2c-0.4,5.2,2.9,10.4,8.3,12.9c4.1,1.9,8.5,2.1,12,2.3
	l46.2,2c72.2,3.1,146.8,6.4,220.4,7.5c-0.2,5.3-0.4,10.7-0.6,16c-0.3,6.8-0.7,13.8-1.1,20.6c-0.1,1.1,0,2.8,0,5
	c0.1,3.2,0.2,10.7-0.4,12.9c-1.4,1.9-1.3,4.7,0.4,6.5c1.9,2,5.1,2.1,7.1,0.2c9.7-9.3,20.5-17.3,32.3-23.8c0,0,0.1-0.1,0.2-0.1
	c0,0,0.1,0.1,0.1,0.1c3.3,3,6.2,6.6,9.3,10.4c5.8,7.3,11.9,14.8,21.3,18.4c0.6,0.2,1.2,0.3,1.8,0.3c0.8,0,1.6-0.2,2.3-0.6
	c1.3-0.7,2.2-1.9,2.5-3.2c3.1-12.8,3.5-25.9,3.9-38.6l0.8-24.7c20,1.9,40.2,3.2,60.2,3.7c3.9,0.1,8,0.2,12.2,0.2
	c14.7,0,30.7-1,46.1-5.3c4.9-1.4,10.5-3.4,14.6-7.8C508.2,429.8,510.2,421.4,505.4,415.3z M464.7,405.9c-16.3-0.8-32.6,0-48.5,0.8
	c-14.6,0.7-29.6,1.4-44.3,0.9l0.7-22.5c0-1.3-0.4-2.6-1.4-3.6c-0.9-1-2.2-1.5-3.5-1.6c-12.5-0.4-25.3-0.3-37.8,0.2
	c-1.2,0.1-3.3,0-5.7,0c-14.8-0.3-26.5-0.1-30.9,5.9c-2.9,3.9-2.4,9.8-1.9,14.5c0.1,1.2,0.2,2.4,0.2,3.1c0,2.6,0,5.3,0,8
	c-13.1,1.1-26.3,1.5-39.6,1.4c1-6.6,1.2-13.3,1.3-19.8l0-1.9c29.1-23.9,70-37.4,115.2-37.9c35.8-0.4,70.8,6.7,102.1,15.2
	c-5.4,5.8-8.6,13.5-9,21.4C461.2,395.4,462.3,400.9,464.7,405.9z M115.8,278c-4.5-6.7-2.9-17.3,3.6-23.6c6.2-5.9,16.4-8.3,26.1-5.9
	c1.8,0.4,3.7-0.2,4.9-1.5c1.2-1.4,1.6-3.3,1-5c-3.8-10.7-7.8-21.8-7.4-33c0.3-9.4,4.7-20.8,14-25.1c11.6-5.3,25.9,2.8,31.4,13.4
	c1,1.9,3.1,3,5.3,2.6c2.1-0.4,3.8-2.1,4.1-4.2c1.9-12.9,14.5-23.6,28.8-24.5c10.5-0.7,21.7,3.8,30.3,11.8c0.3,0.4,0.6,0.7,1,0.9
	c1.9,1.8,3.6,3.8,5.2,5.9c10.2,13.8,12.3,30.5,12.3,42c0,2.4,1.7,4.5,4.1,4.9c2.4,0.4,4.7-0.9,5.6-3.1c3.3-8.6,7.3-15,12.2-19.4
	c5.7-5.2,12.9-7.7,19.2-6.7c11.2,1.8,18.4,13.8,20.4,24.2c1.7,8.6,1.1,17.5,0.5,26.9c-0.2,3.9-0.5,7.9-0.6,11.9
	c0,1.6,0.7,3.2,2.1,4.2c1.3,1,3,1.2,4.6,0.7c8.8-3.1,16.7-5.6,24.9-6.1c8.8-0.5,16.6,1.6,21.9,6.1c5.6,4.8,8.1,12.8,5.7,18.6
	c-0.6,1.4-1.3,2.4-2.1,3c-1.4,1-4.1,1-6.3,1l-192.1,2.5c-5.6,0.1-11.2,0.2-16.8,0.3c-29.2,0.6-59.4,1.2-88.2-4.4
	c-2.8-0.5-5.6-1.2-7.6-2.6c-1.4-1-2.2-2.6-2-3.6c0.3-1.1,1.8-2.4,4.3-3.5c4.2-1.9,8.7-2.9,13.3-2.9c3.6,0,7.2,0.6,10.6,1.8
	c2,0.7,4.3,0,5.6-1.7C116.9,282.1,117,279.8,115.8,278z M94.5,206.4c4.5-17.1,9.1-34.7,14.6-51.7c5.1-15.8,10.9-31.3,17.3-46.7
	l22.5,20.8c5,4.6,9.2,6.1,12.5,6.1c2.2,0,4-0.7,5.5-1.5c2.7-1.6,4.2-4.3,5.2-6l14.1-25.1l35.1,13.2c0.4,0.2,0.9,0.2,1.3,0.3
	c2.5,6.5,4.9,13.1,7.2,19.8c-0.1,1.4,0.4,2.7,1.3,3.7c2.5,7.5,4.9,15,7.2,22.5c-3.7-0.7-7.5-1-11.2-0.7c-15,0.9-28.6,10.3-34.9,22.9
	c-3.6-3.7-8-6.8-12.7-8.9c-8.7-3.8-17.8-3.9-25.6-0.4c-11.3,5.2-18.9,17.9-19.8,32.5L94.5,206.4z M488.8,363.4
	c-35.7-10.5-77.3-20.6-120.5-20.1c-44.2,0.5-84.6,12.9-114.9,35.1l1-68.8l134.1-1.7c3.3,0,7.8-0.1,11.8-2.7c2.5-1.7,4.5-4.2,5.8-7.5
	c4-9.9,0.4-22.5-8.5-30c-7.3-6.1-17.6-9.1-29-8.4c-7.1,0.4-13.7,2.1-20.6,4.3c0.1-1.4,0.2-2.9,0.3-4.3c0.4-6.5,0.8-13.1,0.5-19.8
	c15.8,1,31.8,1.5,47.7,1.5c12,0,24.1-0.3,36-0.8c1.2-0.1,3.5-0.2,5.6-1.8c2.5-2,2.9-4.9,3.1-6.3c3-19.5,5.9-40.2,8.2-61.4
	C486.1,266.4,490.4,323.8,488.8,363.4z M332.9,51l1.1,36.3c0,1.5,0.2,6.2,4.2,8.5c2.3,1.3,4.6,1.1,5.9,1l16.8-1.7
	c1.3-0.1,3.8-0.4,5.9-2.3c2.4-2.3,2.5-5.4,2.6-6.7c0.5-11.2-0.3-22.4-2.4-33.3l23.1-1l-3.3,34.1c-0.1,1.4,0.3,2.8,1.3,3.8
	c0.9,1,2.3,1.6,3.7,1.7l17.4,0.2c1.4,0,4.1,0,6.4-1.8c2.8-2.2,3.2-5.6,3.4-7.1c1.2-11.3,1.1-22.8-0.3-34.1l17.7,0.4
	c3.6,0.1,4.2,0.6,4.3,0.7c0.2,0.3,0.3,1.5,0.4,2c7,60.8-1.2,123.9-9.4,178.3c-27.9,1.3-56.1,1-83.9-0.8
	c-2.9-14.1-12.8-29.2-28.6-31.7c-0.1,0-0.2,0-0.3,0c-0.8-48.6-6.5-97.2-17-144.6L332.9,51z M308.6,197.9c-6.1,1.2-12.1,4.3-17.2,8.9
	c-2.4,2.2-4.6,4.7-6.7,7.6c-1.8-9.9-5.5-20.7-12.7-30.5c-1.7-2.3-3.6-4.5-5.5-6.5c-0.9-9.1-0.6-18.3,0.8-27.3
	c11.4-7.2,24.3-11.8,37.6-13.6C307,156.8,308.2,177.4,308.6,197.9z M257.2,150.2c-0.9,6.2-1.3,12.5-1.2,18.7
	c-2.1-1.3-4.3-2.5-6.5-3.5c0-0.4-0.1-0.7-0.2-1.1c-2-7-4.2-14-6.4-21C247.8,145.1,252.6,147.4,257.2,150.2z M171.2,11.9
	c17.9,29.3,33.4,59.9,46.3,91.6l-30.1-11.3c-0.8-0.3-2.6-1-4.7-0.4c-2.7,0.7-4,3-4.5,3.8l-15.1,26.9c-0.4,0.8-1.1,2-1.6,2.3
	c-0.4,0.3-2.5-0.2-5.9-3.4l-25.2-23.3C143.1,68.8,157.3,40,171.2,11.9z M58.6,186.1c1.5-4.9,3.1-9.9,4.7-14.7
	c4.7-14.4,9.6-29.2,12.3-44.5c0.1-0.6,0.3-1.8,0.5-2.1c0.3-0.1,1-0.2,2.8-0.1c9.7,0.6,19.4,1.6,29,2.9c-3,8-5.8,16-8.4,24.1
	c-6.2,19.3-11.4,39.2-16.4,58.4c-0.4,1.5-0.1,3.1,0.8,4.3c0.9,1.2,2.4,2,3.9,2l46.4,1.1c0.8,7,2.8,13.8,4.9,20.2
	c-10.2-0.3-20,3.1-26.8,9.6c-7.3,7-10.5,17.4-8.8,26.7c-7.4-0.7-15,0.4-21.7,3.5c-5.5,2.5-8.8,6-9.9,10.3c-1.2,5,1.2,10.6,5.9,14
	c3.6,2.6,7.9,3.6,11.5,4.3c20.6,4,41.7,5,62.5,5c9.3,0,18.6-0.2,27.8-0.4c5.6-0.1,11.1-0.2,16.7-0.3l48-0.6l-1,69.6
	c-37.8-16.9-72.5-26.9-105.6-30.6c-39.7-4.4-77.4,0.4-109.8,14.1C34.1,303.9,40.8,243.3,58.6,186.1z M136.7,358.7
	c33.2,3.7,68.1,14.1,106.5,31.6l0,2.7c-0.1,6.6-0.2,13.3-1.4,19.8c-13.2-0.3-26.4-1-39.4-1.6c-5-0.3-10-0.5-15.1-0.7
	c-36.1-1.7-72.7-2.3-108.1-3c-10.9-0.2-22.1-0.4-33.2-0.5c3.2-5.6,5.9-12.9,5.1-21c-0.7-7.2-4.4-13.5-9.6-17.5
	C70.1,358.2,102.6,354.9,136.7,358.7z M70.9,427.1l-46.2-2c-2.9-0.1-5.9-0.3-8.1-1.3c-1.5-0.7-2.7-2.1-2.6-3.1
	c0.1-0.9,1.2-2.1,2.6-2.7c2.1-0.9,4.9-0.9,7.5-1c18.3-0.3,36.9,0,55,0.4c35.4,0.7,71.9,1.3,107.8,3c5,0.2,10,0.5,15,0.7
	c29.3,1.5,59.6,3,89.5,0.5c0,0.4,0,0.8,0,1.2c-0.1,3.9-0.1,7.8-0.2,11.8C217.7,433.5,143.1,430.3,70.9,427.1z M359.9,468.3
	c-0.3,10-0.6,20.2-2.3,30.1c-4.3-3.1-7.9-7.6-11.7-12.3c-3.2-4-6.5-8-10.3-11.6c-0.9-0.8-3-2.7-6-3c-0.2,0-0.4,0-0.6,0
	c-2.4,0-4.2,1-5.3,1.6c-8.6,4.8-16.7,10.3-24.3,16.5c0-1.2,0-2.4-0.1-3.7c0-1.8-0.1-3.5,0-4.2c0.4-6.9,0.8-13.8,1.1-20.7
	c0.5-12.6,0.9-25.4,1.1-38.1c0.1-6.4,0.1-12.9,0.1-19.4c0-1.2-0.1-2.5-0.3-4c-0.2-1.9-0.6-6.2,0-7.6c2.9-2.3,17.7-2,22.7-1.9
	c2.5,0.1,4.7,0.1,6.3,0c10.6-0.5,21.4-0.6,32.1-0.4l-0.6,19.4c-0.6,0.8-1,1.7-1.1,2.8c-0.1,1.1,0.3,2.2,0.9,3.1L359.9,468.3z
	 M496.4,427.8c-2.3,2.6-6.1,3.9-9.9,5c-18.4,5.2-38.2,5.2-55.4,4.7c-20-0.5-40.2-1.8-60.1-3.7l0.5-16.2c15.1,0.5,30.3-0.2,45.1-0.9
	c24.8-1.2,50.4-2.4,74.8,2.4c2.6,0.5,5.1,1.2,6.2,2.5C498.7,422.9,498.1,425.9,496.4,427.8z"/>
</svg>
