<?xml version="1.0" encoding="utf-8"?>
<!-- Generator: Adobe Illustrator 25.2.3, SVG Export Plug-In . SVG Version: 6.00 Build 0)  -->
<svg version="1.1" id="Capa_1" xmlns="http://www.w3.org/2000/svg" xmlns:xlink="http://www.w3.org/1999/xlink" x="0px" y="0px"
	 viewBox="0 0 512 512" style="enable-background:new 0 0 512 512;" xml:space="preserve">
<style type="text/css">
	.st0{fill:#CC644F;}
	.st1{fill:#E1B946;}
	.st2{fill:#CFCB9D;}
	.st3{fill:#8CBEA3;}
	.st4{fill:#282828;}
</style>
<path class="st0" d="M406.8,251.4c10.2-44,2.7-91.7-20.5-130.8l-3.6-6.1l7.1,0.1c31.7,0.3,64.5,2.7,85.5,27.6
	c16,18.9,20.8,42.5,22.1,59c0.9,11.8,0.3,33.4-13.9,44.7c-9.3,7.3-22.1,8.6-34.4,9.2c-11.1,0.6-23.3,1-38.4,1.3l-5.1,0.1
	L406.8,251.4z"/>
<path class="st1" d="M400.7,328.4l-6.3,0l2.8-5.7c1.4-2.9,2.1-6.1,2.6-8.9c3-16.4,3.1-33.9,0.3-50.6l-0.8-4.6l4.7-0.1
	c18.3-0.3,32.3-0.8,45.3-1.4c2.6-0.1,4.6-0.3,6.5-0.4l2.9-0.2l1.1,2.7c4.8,11.7,7.7,23.9,8.7,36.3c0.5,6,0.5,13-2.9,18.5
	c-4.8,7.8-15.1,10.3-23.4,11.6c-12.1,1.9-24.9,2.9-39.1,2.9C402.3,328.4,401.5,328.4,400.7,328.4z"/>
<path class="st1" d="M416.7,47.7c-1.7,0-3.4-0.1-4.9-0.2L285.5,38l0.1-3.8c0.1-2.2-0.2-4.5-0.7-6.8l-1-4.2l4.3-0.6
	c39.6-5.8,79.8-9.5,119.5-11.1c1.6-0.1,2.9-0.1,4.1-0.1c5.1,0,11.5,0.5,15.9,4.5c4.4,4,6.1,11.3,4.5,19.5c-0.8,4.1-2,6.9-4,8.8
	C425,47.3,420.1,47.7,416.7,47.7z"/>
<path class="st0" d="M259.6,254.4c-2.6-45.4-4-91.5-4.1-137l0-4l4,0c3.6,0,7.3,0,10.9,0c32.1,0,64.2,0.3,95.5,1
	c3.5,0.1,7.2,0.1,11.9,0.1l2.2,0l1.2,1.8c25.3,39.2,34.1,89.7,23.5,135c0,0.1,0,0.3,0,0.4l0.8,4.6l-4.7,0.1
	c-7.3,0.1-14.6,0.2-21.8,0.3l-119.2,1.5L259.6,254.4z"/>
<path class="st1" d="M388.6,328.1c-16.7-0.7-33.3-2.3-51.6-4.3l-4-0.4l0.5-4c2.2-18.3,2.9-37.8,3.5-56.2l0.1-3.8l41.7-0.5
	c5-0.1,10.1-0.1,15.1-0.2l3.4,0l0.6,3.3c3.1,16.9,3.1,34.7,0,51.4c-0.9,4.7-2.1,9.4-5.4,12.5c0,0-0.1,0.1-0.1,0.2l-1.2,2.1
	L388.6,328.1z"/>
<path class="st2" d="M341.9,492.3c-21.1,0-42.4-5.2-61.2-9.7l-3.8-0.9l0.9-3.8c2.9-13.1,4.3-26.6,4-40l0-1.4l0.9-1.1
	c10.1-13.2,21.5-28.2,30.2-44.5l2.5-4.7l3.8,3.7c26.5,25.3,44.4,55,51.9,85.7c0.7,2.6,1.3,5.7,0.4,8.3c-1.4,3.9-5.8,6.4-13.1,7.4
	C353,492,347.5,492.3,341.9,492.3z"/>
<path class="st3" d="M230.7,428.9c-10.9-13.2-22.2-27.5-29.7-43.6c-3.7-8.1-6.8-17.1-9.6-28.4c-7.5-30.2-9.6-61.3-6.1-92.2l0.4-3.5
	l149.1-1.8l-0.1,4.2c-1.3,45.1-3.7,85.3-21.4,121.6c-7.2,14.7-16.6,27.9-25.7,40.1l-5.7,7.6l-1.5-9.4c-2.1-13.6-7-24.2-14.4-31.5
	c-3.3-3.2-6.4-3.9-8.5-3.9l-0.2,0c-3.6,0-7.2,1.9-10.7,5.5c-4.1,4.2-5,10-6,15.7c-0.2,1-0.4,2-0.5,3c-0.9,4.9-1.8,9.8-2.4,14.6
	l-1.2,9.1L230.7,428.9z"/>
<path class="st3" d="M189.3,107.2c2.9-14,6.9-27.8,11.8-41c2.4-6.6,5.5-14,11.5-18.3c4-2.9,8.9-4.1,15-5.1c8.9-1.4,18-2.2,27.1-2.2
	c13.6,0,27,1.6,40,4.8c3.7,0.9,7.5,2,10.4,4.5c3.6,3.2,5.2,8.2,6.5,13.5c3.6,14.1,6.8,28.8,9.5,43.5l0.9,4.8l-4.8,0
	c-15.6-0.2-31.4-0.2-46.9-0.2c-17.1,0-34.3,0.1-51.1,0.3c-9,0.1-18.1,0.2-25.9,0.4l-5,0.1L189.3,107.2z"/>
<g>
	<path class="st0" d="M278.8,40.3c-7.9-1.1-16-1.7-24.1-1.7c-7.5,0-15.1,0.5-22.5,1.5l-3.1,0.4l-1.2-2.9c-2.1-5.1-1.9-11,0.5-16.3
		c2.3-5.1,6.5-9.4,11.9-12.2c4-2.1,8.6-3.1,13.4-3.1c8.7,0,17.2,3.6,22.7,9.6c5.5,6.1,8.1,14.1,6.8,21.4l-0.7,3.8L278.8,40.3z"/>
	<path class="st0" d="M259.5,506c-5.1,0-9.3-3.7-10.5-4.9c-8.1-7.9-10-20-10.8-29.7c-0.4-4.7-0.6-9.7-0.6-14.7
		c0-13.8,1.5-28.2,4.5-44c0.1-0.7,0.2-1.4,0.4-2.1l0.2-1c0.9-5.1,1.8-10.8,5.4-14.6c3.1-3.2,6.2-4.8,9.2-4.9h0.1
		c2.5,0,4.9,1.1,7.1,3.3c9.5,9.3,14.6,24.2,15,44.2c0.5,19.1-2.4,38-8.5,56.1c-1.6,4.7-3.8,9.7-8.1,11.6
		C262,505.7,260.8,506,259.5,506z"/>
	<path class="st0" d="M109.8,256.7c-4.5-21.1-3.8-45.1,2.2-71.2c5.4-23.9,14.5-47.1,22.5-67.6l1-2.5l2.6-0.1
		c26.8-0.8,54.1-1.3,81-1.6c9.7-0.1,19.6-0.2,30.4-0.2l4,0l0,4c0,45.5,1.4,91.4,4,136.6l0.2,4.2l-70.3,0.8
		c-23.6,0.3-48.7,0.6-73.7,0.7l-3.3,0L109.8,256.7z"/>
</g>
<path class="st2" d="M176.7,490.7c-6.7,0-13.4-0.3-20.1-0.9c-3.3-0.3-7.3-1-8.6-3.9c-0.5-1.2-0.5-2.5-0.4-4.3
	c0.9-9.7,4.9-18.9,8.3-25.8c11-22.4,27.1-43.2,41.3-61l3.7-4.6l2.9,5.1c8.1,14.3,18.6,26.9,28.7,39.2c0.2,0.2,0.4,0.3,0.6,0.4
	l3.5,0.7l-0.3,3.6c-1,11.4-1,22-0.2,32.5c0.2,2.4,0.5,4.7,0.8,6.9l0.6,3.8l-3.8,0.7c-0.1,0-0.2,0-0.3,0.1
	C215,488.1,195.8,490.7,176.7,490.7z"/>
<path class="st1" d="M107.7,41.9c-7.9,0-17.5-0.9-21.5-7.5c-1.7-2.8-2.1-6.2-2.3-9.2c-0.3-4-0.4-8,1.8-10.9c2.3-3,6.5-4.1,9.9-4.7
	c4.6-0.8,9.4-1.2,14.8-1.2c9.4,0,18.8,1.2,27.9,2.3l82.6,10.3h5l-0.9,4.8c-0.5,2.3-0.6,4.7-0.3,7l0.4,4l-4.1,0.4
	c-35.2,3.2-72.1,4.8-109.6,4.8C110.2,41.9,108.9,41.9,107.7,41.9z"/>
<path class="st1" d="M117.2,318.7c-2-18-0.9-36.1,3.4-53.8l0.7-3l3.1,0c18.5-0.1,37.2-0.3,54.7-0.6l4.5-0.1l-0.5,4.5
	c-1.8,16.8-2,33.8-0.6,50.4l0.4,4.4l-4.4-0.1c-2.4,0-4.8-0.1-7.3-0.1c-13.6,0-27.6,0.7-39.9,1.3c-3.3,0.2-6.6,0.3-10,0.5l-3.8,0.2
	L117.2,318.7z"/>
<path class="st0" d="M90.4,259.9c-4.3,0-8.7,0-13,0c-14.2-0.1-30.3-0.1-45.5-4.1c-9.2-2.4-14.9-6.4-16.9-11.8
	c-1.3-3.3-1.1-6.9-0.8-10.7c2.1-26.3,9-51.7,20.5-75.5c4.4-9.1,10.7-20.5,20.7-27.5c5.9-4.2,13.2-7.1,23.7-9.5
	c15-3.4,30.1-4.5,48.1-5.1l6.1-0.2l-2.2,5.7c-8.2,21.2-16.1,42-21,63.9c-5.8,25.6-6.7,49.2-2.6,70.1l0.9,4.8l-4.8,0
	C99.1,259.9,94.8,259.9,90.4,259.9z"/>
<path class="st1" d="M91.6,323.1c-14.2,0-26.6-0.8-37.8-2.4c-6.1-0.9-12.8-2.5-16.1-7.4c-3.4-5.1-2.2-11.9-0.8-18.4l7.8-34.4
	l3.5,0.4c10.1,1.1,20.2,1.1,29.1,1.2c4.5,0,9,0,13.4,0c7.7,0,15.5,0,23.2-0.1l5,0l-1.1,4.9c-3.8,16.9-4.8,34.2-2.9,51.5l0.5,4.3
	l-4.3,0.2C103.9,322.9,97.5,323.1,91.6,323.1z"/>
<path class="st4" d="M503.4,200.8c-1.3-17.4-6.5-42.3-23.5-62.4c-25-29.6-64.7-29.7-99.7-29.8c-4.9,0-9.6,0-14.2-0.1
	c-12.9-0.3-25.8-0.5-38.8-0.6c-2.7-15.3-6.1-30.7-9.9-45.8c-1.5-5.8-3.3-11.8-7.9-16.1l101.8,7.6c1.8,0.1,3.6,0.2,5.4,0.2
	c5.6,0,11.3-1,15.7-5.3c3.7-3.7,5-8.6,5.7-12c2-10.4-0.3-19.6-6.3-25.1c-6.7-6.1-16-6.3-24.3-6c-40.8,1.6-82,5.5-122.4,11.5
	c-0.1,0-0.1,0-0.2,0c-1.1-1.9-2.5-3.7-4-5.3c-10.7-11.7-29.3-15-43.3-7.7c-5.6,2.9-10.2,7.2-13.2,12.3c-0.7-0.6-1.6-1-2.6-1.1
	L139,4.7C124.6,2.9,109.6,1,94.6,3.6c-4.5,0.8-10.1,2.3-13.7,7c-3.4,4.6-3.5,10.2-3,15.1c0.3,3.9,1,8.1,3.2,11.8
	c6.3,10.4,20.5,10.4,26.6,10.5c1.3,0,2.6,0,4,0c32.7,0,64.8-1.2,95.8-3.6c-6.3,5.3-9.5,12.9-12,19.8c-5.3,14.3-9.5,29.1-12.5,44.1
	c-15.7,0.3-31.3,0.7-46.9,1.1c-21.7,0.6-39.8,1.4-58.2,5.6c-7.6,1.7-17.4,4.4-25.9,10.4c-11.1,7.9-17.9,20.1-22.7,29.8
	c-11.8,24.4-18.9,50.6-21.1,77.6c-0.3,4.3-0.5,8.9,1.2,13.4c2.8,7.3,9.9,12.5,21,15.5c2.5,0.7,5,1.2,7.5,1.7l-6.8,30.2
	c-1.7,7.5-3.1,16.1,1.6,23.1c4.6,6.9,12.8,8.9,20.2,10c12.8,1.9,25.8,2.5,38.7,2.5c13.4,0,26.8-0.7,40-1.4
	c15.8-0.8,32.1-1.6,48.1-1.2c1.3,10.7,3.3,21.3,5.9,31.8c2.9,11.5,6,20.7,9.8,29c-15.6,19.4-32.8,41.2-44.8,65.6
	c-3.6,7.4-7.9,17.2-8.9,27.9c-0.2,2.2-0.3,4.8,0.9,7.4c2.9,6.5,10.6,7.2,13.5,7.4c6.9,0.6,13.8,1,20.6,1c19.7,0,39.3-2.6,58.5-7.9
	c1.8,6,4.8,11.8,9.6,16.6c4.4,4.3,9.7,6.6,14.7,6.6c2,0,4-0.4,5.9-1.2c6.6-2.8,9.6-9.6,11.5-15.2c0.8-2.4,1.5-4.8,2.2-7.2
	c19.6,4.7,41.2,9.9,63,9.9c5.6,0,11.2-0.3,16.8-1.1c9.8-1.4,15.8-5.2,18-11.4c1.4-4.1,0.6-8.2-0.2-11.7c-8-32.8-27.3-64.2-55.9-90.8
	c7.7-17,12.3-34.8,15.1-53.5c22,2.3,44.4,4.6,66.9,4.6c13.4,0,26.9-0.8,40.3-3c9.6-1.5,21.5-4.6,27.6-14.4c4.4-7,4.3-15.5,3.8-22.1
	c-1-12.2-3.7-24.2-8.1-35.6c7.5-1.4,14.7-3.9,20.8-8.7C495.9,243.8,505.7,229.6,503.4,200.8z M377.9,118.5
	c24.8,38.3,33.4,87.5,22.9,131.9c-0.2,0.7-0.2,1.4,0,2.1c-7.5,0.1-14.9,0.2-22.2,0.3l-114.9,1.4c-2.6-45.3-4-91.3-4.1-136.7
	c35.4-0.1,71.1,0.2,106.3,0.9C369.8,118.5,373.8,118.5,377.9,118.5z M187.4,255.1c-24.2,0.3-49,0.6-73.7,0.7
	c-4.4-20.5-3.6-43.9,2.2-69.5c5.2-22.9,13.9-45.3,22.3-67c26.9-0.8,54.1-1.3,81-1.6c10.1-0.1,20.2-0.2,30.4-0.2
	c0,45.4,1.4,91.5,4,136.8L187.4,255.1z M407.9,15.4c6.5-0.3,13.2-0.2,17.1,3.4c3.3,3.1,4.6,9,3.2,15.8c-0.6,3.3-1.5,5.4-2.8,6.7
	c-2.8,2.7-8.3,2.6-13.3,2.2l-122.5-9.2c0.1-2.6-0.2-5.2-0.8-7.8C328.2,20.7,368.2,17,407.9,15.4z M232.2,23
	c1.9-4.2,5.5-7.9,10.1-10.3c10-5.2,23.7-2.7,31.3,5.6c4.7,5.1,6.9,11.9,5.8,18c-15.8-2.2-31.9-2.3-47.7-0.2
	C230.1,32.1,230.2,27.3,232.2,23z M107.7,37.9c-6.9,0-15.1-0.7-18.1-5.6c-1.2-2-1.6-4.9-1.8-7.5c-0.3-3-0.3-6.3,1.1-8.2
	c1.5-1.9,4.9-2.7,7.4-3.1c13.6-2.3,27.8-0.5,41.5,1.2l82.9,10.3c0.1,0,0.3,0,0.4,0c-0.5,2.7-0.7,5.5-0.4,8.2
	C184.5,36.4,146.4,38,107.7,37.9z M204.8,67.6c2.2-6,5-12.8,10.1-16.4c3.4-2.4,7.8-3.5,13.3-4.4c21.6-3.5,44.2-2.7,65.5,2.5
	c3.2,0.8,6.5,1.7,8.7,3.6c2.8,2.4,4.1,6.8,5.3,11.5c3.6,14.2,6.8,28.8,9.4,43.2c-32.7-0.3-65.5-0.3-98,0c-8.6,0.1-17.2,0.2-25.9,0.4
	C196.1,94.3,200,80.7,204.8,67.6z M18.8,242.6c-1-2.5-0.8-5.7-0.5-9c2.1-25.8,8.8-50.7,20.1-74.1c4.2-8.7,10.2-19.5,19.4-26
	c5.5-3.9,12.3-6.6,22.3-8.8c15-3.4,30-4.4,47.3-5c-8.1,20.8-16.2,42.3-21.2,64.5c-6,26.2-6.8,50.3-2.6,71.8c-8.7,0-17.4,0-26,0
	c-14-0.1-29.8-0.1-44.5-4C25.1,249.8,20.4,246.7,18.8,242.6z M54.4,316.7c-5.2-0.8-10.9-2-13.4-5.7c-2.5-3.7-1.5-9.6-0.2-15.3l7-31
	c10.2,1.1,20.2,1.2,29.5,1.2c4.5,0,9,0,13.5,0c7.7,0,15.5,0,23.2-0.1c-3.9,17.4-4.9,35.1-3,52.8C92.2,319.4,73,319.4,54.4,316.7z
	 M131.1,317.8c-3.3,0.2-6.6,0.3-10,0.5c-1.9-17.6-0.8-35.2,3.3-52.4c18.4-0.1,36.7-0.3,54.8-0.6c-1.8,17.1-2,34.2-0.6,51.2
	C162.7,316.2,146.7,317,131.1,317.8z M189.3,265.2l141.4-1.7c-1.2,44.7-3.8,84.6-21,119.9c-6.8,14-16,27-25.3,39.5
	c-2.3-14.5-7.5-25.8-15.6-33.7c-4.3-4.2-8.7-5.1-11.5-5c-4.6,0.1-9.3,2.4-13.5,6.7c-4.9,5.1-6.1,11.8-7.1,17.8c-0.2,1-0.3,2-0.5,2.9
	c-1,5.1-1.8,10-2.4,14.8c-11-13.3-21.9-27.1-29.1-42.7c-3.6-7.9-6.6-16.6-9.4-27.7C187.9,326.2,185.9,295.6,189.3,265.2z
	 M232.6,479.2c-24.7,6.8-50.1,9-75.6,6.6c-4.6-0.4-5.2-1.5-5.3-1.6c-0.1-0.3-0.2-1.1-0.1-2.3c0.8-9.1,4.7-17.8,7.9-24.4
	c10.8-22,26.3-42.1,40.8-60.2c8.2,14.5,18.8,27.3,29.1,39.8c0.8,0.9,1.8,1.5,2.9,1.7c-1,11.6-1.1,22.6-0.2,33.2
	c0.2,2.3,0.4,4.7,0.8,7.2C232.9,479.1,232.7,479.1,232.6,479.2z M267.4,492.4c-1.2,3.6-3,7.9-5.9,9.2c-3,1.3-7.1-0.8-9.7-3.3
	c-7.1-7-8.9-18.2-9.6-27.2c-1.4-17.7-0.2-36.6,3.9-57.6c0.2-1,0.4-2.1,0.6-3.2c0.8-4.7,1.6-9.6,4.4-12.5c2.3-2.3,4.5-3.6,6.4-3.7
	h0.1c1.4,0,2.8,0.7,4.3,2.2c8.7,8.5,13.4,22.5,13.8,41.4C276.1,456.3,273.3,474.8,267.4,492.4z M367,476.5c0.5,2.1,1,4.5,0.5,6.1
	c-1.1,3.1-6.6,4.3-9.9,4.8c-25.4,3.5-51.1-2.5-76-8.6c3-13.4,4.4-27.1,4.1-41c10.8-14.2,21.9-28.8,30.5-45
	C342.2,417.5,359.7,446.4,367,476.5z M340.8,263.3l37.9-0.5c5-0.1,10.1-0.1,15.2-0.2c3,16.4,3,33.6,0,50c-0.7,4-1.8,8-4.2,10.3
	c-0.4,0.4-0.7,0.8-0.9,1.2c-17.2-0.7-34.4-2.5-51.4-4.2C339.5,301.9,340.3,283,340.8,263.3z M464.5,295.8c0.4,5.4,0.5,11.5-2.3,16
	c-4,6.4-13.1,8.6-20.6,9.8c-13.5,2.2-27.2,2.9-40.8,2.8c1.5-3.1,2.3-6.6,3-9.9c3.1-17,3.2-34.9,0.3-52c15.1-0.3,30.3-0.7,45.4-1.4
	c2.2-0.1,4.4-0.2,6.7-0.4C460.7,271.9,463.5,283.7,464.5,295.8z M481,242.7c-8.4,6.6-20.4,7.7-32.1,8.3c-12.7,0.6-25.5,1-38.2,1.3
	c10.4-44.8,2.6-94.1-20.9-133.7c31.4,0.3,62.6,2.6,82.5,26.2c15.3,18.1,19.9,40.8,21.1,56.7C494.3,212.6,493.8,232.6,481,242.7z"/>
</svg>
