<?xml version="1.0" encoding="utf-8"?>
<!-- Generator: Adobe Illustrator 25.2.3, SVG Export Plug-In . SVG Version: 6.00 Build 0)  -->
<svg version="1.1" id="Capa_1" xmlns="http://www.w3.org/2000/svg" xmlns:xlink="http://www.w3.org/1999/xlink" x="0px" y="0px"
	 viewBox="0 0 512 512" style="enable-background:new 0 0 512 512;" xml:space="preserve">
<style type="text/css">
	.st0{fill:#CC644F;}
	.st1{fill:#E1B946;}
	.st2{fill:#D4B1A6;}
	.st3{fill:#8CBEA3;}
	.st4{fill:#282828;}
</style>
<path class="st0" d="M354.5,505.9c-38.1,0-71.7-1.3-102.5-3.9l-5.3-0.5l1.9-5c0.9-2.3,1.3-4.6,1.6-6.3c4.3-26,3.6-53.4-2.2-79.1
	c-0.6-2.8-1.4-5.7-3.7-7.6c-1.5-1.3-3.3-1.9-5.6-1.9c-2.1,0-4.4,0.5-7.1,1.5c-4,1.5-8,3.3-11.9,5.1c-9.7,4.4-18.7,8.5-28.1,8.5
	c-2.7,0-5.3-0.4-7.7-1c-12-3.4-21.2-16.9-20.8-30.7c0.3-12.4,7.3-25.2,18.8-34.2c7-5.5,14.6-8.5,21.5-8.5c2.6,0,5,0.4,7.3,1.2
	c3.3,1.2,6.2,3.2,9.2,5.3l0.2,0.1c3.9,2.7,7.6,5.3,12.2,6.3c1.2,0.3,2.5,0.4,3.8,0.4c4.5,0,9-1.7,13.1-4.9
	c4.8-3.8,8.5-9.4,10.1-15.3c2.8-10.2,1.2-20.9-0.3-31.3l0-0.2c-0.2-1.4-0.4-2.7-0.6-4.1c-1.7-12.3-2.6-24.9-2.4-37.5l0-4.1l77,2
	c2.4,0.1,4.8,0.1,6.9,1.1c4.5,2.2,7.1,9.4,3.6,17.4c-1.3,2.9-3,5.5-4.8,8.2c-2.1,3.2-4.3,6.5-5.7,10.2c-3.4,9.3-1,20.9,6.1,29.5
	c7.6,9.2,18.6,13.4,26.5,15.3c4.9,1.2,9.8,1.8,14.5,1.8c5.8,0,11.2-0.9,16.2-2.7c10.4-3.7,18.7-11.6,22.1-21
	c3.9-10.6,1.6-22-0.5-32.9c-1.1-5.6-2.3-11.4-2.6-17.2c-0.1-2.4,0-4.2,0.9-5.6c1.2-2,3.6-2.8,7-3.4l0.1,0c10.8-2,21.9-3,32.9-3
	c9.6,0,19.3,0.8,28.8,2.3c3.3,0.5,6.7,1.2,9.1,3.3c2.5,2.1,3.7,5.5,4.5,8.5c2.3,8.5,2.9,17.6,3.3,26.1c1.3,31.4,0.5,63.4-0.3,94.4
	l0,0.4c-0.7,26.2-1.4,53.3-0.8,79.9c0.2,9.1,0,17.1-4.9,22.7c-5.5,6.3-14.8,7.1-23.9,7.4C433.7,504.6,394.1,505.9,354.5,505.9z"/>
<path class="st1" d="M379.9,341.9c-4.5,0-9.3-0.6-14-1.7c-7.6-1.8-18.1-5.9-25.4-14.6c-6.7-8-8.9-18.8-5.8-27.5
	c1.3-3.5,3.3-6.5,5.5-9.8c1.8-2.8,3.7-5.6,5-8.6c1.6-3.5,2.1-7.6,1.5-11.2c-0.7-4.2-2.8-7.3-6.1-8.8c-2.5-1.2-5.4-1.3-7.9-1.3
	l-72.6-1.9l1.6-5.1c0.6-1.7,0.7-3.6,0.8-4.8c1.3-21.6,0.3-43.4-3.1-64.8l-0.2-1.2c-0.8-4.9-1.5-9.5-0.9-14.2
	c0.3-2.1,1.7-9.1,7.6-11.9c1.5-0.7,3.2-1.1,5-1.1c5.9,0,11.5,4,13.6,5.7c1.8,1.4,3.4,3,5.1,4.5l0.1,0.1c3.7,3.4,7.2,6.7,11.7,8.8
	c3.2,1.5,6.6,2.2,10.1,2.2c12.5,0,24.2-9,30.3-17.9c9.9-14.6,11.9-33.3,5.2-47.8c-6.1-13.1-20.2-22.2-34.2-22.2
	c-2.5,0-5,0.3-7.3,0.9c-3.8,0.9-7.3,2.5-10.7,4c-3.1,1.4-6.2,2.8-9.4,3.7c-2.2,0.6-4.5,0.9-6.7,0.9c-5.3,0-9.5-1.8-11.8-5.2
	c-1.7-2.5-2.4-5.5-2.8-9.3c-2-17.2,0.3-34.8,2.5-51.8l0.1-0.6c0.5-3.5,0.9-7,1.3-10.4c0.1-1.1,0.3-2.7,0.2-4.3l-0.3-4.2l187.8-2.7
	c1.1,0,2.2,0,3.3,0c12,0,25.2,1.2,32.9,10.2c6.4,7.5,7.1,18.3,7.2,29.5l1.3,153.6c0.1,14.7-1.3,30.2-2.6,45.2l-0.1,0.7
	c-0.3,3.2-0.6,6.6-0.9,9.9l-0.4,5.2l-4.9-1.8c-2-0.8-4.2-1.2-6.1-1.5c-9.6-1.5-19.4-2.3-29.1-2.3c-11.1,0-22.3,1-33.3,3
	c-2.3,0.4-6.4,1.2-8.5,4.3c-1.3,2-1.4,4.5-1.2,6.8c0.3,5.8,1.5,11.6,2.6,17.2l0,0.2c2.1,10.7,4.3,21.7,0.6,31.8
	c-3.2,8.8-11.1,16.2-20.9,19.7C390.7,341.1,385.5,341.9,379.9,341.9z"/>
<path class="st2" d="M212.5,255.7c-13.3,0-26.7-0.2-39.9-0.7c-7.4-0.2-11.6-2.1-12.7-5.7c-0.6-1.8-0.3-3.9,0.2-5.9
	c1.1-4.7,2.8-9.3,4.4-13.7c2-5.4,4-11.1,5-16.9c2.8-16.5-3.5-33.7-16-43.9c-7.5-6-17-9.4-26.9-9.4c-6.9,0-13.5,1.6-19.2,4.8
	c-14.6,8-22.7,26-18.8,41.8c1.8,7.2,5.8,13.7,9.6,19.9l-3.3,2.2l3.4-2.1c2.4,3.9,4.8,7.6,6.6,11.7c1.3,2.7,1.8,4.7,1.4,6.5
	c-0.9,4.5-6.9,6-11.8,6.5c-12.4,1.2-25,1.9-37.5,1.9c-12.8,0-25.7-0.7-38.4-2l-3.4-0.3l-0.2-3.6c-0.9-18.4-1.9-39.1-2.8-59.1
	c-1.8-42.1-2.4-74.5-2.1-105.3c0.2-18.7,0.8-35.9,1.7-52.6c0.1-1.1,0.1-2.2,0.1-3.2l0-0.5C12,20.5,12,15.5,16,12
	c4.1-3.7,10.3-4.3,16.3-4.4l0.3,0C72.6,6.8,114,6,155.2,6c36.8,0,69.3,0.6,99.3,1.9c4.2,0.2,9.2,0.8,10.9,4.4
	c0.8,1.8,0.7,3.9,0.4,6.3c-0.4,3.1-0.8,6.1-1.1,9.1l-0.2,1.9c-2.2,17.1-4.5,34.9-2.5,52.3c0.5,4.1,1.2,7.5,3.2,10.3
	c1,1.4,4.9,6.1,13.4,6.1c2.3,0,4.8-0.4,7.3-1.1c3.3-0.9,6.5-2.4,9.6-3.7c3.4-1.5,6.9-3.1,10.5-3.9c2.2-0.5,4.5-0.8,6.8-0.8
	c13.3,0,26.6,8.6,32.4,21c6.5,13.8,4.5,31.8-5,45.8c-6.9,10.1-18.4,17-28.6,17c-3.3,0-6.4-0.7-9.2-2c-4.2-1.9-7.6-5.1-11.2-8.4
	L291,162c-1.7-1.6-3.4-3.2-5.2-4.6c-4.9-3.9-10.1-6.1-14.9-6.1c-2.1,0-4.1,0.4-5.8,1.3c-4.6,2.2-7.9,7.2-8.8,13.5
	c-0.7,5,0.1,10,0.9,14.9l0.2,1.1c3.4,21.2,4.4,42.9,3.1,64.4c-0.2,3-0.6,5.1-1.9,6.6c-1.5,1.6-3.8,2-7.3,2.1
	C238.5,255.4,225.4,255.7,212.5,255.7z"/>
<path class="st3" d="M184.3,504.8c-22.2,0-44.6-0.8-66.2-1.5l-78-2.7c-9.6-0.3-19.1-1.6-23.7-8.4c-2.6-3.9-3-8.5-3.3-14.2
	C9.4,404.6,9.5,330,13.4,256.3l0.2-4.2c0,0,4.6,0.5,4.7,0.5c12.7,1.3,25.7,2,38.6,2c12.6,0,25.3-0.6,37.8-1.9
	c5.5-0.6,12.4-2.4,13.6-8.1c0.6-2.7-0.4-5.5-1.5-7.8c-1.9-4.1-4.4-8.1-6.8-11.9c-4-6.4-7.7-12.4-9.4-19.4
	c-3.6-14.6,4.2-32,17.8-39.5c5.4-3,11.7-4.6,18.2-4.6c9.4,0,18.5,3.2,25.6,8.9c11.8,9.6,18,26.4,15.3,42c-0.9,5.6-2.9,10.9-4.9,16.4
	l-0.1,0.2c-1.6,4.5-3.3,9.1-4.5,13.9c-0.5,2.2-0.9,4.7-0.1,7c1.5,4.4,6.4,6.8,14.6,7.1c13.4,0.4,26.8,0.7,39.9,0.7
	c12.3,0,24.8-0.2,37.1-0.6l4.2-0.1l-0.1,4.2c-0.2,13.1,0.6,26.2,2.4,39l0.6,4.3c1.6,10.6,3.1,20.6,0.4,30.4
	c-2.6,9.2-11.2,18.8-21.3,18.8c-1.1,0-2.2-0.1-3.3-0.4c-4.2-0.9-7.9-3.5-11.5-6c-3-2.1-6.2-4.3-9.8-5.7c-2.4-0.9-5.1-1.3-7.9-1.3
	c-7.4,0-15.5,3.2-22.8,8.9c-11.9,9.4-19.2,22.8-19.6,35.8c-0.4,14.9,9.2,29,22.3,32.7c2.7,0.8,5.4,1.1,8.3,1.1
	c9.7,0,19.4-4.4,28.8-8.7l0.2-0.1c4-1.8,7.8-3.5,11.6-5c2.4-0.9,4.6-1.4,6.3-1.4c1.8,0,3.2,0.5,4.4,1.4c1.8,1.5,2.5,4,3,6.5
	c5.7,25.5,6.5,52.6,2.2,78.3c-0.6,3.7-1.5,7.9-4.4,10.4c-2.6,2.3-6.4,2.7-10.4,3C218.4,504.3,202.4,504.8,184.3,504.8z"/>
<path class="st4" d="M507.9,298.2c-0.4-8.9-1-18.4-3.5-27.5c-0.5-1.9-1.3-4.1-2.4-6.2c0.1-0.3,0.1-0.5,0.1-0.8
	c0.4-5.6,0.9-11.4,1.4-17c1.4-15.2,2.8-30.9,2.6-45.9l-1.3-153.6c-0.1-12.4-0.8-24.3-8.6-33.4C486.3,2,469.9,1.3,455.4,1.5
	L266.6,4.2c-0.3,0-0.6,0-0.9,0.1c-4-2.2-8.7-2.4-10.9-2.5C180.5-1.2,105.1,0.2,32.2,1.5C25,1.6,17.6,2.4,12,7.5
	C6,12.8,5.9,20,5.9,25.8c0,1.2,0,2.4-0.1,3.5C4.8,46.2,4.3,63.5,4.1,82.1c-0.3,30.8,0.3,63.3,2.1,105.6C7,207.5,8,227.5,8.9,246.9
	l0,0.4c0,0.4,0,0.9,0.1,1.4c-0.8,0.8-1.4,2-1.4,3.2C3.4,327,3.2,403.2,7,478.3c0.2,5,0.6,11.7,4.3,17.3c6.1,9.1,17.3,10.7,28.5,11.1
	l77.8,2.7c21.9,0.8,44.2,1.5,66.5,1.5c16.5,0,33.1-0.4,49.5-1.6c3.4-0.2,6.9-0.6,10.1-2c0.2,0.1,0.5,0.1,0.8,0.2
	c36.3,3.4,73,4.6,109.5,4.6c39.6,0,79.1-1.4,117.9-2.7c10-0.3,21.2-1.4,28.2-9.5c6.8-7.8,6.6-18.8,6.4-26.8
	c-0.6-26.6,0.1-53.7,0.8-80C508.4,362,509.2,329.8,507.9,298.2z M455.5,11.5c12.3-0.2,26,0.3,33.1,8.7c5.6,6.5,6.1,16.5,6.2,26.9
	l1.3,153.6c0.1,14.6-1.3,30-2.6,45c-0.3,3.4-0.6,6.9-0.9,10.4c-2.3-0.8-4.6-1.3-6.8-1.7c-21.2-3.4-42.6-3.1-63.8,0.7
	c-2.7,0.5-8.2,1.5-11.1,6.1c-1.9,3-2,6.3-1.9,9.2c0.3,6.1,1.5,12.1,2.7,18c2.1,10.6,4.1,20.6,0.8,29.7c-2.8,7.7-9.8,14.2-18.5,17.4
	c-8,2.9-17.4,3.1-27.3,0.7c-7-1.7-16.7-5.4-23.3-13.3c-5.8-7-7.8-16.2-5.1-23.6c1.1-3,3-5.9,5-8.9c1.9-2.8,3.9-5.8,5.3-9.2
	c1.9-4.2,2.5-9.1,1.8-13.5c-0.9-5.5-3.8-9.7-8.3-11.8c-3.3-1.6-6.7-1.7-9.5-1.7l-67.2-1.8c0.7-2.2,0.9-4.3,0.9-5.8
	c1.4-21.9,0.3-44-3.2-65.7l-0.2-1.1c-0.7-4.6-1.5-9-0.9-13.1c0.4-3.3,2.1-7.3,5.4-8.9c4.3-2,10.2,0.8,14.3,4.1
	c1.6,1.3,3.2,2.8,4.8,4.3c3.8,3.5,7.7,7.2,12.8,9.6c16.7,7.7,35.8-3.1,45.3-17.1c10.7-15.7,12.8-36,5.5-51.7
	c-8.2-17.5-28.5-27.9-46.2-23.5c-4.1,1-7.9,2.7-11.5,4.3c-3,1.3-5.9,2.6-8.8,3.4c-4.9,1.4-11.4,1.2-14.1-2.7
	c-1.2-1.8-1.7-4.3-2.1-7.5c-1.9-16.7,0.3-34.1,2.5-50.9c0.5-3.7,1-7.4,1.4-11.1c0.2-1.4,0.4-3.2,0.2-5.1L455.5,11.5z M14.1,82.3
	c0.2-18.5,0.7-35.6,1.7-52.4c0.1-1.3,0.1-2.7,0.1-3.9c0.1-5.3,0.2-8.7,2.8-11c3.2-2.8,8.5-3.3,13.7-3.4c72.8-1.3,148-2.7,221.9,0.4
	c5.4,0.2,7.1,1.3,7.5,2.1c0.4,0.9,0.2,2.8,0,4.1c-0.4,3.6-0.9,7.3-1.4,10.9c-2.3,17.4-4.6,35.4-2.5,53.3c0.5,4.1,1.3,8.4,3.9,12.1
	c3.7,5.3,12.5,10.2,25.1,6.6c3.6-1,6.9-2.5,10.1-3.9c3.4-1.5,6.5-2.9,9.8-3.7c13-3.2,28.5,4.9,34.7,18c5.9,12.6,4,29-4.7,41.8
	c-7.3,10.8-21.6,18.8-32.8,13.6c-3.7-1.7-6.8-4.6-10.2-7.8c-1.7-1.6-3.5-3.2-5.4-4.8c-8.4-6.8-17.7-8.8-24.9-5.4
	c-5.9,2.8-10,9-11,16.6c-0.8,5.6,0.1,10.9,0.9,16.1l0.2,1.1c3.3,20.9,4.4,42.3,3.1,63.5c-0.1,1-0.2,3.4-0.8,4
	c-0.7,0.7-3.4,0.8-4.6,0.9c-26,0.9-52.4,0.8-78.4,0c-5.2-0.2-8.5-1.2-9.1-2.9c-0.3-0.9,0-2.5,0.3-3.8c1-4.4,2.6-8.7,4.2-13.2
	c2.1-5.6,4.2-11.4,5.2-17.6c3.1-17.9-3.8-36.6-17.5-47.7c-8.3-6.8-18.9-10.2-29.4-10.2c-7.4,0-14.7,1.7-21.1,5.3
	c-16.2,8.9-25.1,28.8-20.8,46.2c1.9,7.9,6.1,14.6,10.2,21.1c2.4,3.8,4.6,7.5,6.4,11.3c0.4,0.8,1.3,2.8,1.1,3.9
	c-0.3,1.6-3.6,2.9-8.3,3.3c-24.9,2.5-50.2,2.5-75.2-0.1c0,0,0,0,0,0l0-0.2c-1-19.4-2-39.4-2.8-59.1C14.4,145.2,13.8,112.8,14.1,82.3
	z M233.1,499.3c-38.2,2.7-77.3,1.3-115,0l-77.8-2.7c-8.5-0.3-16.9-1.3-20.5-6.6c-2-3-2.4-7.1-2.6-12.2
	c-3.7-73.4-3.6-147.9,0.4-221.3c0.2,0,0.4,0,0.5,0.1c25.6,2.6,51.6,2.7,77.2,0.1c12.4-1.2,16.2-6.8,17.1-11.2
	c0.8-3.9-0.5-7.6-1.8-10.3c-2-4.4-4.6-8.4-7-12.3c-3.8-6.1-7.4-11.8-8.9-18.2c-3.2-13,3.8-28.4,15.9-35c12.1-6.6,28.3-5,39.4,4
	c10.7,8.7,16.3,24,13.9,38.2c-0.9,5.3-2.8,10.4-4.8,15.9c-1.7,4.6-3.4,9.4-4.6,14.4c-0.6,2.7-1.1,5.9,0,9.2
	c2.1,6.2,8.2,9.5,18.3,9.8c13.3,0.4,26.6,0.7,40,0.7c12.4,0,24.9-0.2,37.3-0.6c-0.2,13.2,0.6,26.5,2.4,39.6c0.2,1.4,0.4,2.9,0.6,4.3
	c1.5,10.2,3,19.8,0.5,28.8c-2.5,8.9-11.2,17.5-19.9,15.6c-3.4-0.8-6.6-3-10.1-5.4c-3.3-2.3-6.7-4.7-10.7-6.1
	c-10.3-3.8-23.3-0.7-34.6,8.2c-12.9,10.1-20.7,24.7-21.1,38.8c-0.4,16.7,10.4,32.4,25.2,36.6c14.1,4,27.2-2,39.9-7.8
	c4-1.8,7.8-3.5,11.6-4.9c3.3-1.2,5.8-1.5,6.7-0.6c0.9,0.7,1.4,3.1,1.7,4.3c5.6,25,6.3,51.5,2.1,76.8c-0.5,3-1.2,6.4-3,8
	C239.5,498.8,236.4,499.1,233.1,499.3z M497.5,392.8c-0.7,26.4-1.4,53.6-0.8,80.5c0.2,8.2,0,15.4-3.9,20c-4.4,5.1-12.8,5.8-21,6.1
	c-72,2.5-146.5,5-219.4-1.2c1-2.7,1.5-5.3,1.8-7.1c4.4-26.5,3.6-54.4-2.2-80.6c-0.8-3.3-1.8-7.1-5-9.8c-4-3.3-9.6-3.7-16.7-1.1
	c-4.1,1.5-8.2,3.4-12.2,5.2c-11.6,5.3-22.5,10.2-33,7.3c-10.3-2.9-18.2-14.6-17.9-26.7c0.3-11.2,6.7-22.9,17.3-31.2
	c8.5-6.7,17.9-9.2,24.9-6.7c2.8,1,5.6,2.9,8.4,4.9c4.1,2.8,8.3,5.8,13.7,7c6.9,1.5,14-0.4,20.2-5.3c5.4-4.3,9.6-10.7,11.4-17.4
	c3.1-11,1.4-22.2-0.2-32.9c-0.2-1.4-0.4-2.8-0.6-4.2c-1.7-12.2-2.5-24.6-2.4-36.9l72.9,1.9c2,0.1,4.1,0.1,5.4,0.8
	c3.3,1.6,3.6,7.7,1.6,12.2c-1.1,2.6-2.8,5.1-4.5,7.7c-2.3,3.4-4.6,6.9-6.1,11.1c-3.9,10.7-1.2,23.8,6.8,33.4
	c8.4,10,20.2,14.6,28.6,16.6c11.8,2.9,23.2,2.5,33-1c11.5-4.1,20.7-12.9,24.6-23.3c4.3-11.7,1.9-23.6-0.4-35.1
	c-1.1-5.8-2.2-11.2-2.5-16.6c0-0.6-0.1-2.5,0.3-3.2c0.6-0.9,3.5-1.5,4.5-1.6c20-3.7,40.3-3.9,60.4-0.7c2.7,0.4,5.5,1,7.2,2.4
	c1.7,1.4,2.6,4.2,3.3,6.5c2.2,8.1,2.8,16.9,3.1,25.3C499.2,329.9,498.3,361.9,497.5,392.8z"/>
</svg>
