<?xml version="1.0" encoding="utf-8"?>
<!-- Generator: Adobe Illustrator 25.2.3, SVG Export Plug-In . SVG Version: 6.00 Build 0)  -->
<svg version="1.1" id="Capa_1" xmlns="http://www.w3.org/2000/svg" xmlns:xlink="http://www.w3.org/1999/xlink" x="0px" y="0px"
	 viewBox="0 0 512 512" style="enable-background:new 0 0 512 512;" xml:space="preserve">
<style type="text/css">
	.st0{fill:#D4B1A6;}
	.st1{fill:#E1B946;}
	.st2{fill:#8CBEA3;}
	.st3{fill:#CC644F;}
	.st4{fill:#282828;}
</style>
<path class="st0" d="M316,506c-85.5,0-171.5-4.6-254.7-9.1l-0.1,0c-8.7-0.5-17.6-1-25.6-4.7c-7.1-3.4-14.1-10.8-13.6-19.7
	c0.3-6,4.5-12.2,10.7-16.1c5.9-3.6,12.9-5.1,19.6-6.2c15.9-2.6,32.1-3.4,50-4c28.7-1,58.2-1.8,87.7-2.3c25.1-0.4,50.7-0.6,76-0.6
	c26.2,0,52.8,0.2,79.1,0.7c26.1,0.5,52.2,1.1,77.6,2c2.9,0.1,5.8,0.1,8.9,0.2l0.8,0c16.9,0.1,36.1,0.3,48.8,10.7
	c7.9,6.4,11.5,16.8,8.9,25.2c-2,6.5-8,12.3-15.8,15.4c-6.9,2.8-14.2,3.5-23,4.1C409.2,504.5,364.9,506,316,506z"/>
<path class="st1" d="M61.1,446c-7.3-4.5-10.8-19.2-8.4-27.7c2.3-8,8.9-15.1,18-19.5c8.4-4.1,17.9-5.6,26.9-6.8
	c40.1-5.4,80.5-6.1,114.7-6.1c13,0,26,0.1,38.6,0.2l2,0c11.8,0.1,24.1,0.2,36.1,0.2c7.5,0,15.1,0,22.6-0.1c7.1,0,14.2-0.1,21.4-0.1
	c30.1,0,62.3,0.6,93.9,4.7c13.2,1.7,26.6,4.6,34.8,14c4.7,5.3,7,12.9,6.3,20.7c-0.6,7.2-3.7,14-8.6,18.5l-1.4,1.3l-1.8-0.2
	c-7.9-1-15.9-1.1-23.7-1.1l-0.8,0c-3.1,0-6.1-0.1-8.9-0.2c-26-0.9-52.1-1.6-77.6-2c-26.2-0.5-52.8-0.7-79.2-0.7
	c-25.4,0-51,0.2-76,0.6c-29,0.5-58.5,1.3-87.7,2.3c-13.2,0.5-26.1,1-38.7,2.5l-1.4,0.2L61.1,446z"/>
<path class="st2" d="M77.7,389.1c0-0.2-0.1-0.3-0.1-0.4c-7.7-15.1-8.9-27.6-3.3-36.2c5.6-8.7,17-11.8,27.3-13.6
	c29.1-5.2,59.1-5.9,84.9-6.2c7.9-0.1,16.1-0.1,24.4-0.1c39.8,0,80.2,1,121.5,2.1l0.8,0c19.8,0.5,42.3,1.2,64,2.8
	c9.9,0.7,19.6,1.6,28.7,5c10.1,3.7,17.7,10.1,21.6,17.9c3.8,7.7,2,22-3.6,29.4l-1.6,2.1l-2.5-0.6c-3.6-0.8-7.7-1.6-12.5-2.2
	c-31.6-4.1-63.9-4.7-94.1-4.7c-7.2,0-14.3,0-21.4,0.1l-0.1-4l0,4c-6.8,0-13.5,0.1-20.2,0.1H289c-12,0-24.2-0.1-36.1-0.2l-2,0
	c-12.6-0.1-25.6-0.2-38.5-0.2c-34.3,0-74.8,0.7-115,6.1c-4.7,0.6-9.8,1.4-14.8,2.6l-4.5,1.1L77.7,389.1z"/>
<path class="st3" d="M413.7,337.1c-5.5-0.9-11.2-1.4-16.5-1.8c-22.2-1.6-44.9-2.2-64.9-2.8c-41.5-1.1-82.1-2.1-121.7-2.1
	c-8.2,0-16.4,0-24.2,0.1c-25.5,0.3-55.1,1-84.2,6.1l-3.2,0.6l-1.4-3.4l0-0.2c-4.5-13.2-8.8-28.3-2-40.2c7.4-13,24.6-16.6,38.8-18.3
	c31.5-3.7,63.7-4.5,94.8-5.3l0.5,0c27.5-0.7,55.9-1.4,84-1.4c4,0,7.9,0,11.9,0c17.4,0.1,37.6,0.5,57.3,3.7c7.9,1.3,17,3.2,24.9,7.7
	c8.2,4.7,14,11.7,15.9,19.3c1.5,6.1,0.7,12.6-0.1,18.4c-0.9,7-2.1,13.7-6.3,18.3l-1.5,1.6L413.7,337.1z"/>
<path class="st2" d="M124.9,271.4c-4.4-9.6-5.5-20.5-3.1-30.8c1.5-6.6,4.2-11.7,8-15.3c4.9-4.6,11.8-6.7,17.8-8.3
	c22.7-5.9,45.7-8.2,73.4-9.8c26.5-1.5,53.4-2.3,80-2.3c9.7,0,19.4,0.1,29,0.3c14.5,0.3,27.5,0.9,39.6,5.5
	c13.9,5.2,23.9,15.3,26.8,27c2.3,9.1,0.4,20.1-5.5,30.9l-1.4,2.6l-2.9-0.5c-1.2-0.2-2.4-0.4-3.6-0.6c-19.7-3.2-40.1-3.6-57.6-3.8
	c-3.9,0-7.9,0-11.9,0c-28.4,0-56.9,0.7-84.4,1.4c-31.2,0.8-63.5,1.6-95.2,5.3c-1.9,0.2-3.5,0.4-5,0.7l-3,0.4L124.9,271.4z"/>
<path class="st3" d="M154.4,209.3c-0.1-0.2-0.1-0.3-0.1-0.3c-5.8-9.5-3.5-21.1-1.6-27.1c2.5-7.9,6.5-14.3,11.6-18.4
	c5.5-4.4,12.4-6.5,18.5-7.9c15.5-3.7,31.3-4.8,43.3-5.3c6.9-0.3,14-0.4,20.9-0.4c30.9,0,62,2.9,92.4,8.8c6.5,1.2,14.1,2.8,21.1,5.6
	c4.9,2,8.1,4,10.2,6.7c1.9,2.3,3.2,5.5,3.9,9.4c1.5,8.6-0.6,18-5.7,25.2l-1.6,2.3l-2.7-0.8c-11-3-23-3.5-34.4-3.8
	c-9.6-0.2-19.4-0.3-29-0.3c-26.7,0-53.7,0.8-80.2,2.3c-20,1.2-41.3,2.8-61.9,7.1l-3.8,0.8L154.4,209.3z"/>
<path class="st1" d="M341.8,156.9c-0.5-0.1-1.1-0.2-1.6-0.3l-0.4-0.1c-30.5-5.8-61.7-8.8-92.8-8.8c-7,0-14.1,0.2-21,0.4
	c-11.1,0.5-25.7,1.4-40.4,4.6l-3.2,0.7l-1.3-3c-0.1-0.3-0.3-0.4-0.3-0.5c-6.2-4.5-9.1-13.5-7.1-21.8c1.8-7.3,7.2-14.3,14.8-19.1
	c6.1-3.8,13.4-6.4,23.6-8.3c11-2.1,22.7-3.1,36-3.1c11.8,0,23,0.8,31.4,1.6c15.8,1.4,33.9,3.6,48.3,12.9c12.8,8.3,23.8,25.8,18.9,42
	l-1.1,3.5L341.8,156.9z"/>
<path class="st0" d="M288.1,98.1c-3-0.3-5.9-0.6-8.6-0.8c-8.4-0.7-19.6-1.6-31.5-1.6c-6.6,0-13,0.3-19,0.8l-4.6,0.4l2.5-53.2
	c0.3-5.8,0.6-11.7,2.4-17.1C233.4,14.6,245.7,6,258.5,6l0.4,0c12.6,0.2,25,9.1,29.6,21c2.8,7.3,3,15.3,3.1,23.1l0.9,48.5L288.1,98.1
	z"/>
<path class="st4" d="M485.1,452.1c-5.1-4.2-10.9-6.9-17.2-8.7c3.4-4.9,5.6-10.9,6.1-17.3c0.8-9.4-2.1-18.6-7.8-25.1
	c-4.4-5-9.8-8.3-15.7-10.7c5.3-9.5,6.6-23.8,2.2-32.7c-4.5-9.2-13.4-16.6-24.9-20.9c-1-0.4-2-0.7-3-1c2.9-5.2,4-11.3,4.8-17.3
	c0.8-6,1.8-13.5,0-20.7c-2.3-9.2-9.2-17.6-18.8-23.1c-4.2-2.4-8.7-4.1-13.1-5.4c4.3-8.8,7.8-20.6,4.8-32.9
	c-3.2-12.6-13.2-23.5-27.1-29.8c4.9-8.2,6.8-18,5.2-27.4c-0.8-4.9-2.6-9-5.1-12.2c-3.7-4.6-9-7-12.7-8.5c-3.4-1.3-6.9-2.4-10.3-3.3
	c5.3-19-6.7-38.5-21.6-48.1c-9.9-6.4-21.1-9.6-32.2-11.6L297.7,50c-0.2-7.9-0.3-16.8-3.5-25.1C288.7,10.5,274.3,0.3,259.1,0
	c-15.5-0.3-30.4,10-35.4,24.5c-2.2,6.3-2.5,12.9-2.8,18.8l-2.4,50.3c-2.6,0.4-5.1,0.8-7.7,1.3c-11,2.1-18.9,4.9-25.7,9.1
	c-8.9,5.6-15.3,13.9-17.5,22.8c-2.2,9,0.3,18.6,6,25c-4.5,1.5-9.2,3.7-13.2,6.9c-6.1,4.9-10.7,12.1-13.6,21.3
	c-3.6,11.5-3.1,22.2,1.4,30.6c-0.7,0.2-1.4,0.3-2.1,0.5c-7.2,1.9-14.7,4.4-20.4,9.7c-4.7,4.4-8,10.6-9.8,18.4
	c-2.5,10.8-1.6,22.2,2.6,32.5c-11.3,2.8-22.2,8.1-28.2,18.7c-7.8,13.8-3.5,30.1,1.3,44.4c-8.8,2.4-17.3,6.4-22.5,14.4
	c-6.8,10.5-5.8,25.1,3,42.3c0,0,0.1,0.1,0.1,0.1c-1.4,0.5-2.8,1.1-4.2,1.8c-10.7,5.2-18.4,13.6-21.2,23.3
	c-1.5,5.4-1.3,12.5,0.7,19.2c0.9,3.2,2.2,6,3.7,8.4c-7.3,1.2-14.9,2.9-21.6,7c-8,5-13.1,12.8-13.6,20.9c-0.7,11.6,8.1,21.2,17,25.5
	c9,4.3,19,4.9,27.8,5.3c83.8,4.5,169.4,9.1,255.1,9.1c45.3,0,90.7-1.3,135.8-4.5c7.3-0.5,16.4-1.2,24.8-4.5
	c9.7-3.8,16.7-10.8,19.4-19.2C499.3,472.9,495,460.2,485.1,452.1z M230.9,43.8c0.3-5.5,0.5-11.1,2.2-16c3.6-10.3,14.6-18,25.8-17.8
	c11,0.2,21.9,7.9,25.9,18.5c2.5,6.7,2.7,14.3,2.8,21.7l0.9,44c-3-0.3-5.9-0.6-8.7-0.9c-15.5-1.3-33.1-2.3-51.2-0.8L230.9,43.8z
	 M177.5,129.2c1.5-6.3,6.3-12.4,13-16.6c5.6-3.5,12.5-5.9,22.2-7.8c22.9-4.4,46.4-3.2,66.2-1.5c15.3,1.3,32.8,3.5,46.4,12.3
	c11.6,7.5,21.5,23.1,17.2,37.4c-0.7-0.1-1.4-0.3-2-0.4c-37.8-7.2-76.4-10-114.8-8.4c-11.4,0.5-26.2,1.5-41.1,4.7
	c-0.3-0.8-0.9-1.5-1.6-2.1C178.1,143.3,175.8,136,177.5,129.2z M157.7,206.9c-5-8.1-2.9-18.4-1.2-23.8c2.2-7.2,5.8-12.9,10.3-16.5
	c4.8-3.9,11.3-5.8,16.9-7.1c15.1-3.7,30.7-4.7,42.6-5.2c37.6-1.6,75.5,1.2,112.4,8.2c6.3,1.2,13.7,2.7,20.3,5.4
	c4.2,1.7,6.9,3.4,8.6,5.5c1.5,1.8,2.5,4.4,3,7.6c1.3,7.6-0.6,15.9-5,22.2c-11.3-3.1-23.2-3.7-35.4-3.9c-36.4-0.8-73.2-0.1-109.5,2
	c-23.2,1.3-43.2,3.2-62.5,7.1C158.1,207.8,157.9,207.3,157.7,206.9z M125.7,241.5c1.3-5.8,3.6-10.3,6.9-13.3
	c4.2-4,10.5-5.8,16.1-7.3c22.4-5.8,45.2-8.1,72.7-9.6c36-2.1,72.6-2.8,108.7-2c14.1,0.3,26.7,0.9,38.3,5.3
	c12.6,4.8,21.7,13.8,24.4,24.3c2.1,8.2,0.2,18.1-5.1,28.1c-1.2-0.2-2.5-0.4-3.7-0.6c-20.1-3.3-40.6-3.7-58.2-3.8
	c-32.2-0.2-64.8,0.6-96.4,1.3c-31.3,0.8-63.7,1.6-95.5,5.3c-1.7,0.2-3.4,0.4-5.1,0.7C124.6,260.9,123.6,250.9,125.7,241.5z
	 M99.1,295.3c6.5-11.5,22.5-14.7,35.8-16.3c31.3-3.7,63.5-4.5,94.6-5.2c31.5-0.8,64.1-1.6,96.1-1.3c17.3,0.1,37.3,0.5,56.7,3.7
	c7.5,1.2,16.2,3,23.6,7.2c7.3,4.1,12.4,10.2,14,16.8c1.3,5.4,0.5,11.5-0.2,17c-0.8,6.4-1.9,12.4-5.3,16.1c-5.6-1-11.3-1.5-16.9-1.9
	c-22.1-1.6-44.9-2.2-65.1-2.8c-51.8-1.4-98.6-2.5-146.1-2c-25.7,0.3-55.6,1-84.8,6.1c0-0.1,0-0.1,0-0.2
	C97.2,320,93.1,305.8,99.1,295.3z M81.1,386.9c-4.9-9.6-9.5-23-3.5-32.2c4.8-7.5,15.2-10.2,24.6-11.9c28.8-5.1,58.6-5.9,84.2-6.2
	c47.3-0.5,94,0.6,145.7,2c20,0.5,42.7,1.2,64.6,2.8c9.6,0.7,19,1.6,27.6,4.8c9.1,3.4,16,9,19.4,15.9c3.2,6.5,1.4,19.1-3.2,25.2
	c-4.2-1-8.6-1.7-12.9-2.2c-38.5-5-78-4.9-116.1-4.7c-7.5,0-15.1,0.1-22.6,0.1c-12.7,0-25.6-0.1-38-0.2c-50.6-0.5-103-0.9-154.2,5.9
	c-5,0.7-10.1,1.4-15.2,2.6C81.6,388.1,81.4,387.4,81.1,386.9z M56.5,419.4c2-6.9,7.8-13.1,15.9-17c7.9-3.8,17-5.2,25.7-6.4
	c50.4-6.7,102.4-6.3,152.7-5.8c12.5,0.1,25.4,0.2,38.1,0.2c7.5,0,15.1,0,22.6-0.1c37.8-0.2,76.8-0.4,114.7,4.6
	c12.4,1.6,25,4.3,32.3,12.7c4,4.5,5.9,11,5.4,17.7c-0.5,6.3-3.2,12-7.3,15.8c-8.1-1-16.3-1.1-24.2-1.2c-3.4,0-6.6-0.1-9.6-0.2
	c-25.7-0.9-51.9-1.6-77.6-2c-51.5-0.9-103.8-0.9-155.4-0.1c-29.1,0.5-58.7,1.3-87.8,2.3c-13.8,0.5-26.5,1.1-39,2.5
	C57.6,439.2,54.5,426.3,56.5,419.4z M486.3,480.8c-1.7,5.4-6.7,10.2-13.5,12.9c-6.4,2.5-13.3,3.2-21.8,3.8
	c-129.7,9.4-261.9,2.3-389.6-4.6c-8.3-0.4-16.8-0.9-24-4.4c-5.7-2.7-11.7-8.9-11.3-15.8c0.3-4.8,3.7-9.7,8.8-12.9
	c5.3-3.3,11.8-4.7,18.1-5.7c15.7-2.6,31.7-3.3,49.5-4c29-1,58.5-1.8,87.6-2.3c25.2-0.4,50.6-0.6,76-0.6c26.4,0,52.8,0.2,79,0.7
	c25.7,0.4,51.8,1.1,77.5,2c3.2,0.1,6.4,0.1,9.9,0.2c16.2,0.1,34.7,0.3,46.3,9.8C485.4,465.3,488.5,473.9,486.3,480.8z"/>
</svg>
