<?xml version="1.0" encoding="utf-8"?>
<!-- Generator: Adobe Illustrator 25.2.3, SVG Export Plug-In . SVG Version: 6.00 Build 0)  -->
<svg version="1.1" id="Capa_1" xmlns="http://www.w3.org/2000/svg" xmlns:xlink="http://www.w3.org/1999/xlink" x="0px" y="0px"
	 viewBox="0 0 511 511" style="enable-background:new 0 0 511 511;" xml:space="preserve">
<style type="text/css">
	.st0{fill:#D4B1A6;}
	.st1{fill:#8CBEA3;}
	.st2{fill:#CC644F;}
	.st3{fill:#E1B946;}
	.st4{fill:#282828;}
</style>
<path class="st0" d="M365.5,299c-10.4,0-21-0.9-31.6-2.6c-30.9-5.1-58.7-17.3-80.2-35.2c-23.5-19.5-39.7-46.7-44.3-74.4
	c-2.6-15.6-2.1-33.3,1.6-53.9c4.9-26.8,13.1-48.1,25.2-65.1c4.7-6.5,10.1-12.6,16.2-18.2c6.1-5.5,12.9-10.6,20.3-15.1
	c23-13.9,47.8-21.5,69.9-21.5c3.4,0,6.7,0.2,9.8,0.5c36.7,4.1,66.7,10.8,94.2,30c29.6,20.7,50.1,51.6,56.2,84.7
	c4.6,24.9,1.6,54.7-8.6,86.3c-7.8,24.3-23.4,45.6-43.9,60C427.9,290.3,397.8,299,365.5,299z M344.7,32.6c-19.2,0-40.6,6.6-60.4,18.6
	c-12.9,7.8-23.5,17.4-31.6,28.7c-10.5,14.6-17.6,33-21.8,56.1c-3.2,17.7-3.7,32.9-1.4,46.5c4.1,24,18,47.5,38.4,64.4
	c18.6,15.4,42.5,25.9,69.1,30.4c9.1,1.5,18.2,2.3,27.1,2.3c27.8,0,53.8-7.5,73.2-21.1c17.8-12.5,31.3-31,38.1-52
	c8.9-27.5,11.3-52.5,7.3-74.2c-5.3-28.7-23-55.4-48.6-73.2c-14.8-10.4-34.9-20.7-81-25.8C350.4,32.7,347.6,32.6,344.7,32.6z"/>
<path class="st1" d="M364.1,277.4c-8.8,0-17.9-0.8-26.8-2.2c-26.3-4.3-49.8-14.7-68.1-29.9c-19.9-16.6-33.7-39.6-37.6-63.2
	c-2.2-13.3-1.8-28.3,1.4-45.8c4.1-22.8,11.1-40.8,21.4-55.2c7.9-11.1,18.3-20.6,31-28.2c19.5-11.8,40.6-18.3,59.3-18.3
	c2.8,0,5.6,0.2,8.3,0.5c31.1,3.5,56.6,9.1,80,25.4c25.2,17.6,42.6,43.8,47.7,71.9c3.9,21.1,1.4,46.5-7.3,73.3
	c-6.6,20.6-19.9,38.7-37.3,50.9C417.1,270,391.5,277.4,364.1,277.4z"/>
<path class="st2" d="M381.2,441.3c-2.1,0-4.2-0.2-6.2-0.6c-7.1-1.4-14.1-5-20.2-10.6c-4.6-4.2-8-8.8-9.9-13.6
	c-4.3-10.9-1.1-24.8,7.7-33.9c7.1-7.3,17.9-11.7,28.8-11.7c3.2,0,6.3,0.4,9.3,1.1c6.5,1.6,18,6.3,22.3,20.6
	c3.2,10.6,0.9,23.3-6.2,34c-3,4.5-6.3,7.9-9.9,10.3C392.4,439.8,387,441.3,381.2,441.3z"/>
<path class="st3" d="M198.5,360.1c-7-13.8-18.8-24.8-33.1-30.9l-6.1-2.6l5.1-4.2c26.3-21.4,53.1-42.5,79.6-62.7l2.6-2l2.5,2.2
	c1.1,0.9,2.2,1.9,3.3,2.8c6.8,5.7,14.3,10.8,22.3,15.3l4.4,2.5l-3.4,3.7C255.3,306.6,230,334.5,205,361l-3.9,4.1L198.5,360.1z"/>
<path class="st0" d="M109.2,448.1c-2.4-10.3-7.1-19.8-13.8-27.5c-6-6.9-13.5-12.2-20.1-16.7L71,401l3.9-3.4
	c26.2-22.8,53.3-45.6,80.5-67.8l1.7-1.4l2.1,0.7c17.3,5.5,31.9,18.7,39.1,35.2l1.3,2.6l-1.9,2c-29.6,31.2-56.4,57.8-81.8,81.3
	l-5.1,4.7L109.2,448.1z"/>
<path class="st2" d="M125.9,272.8c-7.5,0-15.6-3.5-22.2-9.5c-6.9-6.3-11.1-14.4-11.5-22.2c0-0.5,0-1,0-1.5c0-11.4,6.7-22,17.6-27.6
	c4.5-2.3,9.1-3.5,13.8-3.5c6.1,0,11.8,2,16.6,5.8c7.7,6.1,12.4,16,12.6,26.7c0.1,7.5-1.9,14.6-5.7,20.2c-4.1,6-10.5,10.2-17.2,11.3
	C128.6,272.7,127.3,272.8,125.9,272.8z"/>
<path class="st3" d="M51.5,499.2c-3,0-6.4-0.6-10.3-1.8c-10.7-3.4-20.4-9.5-28.1-17.7c-5.1-5.4-7.4-10.6-6.9-15.2
	c0.6-5.5,4.9-9.8,9.6-14.1c16.6-15.1,33.9-30.6,51.5-45.9l2.3-2l2.5,1.7c8.1,5.4,15.8,10.9,21.9,17.8c7.2,8.2,12,18.5,14,29.8
	c0,0.1,0.1,0.3,0.2,0.4l2.3,2.9l-2.8,2.5C95,469.1,82.4,480,70.3,490.1c-4.8,4-9.2,7.4-14.4,8.6C54.5,499,53,499.2,51.5,499.2z"/>
<path class="st4" d="M508.8,127.2c-6.4-34.7-27.8-67-58.7-88.6c-28.6-19.9-59.4-26.8-97-31c-25.4-2.8-55.8,5.1-83.5,21.8
	c-15.6,9.4-28.4,21.1-38.3,34.9c-0.3,0.4-0.5,0.7-0.8,1.1c-0.5-0.1-1-0.1-1.4,0c-11.6,1.8-23.7,6.3-35.9,13.6
	c-31.1,18.5-56.2,49.9-70.4,88.4c-4.4,11.8-7.7,24.1-9.9,36.5c0,0.1,0,0.2,0,0.4c-2,0.6-4,1.5-5.9,2.5
	c-13.4,6.9-21.5,20.6-20.8,34.8c0.5,9.5,5.3,18.8,13.5,26.3c7.8,7.2,17.3,11.1,26.3,11.1c1.7,0,3.3-0.1,4.9-0.4
	c8.3-1.4,16-6.5,21.1-13.9c4.5-6.6,6.9-15,6.8-23.7c-0.2-12.5-5.8-24.2-14.9-31.3c-6.1-4.8-13.2-7.2-20.6-7.1
	c2.1-10.7,5.1-21.4,8.9-31.6c13.5-36.4,37-66,66.2-83.3c8.5-5.1,17-8.7,25.1-10.8c-8.5,15.3-14.5,33.5-18.4,55
	c-3.9,21.3-4.4,39.6-1.6,56c4.2,24.7,17,48.9,35.7,68.2c-78.2,59.8-154.7,123.7-227.5,190c-5.4,4.9-10.7,10.3-11.5,18
	c-0.7,6.5,2.2,13.2,8.5,20c8.4,8.9,19,15.6,30.7,19.3c4.5,1.4,8.5,2.1,12.1,2.1c2,0,3.9-0.2,5.8-0.6c7.1-1.6,12.8-6.4,16.9-9.8
	c75.6-63,142.8-136.9,207.8-208.4c15.6,7.5,32.7,13,51,16c11,1.8,21.9,2.7,32.5,2.7c33.5,0,64.5-8.8,88.3-25.5
	c5.7-4,11.1-8.6,16-13.5c4.1,8.9,4.7,20,1.7,31.5c-3.1,11.9-9.5,22.9-15.4,32.1c-10.6,16.5-25.4,36.5-47,45.7
	c-4.6-4.3-10.4-7.5-17.1-9.1c-15.4-3.7-33,1.2-43.8,12.3c-10.6,10.9-14.2,27.1-9,40.3c2.2,5.6,6.1,11,11.4,15.8
	c6.9,6.3,14.9,10.5,23.1,12.1c2.5,0.5,4.9,0.7,7.4,0.7c6.9,0,13.6-1.9,19-5.4c4.3-2.8,8.2-6.8,11.6-12c8.1-12.2,10.7-26.8,6.9-39.1
	c-0.8-2.7-1.9-5.2-3.2-7.5c22.7-10.6,38.1-31.3,49-48.4c6.3-9.9,13.2-21.7,16.7-34.9c3.8-14.5,2.7-28.7-3.1-39.9
	c-0.3-0.7-0.8-1.2-1.4-1.6c10.3-12.3,18.3-26.6,23.3-42C510.6,183.4,513.6,153.4,508.8,127.2z M137.7,217.4
	c6.7,5.3,10.9,14.2,11.1,23.7c0.1,6.6-1.6,13-5,17.8c-3.5,5.1-8.9,8.7-14.5,9.7c-7.3,1.2-15.8-1.8-22.8-8.2
	c-6.1-5.6-9.9-12.7-10.2-19.5c-0.6-10.3,5.5-20.3,15.4-25.4C120.5,210.8,130.3,211.5,137.7,217.4z M403.4,424.4
	c-2.7,4-5.6,7.1-8.7,9.1c-5.2,3.4-12.2,4.6-19,3.3c-6.4-1.2-12.7-4.6-18.3-9.7c-4.2-3.8-7.2-7.9-8.8-12.1
	c-3.7-9.5-0.9-21.7,6.8-29.7c8.4-8.6,22.1-12.4,34.2-9.5c5.6,1.4,15.7,5.5,19.5,17.9C412,403.2,409.9,414.6,403.4,424.4z M67.8,487
	c-4.4,3.7-8.4,6.8-12.8,7.8c-3.4,0.8-7.4,0.4-12.7-1.3c-10.1-3.2-19.2-8.9-26.4-16.6c-4.3-4.6-6.3-8.6-5.9-12.1
	c0.4-4.1,4.2-7.8,8.3-11.6c16.9-15.4,34.1-30.7,51.4-45.8c7.6,5.1,15.2,10.4,21.1,17.1c6.7,7.6,11.2,17.3,13,27.9
	c0.1,0.8,0.5,1.6,1,2.2C92.7,465.7,80.4,476.5,67.8,487z M113.1,447.2c-2.5-11-7.5-21.1-14.6-29.2c-6.1-7-13.5-12.4-20.8-17.4
	c26.4-23,53.3-45.6,80.4-67.8c16.2,5.2,29.9,17.4,36.7,33.1c0,0.1,0.1,0.1,0.1,0.2C168.3,393.8,141.2,421.1,113.1,447.2z
	 M202.1,358.3c-7.4-14.6-20.1-26.4-35.1-32.8c26.3-21.3,52.8-42.2,79.5-62.7c1.1,1,2.2,1.9,3.3,2.9c7,5.9,14.7,11.1,22.9,15.8
	C249.6,307,226.1,332.8,202.1,358.3z M448,271.3c-29.2,20.5-70.6,28.2-113.4,21.1c-30.2-5-57.3-16.9-78.3-34.4
	c-22.8-18.9-38.4-45.2-43-72c-2.6-15.2-2-32.4,1.6-52.5c4.8-26.2,12.8-47,24.6-63.4c9-12.6,20.9-23.4,35.3-32.1
	C297.2,24.4,321.4,17,342.6,17c3.2,0,6.3,0.2,9.3,0.5c36.1,4,65.6,10.5,92.4,29.3c28.8,20.1,48.7,50.1,54.6,82.2
	c4.4,24.2,1.5,53.4-8.4,84.3C482.9,236.7,467.8,257.3,448,271.3z"/>
<path class="st4" d="M436.4,55.6c-15.3-10.7-35.9-21.2-82.8-26.5c-21.7-2.4-47.8,4.4-71.4,18.7c-13.3,8-24.3,18.1-32.8,29.8
	c-10.8,15.1-18.2,34-22.5,57.7c-3.3,18.2-3.7,33.8-1.4,47.8c4.2,25,18.7,49.3,39.7,66.8c19.1,15.9,43.7,26.7,71,31.2
	c9.4,1.6,18.7,2.3,27.8,2.3c28.6,0,55.2-7.5,75.5-21.8c18.5-13,32.5-32.2,39.6-54c9.1-28.1,11.6-53.8,7.5-76.2
	C481.2,101.6,462.9,74,436.4,55.6z M469.6,204.5c-6.4,19.8-19.1,37.2-35.8,48.9c-24.7,17.3-59.6,23.8-95.9,17.8
	c-25.6-4.2-48.5-14.3-66.2-29c-19.2-16-32.4-38.1-36.3-60.8c-2.2-12.8-1.7-27.3,1.4-44.4c4-22.2,10.8-39.7,20.8-53.6
	c7.6-10.6,17.6-19.8,29.8-27.1c21.8-13.2,45.5-19.5,65.1-17.3c30.5,3.4,55.5,8.9,78.2,24.7c24.3,17,41.1,42.3,46.1,69.4
	C480.5,153.6,478.1,178.3,469.6,204.5z"/>
</svg>
