<?xml version="1.0" encoding="utf-8"?>
<!-- Generator: Adobe Illustrator 25.2.3, SVG Export Plug-In . SVG Version: 6.00 Build 0)  -->
<svg version="1.1" id="Capa_1" xmlns="http://www.w3.org/2000/svg" xmlns:xlink="http://www.w3.org/1999/xlink" x="0px" y="0px"
	 viewBox="0 0 512 512" style="enable-background:new 0 0 512 512;" xml:space="preserve">
<style type="text/css">
	.st0{fill:#FFFFFF;}
	.st1{fill:#CC644F;}
	.st2{fill:#8CBEA3;}
	.st3{fill:#CFCB9D;}
	.st4{fill:#288FC9;}
	.st5{fill:#282828;}
</style>
<path class="st0" d="M208.4,104c-3.6,0-7.1-0.8-10.1-2.2c-5.5-2.6-9.7-7.4-11.4-13c-1.2-4.1-1.1-8.9,0.4-13.5
	c1.4-4.2,4-8.1,7.6-11.1c3.5-3,7.8-5.1,12.3-5.9c1.6-0.3,3.2-0.5,4.7-0.5c6.5,0,12.4,2.7,16.5,7.6c4.9,5.8,6.5,14.6,3.9,22
	c-2.6,7.2-8.9,13.2-16.5,15.5C213.4,103.6,210.9,104,208.4,104z"/>
<path class="st0" d="M294.3,104c-3.6,0-7.1-0.8-10.1-2.2c-5.5-2.6-9.7-7.4-11.4-13c-1.2-4.2-1.1-8.9,0.4-13.5
	c2.8-8.5,10.6-15.2,19.9-17c1.6-0.3,3.2-0.5,4.7-0.5c6.5,0,12.4,2.7,16.5,7.6c4.9,5.8,6.5,14.6,3.9,22c-2.6,7.2-8.9,13.2-16.5,15.5
	C299.3,103.6,296.8,104,294.3,104z"/>
<path class="st1" d="M445.2,406.2c-0.9,0-1.9-0.1-2.8-0.2c-24.4-2.4-48.2-8.4-71.2-14.3l-3.2-0.8l0.2-3.3c0.6-9.1,4-18.2,9.4-25.6
	c3-4.1,6.4-7.4,10.1-9.7c3.2-2,7-3.6,11.3-4.6c3.3-0.8,6.8-1.2,10.2-1.2c9.9,0,19.7,3.2,27.6,8.9c8.5,6.2,14.9,15.6,17.6,25.9
	c1.2,4.5,0.6,7.8-0.1,12.4l-0.2,1.4c-0.7,4.5-1.5,9.1-6,10.7C447.2,406,446.3,406.2,445.2,406.2z"/>
<path class="st2" d="M401.9,305.6c-0.9-7.3-2.9-15.2-6-24.1c-0.2-0.4-0.3-0.9-0.5-1.3l-1.7-4.7l4-1.2c9.3-2.8,18.8-5,28.4-6.5
	l3.6-0.6l0.9,3.5c0.8,3.2,1.5,6.4,2.1,9.6c1.5,8.3,2.1,16.5,2,24.2l-0.1,4.1l-4.1-0.2c-2.6-0.1-5.2-0.1-7.7-0.1
	c-5.5,0-11.1,0.2-16.6,0.7l-3.8,0.3L401.9,305.6z"/>
<path class="st2" d="M420.2,345.7c-3.6-0.8-7.3-1.2-10.9-1.2c-2.3,0-4.5,0.2-6.7,0.5l-6.7,0.9l2.3-6.3c2.8-7.4,4.2-15.2,4.4-23
	c0-0.5,0-1,0-1.5v-3.7l3.7-0.3c5.5-0.4,11-0.7,16.5-0.7c2.4,0,4.9,0,7.3,0.1l4.4,0.2l-0.6,4.4c-1.4,10.5-4.5,20.1-9.2,28.4
	c0,0-1.4,2.9-1.4,2.9L420.2,345.7z"/>
<path class="st2" d="M391.5,270.3c-3.6-8.5-7.7-15.6-12.3-21.8c-0.1-0.2-0.2-0.3-0.3-0.4l-2.6-3.2l3.2-2.5
	c7.9-6.2,16.2-12.1,24.6-17.5l3.1-2l2.2,2.9c7.7,10.2,13.9,21.9,18.2,34.9l1.5,4.5l-4.6,0.8c-9.5,1.5-18.9,3.7-28.1,6.6l-3.4,1.1
	L391.5,270.3z"/>
<path class="st2" d="M372.6,240.8c-6-6.2-12.7-11-19.9-14.3l-2.2-1l-0.1-2.4c-0.6-11.3-1.5-21.7-2.7-31.6l-0.8-6.5l6.1,2.2
	c17.5,6.3,31.3,14.1,42.3,23.6c2.5,2.1,5,4.5,7.4,7.1l3.3,3.5l-4,2.6c-8.4,5.4-16.4,11.2-24,17.2l-2.8,2.2L372.6,240.8z"/>
<path class="st3" d="M288.1,506c-7.3,0-13.7-0.2-19.5-0.8c-2.1-0.2-4.2-0.4-5.9-1.5c-1.2-0.8-2.1-2-3.1-3.9
	c-3.8-7.5-3.8-17.2-0.1-28.7c0.8-2.5,1.9-5.4,3.6-7.9c6.1-8.8,19.2-11.3,23-11.9c10.7-1.5,21.7-2.3,32.5-2.3h0.6
	c10.9,0,24.6,1.1,33.9,9.3c5,4.4,8.8,11.1,10.5,18.7c1.4,6.3,1.6,13.4,0.6,21.9l-0.3,2.7l-2.6,0.7c-4.3,1.2-8.8,1.4-13.2,1.6
	c-14,0.7-28.1,1.3-41.9,1.7C300.5,505.8,294.2,506,288.1,506z"/>
<path class="st3" d="M268,302.2c-18.5,0-37.1-0.3-55.5-0.8c-17.5-0.5-36.2-1.3-54.6-4.4c-3.4-0.6-6.7-1.4-8.5-3.8
	c-1.4-2-1.5-4.7-1.5-7.6c0.1-31.8,0.1-64.7,3.2-97c0.6-6.6,1.7-13.9,6.8-18c3.7-3,8.7-3.6,14-4c12.8-1.1,25.8-1.8,39.8-2.2
	c10.6-0.3,21.4-0.5,33.2-0.5c11.7,0,24.5,0.2,39.1,0.5c3.8,0.1,7.7,0.2,11.5,0.4l0.7,0c6,0.2,12.2,0.5,18.3,0.5c1.6,0,3.2,0,4.8-0.1
	c1.2,0,2.4,0,3.5,0c6.1,0,13,0.5,17.2,6.3c3.2,4.4,4.2,10,4.9,15.8c4.6,35.2,4.6,70.5,3.8,103.5c-0.1,3.9-0.6,6.9-2.6,8.6
	c-1.6,1.3-3.9,1.5-6.5,1.6C316.1,301.8,292,302.2,268,302.2z M236.3,192.2c-12.1,0-23.1,0.5-33.4,1.6c-6.4,0.7-12.8,1.9-16.9,6.4
	c-2.6,2.8-3.8,6.6-4.8,10.2c-3.9,14.4-5.1,29.1-3.5,43.9c0.3,3.3,0.8,6.8,2.7,9.9c3.2,5.3,9.6,7.5,14.9,8.9
	c19.7,5.1,40.3,5.2,60.3,5.3c3.3,0,6.6,0,9.9,0.1l1.3,0c1.7,0,3.3,0,5,0c4.4,0,9.5-0.1,14.7-1c7.9-1.4,14.5-4.6,19-9.2
	c5.4-5.5,8.5-13.5,9.7-24.5c1.7-16.2,1.8-44.1-17.1-48.4c-5.7-1.3-11.8-1.4-17.8-1.5l-0.5,0c-2.5-0.1-4.9-0.1-7.3-0.3
	c-12.7-0.8-23.2-1.2-33-1.3C238.4,192.2,237.3,192.2,236.3,192.2z"/>
<path class="st3" d="M268.8,141c-9,0-17.7-0.2-25-0.4c-20.2-0.6-39.9-1.6-59.1-6.5c-6.5-1.7-13.6-4.1-17.3-9.9
	c-2.2-3.4-3-7.7-3.6-11.4c-2.5-16-2.6-32.3-0.4-48.3c1-6.9,2.5-14,7-19.3c5.6-6.5,14.7-8.8,23.6-10.3c11.1-1.9,22.7-3.2,35.5-3.9
	c8.7-0.5,17.9-0.7,28.1-0.7c13.2,0,26.1,0.4,37.1,0.8c1.2,0,2.4,0.1,4,0.1c0.7,0,4.7,0,4.7,0c5.1,0,10.6,0.1,15.9,1.8
	c8.2,2.5,14.9,7.3,18.7,13.5c3,4.8,4.4,10.5,5.4,15.4c2.8,13.9,3.5,28,1.9,42.1c-1.6,14.2-5.9,23.6-13.2,28.8
	c-5.6,3.9-12.7,5.1-19,5.9C300.2,140.2,285.7,141,268.8,141z M227.2,116.3c-0.5,0-1,0.4-1,0.9c0,0.4,0.1,0.6,0.2,0.8
	s0.4,0.3,0.7,0.4c11.4,0.8,22.9,1.2,34.3,1.2c5.5,0,11.1-0.1,16.7-0.3c0.3,0,0.6-0.2,0.7-0.3c0.1-0.1,0.3-0.4,0.3-0.7
	c0-0.6-0.5-1-1-1H278c-5.5,0.2-11,0.3-16.6,0.3C250.1,117.6,238.6,117.1,227.2,116.3L227.2,116.3z M297.9,55.7
	c-1.7,0-3.4,0.2-5.2,0.5c-10,1.9-18.4,9.2-21.4,18.4c-1.6,4.9-1.8,10.1-0.4,14.7c1.8,6.1,6.5,11.5,12.5,14.3c3.3,1.6,7.1,2.4,11,2.4
	c2.7,0,5.4-0.4,8-1.2c8.2-2.5,15.1-8.9,17.9-16.8c2.9-8.2,1.2-17.6-4.2-24C311.3,58.7,304.9,55.7,297.9,55.7z M212,55.7
	c-1.7,0-3.4,0.2-5.2,0.5c-10,1.9-18.4,9.2-21.4,18.4c-0.9,2.7-1.3,5.5-1.3,8.2c0,2.3,0.3,4.4,0.9,6.4c1.8,6.1,6.5,11.5,12.5,14.3
	c3.3,1.6,7.1,2.4,11,2.4c2.7,0,5.4-0.4,8-1.2c8.2-2.5,15.1-8.9,17.8-16.8c2.9-8.2,1.2-17.6-4.2-24C225.4,58.7,219,55.7,212,55.7z"/>
<path class="st2" d="M275.2,446.9c-0.8-9.6-1.6-19.4-2.2-29.1l-0.3-4.7l4.6,0.4c8.2,0.7,16.4,1.1,24.4,1.1c11.2,0,22.5-0.7,33.6-2
	l4.4-0.5l0.1,4.4c0.1,9.8,0.2,18.9,0.2,27.7l0,4.8l-4.7-0.9c-6-1.1-12-1.2-16.1-1.3h-0.6c-10.9,0-22,0.8-32.8,2.3
	c-1.3,0.2-3.3,0.5-5.7,1.2l-4.6,1.2L275.2,446.9z"/>
<path class="st2" d="M301.6,412.6c-8.6,0-17.2-0.4-25.7-1.2l-3.4-0.3l-0.2-3.4c-0.6-10.6-1.2-21.2-1.6-31.5l-0.2-4.5l4.5,0.4
	c9.5,0.7,19,1.1,28.3,1.1c10.3,0,20.8-0.5,31.5-1.4l4.2-0.4l0.1,4.3c0.2,9.3,0.4,19.1,0.6,30.8l0.1,3.6l-3.6,0.4
	C324.7,411.9,313.1,412.6,301.6,412.6z"/>
<path class="st2" d="M303.1,371c-9.7,0-19.6-0.4-29.2-1.2l-3.5-0.3l-0.1-3.6c-0.3-9.5-0.6-19.2-0.8-29l-0.1-4.4l4.4,0.3
	c9,0.7,18,1.1,26.8,1.1c10.9,0,22-0.5,32.9-1.6l4.2-0.4l0.2,4.2c0.3,9,0.6,18.6,0.9,29.3l0.1,3.8l-3.7,0.3
	C324.6,370.6,313.8,371,303.1,371z"/>
<path class="st2" d="M300.5,331.9c-9.2,0-18.5-0.4-27.6-1.1l-3.6-0.3l0-3.6c-0.1-6.9-0.1-12.6-0.1-18l0-0.2l-0.4-4.4l4.4,0
	c19.6,0,39.6-0.4,59.5-1.1l4-0.1l0.2,3.9c0.3,6.4,0.6,12.8,0.8,19.2l0.1,3.8l-3.8,0.4C322.9,331.4,311.6,331.9,300.5,331.9z"/>
<path class="st2" d="M271.9,276.4c-1.7,0-3.3,0-5.1,0l-1.4,0c-2.5,0-5,0-7.4-0.1l-2.5,0c-19.9-0.1-40.4-0.2-59.8-5.2
	c-4.9-1.3-10.8-3.3-13.7-8c-1.6-2.7-2.1-6.1-2.4-9c-1.5-14.5-0.3-29,3.5-43.2c0.9-3.3,2-6.8,4.3-9.4c3.8-4.2,10-5.2,15.6-5.7
	c10.3-1.1,21.2-1.6,33.2-1.6c1.1,0,2.1,0,3.2,0c9.7,0.1,20.1,0.5,32.9,1.3c2.5,0.2,5.2,0.2,7.9,0.3c5.9,0.1,12,0.3,17.4,1.5
	c7.5,1.7,19.4,10,15.5,46.2c-1.1,10.5-4.1,18.1-9.2,23.3c-5.3,5.4-12.7,7.7-17.9,8.6C281.1,276.3,276.2,276.4,271.9,276.4z
	 M244,243.5c0.5,0,1-0.4,1-1c0-0.4-0.1-0.6-0.3-0.7s-0.4-0.3-0.7-0.3l-38-1.1c-0.5,0-1,0.5-1,1c0,0.6,0.4,1,1,1L244,243.5L244,243.5
	L244,243.5z M209.8,221.1c-0.6,0-1,0.5-1,1c0,0.6,0.5,1,1,1c4.6,0,9.2,0.1,13.8,0.1c7.1,0,14.5-0.1,22.5-0.2c0.3,0,0.6-0.2,0.7-0.3
	c0.1-0.1,0.3-0.4,0.3-0.7c0-0.6-0.5-1-1-1c-7.4,0.1-15,0.2-22.6,0.2C219,221.2,214.4,221.1,209.8,221.1l0-4L209.8,221.1L209.8,221.1
	z"/>
<path class="st2" d="M292.5,162.5c-2.8-0.1-5.6-0.2-8.4-0.3c-14.6-0.3-27.4-0.5-39.1-0.5c-11.2,0-21.6,0.1-31.8,0.4l-2.2,0.1
	l-1.4-2.2l-0.9-1.1l0.1-1.4l0.2-17l4.3,0.4c10.4,1,21.2,1.4,30.5,1.7c6.8,0.2,15.7,0.4,25.1,0.4c8.8,0,16.9-0.2,24.7-0.7l4.5-0.3
	l-0.3,4.5c-0.2,3.8-0.6,7.9-1,12.3l-0.4,3.8L292.5,162.5z"/>
<path class="st4" d="M216.9,23.2c0.9-1.3,2-2.5,3.1-3.6C228.3,11,240.8,6,254.4,6c2.6,0,5.2,0.2,7.7,0.5c6.7,1,12.4,3,16.9,6.1
	c4,2.8,7.1,6.4,8.8,10.5l2.4,5.7l-6.2-0.2c-10.2-0.3-18.6-0.4-26.4-0.4c-10.2,0-19.4,0.2-28.2,0.7c-2.8,0.2-5.8,0.4-9,0.6l-8.7,0.7
	L216.9,23.2z"/>
<path class="st3" d="M214.8,503.9c-6.3,0-12.7-0.2-18.2-0.4c-13.8-0.4-27.9-1-41.9-1.7c-4.4-0.2-8.9-0.4-13.2-1.6l-2.6-0.7l-0.3-2.7
	c-1-8.5-0.8-15.6,0.6-21.9c1.7-7.6,5.5-14.3,10.5-18.7c9.4-8.2,23-9.3,33.9-9.3h0.6c10.9,0,21.8,0.8,32.5,2.3c3.9,0.6,17,3,23,11.9
	c1.7,2.4,2.7,5.4,3.6,7.9c3.7,11.6,3.7,21.2-0.1,28.7c-0.9,1.9-1.9,3.1-3.1,3.9c-1.6,1.1-3.7,1.3-5.9,1.5
	C228.4,503.7,222.1,503.9,214.8,503.9z"/>
<g>
	<path class="st2" d="M202.3,329.9c-11.1,0-22.3-0.5-33.4-1.6l-3.8-0.4l0.1-3.8c0.3-6.5,0.5-13,0.8-19.5l0.2-4.3l4.3,0.5
		c14.5,1.7,29.2,2.2,41.8,2.6c5.7,0.2,11.6,0.3,17.3,0.4l3.9,0.1l0,3.9c0,5.6,0,11.3-0.1,17l0,3.6l-3.6,0.3
		C220.8,329.5,211.5,329.9,202.3,329.9z"/>
	<path class="st2" d="M199.6,369c-10.6,0-21.4-0.5-31.9-1.4l-3.7-0.3l0.1-3.8c0.3-10,0.6-19.9,0.9-29.3l0.2-4.2l4.2,0.4
		c10.8,1.1,21.9,1.6,32.9,1.6c8.9,0,17.9-0.4,26.8-1.1l4.4-0.3l-0.1,4.4c-0.2,9.8-0.4,19.6-0.8,29l-0.1,3.6l-3.5,0.3
		C219.2,368.6,209.4,369,199.6,369z"/>
	<path class="st2" d="M201.2,410.5c-11.5,0-23.1-0.7-34.5-2.1l-3.6-0.4l0.1-3.6c0.2-10.6,0.4-21,0.6-30.8l0.1-4.3l4.2,0.4
		c10.6,0.9,21.2,1.4,31.5,1.4c9.2,0,18.7-0.4,28.3-1.1l4.5-0.4l-0.2,4.5c-0.4,10.2-1,20.9-1.6,31.5l-0.2,3.4l-3.4,0.3
		C218.4,410.1,209.8,410.5,201.2,410.5z"/>
	<path class="st2" d="M222.7,448.4c-2.4-0.6-4.4-1-5.7-1.2c-10.8-1.5-21.9-2.3-33.2-2.3h-0.2c-4.4,0-10.2,0.2-16,1.3l-4.7,0.9l0-4.8
		c0-8.9,0.1-17.9,0.2-27.7l0.1-4.5l4.4,0.5c11.1,1.3,22.4,2,33.6,2c8,0,16.2-0.4,24.4-1.1l4.6-0.4l-0.3,4.7
		c-0.6,9.5-1.4,19.2-2.2,29.1l-0.4,4.7L222.7,448.4z"/>
	<path class="st2" d="M123.9,248.6c-6.8-6.3-13.4-13-19.7-19.7l-2.2-2.4l1.9-2.7c1.5-2.1,3.1-4.2,4.8-6.3
		c9.8-12.1,21.7-21.6,34.3-27.5l6.2-2.9l-0.6,6.9c-1,11.5-1.6,23.6-2,37.3l-0.1,2.3c0,0-2.2,1.2-2.2,1.2
		c-5.2,3.9-10.2,8.4-14.6,13.5l-2.7,3.1L123.9,248.6z"/>
</g>
<path class="st1" d="M57.6,405.4c-2.1-12-2.1-22.1,0-31c2.6-11.1,8.8-20.5,17.1-25.8c3.7-2.4,8.2-4.2,13.7-5.6c5.1-1.3,10-2,14.6-2
	c0.9,0,1.8,0,2.7,0.1c6.3,0.4,17.5,2,21.9,8.4c3.9,5.8,6.9,14.8,7.7,22.9c0.8,8.2-0.4,16.5-1.5,22.9l-0.5,2.8l-74.9,11L57.6,405.4z"
	/>
<path class="st2" d="M108.5,276.7c-0.1,0-0.2,0-0.3-0.1L80,272.9l1.6-4.6c1.1-3.2,2.2-6.1,3.3-8.9c4-10,8.3-18.8,13.1-26.7l2.7-4.5
	l3.6,3.8c6.1,6.5,12.4,12.7,18.6,18.5l2.6,2.4l-2.1,2.9c-4.2,5.8-7.8,12.1-10.6,18.5l-1.3,3L108.5,276.7z"/>
<path class="st2" d="M93,314.3c-5.4,0-10.8-0.1-16.1-0.4l-4-0.2l0.2-4c0.4-9.9,2.2-20.6,5.3-31.5l0.9-3.3L111,279l-1.4,4.6
	c-2.7,8.6-4.2,17.6-4.5,26.8l-0.1,3.8l-3.8,0.1C98.5,314.3,95.7,314.3,93,314.3z"/>
<path class="st2" d="M76.8,340.2c-1.9-6.3-3.1-13-3.5-20l-0.3-4.5l4.5,0.2c5.4,0.3,10.6,0.4,15.6,0.4c2.7,0,5.5-0.1,8.1-0.1l3.8-0.1
	l0.3,3.8c0.3,4.8,1,9.5,2,14.2l1.1,4.9l-5.4,0c-4.8,0-9.8,0.7-15.1,2c-2.2,0.6-4.1,1.1-5.9,1.8l-4,1.4L76.8,340.2z"/>
<path class="st5" d="M238,89.4c3.3-9.5,1.4-20.4-4.9-27.9c-6.7-7.9-16.5-11.2-27-9.2c-11.4,2.2-21,10.5-24.5,21.1
	c-1.9,5.7-2.1,11.7-0.5,17.1c2.1,7.2,7.6,13.5,14.6,16.8c3.9,1.8,8.3,2.8,12.7,2.8c3.1,0,6.1-0.4,9.1-1.3
	C227,105.8,234.8,98.4,238,89.4z M228.5,86.1c-2.1,6.1-7.5,11-13.9,13c-4.9,1.5-10.3,1.2-14.6-0.9c-4.5-2.1-7.9-6-9.2-10.5
	c-1-3.4-0.9-7.3,0.4-11.1v0c2.4-7.2,9-12.8,16.8-14.4c6.8-1.3,13.2,0.8,17.4,5.8C229.4,72.7,230.7,80,228.5,86.1z"/>
<path class="st5" d="M281.6,107.2c3.9,1.8,8.3,2.8,12.7,2.8c3.1,0,6.1-0.4,9.1-1.3c9.4-2.9,17.3-10.2,20.5-19.3
	c3.4-9.5,1.4-20.4-4.9-27.9c-6.7-7.9-16.5-11.2-27-9.2c-11.4,2.2-21,10.5-24.5,21.1c-1.9,5.7-2.1,11.7-0.5,17.1
	C269.1,97.7,274.6,103.9,281.6,107.2z M277,76.6c2.4-7.2,9-12.8,16.8-14.4c1.3-0.3,2.6-0.4,3.9-0.4c5.3,0,10.1,2.2,13.5,6.2
	c4,4.7,5.3,12,3.1,18.1c-2.1,6.1-7.5,11-13.9,13c-4.9,1.5-10.3,1.2-14.6-0.9c-4.5-2.1-7.9-6-9.2-10.5
	C275.7,84.3,275.8,80.3,277,76.6z"/>
<path class="st5" d="M278.3,123.3c2.8-0.1,4.9-2.4,4.8-5.2c-0.1-2.7-2.3-4.8-5-4.8c-0.1,0-0.1,0-0.2,0c-16.8,0.6-33.7,0.3-50.4-0.9
	c-2.8-0.2-5.2,1.9-5.4,4.7c-0.2,2.8,1.9,5.2,4.7,5.4c11.5,0.8,23.1,1.2,34.6,1.2C267.1,123.6,272.7,123.5,278.3,123.3z"/>
<path class="st5" d="M460.2,379.8c-3.1-11.8-10.1-22.2-19.9-29.3c-3-2.2-6.2-4-9.6-5.5c12.2-22.4,11-48,7.9-65.6
	c-5.3-29.8-19.3-55.8-39.4-73.2c-12.6-10.9-28.7-19.6-49.3-26.5c-0.9-4.2-2.3-8.3-4.9-11.9c-6.7-9.2-17.7-8.9-25.9-8.7
	c-5.4,0.1-11,0-16.5-0.2c0.4-4.4,0.8-8.9,1-13.3c3.4-0.3,6.8-0.7,10.2-1.1c7-0.9,15-2.3,21.7-7c8.8-6.2,13.9-17,15.7-33
	c1.6-14.7,1-29.5-2-43.9c-1.1-5.4-2.7-11.7-6.2-17.4c-4.6-7.4-12.5-13.1-22.1-16.1c-6.9-2.1-13.4-2.1-19.7-2c-2.1,0-4.3,0-6.5-0.1
	c-0.1,0-0.2,0-0.2,0c-1.5-6.7-5.9-13-12.3-17.4c-5.2-3.6-11.8-6-19.5-7.1c-18-2.6-36.1,3.1-47.4,14.8c-3.4,3.6-6,7.4-7.6,11.4
	c-5.1,0.6-10.1,1.3-15,2.1c-10.1,1.7-20.3,4.4-27.2,12.3c-5.6,6.5-7.4,14.9-8.4,22.4c-2.3,16.6-2.2,33.5,0.4,50.1
	c0.7,4.4,1.6,9.4,4.5,13.8c4.9,7.5,13.8,10.6,20.9,12.4c6.5,1.7,13.1,2.9,19.7,3.8l-0.2,14.8v0c-10.8,0.4-21.1,1.1-31.2,1.9
	c-4.7,0.4-11.9,1-17.3,5.4c-5.5,4.4-7.5,11.3-8.4,16.8c-0.5,0-1.1,0.1-1.6,0.3c-14.8,6.1-28.7,16.7-40.1,30.8
	c-9.6,11.8-17.6,26-24.6,43.4c-13,32.4-15.7,61.2-8,85.7c0.1,0.2,0.2,0.4,0.2,0.6c-0.1,0-0.1,0.1-0.2,0.1
	c-9.5,6.1-16.7,16.9-19.7,29.5c-2.3,9.9-2.3,21.1,0.1,34.3c0.2,1.3,0.7,3.9,3,5.8c1.8,1.5,3.8,1.8,5.4,1.8c0.9,0,1.8-0.1,2.3-0.2
	l69.1-10.1c1.2-0.2,3.8-0.6,5.7-2.6c1.7-1.8,2-3.9,2.2-5c1.3-7.4,2.5-16.2,1.7-25.1c-0.9-9.2-4.2-19.1-8.7-25.7
	c-4-5.9-11.4-8.8-18.5-10.1c-4.5-17.3-3.8-36,2-52.9c5.2-14.9,14.4-28.5,26.2-39c-0.3,13.9-0.3,27.7-0.3,41.3c0,3,0,7.5,2.7,11.2
	c3.4,4.7,9.2,5.7,12.3,6.2c1.1,0.2,2.2,0.3,3.3,0.5c-2.1,47-3.3,94.6-3.4,141.6c-3.9,1.6-7.7,3.7-11.1,6.7
	c-6.1,5.3-10.4,12.9-12.4,21.9c-1.6,7-1.8,14.8-0.7,24c0.1,1.1,0.4,3.1,1.7,4.9c1.6,2.2,3.8,3,5.5,3.5c5,1.4,10.1,1.7,14.5,1.9
	c14,0.7,28.1,1.2,42,1.7c6.2,0.2,12.3,0.4,18.4,0.4c6.7,0,13.3-0.2,19.9-0.8c2.1-0.2,5.7-0.5,8.7-2.5c2.7-1.8,4.2-4.4,5.1-6.2
	c1.2-2.3,2.1-4.9,2.7-7.5c0.5,3.4,1.6,6.6,3,9.5c0.9,1.8,2.4,4.4,5.1,6.2c3,2,6.6,2.3,8.7,2.5c6.6,0.6,13.3,0.8,19.9,0.8
	c6.1,0,12.2-0.2,18.4-0.4c13.9-0.4,28.1-1,42-1.7c4.5-0.2,9.6-0.5,14.5-1.9c1.8-0.5,4-1.3,5.5-3.5c1.3-1.8,1.5-3.8,1.7-4.9
	c1.1-9.2,0.8-17-0.7-24c-2-9-6.3-16.5-12.4-21.9c-3.4-2.9-7.1-5.1-11.1-6.7c-0.2-46.6-1.3-93.8-3.4-140.4c2.3-0.2,5.1-0.9,7.4-2.8
	c4.6-3.8,4.8-9.8,4.9-13.1c0.4-18.2,0.6-37.2,0-56.5c7.2,4.2,13.8,10.2,19.4,17.8c6.2,8.3,11.3,18.5,15.8,31.3
	c4.5,12.9,6.5,23.4,6.3,33c-0.2,9.4-2.5,18.8-6.7,27.2c-0.1,0.2-0.2,0.5-0.3,0.7c-1.8,0.8-3.5,1.7-5.1,2.7
	c-4.3,2.7-8.3,6.5-11.8,11.3c-6.2,8.5-10,19-10.6,29.5c-0.1,1.2-0.2,4.4,2,6.8c1.6,1.8,3.8,2.4,4.9,2.7c23.6,6,48,12.2,72.8,14.6
	c0.9,0.1,2.1,0.2,3.3,0.2c1.5,0,3.2-0.2,4.9-0.7c7.9-2.7,9.2-10.4,10-15.5l0.2-1.3C461,389.8,461.8,385.6,460.2,379.8z M401.9,341
	c2.9-7.8,4.5-16,4.6-24.3c0-0.5,0-1,0-1.6c7.8-0.6,15.6-0.8,23.4-0.5c-1.2,9.1-3.8,18.4-8.8,27.1c0,0,0,0.1-0.1,0.1
	C414.8,340.4,408.3,340.1,401.9,341z M428.8,281.1c1.2,6.8,2.1,14.9,1.9,23.5c-8.2-0.3-16.6-0.1-24.8,0.5c-1-7.6-3-15.7-6.2-24.9
	c-0.2-0.7-0.5-1.4-0.7-2.1c9.1-2.8,18.4-4.9,27.8-6.3C427.5,274.8,428.2,278,428.8,281.1z M222.8,22.4c9.1-9.4,24-14,38.8-11.9
	c6.1,0.9,11.2,2.7,15.2,5.4c3.4,2.3,5.9,5.4,7.3,8.7c-17.8-0.5-36.4-0.8-55,0.3c-3.1,0.2-6.1,0.4-9,0.6
	C220.9,24.5,221.8,23.4,222.8,22.4z M170.6,122c-1.8-2.7-2.5-6.3-3-9.8c-2.4-15.6-2.5-31.5-0.3-47.1c0.9-6.3,2.2-12.8,6.1-17.2
	c4.8-5.5,13-7.6,21.3-9c11-1.9,22.4-3.1,35.1-3.8c22-1.2,44.1-0.7,64.9,0.1c2.3,0.1,4.6,0.1,6.8,0.1c5.8,0,11.4-0.1,16.8,1.6
	c7.3,2.2,13.2,6.4,16.5,11.8c2.7,4.3,4,9.5,4.9,14.1c2.7,13.5,3.3,27.2,1.8,40.8c-1.4,13-5.2,21.5-11.5,26
	c-4.8,3.4-11.4,4.5-17.2,5.2c-23.6,3.1-47.9,2.7-68.8,2c-20-0.6-39.4-1.5-58.3-6.4C179.9,128.7,173.6,126.6,170.6,122z M243.6,146.6
	c8,0.2,16.4,0.4,25.2,0.4c8.1,0,16.5-0.2,24.9-0.7c-0.2,4-0.6,8.1-1,12.1c-2.8-0.1-5.7-0.2-8.5-0.3c-28.4-0.6-50.5-0.6-71.1,0
	c-0.1-0.2-0.2-0.4-0.4-0.6l0.1-12.7C223,145.9,233.2,146.3,243.6,146.6z M101,310.2c-7.9,0.2-15.9,0.1-23.9-0.3
	c0.4-9.6,2.1-19.9,5.2-30.6l23.4,3C102.9,291.4,101.3,300.8,101,310.2z M77.3,320c5.3,0.2,10.5,0.4,15.8,0.4c2.7,0,5.4,0,8.1-0.1
	c0.3,5,1.1,9.9,2.1,14.8c-5.2,0-10.7,0.7-16.5,2.1c-2.2,0.6-4.3,1.2-6.3,1.9C78.8,333,77.7,326.6,77.3,320z M124.2,351.8
	c3.6,5.3,6.3,13.6,7,21.1c0.7,7.5-0.3,15.2-1.5,21.8l-68.1,10c-2-11.4-2-21-0.1-29.4c2.4-10.1,8-18.6,15.3-23.3
	c3.3-2.1,7.5-3.8,12.6-5.1c4.8-1.2,9.3-1.8,13.6-1.8c0.8,0,1.7,0,2.5,0.1C114.7,345.7,121.7,348.2,124.2,351.8z M109.3,272.8
	c-0.1,0-0.3-0.1-0.4-0.1l-23.4-3.1c1-2.9,2.1-5.8,3.2-8.7c3.9-9.8,8.2-18.4,12.8-26.1c6.1,6.4,12.4,12.7,18.8,18.7
	C115.9,259.5,112.2,266,109.3,272.8z M141.9,231.6c-5.6,4.1-10.7,8.9-15.3,14.1c-6.7-6.2-13.2-12.8-19.5-19.5c1.5-2.1,3-4.1,4.6-6.1
	c9.5-11.7,20.8-20.8,32.8-26.4c-1,12.5-1.7,25-2,37.5C142.3,231.3,142.1,231.4,141.9,231.6z M212.3,307.4c5.8,0.2,11.5,0.3,17.3,0.4
	c0,5.6-0.1,11.3-0.1,16.9c-20,1.6-40.2,1.5-60.2-0.5c0.3-6.5,0.5-13,0.8-19.4C184.5,306.5,198.8,307,212.3,307.4z M228.6,363.8
	c-20.1,1.6-40.4,1.6-60.5-0.2c0.3-9.8,0.6-19.5,0.9-29.3c11.1,1.1,22.2,1.6,33.3,1.6c9,0,18.1-0.4,27.1-1.1
	C229.2,344.5,228.9,354.1,228.6,363.8z M167.8,373.6c10.6,0.9,21.2,1.4,31.8,1.4c9.5,0,19.1-0.4,28.6-1.1c-0.4,10.5-1,21-1.6,31.5
	c-19.7,1.8-39.7,1.5-59.4-0.9C167.3,394.2,167.5,383.9,167.8,373.6z M167.1,414.6c11.3,1.3,22.7,2,34.1,2c8.3,0,16.5-0.4,24.8-1.1
	c-0.7,9.7-1.4,19.4-2.2,29c-2.5-0.6-4.6-1-6.1-1.2c-11.2-1.6-22.6-2.4-34-2.4c-5.2,0-11,0.3-16.8,1.3
	C166.9,433,166.9,423.8,167.1,414.6z M239.6,495.9c-0.6,1.2-1.2,2-1.8,2.4c-0.8,0.6-2.4,0.7-4,0.9c-12.1,1.1-24.5,0.8-37.2,0.4
	c-13.9-0.4-28-1-41.9-1.7c-4.1-0.2-8.4-0.4-12.3-1.5c-0.9-8-0.7-14.7,0.6-20.5c1.5-6.8,4.8-12.7,9.2-16.6c8.4-7.3,21.1-8.3,31.3-8.3
	c10.9,0,21.8,0.7,32.5,2.2c7.1,1,16.2,4.2,20.3,10.2c1.4,2,2.3,4.6,3,6.8C242.9,480.7,242.9,489.4,239.6,495.9z M258.1,459.7
	c-2.1,3.1-3.4,6.5-4.3,9.5c-1,3-1.7,5.9-2.2,8.8c-0.5-3.4-1.3-7-2.5-10.8c-0.9-2.9-2.2-6.3-4.3-9.5c-2.9-4.3-7-7.3-11.2-9.5
	c4-46.4,6.1-93.6,6.2-140.2c7.8,0.1,15.6,0.2,23.4,0.2c0,0.2-0.1,0.4-0.1,0.6c0.1,47,2.2,94.6,6.3,141.4
	C265.2,452.4,261.1,455.4,258.1,459.7z M334.8,365.6c-20.1,1.8-40.4,1.9-60.5,0.2c-0.4-9.7-0.6-19.3-0.8-29c9,0.7,18,1.1,27.1,1.1
	c11.1,0,22.3-0.5,33.3-1.6C334.2,346.1,334.5,355.9,334.8,365.6z M274.6,375.9c9.5,0.7,19,1.1,28.6,1.1c10.6,0,21.2-0.5,31.8-1.4
	c0.2,10.3,0.4,20.5,0.6,30.8c-19.7,2.4-39.6,2.7-59.4,0.9C275.6,396.9,275.1,386.4,274.6,375.9z M332.7,307.1
	c0.3,6.4,0.5,12.8,0.8,19.2c-20,2-40.2,2.1-60.2,0.5c-0.1-6-0.1-12-0.1-18c0-0.2,0-0.4-0.1-0.5C293,308.2,312.9,307.8,332.7,307.1z
	 M359.7,477.9c1.3,5.8,1.5,12.5,0.6,20.5c-3.9,1.1-8.1,1.3-12.3,1.5c-13.9,0.7-28,1.2-41.9,1.7c-12.7,0.4-25.1,0.7-37.2-0.4
	c-1.6-0.1-3.2-0.3-4-0.9c-0.6-0.4-1.1-1.2-1.8-2.4c-3.3-6.5-3.3-15.2,0.1-25.7c0.7-2.2,1.6-4.8,3-6.8c4.1-5.9,13.2-9.1,20.3-10.2
	c10.5-1.5,21.2-2.2,32-2.2c0.2,0,0.4,0,0.6,0c10.2,0,22.9,1,31.3,8.3C354.9,465.2,358.2,471.1,359.7,477.9z M319.3,443
	c-11.3,0-22.8,0.8-34,2.4c-1.5,0.2-3.7,0.6-6.1,1.2c-0.8-9.6-1.6-19.3-2.2-29c8.2,0.7,16.5,1.1,24.8,1.1c11.4,0,22.8-0.7,34.1-2
	c0.1,9.2,0.2,18.5,0.2,27.7C330.2,443.2,324.5,443,319.3,443z M344.9,290.6c0,1.3-0.1,4.7-1.1,5.5c-0.7,0.6-2.9,0.7-4.1,0.7
	c-42.1,1.6-84.9,1.8-127,0.6c-17.4-0.5-35.9-1.3-54-4.3c-1.6-0.3-4.9-0.8-5.9-2.2c-0.8-1.1-0.8-3.5-0.8-5.3
	c0.1-31.8,0.1-64.6,3.1-96.7c0.5-5.8,1.4-12.2,5.3-15.3c2.8-2.3,7.2-2.8,11.9-3.2c12.6-1,25.6-1.8,39.6-2.2
	c20.9-0.7,43.1-0.7,72.1,0c4,0.1,8.2,0.3,12.1,0.4c7.6,0.3,15.5,0.6,23.4,0.4c8.4-0.2,14.1,0,17.4,4.6c2.6,3.6,3.5,8.7,4.2,14
	C345.8,222.6,345.7,257.8,344.9,290.6z M354.4,222.8c-0.6-10.6-1.4-21.2-2.7-31.9c17,6.2,30.4,13.7,41,22.8c2.5,2.1,4.8,4.4,7.1,6.8
	c-8.4,5.4-16.5,11.2-24.3,17.4C369.1,231.4,362,226.3,354.4,222.8z M382,245.6c7.8-6.1,15.9-11.9,24.3-17.3
	c7.4,9.8,13.4,21.2,17.6,33.7c-9.7,1.6-19.3,3.8-28.7,6.7c-3.8-8.7-8-16.2-12.8-22.6C382.3,246,382.1,245.8,382,245.6z M450.3,393.1
	l0,0.1c-0.1,0.4-0.1,0.8-0.2,1.2c-0.8,5-1.4,6.9-3.3,7.5c-0.9,0.3-2.3,0.2-4,0c-23.8-2.4-47.6-8.3-70.6-14.2
	c0.6-8.4,3.6-16.7,8.6-23.5c2.7-3.7,5.8-6.7,9-8.7c2.9-1.8,6.3-3.2,10.1-4c11.8-2.7,24.7-0.1,34.5,7.1c7.7,5.6,13.6,14.3,16.1,23.7
	C451.5,386,451,388.7,450.3,393.1z"/>
<path class="st5" d="M299,191.4c-6-1.4-12.4-1.5-18.6-1.6c-2.7-0.1-5.2-0.1-7.6-0.3c-12.9-0.8-23.4-1.2-33.2-1.3
	c-13.5-0.1-25.6,0.4-37.1,1.6c-7.2,0.7-14.5,2.2-19.5,7.7c-3.1,3.4-4.6,7.7-5.7,11.9c-4,14.8-5.2,30.1-3.6,45.4
	c0.4,3.6,1,7.8,3.3,11.5c4,6.5,11.3,9.1,17.3,10.7c20.1,5.2,41.1,5.3,61.3,5.4c3.3,0,6.6,0,9.9,0.1l1.3,0c1.7,0,3.3,0,5,0
	c5.1,0,10.2-0.2,15.4-1.1c8.8-1.6,16.1-5.1,21.2-10.4c6-6.1,9.6-14.9,10.8-26.8C322.4,213.8,315.3,195.1,299,191.4z M309.2,243.1
	c-1,9.6-3.7,16.4-8,20.9c-4.6,4.7-11.1,6.7-15.8,7.5c-5.9,1.1-12,1-18.5,0.9l-1.3,0c-3.3,0-6.6-0.1-10-0.1
	c-19.6-0.1-39.9-0.2-58.8-5.1c-4.1-1.1-9.2-2.8-11.3-6.2c-1.2-2-1.6-4.8-1.9-7.3c-1.4-14-0.3-28.1,3.4-41.7c0.7-2.7,1.7-5.8,3.4-7.7
	c2.9-3.1,8.2-3.9,13.1-4.4c11.1-1.1,22.8-1.7,36-1.6c9.6,0.1,20,0.5,32.7,1.3c2.6,0.2,5.4,0.2,8,0.3c5.7,0.1,11.5,0.2,16.6,1.4
	C311.7,204.6,310.4,231.6,309.2,243.1z"/>
<path class="st0" d="M246.1,217C246.1,217,246.1,217,246.1,217c-12.1,0.2-24.2,0.2-36.2,0.1c0,0,0,0,0,0c-2.8,0-5,2.2-5,5
	c0,2.8,2.2,5,5,5.1c4.6,0,9.2,0.1,13.8,0.1c7.5,0,15.1-0.1,22.6-0.2c2.8,0,5-2.3,4.9-5.1C251.1,219.2,248.9,217,246.1,217z"/>
<path class="st0" d="M244.1,237.4l-37.9-1.1c-2.8-0.1-5.1,2.1-5.2,4.9c-0.1,2.8,2.1,5.1,4.9,5.2l37.9,1.1h0.2c2.7,0,4.9-2.1,5-4.9
	C249.1,239.8,246.9,237.5,244.1,237.4z"/>
</svg>
