<?xml version="1.0" encoding="utf-8"?>
<!-- Generator: Adobe Illustrator 25.2.3, SVG Export Plug-In . SVG Version: 6.00 Build 0)  -->
<svg version="1.1" id="Capa_1" xmlns="http://www.w3.org/2000/svg" xmlns:xlink="http://www.w3.org/1999/xlink" x="0px" y="0px"
	 viewBox="0 0 512 512" style="enable-background:new 0 0 512 512;" xml:space="preserve">
<style type="text/css">
	.st0{fill:#E1B946;}
	.st1{fill:#CC644F;}
	.st2{fill:#8CBEA3;}
	.st3{fill:#282828;}
</style>
<path class="st0" d="M119.5,427c-5.8-1.7-11-3.4-16-5.2l-0.2-0.1c-1.4-0.5-2.8-1-4.3-1.6l-4.5-1.7l2.4-4.1
	c15.3-26,25.6-49.7,31.5-72.4c7.3-28,7.9-55.7,1.7-80.1c-2.4-9.6-6.2-20-11.9-32.5c-3.5-7.7-7.4-15.6-11.6-23.5l-2.3-4.2l4.5-1.5
	c3.1-1,5.9-2.4,8.4-3.9c12.9-8.1,19.8-24,16.4-37.8c-0.1-0.5-0.6-0.8-1-0.8c-0.1,0-0.2,0-0.2,0c-0.5,0.1-0.9,0.7-0.7,1.2
	c3.2,13-3.4,28-15.5,35.6c-6.2,3.9-13.7,5.9-21.6,5.9c-6.2,0-12.6-1.3-18.4-3.8l-0.3-0.1c-1.1-0.5-2.4-1-3.7-1h-0.1
	c-1.2,0-2.4,0.4-3.6,1.1l-4.8,3.1l-1.3-5.5c-0.1-0.3-0.1-0.7-0.2-1c-1.9-8.3-5.3-15.2-10-20.7c-3.7-4.2-8.2-7.4-13.2-9.3l-5.6-2.1
	l4.1-4.4c3.3-3.5,6.3-7.3,8.8-11.2c1.7-2.6,3.2-5.2,4.7-7.8l0.1-0.1c2.7-4.6,5.2-8.9,8.4-12.9c9.4-11.4,23.6-17.9,36.1-23.6
	c4.3-2,9.2-4.2,14.2-5.1l5.8-1l-1.2,5.8c-0.9,4.3-1.4,8.7-1.6,13c0,0.6,0.4,1,1,1.1c0.6,0,1-0.4,1.1-1c0.7-17.6,7.8-35.2,19.4-48.4
	c10.1-11.5,24-19.9,39-23.8l5.4-1.4l-0.4,5.6c-0.8,10.6-2.3,24.4-6.9,37.2c-5.4,15.4-14.7,27.7-26.2,34.5c-6.1,3.6-13,5.9-18.9,7.7
	c-0.3,0.1-0.5,0.3-0.6,0.5s-0.2,0.4-0.1,0.8c0.1,0.5,0.6,0.7,1,0.7c0.1,0,0.2,0,0.3,0c4-1.2,9.3-2.8,14.3-5.2l4.6-2.1l1,4.9
	c5.8,27.6,23.9,53.4,49.8,70.8l1.7,1.1l0.1,2.1c0,0,0,0.1,0,0.2c3.5,13.8,0.6,27.6-2.5,42.2v0.1c-1.5,7.2-3.1,14.6-3.8,22
	c-0.4,4.8-0.8,11.8,1.8,18c3.3,8.1,11.1,14.6,23.1,19.2c13.2,5.1,28.2,7.7,47.2,8.1c1.3,0,2.7,0,4,0c23.8,0,40.9-5.2,52.3-15.9
	c9.4-8.8,15.2-21.8,16.5-36.6c1-11.5-0.8-23.9-5.3-38.1l-1.3-4.1l4.2-1c4.8-1.1,9.6-2.4,14.2-3.5c10.9-2.8,22.2-5.6,33.5-7.5
	c8.4-1.4,16.5-2.1,24-2.1c14.9,0,28.1,2.8,39.1,8.3c18.5,9.2,33.8,27.2,47,54.9c5,10.5,9.5,21.8,9,33.7c-0.3,6.9-2.3,13.5-4.3,20.4
	l-0.1,0.3c-1.5,4.8-3,9.8-3.8,14.9c-1.6,9.6,0.3,19.5,4.9,25.9l4.3,5.9l-7.2,0.5c-1.6,0.1-3.2,0.2-4.7,0.2
	c-10.3,0-18.8-2.4-25.3-7.2c-9.8-7.3-15.6-20.1-17.6-39.1c-0.4-3.4-0.7-7.1-0.9-10.3c-0.9-11.5-1.9-23.5-6.6-34.2
	c-7.5-17.1-29.4-37.2-66.5-37.2c-1.8,0-3.6,0.1-5.4,0.2c-0.4,0-0.8,0.3-0.9,0.7s0,0.8,0.3,1.1c7,6,15.8,14.2,21.3,24.7
	s6.8,21.9,3.4,31.3c-1,2.9-2.5,5.6-3.9,8.2c-2.3,4.3-4.6,8.7-5.2,13.7c-1.3,10.2,5.2,20.3,9.5,26.9l47.1,72.5l-5.1,1.6
	c-9.2,2.9-18.8,5.5-28.3,8l-3,0.8l-1.5-2.7c-3.6-6.5-6.9-12.6-10.8-19.9c-3.6-6.8-7.5-14-11.8-21.7c-4.9-8.8-10.1-18-15.9-26.7
	c-3.1-4.6-6.6-9.4-11.3-12.8c-7.2-5.3-15.9-6.4-21.8-6.4c-0.5,0-1.1,0-1.6,0c-7.7,0.2-15.5,2.2-22.5,5.7c-3,1.5-5.8,3.2-8.6,5
	c-4.4,2.8-8.6,5.3-13.4,7c-3.7,1.2-7.7,1.9-12,1.9c-10.4,0-20.6-3.6-27.4-6.4c-2.5-1-5.2-2.1-7.6-3.2c-10.1-4.3-20.6-8.7-31.8-9.6
	c-1.3-0.1-2.6-0.2-4-0.2c-19.2,0-38.8,10.6-52.5,28.3c-14.2,18.3-20.6,41.2-24.5,59l-0.9,4.2L119.5,427z M73.1,140.4
	c-0.1,0-0.2,0-0.3,0c-0.5,0.2-0.8,0.7-0.7,1.3c1.3,4.7,5.5,8.4,10.3,9.3c0.7,0.1,1.4,0.2,2.1,0.2c4.2,0,8.3-2.1,10.7-5.4
	c0.3-0.4,0.2-1.1-0.2-1.4c-0.2-0.1-0.4-0.2-0.6-0.2s-0.6,0-0.8,0.4c-2,2.8-5.5,4.6-9,4.6c-0.6,0-1.2-0.1-1.8-0.2
	c-4.1-0.7-7.6-3.9-8.7-7.9C73.9,140.6,73.5,140.4,73.1,140.4z"/>
<path class="st1" d="M266,488.8c-41.6,0-83.1-4.9-123.1-14.6c-36.1-8.7-61.3-19.3-81.8-34.3c-7.3-5.4-15.7-13.8-14-23.3
	c1-5.2,5.3-9.6,10.4-10.8c0.8-0.2,1.7-0.3,2.6-0.3c4.4,0,8.3,2.3,12.4,4.7l0.2,0.1c1.2,0.7,2.5,1.5,3.8,2.2
	c9.2,4.7,18.8,8.4,26.1,11c17.1,6.1,35.3,10.9,55.7,14.6c10.4,1.9,21.1,3.4,32.8,4.7c21.6,2.4,43.8,3.6,65.8,3.6
	c63.1,0,125.1-9.7,184.5-28.7c3.2-1,6.5-2.1,9.7-3.2c5.3-1.7,10-3.3,14.9-4.8c3-0.9,6.1-1.8,9.1-1.8c1.4,0,2.7,0.2,3.9,0.6
	c5.5,1.8,9.9,9.1,7.8,17.3c-1.5,5.9-5.9,11.3-13.2,16.7c-11.9,8.8-26.1,14.2-39.7,18.8c-46.4,15.6-95.1,24.6-144.7,26.8
	C281.6,488.6,273.7,488.8,266,488.8z"/>
<path class="st2" d="M268.2,306.8c-1.3,0-2.6,0-3.9,0c-18.8-0.4-33.6-3-46.6-8c-11.5-4.4-18.9-10.5-22-18.1
	c-1.8-4.5-2.4-9.7-1.7-17.1c0.7-7.2,2.2-14.5,3.7-21.6v-0.2c2.5-11.6,5-23.7,3.8-35.4l-0.8-7.5l6.6,3.5c1.6,0.9,3.1,1.6,4.5,2.3
	c3.1,1.5,6.4,3,9.8,4.3l3.1,1.2l-0.6,3.2c-1.7,9.4-3.3,19.4-2.6,29.5c0.9,12.6,5.6,23.3,13.2,30.2c6.1,5.5,14.7,9.1,25.6,10.7
	c3.6,0.5,7,0.8,10.1,0.8c4.5,0,8.5-0.5,12.4-1.6c8-2.1,14.6-6.6,18.6-12.6c2.8-4.1,4.6-9.2,5.8-16c1.8-10.3,1.5-21.2-0.9-31.5
	c0-0.1-0.1-0.3-0.1-0.5l-0.8-4.1l4.2-0.6c2.9-0.4,5.8-0.9,8.9-1.4c2.2-0.4,4.2-0.8,6.1-1.2l3.5-0.8l1.1,3.4
	c4.6,14.3,6.4,26.8,5.5,38.2c-1.2,14.3-6.8,26.8-15.8,35.3C308.1,301.8,291.4,306.8,268.2,306.8z"/>
<path class="st1" d="M270.7,282.7c-3.1,0-6.4-0.3-9.8-0.8c-10.5-1.6-18.7-5-24.5-10.2c-7.2-6.5-11.7-16.7-12.5-28.8
	c-0.7-9.2,0.7-18.6,2.3-27.4l0.8-4.5l4.4,1.4c15.7,5,32.6,7.5,50.5,7.5c6,0,12.3-0.3,18.5-0.9l4.5-0.4l-0.1,4.5c0,0.1,0,0.2,0,0.3
	c2.3,10,2.6,20.7,0.9,30.8c-1.1,6.5-2.8,11.3-5.4,15.2c-3.8,5.6-10,9.8-17.5,11.8C278.8,282.2,274.9,282.7,270.7,282.7z"/>
<path class="st1" d="M227,208.8c-4.9-1.7-9.6-3.7-14-5.8c-33.9-16.5-58.7-47.5-64.7-80.9l-0.1-0.2v-0.1c-0.9-3.1,1.3-4.7,5.6-8
	c0.3-0.2,0.5-0.4,0.6-0.4c2.8-2.4,5.9-3.9,8.9-5.1l2-0.8c1-0.4,1.9-0.8,2.9-1.2c3.2-1.4,6.5-2.9,10.5-3.5c0.9-0.1,2-0.3,3.1-0.3
	c0.9,0,1.7,0.1,2.5,0.3c4.3,1.2,6.4,6.3,6.3,10.4c-0.2,4.7-2.6,9.2-4.7,13.1c-0.2,0.4-0.1,0.8,0.1,1.1c0.2,0.2,0.5,0.4,0.8,0.4
	c0.1,0,0.2,0,0.3-0.1c3.8-1.3,7.7-2.6,11.6-2.6c4.2,0,8,1.8,9.8,4.6c1.6,2.5,2,6.1,0.8,9.6c-1.1,3.4-3.3,6.5-5.3,9.1
	c-0.3,0.4-0.3,0.9,0,1.2c0.2,0.3,0.5,0.4,0.8,0.4c0.1,0,0.3,0,0.4-0.1c2.9-1.1,6.2-2.4,9.5-2.4c3.4,0,6.5,1.5,7.7,3.9
	c1.6,3.1,0.2,7-0.8,9c-0.5,1.1-1.2,2.2-1.8,3.3c-1.1,1.9-2.2,3.8-3,6c-0.1,0.4,0,0.8,0.3,1.1c0.2,0.1,0.4,0.2,0.6,0.2
	c0.2,0,0.3,0,0.5-0.1c3.5-1.9,7.5-3,11-3c3.1,0,5.8,0.8,8,2.3c6.2,4.2,7.2,12.8,5.4,19.1c-2,7.1-6.9,13.2-11.3,18.5l-1.8,2.2
	L227,208.8z"/>
<path class="st0" d="M101.6,91.9c-1.3-5-1.2-10.9,0.3-17.5c4.8-22.1,21.8-41.2,43.4-48.7l4.7-1.6l2.7,23.8l-2.2,1.3
	c-6.7,4.1-12.7,9.2-17.8,15c-6.9,7.9-12.2,16.9-15.6,26.9l-1.1,3.2l-3.3-0.5h-0.2c-1.9,0.1-3.9,0.5-6,1l-3.9,1.1L101.6,91.9z"/>
<path class="st1" d="M35.8,206.3c2.8-3.6,4-8,3.4-12.2c-0.1-0.5-0.5-0.9-1-0.9c-0.1,0-0.1,0-0.2,0c-0.3,0.1-0.6,0.2-0.7,0.4
	c-0.1,0.2-0.2,0.4-0.2,0.8c0.9,6-2.7,12.4-8.3,14.9l-1.9,0.8l-1.8-1.1c-7.3-4.4-12.9-12.3-17.9-20.1c-0.1-0.2-0.3-0.5-0.5-0.8
	l-1.1-2l1.2-2c0.1-0.1,0.2-0.3,0.3-0.4l0.1-0.2c3.9-5.6,9.4-9.6,15.2-13.8c2.4-1.8,4.6-3.3,6.7-5l0.1-0.1c0.1-0.1,0.2-0.2,0.3-0.2
	l1.3-0.9l1.5,0.2c6.7,0.8,13.5,4.5,18.5,10.2c4.5,5.2,7.7,11.8,9.5,19.9c0.6,2.5,1.1,5.5,0.3,8.1l-0.2,1.8l-1.4,1
	c-6.8,5-13.4,7.7-19.8,8l-8.7,0.5L35.8,206.3z"/>
<path class="st3" d="M508.8,359.5c-8.7-3.4-11.5-15.6-9.8-26c0.8-4.7,2.2-9.4,3.7-14.3c2.1-7,4.3-14.3,4.7-22.1
	c0.6-13.3-4.5-25.9-9.5-36.6c-13.7-29-30-47.9-49.7-57.7c-17.8-8.9-40.3-11.2-66.8-6.7c-11.5,1.9-22.9,4.8-34,7.6
	c-9.7,2.5-19.7,5-29.6,6.8c-27.7,5.1-55,4.2-79.1-2.3c4-5,8-10.7,9.9-17.5c2.8-10.1-0.4-20.7-7.9-25.7c-4.1-2.8-8.7-3.6-13.1-3.3
	c2.1-4.9,2.2-9.6,0.2-13.3c-2.3-4.4-7.2-7.1-12.8-7.2c0-0.1,0.1-0.2,0.1-0.3c1.7-5.3,1.1-10.7-1.6-14.8c-3-4.6-8.6-7.3-14.9-7.3
	c-1.1,0-2.1,0.1-3.2,0.2c0.6-1.9,0.9-3.8,1-5.8c0.3-6.6-3.3-14.4-10.6-16.5c-3-0.9-6-0.5-8.3-0.1c-2,0.3-4.1,0.9-6,1.5
	c2.2-4,4.1-8.3,5.7-12.8c5.3-15.3,6.7-31.5,7.6-45.5c0.1-1.5-0.5-3-1.6-4s-2.7-1.5-4.2-1.2c-7.3,1.2-14.3,3.4-21,6.4l-2.1-18.3
	c-0.2-1.4-0.9-2.7-2.1-3.5s-2.7-1.1-4.1-0.8c-26.4,6.4-48,28.5-53.8,55c-1.7,8-1.7,15.1,0,21.3c-1,0.4-1.9,0.9-2.9,1.3
	c-13.2,6-28.1,12.8-38.3,25.3c-3.5,4.3-6.3,9.1-8.9,13.7c-1.5,2.7-3,5.2-4.6,7.6c-4.4,6.7-9.8,12.7-16,17.7c-2,1.6-4.2,3.2-6.4,4.8
	c-5.9,4.3-12.1,8.8-16.6,15.2c-1,1.5-2.2,3.4-2.3,6c0,2.8,1.3,4.9,2.1,6.2c7.4,11.6,16,22.8,29,25.9c1.8,0.4,4,0.7,6.7,0.7
	c7.8,0,19-2.9,31.6-15.1c0.7-0.7,2.1-2.1,2.6-2.2c0.3,0,1,0.3,1.5,0.6l0.3,0.1c8.4,3.6,17.5,4.9,26.2,4c4.6,8.3,8.9,17,12.8,25.6
	c5.5,12.2,9.2,22.2,11.5,31.5c5.9,23.4,5.3,50-1.7,77.1c-5.8,22.5-16.2,46.1-31.6,72.1v0.1c-3.8-1.6-7.7-3.4-11.5-5.3
	c-1.2-0.6-2.5-1.4-3.8-2.1c-5.2-3.1-11.6-6.9-19.3-5.1c-7.5,1.7-13.7,8.1-15.1,15.6c-1.9,10,3.8,20.1,16.3,29.3
	c21.1,15.5,47,26.4,83.9,35.3c40.6,9.8,82.4,14.8,124.5,14.8c7.9,0,15.7-0.2,23.6-0.5c50.1-2.2,99.4-11.3,146.3-27.1
	c14-4.7,28.8-10.4,41.4-19.6c8.5-6.3,13.6-12.8,15.5-20.1c3.1-11.8-3.7-21.9-11.8-24.6c-5.7-1.9-11.4-0.4-16.7,1.2
	c-5,1.6-10.1,3.2-15,4.8c-2,0.7-4,1.3-6,2l-45.7-70.4c-5.1-7.8-9.6-15.4-8.6-22.9c0.5-3.9,2.5-7.6,4.6-11.6c1.5-2.9,3.1-5.8,4.2-9
	c3.9-11,2.5-24.1-3.8-36.1c-3.6-6.8-8.3-12.7-13.1-17.6c27.5,2.2,46.7,17.9,53.4,33.3c4.3,9.8,5.2,20.7,6.1,32.2
	c0.3,3.4,0.6,7,0.9,10.4c2.3,20.8,8.8,35,20.1,43.3c11.1,8.2,26.7,10.4,46.4,6.6c2.2-0.4,3.8-2.2,4-4.5S510.9,360.3,508.8,359.5z
	 M319.5,220.4c2.1-0.4,4.2-0.8,6.2-1.2c4.5,13.7,6.2,25.7,5.3,36.6c-1.1,13.3-6.3,24.9-14.6,32.7c-10.8,10.2-27.8,14.8-52,14.2
	c-18.3-0.4-32.7-2.9-45.2-7.7c-10.4-4-17.1-9.3-19.7-15.9c-1.6-3.9-2-8.5-1.4-15.2c0.7-7,2.2-14.3,3.7-21.4
	c2.5-12,5.1-24.3,3.9-36.7c1.5,0.8,3.1,1.6,4.7,2.4c3.4,1.6,6.7,3.1,10.1,4.4c-1.8,9.9-3.4,20.1-2.7,30.5c1,13.6,6.1,25.3,14.5,32.9
	c6.7,6.1,16,10,27.7,11.7c3.8,0.6,7.3,0.8,10.7,0.8c4.8,0,9.2-0.6,13.4-1.7c8.9-2.4,16.3-7.5,20.9-14.2c3.1-4.6,5.1-10.2,6.4-17.5
	c1.9-10.9,1.5-22.4-0.9-33.2c0-0.1,0-0.1-0.1-0.2C313.5,221.5,316.6,221,319.5,220.4z M300.5,223.1c0,0.4,0,0.8,0.1,1.2
	c2.2,9.5,2.5,19.7,0.8,29.3c-1,5.9-2.5,10.2-4.8,13.6c-3.2,4.8-8.6,8.4-15.2,10.2c-5.8,1.6-12.3,1.8-20.1,0.6
	c-9.7-1.4-17.2-4.5-22.4-9.2c-6.4-5.8-10.4-15.1-11.2-26.1c-0.6-8.7,0.7-17.6,2.2-26.4C255.1,224.2,279.9,225,300.5,223.1z
	 M164.8,111.8c0.7-0.3,1.3-0.6,2-0.8c4.2-1.7,7.9-3.7,12.5-4.5c1.2-0.2,2.7-0.4,3.8-0.1c2.2,0.6,3.5,3.8,3.4,6.4
	c-0.2,3.8-2.2,7.7-4.2,11.4c-1,1.8-0.7,4,0.6,5.6c1.3,1.6,3.5,2.2,5.4,1.5c3.4-1.2,7-2.4,10.3-2.4c2.8,0,5.4,1.1,6.5,2.8
	c1,1.5,1.1,3.8,0.4,6.2c-0.9,2.8-2.9,5.5-4.6,7.8c-1.4,1.8-1.4,4.3,0,6.1s3.7,2.5,5.8,1.7c2.7-1.1,5.5-2.1,8.1-2.2l0,0
	c1.8,0,3.6,0.8,4.1,1.8c0.6,1.1,0.2,3.2-0.8,5.4c-0.5,1-1.1,2-1.7,3.1c-1.2,2-2.5,4.2-3.3,6.7c-0.7,2,0,4.1,1.5,5.4
	c1.6,1.3,3.8,1.5,5.6,0.6c4.1-2.2,10.5-3.8,14.9-0.9c4.4,3,5.2,9.6,3.8,14.7c-1.7,6.2-6.2,11.7-10.5,17c-4.7-1.7-9.2-3.5-13.6-5.7
	c-32.8-15.9-56.7-45.8-62.5-78c0-0.3-0.1-0.5-0.2-0.8c-0.2-0.5,4.4-3.8,4.9-4.2C159.3,114.3,162,113,164.8,111.8z M105.8,75.3
	c4.6-21,20.6-38.7,40.8-45.7l1.9,16.3c-6.9,4.3-13.2,9.6-18.7,15.7c-7.3,8.3-12.9,17.9-16.4,28.2c-0.3,0-0.7-0.1-1,0
	c-2.4,0.1-4.6,0.6-6.9,1.2C104.4,86.5,104.5,81.3,105.8,75.3z M10.6,186.8c-0.1-0.1-0.2-0.4-0.4-0.6c0.1-0.1,0.1-0.2,0.3-0.4
	c3.6-5,8.8-8.8,14.3-12.9c2.2-1.6,4.6-3.3,6.8-5.1c0.1-0.1,0.1-0.1,0.2-0.2c5.8,0.7,11.5,3.9,15.9,8.9c4.1,4.7,7,10.8,8.7,18.1
	c0.5,2,0.9,4.4,0.4,6.2c-0.1,0.2-0.1,0.4-0.1,0.7c-4.7,3.4-10.9,6.9-17.6,7.2c3.3-4.3,5-9.8,4.1-15.2c-0.4-2.7-3-4.6-5.7-4.2
	c-2.7,0.4-4.6,3-4.2,5.7c0.6,4.2-2.1,8.9-6,10.7C20.4,201.5,15.1,193.9,10.6,186.8z M452.5,418.5c4.8-1.6,9.9-3.3,14.8-4.8
	c3.9-1.2,7.6-2.2,10.6-1.2c4.4,1.4,6.4,7.8,5.2,12.5c-1.3,4.9-5.1,9.7-11.7,14.5c-11.5,8.4-25.4,13.7-38.7,18.2
	c-46.1,15.5-94.4,24.5-143.6,26.6s-98.1-2.6-145.3-14c-35.6-8.6-60.3-19-80.4-33.6c-5.2-3.8-13.8-11.5-12.4-19.3
	c0.7-3.6,3.8-6.8,7.4-7.6c0.6-0.1,1.1-0.2,1.7-0.2c3.3,0,6.6,2,10.4,4.2c1.4,0.8,2.8,1.7,4.3,2.4c9.4,4.9,19.1,8.6,26.6,11.3
	c17.2,6.2,35.6,11,56.3,14.7c10.5,1.9,21.3,3.4,33.1,4.8c84.2,9.4,171.3,0.6,251.9-25.2C446,420.6,449.3,419.5,452.5,418.5z
	 M130.3,425.9c3.9-17.5,10-39.7,23.5-57.2c13.4-17.4,33-27.2,51.2-25.8c10.2,0.8,19.7,4.9,29.9,9.2c2.5,1.1,5.1,2.2,7.7,3.2
	c11.3,4.5,28,9.9,43.6,4.6c5.4-1.8,10.1-4.7,14.6-7.5c2.8-1.7,5.4-3.3,8.1-4.7c6.2-3.1,13.1-4.8,20-5.1c5.5-0.2,13.3,0.6,19.7,5.2
	c3.7,2.7,6.6,6.4,9.8,11.2c5.7,8.4,10.7,17.5,15.6,26.2c4.2,7.6,8,14.7,11.7,21.6c3,5.7,6.2,11.5,9.5,17.6
	c-66.3,15.7-135.8,20-203.3,12.5c-11.5-1.3-22.2-2.8-32.4-4.7C149.2,430.4,139.5,428.3,130.3,425.9z M497.4,296.7
	c-0.3,6.5-2.2,12.9-4.2,19.6c-1.5,5-3.1,10.2-4,15.6c-1.6,9.6-0.2,20.9,5.6,28.9c-11.5,0.8-20.6-1.4-27.3-6.3
	c-8.9-6.6-14.1-18.4-16.1-36.3c-0.4-3.3-0.6-6.8-0.9-10.2c-0.9-11.9-1.9-24.1-6.9-35.5c-13-29.7-48.4-41.2-75.8-39.4
	c-2,0.1-3.8,1.5-4.4,3.4s0,4.1,1.5,5.4c6.7,5.8,15.2,13.6,20.3,23.5c5,9.5,6.2,19.8,3.2,28.1c-0.9,2.6-2.2,5.1-3.6,7.7
	c-2.4,4.6-4.9,9.3-5.7,15c-1.5,11.7,5.5,22.5,10.1,29.7l44.2,68.1c-9.3,2.9-18.7,5.5-28.1,7.9c-3.8-6.9-7.4-13.5-10.8-19.8
	c-3.7-6.9-7.6-14.1-11.8-21.8c-5-9-10.2-18.2-16.1-27c-3.3-4.9-7.1-10-12.2-13.8c-8.6-6.3-18.8-7.3-25.9-7.1
	c-8.3,0.3-16.7,2.4-24.1,6.1c-3.1,1.6-6.1,3.4-8.9,5.1c-4.2,2.6-8.3,5.1-12.6,6.6c-12.4,4.2-26.9-0.5-36.6-4.4
	c-2.5-1-5.1-2.1-7.5-3.1c-10.4-4.4-21.2-9-33-9.9c-21.5-1.7-44.4,9.7-59.9,29.7c-14.6,18.9-21.2,42.2-25.3,60.6
	c-5.4-1.6-10.7-3.3-15.8-5.2c-1.4-0.5-2.9-1.1-4.5-1.6c15.5-26.3,26-50.4,32-73.4c7.4-28.7,8-57.1,1.7-82
	c-2.5-9.9-6.3-20.5-12.1-33.2c-3.6-8-7.6-16-11.8-23.7c3.3-1.1,6.4-2.5,9.3-4.3c14.3-9,22-26.7,18.2-42.1c-0.7-2.7-3.4-4.3-6.1-3.7
	c-2.7,0.7-4.3,3.4-3.7,6.1c2.8,11.4-3,24.5-13.8,31.2c-10.2,6.4-24.1,7.1-36.4,1.8l-0.2-0.1c-1.3-0.6-3.1-1.3-5.2-1.4
	c-2.4-0.1-4.3,0.7-6,1.8c-0.1-0.3-0.1-0.6-0.2-0.9c-2.1-9-5.7-16.5-10.9-22.5c-4.1-4.7-9.3-8.3-14.8-10.4c3.4-3.6,6.5-7.6,9.2-11.7
	c1.8-2.7,3.3-5.4,4.9-8.1c2.6-4.4,5-8.6,8-12.3c8.8-10.7,22.5-17,34.7-22.5c4.3-2,8.8-4,13.2-4.8c-0.9,4.5-1.5,9-1.7,13.6
	c-0.1,2.8,2,5.1,4.8,5.2s5.1-2,5.2-4.8c0.7-16.7,7.4-33.4,18.4-45.9c9.6-10.9,22.9-18.9,37-22.6c-0.9,11.7-2.5,24.4-6.6,36.2
	c-5.1,14.5-13.8,26-24.4,32.4c-5.7,3.4-12.3,5.6-18,7.3c-2.7,0.8-4.2,3.6-3.4,6.2c0.6,2.2,2.6,3.6,4.8,3.6c0.5,0,0.9-0.1,1.4-0.2
	c4.6-1.3,9.8-3,14.8-5.4c6,28.8,25,55.5,51.5,73.3c0,0.3,0.1,0.7,0.1,1c3.3,12.9,0.5,26.2-2.5,40.4c-1.6,7.3-3.2,14.9-3.9,22.5
	c-0.5,5.2-0.8,12.9,2.1,19.9c3.8,9.2,12.3,16.4,25.4,21.4c13.7,5.3,29.1,7.9,48.6,8.4c1.4,0,2.7,0,4,0c24.8,0,42.8-5.6,55-17
	c10.1-9.5,16.4-23.4,17.7-39.2c1-12-0.8-25-5.4-39.7c4.8-1.1,9.6-2.4,14.2-3.5c10.8-2.8,22-5.6,33.2-7.5c24.4-4.1,44.9-2.1,60.7,5.8
	c17.7,8.8,32.4,26.2,45.1,53.1C493.5,274.9,497.8,285.7,497.4,296.7z"/>
<path class="st3" d="M97.4,141.1c-2.2-1.6-5.4-1.1-7,1.1c-1.5,2.1-4.4,3.3-6.9,2.8s-4.8-2.5-5.5-5c-0.8-2.7-3.5-4.2-6.2-3.5
	c-2.7,0.8-4.2,3.5-3.5,6.2c1.8,6.2,7.2,11,13.5,12.2c0.9,0.2,1.9,0.2,2.8,0.2c5.4,0,10.8-2.6,14-7
	C100.1,145.9,99.6,142.7,97.4,141.1z"/>
</svg>
