<?xml version="1.0" encoding="utf-8"?>
<!-- Generator: Adobe Illustrator 25.2.3, SVG Export Plug-In . SVG Version: 6.00 Build 0)  -->
<svg version="1.1" id="Capa_1" xmlns="http://www.w3.org/2000/svg" xmlns:xlink="http://www.w3.org/1999/xlink" x="0px" y="0px"
	 viewBox="0 0 512 512" style="enable-background:new 0 0 512 512;" xml:space="preserve">
<style type="text/css">
	.st0{fill:#E1B946;}
	.st1{fill:#CC644F;}
	.st2{fill:#8CBEA3;}
	.st3{fill:#282828;}
</style>
<path class="st0" d="M412.9,406.4c-0.4-22.4-1.1-45.5-1.8-68.7l-0.1-2.4l63.8-36.7l3.7,58.7c0.3,4.1,0.5,8.8-1.4,12.6
	c-1.8,3.7-5.3,6.1-9.7,8.9l-54.5,34.8L412.9,406.4z"/>
<path class="st0" d="M410.7,326.3c-0.9-23.5-2-48-3.3-72.7l-0.1-2.5l2.2-1.2c18.2-9.9,36.6-19.7,54.8-29.1l5.5-2.9l4.9,78.4
	l-63.8,36.7L410.7,326.3z"/>
<path class="st0" d="M406.8,242.5c-1.3-23.1-2.7-45.7-4.2-67.1c-0.2-2.6-0.4-5.5-1.7-8.1c-0.1-0.1-0.1-0.2-0.2-0.3l-1.7-3.1l2.9-2.1
	c18.6-13.4,37.2-27.5,55.1-41.8l5.1-4.1l1.3,6.4c0.4,2.2,0.6,4.6,0.8,6.9l5.4,86.4l-2.5,1.3l0,0c-17.4,9.1-35.2,18.5-54.3,28.8
	l-5.6,3L406.8,242.5z"/>
<path class="st1" d="M394.4,160.8c-0.4-0.2-0.7-0.5-1.1-0.7l-62-40.2l5.3-3.3c18.8-11.7,38.1-23.5,57.3-35.1l0,0l0.4-0.2l1.9-1.1
	l55.9,29.5c1.1,0.6,2.3,1.2,3.5,1.9l4.8,3l-4.4,3.5c-18.5,14.8-37.6,29.2-56.7,42.9l-2.2,1.6L394.4,160.8z"/>
<path class="st0" d="M339.6,453c0.4-21.3-0.4-44.4-2.3-72.8l-0.2-2.5l71.9-41.3l0.2,6.7c0.8,23.9,1.4,47.3,1.8,69.5l0,2.2
	l-71.6,45.7L339.6,453z"/>
<path class="st0" d="M336.5,369.1c-0.9-11.6-1.8-23.2-2.7-34l-3.4-41.3l2.2-1.3c22.1-12.6,44.7-25.2,67.1-37.4l5.6-3l0.3,6.3
	c1.2,24,2.3,48.7,3.2,73.2l0.1,2.4L337,375.5L336.5,369.1z"/>
<path class="st0" d="M324.8,225.4c-0.2-2-0.4-4.4-1.4-6.6l-1.6-3.2l3.1-1.9c23.3-14.6,46.4-30,68.8-45.9l4.4-3.1l1.7,5.1
	c0.6,1.9,0.8,4,0.9,5.9c1.6,23,3.1,47.2,4.4,71.9l0.1,2.5l-2.2,1.2c-22.9,12.4-45.5,25-67.3,37.4l-5.4,3.1L324.8,225.4z"/>
<path class="st1" d="M317,212.6c-19.6-13-39.6-26-59.6-38.5l-5.3-3.3l5.2-3.4c23.3-15.3,46.9-30.3,70-44.9l2.2-1.4l5,3.2l61,39.6
	l-4.8,3.4c-22.2,15.7-45.3,31.1-68.7,45.7l-2.2,1.4L317,212.6z"/>
<path class="st1" d="M327.3,117.3c-18.3-11.8-39.6-25.5-61-38.5l-5.8-3.5l5.9-3.4c17.2-9.8,34.8-19.6,52.5-29.2c0,0,0.1-0.1,0.2-0.2
	l2.1-2.1l2.6,1.4c6.4,3.4,12.9,6.8,19.3,10.2L394.3,79l-6.1,3.7c-18.4,11.1-37.4,22.7-56.5,34.7l-2.2,1.3L327.3,117.3z"/>
<path class="st0" d="M266,500c-0.3-25.7-0.9-51.9-1.7-77.9l-0.1-2.4l71-40.9l0.4,6.4c1.8,28.1,2.4,51,1.9,72.2c0,0.1,0,0.3,0.1,0.4
	l1.2,3.1l-61.9,39.5c-1.6,1-3.3,2.1-5.1,3l-5.8,3L266,500z"/>
<path class="st0" d="M263.8,410.8c-0.9-24.2-2-49-3.4-73.7l-0.1-2.4l2.1-1.2c19.9-11.9,40.3-23.8,60.6-35.3l5.5-3.1l3.5,42.6
	c1,12,2,24.3,2.9,36.6l0.2,2.5l-70.9,40.8L263.8,410.8z"/>
<path class="st0" d="M259.8,325.8c-1.4-23.6-3-47.2-4.8-70.1l-0.3-3.9l3.9-0.4c3-0.3,5.7-1.9,7.9-3.1c16.6-9.3,33.3-19.2,49.7-29.3
	l4.6-2.9l1.3,5.3c0.3,1.3,0.5,2.6,0.6,4.1l5.5,67.2l-2.2,1.3c-20.5,11.7-40.7,23.5-60.2,35l-5.6,3.4L259.8,325.8z"/>
<path class="st1" d="M256.5,72.9c-22.9-13.5-43.7-24.7-63.4-34l-7.5-3.6l7.5-3.6c3.7-1.8,7.4-3.6,11.2-5.4
	c5.8-2.8,11.7-5.5,16.8-7.8c3.4-1.5,6.7-3.1,10.1-4.6c1.5-0.7,3-1.5,4.5-2.3l0.5-0.3c4.6-2.4,9.3-5,14.1-5.3c0.3,0,0.7,0,1,0
	c6.2,0,12.3,3.4,17.7,6.4l0.8,0.4c0.7,0.4,1.3,0.7,2,1.1c6.6,3.5,13.2,7.1,19.8,10.6l8.6,4.6c4.5,2.4,9,4.8,13.4,7.2l6.6,3.5
	l-6.5,3.5c-17.6,9.6-35.5,19.5-53,29.6l-2,1.2L256.5,72.9z"/>
<path class="st1" d="M257.4,249.4c-2.8-0.1-5.5-1.6-7.7-2.8c-18.3-10.1-36.7-20.5-54.7-30.7l-5.6-3.2l5.3-3.6
	c16.9-11.5,34.8-23.5,53.3-35.7l2.1-1.4l2.2,1.4c19.8,12.4,40.1,25.5,60.2,38.8l5.2,3.5l-5.3,3.3c-15.8,9.7-31.6,19-47,27.6
	C262.6,248.1,260.1,249.4,257.4,249.4L257.4,249.4z"/>
<path class="st1" d="M248,168.2c-21.6-13.5-43.6-26.8-65.4-39.5l-5.7-3.4l5.6-3.5c24.6-15.2,49.5-30.1,73.9-44.2l2-1.2l2,1.2
	c19.8,11.8,39.1,24.1,61.8,38.8l5.3,3.4l-5.3,3.3c-23.6,14.8-47.1,29.9-70,44.9l-2.1,1.4L248,168.2z"/>
<path class="st2" d="M259,505.4c-3.4-0.9-6.9-2.7-10.1-4.5l-50.1-28l-0.2-2.1c-2.2-25.8-4-51.8-5.4-77.4l-0.4-6.8l6.1,3
	c20.6,10.2,40.5,19.8,61,29.5l2.2,1l0.1,2.4c0.8,25.8,1.4,52.2,1.7,78.5c0,0.2,0,0.3,0,0.4v5.2L259,505.4z"/>
<path class="st2" d="M256.1,415c-20.2-9.6-40.2-19.3-61.3-29.8l-2.1-1l-0.1-2.4c-1.3-26.5-2.1-53.4-2.4-79.8l-0.1-6.8l6,3.2
	c21.4,11.6,41,22.3,60.1,32.9l1.9,1.1l0.1,2.2c1.4,25.2,2.6,51,3.5,76.6l0.2,6.6L256.1,415z"/>
<path class="st2" d="M251.7,326.5c-18.9-10.4-38.9-21.4-59.5-32.5l-2.1-1.1l0-2.4c-0.2-22.6,0-45.5,0.5-68l0.1-6.7l5.8,3.3
	c16.9,9.6,34.5,19.5,52.2,29.3c0.6,0.3,1.2,0.7,1.9,1l2,1l0.2,2.2c1.8,23.3,3.4,46.8,4.8,70.1l0.4,7.2L251.7,326.5z"/>
<path class="st1" d="M172.8,123c-22.4-13-45-25.7-67.3-37.9l-6.3-3.4l6.2-3.6c24.8-14.2,50.4-27.9,76-40.7l1.7-0.9l1.7,0.8
	c20.7,9.5,42.1,20.7,65.7,34.4l5.9,3.5l-6,3.5c-24.8,14.4-49.6,29.2-73.6,44.2l-2,1.3L172.8,123z"/>
<path class="st1" d="M185.3,210.4c-22.8-13.1-45.7-26.5-68.1-39.9l-5.5-3.3l5.3-3.5c18.2-12,37-24.1,55.8-35.9l2-1.3l2.1,1.2
	c22.1,12.9,44.3,26.2,66,39.7l5.3,3.3l-5.2,3.4c-18,11.9-36,23.9-53.5,36l-2.1,1.4L185.3,210.4z"/>
<g>
	<path class="st2" d="M132.5,435.8c-0.8-0.4-1.5-0.9-2.3-1.3l-2.3-1.3l0.3-2.6c0-0.1,0-0.2,0-0.3l-3.7-78.5l6.2,3.2
		c20.1,10.4,39.1,20,58,29.4l2.1,1l0.1,2.3c1.3,25,3,50.7,5.1,76.4l0.6,7.5L132.5,435.8z"/>
	<path class="st2" d="M184.5,380.1c-18.4-9.2-37.4-18.8-58.1-29.6l-2.1-1.1l-4.3-91.6l6.2,3.3c19.6,10.3,39.7,21,59.7,31.8l2.1,1.1
		l0,2.4c0.3,26.7,1,53.6,2.2,79.9l0.3,6.8L184.5,380.1z"/>
	<path class="st2" d="M182.1,288.6c-20.3-10.9-40.5-21.7-60.1-32l-2-1.1l-0.1-2.3c-1.1-24.2-2.3-49.3-5.1-74.4l-0.9-8l6.9,4.1
		c21.8,13,43.9,25.9,65.8,38.5l2.1,1.2l-0.1,2.4c-0.5,22.4-0.7,45.3-0.6,68l0,6.7L182.1,288.6z"/>
	<path class="st2" d="M119.9,428.8C99.7,417.4,78.2,405,58,391.3c-4.2-2.8-7.8-5.5-9.8-9.3c-1.8-3.5-2.1-7.8-2.2-11.7l-3.1-61.5
		l6.2,3.3c25,13.4,48.3,25.7,71.2,37.6l2,1.1l3.8,81.6L119.9,428.8z"/>
	<path class="st2" d="M116.2,345.2c-22.6-11.8-46-24.1-71.4-37.7l-2-1.1l-4.5-91l6.2,3.2c23.9,12.2,48,24.7,71.6,37.1l2,1.1
		l4.3,91.6L116.2,345.2z"/>
</g>
<path class="st1" d="M107.6,164.7c-21.9-13.2-44.2-26.9-66.4-40.7l-5.1-3.2l4.9-3.5c0.8-0.5,1.5-1.1,2.4-1.6
	C60,105.1,77.4,94.4,95.2,84l1.9-1.1l2,1.1c22.8,12.4,45.7,25.2,68.1,38.1l5.7,3.3l-5.6,3.5c-18.9,11.8-37.5,23.8-55.4,35.7
	l-2.1,1.4L107.6,164.7z"/>
<path class="st2" d="M111.7,251.2c-23.8-12.5-47.9-25-71.5-37l-2.1-1.1l-4-80.6c-0.1-1.1-0.1-2.2-0.1-3.4l0.2-7l5.9,3.7
	c23.1,14.4,46.6,28.8,69.7,42.7l1.7,1l0.2,1.9c3.2,25.2,4.6,50.3,5.8,76.1l0.3,7L111.7,251.2z"/>
<path class="st3" d="M484.6,356.9l-14.4-228c-0.3-4.8-0.7-11.3-4.5-16.5c-3-4.1-7.4-6.5-11-8.3L346,46.7
	c-15.8-8.3-31.6-16.8-47.6-25.4l-4-2.2c-6.6-3.5-13.2-7.1-19.8-10.6c-0.9-0.5-1.8-1-2.7-1.5c-6.4-3.5-13.7-7.6-22-7.1
	c-6.1,0.4-11.7,3.3-16.6,6c-1.6,0.9-3.2,1.7-4.7,2.4c-3.3,1.6-6.7,3.1-10,4.6c-5.5,2.5-11.3,5.2-16.9,7.8
	c-6.5,3.1-12.9,6.2-19.4,9.4c-1.2,0.1-2.3,0.7-3.1,1.5c-27.6,13.7-55,28.4-81.6,43.8c-19.3,11.2-38.6,23-57.3,35.1
	c-3.6,2.3-8.5,5.5-10.8,10.9c-1.7,4-1.5,8.1-1.3,11.5l11.8,237.5c0.2,4.2,0.5,9.5,2.9,14.2c2.7,5.1,7.1,8.4,11.8,11.6
	c24.7,16.7,51.1,31.4,76.6,45.7l114.7,64.1c4.5,2.5,10.5,5.9,17.3,5.9c0.5,0,0.9,0,1.4,0c6.2-0.4,11.5-3.8,15.6-6.4l190.6-121.7
	c3.8-2.4,9.1-5.8,11.8-11.3C485.2,367.2,484.9,361.5,484.6,356.9z M340.5,368.8c-0.8-11.4-1.8-22.8-2.7-34l-3.2-38.8
	c22.2-12.6,44.6-25.1,67.1-37.3c1.3,24.4,2.3,48.8,3.2,73.1L340.5,368.8z M405.2,343.2c0.8,23.2,1.4,46.4,1.8,69.5l-63.4,40.5
	c0.4-24.4-0.7-48.9-2.3-73.2L405.2,343.2z M107.8,171.9c3.2,25.1,4.6,50.7,5.8,75.7c-23.9-12.5-47.7-24.9-71.6-37.1l-3.9-77.9
	c-0.1-1.2-0.1-2.3-0.1-3.4C61.1,143.6,84.4,157.8,107.8,171.9z M183.2,41c22.3,10.2,44.1,21.8,65.3,34.2
	c-24.8,14.4-49.4,29.1-73.7,44.2c-22.3-13-44.8-25.6-67.4-37.9C132.1,67.3,157.5,53.8,183.2,41z M258.4,81.1
	c21,12.5,41.5,25.6,61.7,38.7c-23.5,14.8-46.8,29.8-70,45c-21.6-13.5-43.5-26.7-65.5-39.6C209,110.1,233.6,95.4,258.4,81.1z
	 M332.3,127.7l56,36.4c-22.4,15.8-45.3,31-68.5,45.6c-0.2-0.1-0.4-0.3-0.6-0.4c-19.7-13.1-39.6-25.9-59.7-38.6
	c23.2-15.2,46.5-30.1,69.9-44.8C330.4,126.5,331.3,127.1,332.3,127.7z M459.5,123.1c0.4,1.9,0.5,4,0.7,6.4l5.3,83.8c0,0-0.1,0-0.1,0
	c-18.2,9.5-36.4,19.1-54.5,28.9c-1.2-22.5-2.6-44.9-4.2-67.2c-0.2-2.8-0.4-6.3-2.1-9.6c-0.1-0.2-0.2-0.3-0.3-0.5
	C423,151.5,441.4,137.5,459.5,123.1z M396.7,175.8c1.7,23.8,3.1,47.8,4.4,71.8c-22.6,12.3-45,24.7-67.4,37.4l-4.9-60
	c-0.2-2.4-0.4-5.3-1.8-8.1c23.4-14.7,46.5-30.1,69-46.1C396.4,172.3,396.5,174.1,396.7,175.8z M194.5,222.6
	c17.4,9.9,34.8,19.7,52.3,29.3c0.6,0.3,1.3,0.7,2,1.1c1.8,23.2,3.4,46.6,4.8,70c-19.8-10.9-39.6-21.7-59.5-32.5
	C193.9,267.8,194,245.2,194.5,222.6z M257.5,245.4C257.5,245.4,257.4,245.4,257.5,245.4c-1.8,0-3.9-1.2-5.8-2.3
	c-18.2-10.1-36.5-20.3-54.7-30.7c17.6-12,35.4-23.9,53.3-35.7c20.2,12.7,40.3,25.6,60.1,38.7c-15.5,9.5-31.1,18.7-46.8,27.6
	C261.2,244.4,259.2,245.4,257.5,245.4z M259,255.3c3.8-0.4,7-2.2,9.4-3.6c16.8-9.4,33.4-19.2,49.8-29.4c0.3,1,0.4,2.3,0.5,3.5
	l5.3,64.6c-20.2,11.5-40.3,23.2-60.2,35.1C262.5,302.1,260.9,278.7,259,255.3z M240.9,170.9c-18,11.9-35.9,23.9-53.6,36
	c-22.8-13.1-45.5-26.4-68.1-39.9c18.4-12.1,37-24.1,55.7-35.8C197.1,144.1,219.1,157.4,240.9,170.9z M184.6,216.9
	c-0.5,22.7-0.7,45.4-0.6,68.1c-20-10.8-40-21.4-60.1-32c-1.1-24.5-2.4-49.7-5.2-74.6C140.6,191.4,162.6,204.3,184.6,216.9z
	 M42.6,222.2c23.8,12.2,47.7,24.6,71.5,37.1l3.9,82.4c-22.6-11.8-46.2-24.2-71.3-37.7L42.6,222.2z M124.4,264.7
	c19.9,10.5,39.8,21.1,59.6,31.8c0.3,26.7,1,53.4,2.2,80c-18.8-9.4-38-19.2-58-29.5L124.4,264.7z M194.2,302
	c20.1,10.9,40.2,21.8,60.1,32.9c1.4,25.5,2.6,51,3.5,76.6c-20.2-9.6-40.4-19.4-61.2-29.7C195.4,355.1,194.5,328.5,194.2,302z
	 M264.5,336.8c20-11.9,40.2-23.7,60.5-35.3l2.8,34.1c1.1,12.8,2.1,25.8,3.1,38.8l-63,36.2C267,386,265.8,361.4,264.5,336.8z
	 M411.4,253.4c18.2-9.9,36.5-19.6,54.7-29.1l4.4,69.8l-55.8,32.1C413.8,301.9,412.7,277.6,411.4,253.4z M453.6,115
	c-18.5,14.7-37.3,29-56.6,42.8c-0.5-0.4-1.1-0.7-1.6-1L338.8,120c19.1-11.9,38.3-23.6,57.5-35.2c0.1,0,0.1-0.1,0.1-0.1L450,113
	C451.3,113.6,452.5,114.3,453.6,115z M386.1,79.3c-18.9,11.4-37.8,23-56.6,34.7c-20-13-40.4-26-61.1-38.6
	c17.4-9.9,34.9-19.6,52.4-29.1c0.4-0.2,0.8-0.6,1.2-0.9c6.4,3.4,12.9,6.9,19.3,10.3L386.1,79.3z M205.9,29.9
	c5.6-2.6,11.3-5.3,16.8-7.8c3.4-1.5,6.7-3.1,10.1-4.6c1.7-0.8,3.5-1.7,5.2-2.7c4.2-2.2,8.5-4.6,12.5-4.8c5.4-0.3,11.1,2.8,16.5,5.8
	c1,0.5,1.9,1,2.8,1.5c6.6,3.5,13.2,7.1,19.8,10.6l4,2.2c6.1,3.2,12.1,6.5,18,9.7c-17.8,9.7-35.5,19.6-53.1,29.7
	c-20.8-12.2-42-23.9-63.8-34.2C198.5,33.5,202.2,31.7,205.9,29.9z M97.2,87.5c22.8,12.3,45.4,25,67.9,38
	c-18.7,11.7-37.2,23.7-55.5,35.8c-22.3-13.4-44.4-26.9-66.3-40.6c0.7-0.5,1.5-1,2.2-1.5C62.5,108.3,79.8,97.7,97.2,87.5z
	 M51.8,380.2c-1.4-2.8-1.6-6.5-1.8-10.1l-2.7-54.4c25.1,13.4,48.7,25.9,71.3,37.6l3.4,72c-20.8-11.7-41.8-23.9-61.7-37.3
	C56.5,385.5,53.3,383.2,51.8,380.2z M132.2,431c0-0.3,0.1-0.5,0-0.8l-3.4-71.6c20,10.3,39.2,20.1,58,29.4c1.3,25.6,3,51.1,5.1,76.5
	l-55.9-31.3C134.8,432.5,133.5,431.8,132.2,431z M202.6,470.4c-2.2-25.7-4-51.4-5.4-77.3c20.7,10.2,40.9,20,61,29.5
	c0.9,26.3,1.4,52.5,1.7,78.6c0,0.1,0,0.2,0,0.2c-2.8-0.7-5.8-2.3-9.2-4.2L202.6,470.4z M274.8,497.1c-1.5,1-3.1,2-4.8,2.9
	c-0.3-25.9-0.9-51.9-1.7-77.9l63.4-36.4c1.5,23.9,2.5,48,1.9,71.9c0,0.7,0.1,1.3,0.3,1.9L274.8,497.1z M473.6,368.1
	c-1.4,2.8-4.4,4.9-8.2,7.3l-48.5,30.9c-0.4-22.9-1.1-45.8-1.8-68.8l56.2-32.3l3.3,52.3C474.8,361.1,475,365.2,473.6,368.1z"/>
</svg>
