<?xml version="1.0" encoding="utf-8"?>
<!-- Generator: Adobe Illustrator 25.2.3, SVG Export Plug-In . SVG Version: 6.00 Build 0)  -->
<svg version="1.1" id="Capa_1" xmlns="http://www.w3.org/2000/svg" xmlns:xlink="http://www.w3.org/1999/xlink" x="0px" y="0px"
	 viewBox="0 0 512 512" style="enable-background:new 0 0 512 512;" xml:space="preserve">
<style type="text/css">
	.st0{fill:#CFCB9D;}
	.st1{fill:#D4B1A6;}
	.st2{fill:#8CBEA3;}
	.st3{fill:#FFFFFF;}
	.st4{fill:#CC644F;}
	.st5{fill:#E1B946;}
	.st6{fill:#282828;}
</style>
<path class="st0" d="M441.9,131.3c-4.7,0-9.7-0.1-15.2-0.4c-7.6-0.4-15.3-1-22.9-1.8L403,129l-0.7-0.4c-0.3-0.1-0.4-0.2-0.5-0.2
	c0,0,0,0,0,0c-0.1,0-0.2,0-0.3,0.1l-0.8,0.2l-0.8-0.1c-7-0.8-13.9-1.8-20.5-2.9c-8.1-1.3-17.4-3.1-25.6-7.1c-4.8-2.3-8.2-4.9-10.4-8
	c-2.6-3.6-3.8-8.1-4.7-12c-2.2-10.1-2.8-20.6-3.4-30.7c-0.7-11.2-1.4-22.7,0.7-33.9c1.1-6.2,3-10.6,5.7-13.9
	c5.5-6.6,14.8-8.7,24.1-10c10.3-1.4,20.9-2.5,32.4-3.2C410.1,6.4,423,6,437.7,6c6.2,0,12.6,0.1,20.3,0.2c1.7,0,3.4,0,5.2,0l1.6,0
	c11.5,0,25.9,0,33.2,12.7c3,5.2,4.1,11.4,4.9,17.9c3,22.8,3.2,40,0.8,55.9c-2.2,14.1-6.8,23.6-14,29.1c-5.9,4.5-13.7,6.3-19.8,7.3
	C461.3,130.6,452.4,131.3,441.9,131.3z M425.8,32.9c-6,0-12.2,0.5-18.2,1l-0.4,0c-3,0.2-5.8,0.4-8.5,0.6c-2,0.1-4.4,0.3-6.6,0.6
	c-2.2,0.3-4.1,0.8-5.8,1.4c-7.1,2.6-13.1,8.9-16.1,16.9c-2.5,6.5-3.1,14.4-2,23.3c1.2,9.4,4.1,15.9,8.9,20
	c5.5,4.7,13.1,5.8,20.3,6.5c6.3,0.6,13.6,1.3,20.9,1.3c7.1,0,13.4-0.6,19.2-1.9c8.4-1.8,15.3-4.9,20.5-9.4
	c7.1-6.1,11.9-15.5,13.2-26c0.9-7.5-0.1-13.7-3.1-18.5c-4.2-6.8-13.3-11.5-27.7-14.5C436.2,33.3,431.4,32.9,425.8,32.9z"/>
<path class="st0" d="M425.4,506c-2.9,0-5.7-0.7-8.1-1.4c-23.8-7.1-45.5-26.4-59.3-52.7c-13.4-25.5-18.5-53.7-21.7-78l-0.4-2.7
	l2.4-1.3c11.1-6.3,23.2-11.2,35.7-14.9c15.8-4.5,32.2-6.8,49-6.8c7,0,14,0.4,20.9,1.2c11.8,1.4,23.3,4,34.3,7.6
	c1.1,0.4,2.4,0.8,3.7,1.2c8.6,2.7,19.2,5.9,21.1,14.7c5.8,27.1-1,58.1-18.7,85.1c-13.1,20-30.4,35.7-50,45.5
	c-1.8,0.9-3.9,1.9-6.1,2.3C427.3,505.9,426.4,506,425.4,506z"/>
<path class="st1" d="M438.4,290.5c-4-2.2-8.9-3.4-14.2-3.4c-1.3,0-2.6,0.1-4,0.2c-4.4,0.5-8.9,1.7-14.3,3.7l-5.2,2l-0.2-5.6
	c-0.9-21.4-1.6-40.6-1.6-59.8c0-30,1.6-59.6,3.6-92.5l0.2-4.1l4.1,0.4c6.7,0.7,13.3,1.1,19.7,1.5c5.4,0.3,10.2,0.4,14.8,0.4l4,0l0,4
	c0.1,49.5-0.2,99.9-1,149.8l-0.1,6.6L438.4,290.5z"/>
<path class="st2" d="M438.9,346.8c-5.2-0.5-10.6-0.7-15.8-0.7c-5.3,0-10.6,0.2-15.9,0.7l-4.2,0.4l-2.1-51.8l2.6-1.1
	c6.9-2.9,12-4.4,17.1-4.9c1.2-0.1,2.5-0.2,3.7-0.2c6.4,0,12.2,1.9,16.4,5.2c0.1,0.1,0.3,0.1,0.5,0.2l3.2,0.7l-0.1,3.2
	c-0.2,14.2-0.6,29.1-0.9,44.3l-0.1,4.3L438.9,346.8z"/>
<path class="st3" d="M171.7,414.8c-29.4,0-59.7-5.9-87.5-17.1c-25.6-10.3-43.7-23-55.5-38.9c-9.5-12.8-16.1-29.2-20-50.1
	c-4.7-25-3.2-46.1,4.3-62.7l4.5-9.9l3,10.5c1.2,4.2,3.1,7.6,5.8,10.4l1.9,1.9l-1.1,2.5c-0.1,0.1-0.1,0.2-0.1,0.2
	c-4.8,25,4.3,53.5,23.7,74.4c16.7,17.9,40.8,31,69.8,38c14.9,3.6,30.4,5.4,45.8,5.4c17.1,0,34.2-2.2,50.7-6.6
	c29.3-7.8,53.4-21.8,69.9-40.6c19.1-21.8,27.4-51,21.7-76.2l-1-2.9l2-1.8c2.4-2.1,4.4-4.4,6-6.9l4.4-6.8l2.7,7.6
	c5.8,16.2,11.6,35.4,10.5,55.5c-1.2,21.6-10.7,43.4-26.8,61.4c-14.2,15.8-33.1,28.6-56.3,38C225.8,409.8,199.4,414.8,171.7,414.8z"
	/>
<path class="st4" d="M112.6,266c-22.5,0-42.3-0.7-60.4-2.2c-8.7-0.7-17.6-1.9-23.7-7.6c-8.5-8-8.1-21.6-6.6-33.8
	c0.5-3.8,1.1-7.1,3.2-9.3c2.6-2.8,6.9-3.2,11.3-3.5c11-0.6,22.3-1,33.6-1.4c12.1-0.4,23.6-0.6,35.3-0.7c7.3-0.1,14.9-0.1,22.6-0.1
	c29.2,0,61.9,0.6,99.8,1.8c21.1,0.7,42.7,1.5,60.9,2.2c0.9,0,1.7,0.1,2.5,0.1l0.9,0c6.7,0.1,12.4,0.3,17.9,4.2
	c5.5,3.9,8.6,11.1,7.7,17.8c-1,7.3-6.6,17-19.3,22.4c-9.9,4.2-21.1,4.8-31,5.3c-27.9,1.4-56.3,2.4-83.7,3.3l-2.3,0.1
	C159,265.3,135.7,266,112.6,266z"/>
<path class="st5" d="M166.5,377.2c-15.3,0-30.6-1.8-45.4-5.3c-28.6-6.8-52.4-19.8-68.8-37.4C34,314.9,25.1,289,28.5,265.2l0.7-5.2
	l4.8,2.1c5.7,2.5,12.3,3.2,18,3.7c18.2,1.5,38.1,2.3,60.6,2.3c23.4,0,46.7-0.8,69.2-1.5l1.9-0.1c27.5-0.9,55.9-1.9,83.8-3.3
	c9.6-0.5,21.4-1.1,31.7-5.5c0.8-0.3,1.6-0.7,2.3-1.1l4.8-2.5l0.9,5.3c4.3,24.1-3.9,50.7-21.9,71.2c-16.2,18.5-40,32.3-68.9,39.9
	C200.3,375,183.4,377.2,166.5,377.2z"/>
<path class="st1" d="M287,209.3c-16.2-0.6-37.6-1.4-59.2-2.1c-38-1.2-70.7-1.8-99.9-1.8c-7.6,0-15.2,0-22.6,0.1
	c-21.3,0.2-41.2,0.8-60.8,1.7l-3.1,0.1l-0.9-3c-5.1-16.5,0.4-36.1,13.2-47.7C62,149.3,73.3,145,85,145c6.3,0,12.3,1.2,17.8,3.6
	c0.1,0.1,0.3,0.1,0.4,0.1c0.3,0,0.5-0.1,0.7-0.3c0.3-0.3,0.4-0.7,0.3-1.1c-5.3-15.9-0.9-34.6,10.8-46.6c8.5-8.7,20.6-13.6,33.2-13.6
	c4.6,0,9,0.7,13.2,2c16,5,28.7,19.4,31.6,35.9c0.1,0.4,0.4,0.7,0.8,0.8c0.1,0,0.1,0,0.2,0c0.3,0,0.6-0.1,0.8-0.4
	c5.4-7.1,14.5-11.5,23.6-11.5c1.4,0,2.8,0.1,4.1,0.3c10.3,1.5,19.6,9.1,23.2,18.9c4.2,11.2,1.2,23.8-2.7,35.8
	c-0.1,0.4,0,0.8,0.3,1.1c0.2,0.2,0.4,0.2,0.7,0.2c0.2,0,0.3,0,0.4-0.1c5.9-2.8,12.3-4.3,18.6-4.3c7.1,0,13.7,1.9,19,5.4
	c11.4,7.6,15.7,23.1,9.4,33.9c-0.1,0.1-0.1,0.2-0.1,0.4l-0.3,3.9L287,209.3z"/>
<path class="st5" d="M180.9,495.9c-14.5,0-29.1-0.2-43.4-0.6c-13.2-0.4-27.2-0.9-40.9-3.2c-6.4-1.1-11.5-2.5-15.3-5.8
	c-4.7-4.1-6.6-10.6-8.3-17.4c-6.1-24.4-11.2-49.4-15.1-74.4l-1.3-8l7.1,3.9c6.1,3.3,12.7,6.4,19.7,9.2
	c28.1,11.3,58.6,17.2,88.2,17.2c28,0,54.7-5,79.3-15c10.2-4.1,19.7-9,28.3-14.4l7.7-4.9l-1.6,8.9c-2.9,16.3-5.9,32.5-9.1,48
	c-2.7,13.2-5.3,25-9.8,36.6c-2.3,5.9-5.7,13-12.2,16.2c-4.1,2.1-9,2.3-13.4,2.4C221.1,495.5,200.9,495.9,180.9,495.9z"/>
<path class="st6" d="M326.9,238.7c-0.6-1.6-1.9-2.7-3.4-3.1c0.1-0.5,0.2-0.9,0.2-1.4c1.2-9-2.8-18.3-10.1-23.5
	c-5.2-3.7-10.5-4.7-15.8-5.1c5.8-13.2,0.5-30.7-12.6-39.4c-9.3-6.2-21.8-7.9-33.8-5c2.5-10.1,3.5-20.4-0.2-30.2
	c-4.4-11.9-15.4-20.8-28-22.7c-9.5-1.4-19.3,1.3-26.8,7c-5.6-14.9-18.1-27.2-33.4-32c-18.1-5.6-39.2-0.3-52.5,13.2
	c-11.1,11.3-16.4,28-14.3,43.7c-16.2-3.7-34.1,0.7-46.6,12c-14.2,12.7-20.2,33.1-15.6,51.5c-4.1,0.3-9.5,1.2-13.3,5.2
	c-3.7,3.9-4.4,9.2-4.8,12.7c-0.4,3.4-0.8,6.9-0.9,10.4c-1,0.4-1.8,1-2.4,1.9C0.3,253-3,278.6,2.8,309.8c4.1,21.9,11,39.1,21.1,52.6
	c7,9.5,16.1,17.8,27.5,25.2c-0.3,0.8-0.4,1.6-0.3,2.4c4.1,26.9,9.5,53.9,16.1,80.3c1.9,7.4,4.2,15.2,10.2,20.4
	c5.2,4.6,11.9,6.2,18.3,7.2c14.1,2.3,28.3,2.9,41.7,3.3c14.5,0.4,29,0.6,43.6,0.6c20.1,0,40.3-0.4,60.2-1.1
	c4.7-0.2,10.6-0.4,15.9-3.1c8.3-4.1,12.4-12.6,15.1-19.4c4.7-12,7.4-24.6,10.1-37.6c3.8-18.8,7.4-37.9,10.7-56.8
	c0.1-0.4,0.1-0.8,0.1-1.1c6.7-5.1,12.7-10.7,18.1-16.7c17-19,27.1-42.1,28.4-65.1C340.6,278.9,333.8,257.1,326.9,238.7z M56.4,159.6
	c11.8-10.6,30.2-13.6,44.7-7.3c1.8,0.8,3.9,0.4,5.4-0.9s2-3.4,1.4-5.3c-4.8-14.5-0.9-31.6,9.9-42.6s27.8-15.2,42.4-10.7
	c14.6,4.6,26.2,17.7,28.8,32.8c0.3,2,1.8,3.5,3.8,4c1.9,0.5,4-0.2,5.2-1.8c5.4-7.1,15.1-11,23.9-9.7c8.9,1.3,16.9,7.9,20,16.3
	c3.7,10.1,0.9,21.9-2.7,33.2c-0.6,1.9,0,4,1.5,5.3c1.5,1.3,3.7,1.6,5.5,0.7c11.4-5.5,24.6-5.2,33.6,0.8c9.5,6.3,13.3,19.7,8.2,28.6
	c-0.4,0.7-0.6,1.4-0.6,2.1c-18.9-0.7-39.1-1.5-59.2-2.1c-48-1.5-87-2.1-122.6-1.7c-21.4,0.2-41.4,0.8-61,1.7
	C39.8,188,44.7,170.2,56.4,159.6z M25.9,222.9c0.4-2.9,0.8-5.7,2.2-7.1c1.6-1.7,5.2-2,8.7-2.2c22-1.1,44.4-1.8,68.7-2
	c35.5-0.4,74.3,0.2,122.2,1.7c20.7,0.7,41.5,1.4,60.9,2.2c1.2,0,2.4,0.1,3.5,0.1c6.3,0.1,11.2,0.2,15.7,3.4c4.3,3.1,6.7,8.7,6,14
	c-0.8,6.2-5.7,14.5-16.9,19.3c-9.3,4-20.1,4.5-29.6,5c-28.5,1.4-57.6,2.4-85.6,3.3c-42.4,1.4-86.2,2.9-129.1-0.7
	c-8-0.7-16.1-1.7-21.3-6.6C24,246.5,24.5,234.1,25.9,222.9z M282.5,328.1c-15.7,17.9-38.8,31.2-66.9,38.7
	c-30.5,8.1-62.8,8.5-93.5,1.2c-27.8-6.7-50.9-19.2-66.8-36.2c-17.4-18.6-25.9-43.6-22.7-65.9c6.1,2.7,12.9,3.5,19.2,4
	c20.2,1.7,40.6,2.3,60.9,2.3c23.3,0,46.5-0.8,69.3-1.5c28.1-0.9,57.2-1.9,85.8-3.3c9.9-0.5,22.1-1.1,33.1-5.8
	c0.9-0.4,1.8-0.8,2.6-1.2C307.4,282.9,299.6,308.6,282.5,328.1z M272.4,438.7c-2.6,13-5.2,24.7-9.6,35.9c-2,5.2-5,11.5-10.2,14.1
	c-3.4,1.7-7.8,1.9-11.7,2c-34.2,1.3-68.9,1.5-103.1,0.5c-13.1-0.4-26.9-0.9-40.3-3.1c-5.7-0.9-10.2-2.1-13.3-4.9
	c-3.9-3.4-5.6-9.2-7.1-15.3c-6.1-24.4-11.2-49.2-15.1-74.1c6.2,3.3,12.9,6.5,20.1,9.4c29,11.7,59.7,17.5,89.7,17.5
	c28,0,55.5-5.1,80.8-15.3c10.5-4.2,20.2-9.2,29-14.8C278.6,406.8,275.6,422.9,272.4,438.7z M329.4,300.4
	c-1.2,20.7-10.3,41.7-25.8,58.9c-13.8,15.4-32.2,27.8-54.8,36.9c-49.9,20.2-109.3,19.4-163-2.2c-24.9-10-42.5-22.3-53.8-37.6
	c-9.1-12.3-15.4-28.2-19.2-48.5c-4.5-24.2-3.2-44.5,4-60.4c1.3,4.5,3.4,8.6,6.8,12.1c-0.2,0.3-0.3,0.7-0.4,1.1
	c-5.1,26.2,4.4,56,24.7,77.8c17.2,18.5,42.1,32,71.8,39.1c15.3,3.7,31.1,5.5,46.8,5.5c17.4,0,34.8-2.2,51.7-6.7
	c30-8,54.9-22.4,71.9-41.8c20-22.8,28.6-53.4,22.6-79.8c-0.1-0.2-0.1-0.5-0.2-0.7c2.6-2.3,4.9-4.9,6.7-7.7
	C325.3,263.6,330.4,281.8,329.4,300.4z"/>
<path class="st6" d="M418.4,108.5c6.6,0,13.4-0.5,20.1-2c9.1-1.9,16.6-5.4,22.2-10.2c7.9-6.7,13.2-17.1,14.6-28.6
	c1-8.4-0.2-15.5-3.7-21.1c-4.9-7.8-14.8-13.1-30.3-16.3c-10.9-2.2-22.7-1.3-34-0.4c-3.1,0.2-6,0.5-8.8,0.6
	c-4.8,0.3-9.2,0.6-13.6,2.2c-8.1,2.9-15,10.1-18.4,19.2c-2.7,7.2-3.4,15.7-2.2,25.2c1.3,10.4,4.7,17.8,10.3,22.6
	c6.4,5.4,14.6,6.6,22.5,7.4C404,107.9,411.2,108.5,418.4,108.5z M374.2,76c-1-8-0.4-14.8,1.7-20.5c2.4-6.4,7.1-11.4,12.5-13.3
	c3.1-1.1,6.5-1.4,10.7-1.6c2.9-0.2,5.9-0.4,9-0.6c10.7-0.8,21.7-1.7,31.2,0.2c12.5,2.5,20.5,6.5,23.8,11.7
	c2.8,4.5,2.8,10.4,2.3,14.6c-1.1,9-5.2,17.1-11.2,22.2c-4.4,3.7-10.4,6.5-17.8,8c-12.6,2.7-25.8,1.7-38.3,0.5
	c-6.6-0.7-12.9-1.5-17-5.1C377.4,89,375.2,83.8,374.2,76z"/>
<path class="st6" d="M483.7,352.4c-1.2-0.4-2.5-0.8-3.6-1.1c-10-3.3-20.3-5.8-30.9-7.3c1.6-68.6,2.4-138.2,2.2-206.8
	c7-0.3,13.3-0.9,19.5-2c6.8-1.1,15.5-3.1,22.4-8.5c8.6-6.6,13.9-17.4,16.3-33c2.5-16.5,2.3-34.2-0.8-57.6c-0.9-6.8-2-13.9-5.7-20.1
	c-9.1-15.7-26.2-15.7-40-15.7c-1.7,0-3.4,0-5.1,0c-16.6-0.3-38.4-0.4-60.3,0.9c-11.7,0.7-22.4,1.8-32.9,3.2
	c-10.5,1.5-21.1,3.9-27.9,12.1c-3.4,4.1-5.7,9.4-7,16.7c-2.2,11.9-1.5,23.8-0.8,35.3c0.6,10.4,1.3,21.1,3.6,31.6
	c1,4.5,2.4,9.8,5.7,14.3c2.9,3.9,7,7.2,12.7,9.9c9,4.4,18.8,6.2,27.3,7.6c6,1,12,1.8,18.1,2.6c-1.9,30.6-3.7,62.1-3.7,93.3
	c0,21,0.9,42.4,1.8,63l0.1,2.6c-0.4,1.2-0.4,2.5,0.1,3.7c0,0,0,0,0,0l1.9,47c-8.3,1.2-16.5,2.9-24.5,5.2
	c-13.2,3.8-25.8,9.1-37.5,15.7c-1,0.5-2.9,1.7-4,3.9c-1,2.1-0.7,4.2-0.6,5.3c3.3,25,8.5,54.2,22.4,80.6
	c14.6,27.8,37.6,48.1,62.9,55.7c2.9,0.9,6.3,1.7,9.8,1.7c1.3,0,2.6-0.1,3.9-0.4c2.9-0.6,5.4-1.8,7.6-2.8
	c20.6-10.2,38.7-26.7,52.4-47.6c18.6-28.4,25.7-61.1,19.6-89.7C506.2,359.4,493.2,355.3,483.7,352.4z M355.5,115.1
	c-4.1-2-7.1-4.2-8.9-6.8c-2.2-3-3.2-7-4-10.5c-2.1-9.8-2.7-20.1-3.3-30.1c-0.7-10.9-1.3-22.2,0.6-32.9c1-5.5,2.6-9.3,4.9-12.1
	c4.6-5.5,13.1-7.4,21.6-8.6c10.2-1.4,20.6-2.4,32.1-3.1c21.5-1.3,43.1-1.1,59.5-0.9c1.7,0,3.5,0,5.3,0c12.9,0,25.1,0,31.3,10.7
	c2.7,4.6,3.6,10.4,4.4,16.4c2.9,22.4,3.2,39.3,0.8,54.8c-2,13-6.1,21.7-12.5,26.6c-5.2,4-12.4,5.6-18,6.5c-12,2-25,2.5-42.3,1.6
	c-7.5-0.4-15.1-1-22.7-1.8c-0.6-0.4-1.4-0.6-2.1-0.6c-0.6,0-1.2,0.1-1.7,0.2c-6.8-0.8-13.6-1.7-20.3-2.8
	C372.3,120.5,363.3,118.8,355.5,115.1z M426.4,136.9c5.3,0.3,10.3,0.4,14.9,0.4c0.1,49.6-0.2,99.8-1,149.7
	c-5.8-3.2-12.9-4.5-20.5-3.7c-5.5,0.6-10.6,2.1-15.3,4c-0.8-19.6-1.6-39.8-1.6-59.7c0-30.7,1.8-61.9,3.6-92.2
	C413.1,136,419.8,136.5,426.4,136.9z M405,297.9c5.7-2.4,10.8-4.1,15.9-4.6c6.7-0.7,13,0.8,17.1,4.2c0.6,0.5,1.4,0.8,2.1,1
	c-0.3,14.8-0.6,29.6-0.9,44.3c-10.7-0.9-21.6-0.9-32.4,0L405,297.9z M480.9,455.7c-12.7,19.4-29.5,34.7-48.4,44.1
	c-1.6,0.8-3.4,1.6-5,2c-2.8,0.6-6.1-0.2-9-1.1c-22.8-6.8-43.6-25.3-56.9-50.8c-13-24.8-18.1-52.6-21.3-76.7
	c10.9-6.1,22.6-11,34.9-14.5c21.9-6.3,45.5-8.2,68.3-5.5c11.5,1.4,22.8,3.9,33.5,7.5c1.2,0.4,2.5,0.8,3.8,1.2
	c7.6,2.3,17,5.2,18.3,11.7C504.6,399.7,498,429.6,480.9,455.7z"/>
</svg>
