<?xml version="1.0" encoding="utf-8"?>
<!-- Generator: Adobe Illustrator 25.2.3, SVG Export Plug-In . SVG Version: 6.00 Build 0)  -->
<svg version="1.1" id="Capa_1" xmlns="http://www.w3.org/2000/svg" xmlns:xlink="http://www.w3.org/1999/xlink" x="0px" y="0px"
	 viewBox="0 0 512 512" style="enable-background:new 0 0 512 512;" xml:space="preserve">
<style type="text/css">
	.st0{fill:#CC644F;}
	.st1{fill:#8CBEA3;}
	.st2{fill:#CFCB9D;}
	.st3{fill:#E1B946;}
	.st4{fill:#282828;}
</style>
<path class="st0" d="M214.2,385.6c-27.6,0-55.4-0.2-82.7-0.7c-0.2,0-0.2,0-0.3,0l-2.8,0.3l-1.2-2.5c-1.2-2.6-2.6-5.1-4.2-7.5
	c-7.7-11.8-20.2-19.5-34.4-21.3c-2.1-0.3-4.3-0.4-6.4-0.4c-12.6,0-24.6,4.6-33.9,13.1c-3.4,3.1-6.4,6.7-8.9,10.7l-1.4,2.3l-2.6-0.5
	c-1,0-2,0.1-2.9,0.1c-6.9,0-12.2-1.1-16.7-3.6c-6.2-3.4-10.1-9.7-9.6-15.7c0.4-5.2,4.3-14.4,25.3-18.3c23.1-4.3,46.3-5.5,72.1-6.6
	c77.5-3.3,156.1-5,233.6-5h1.6c45.6,0,94.1,0.5,142.3,7c9.4,1.3,18.7,3.4,23,10.7c5.3,8.8-0.6,20.9-9.1,26.1
	c-9.1,5.6-20.9,6-30.3,6.3l-2.4,0.1L461,378c-0.6-0.9-1.1-1.9-1.7-2.8c-7.7-11.7-20.2-19.5-34.4-21.3c-2.1-0.3-4.3-0.4-6.4-0.4
	c-12.6,0-24.6,4.6-33.9,13.1c-4.5,4.1-8.2,9-11.1,14.6l-1.3,2.5l-2.7-0.3c-0.1,0-0.2,0-0.3,0C318,384.8,265.8,385.6,214.2,385.6z"/>
<path class="st1" d="M43.8,334.2c0-0.1-0.1-0.2-0.1-0.4c-10.3-25.1-20-51-28.7-76.9c-2.1-6.3-3.8-13.4,0-18.2
	c2.1-2.7,5.7-4.1,9.3-5.2c12.6-3.8,25.7-5.4,39.2-6.9c61.9-6.6,130.3-9.8,209.3-9.8c66.8,0,133.8,2.2,198.7,4.4
	c15.9,0.5,25.2,5.1,27,13.3c0.9,4.2-0.5,8.6-1.8,12.4l-27.9,86.2l-3.2-0.3c-43.6-4.7-88.3-5.1-126.9-5.1h-1.6
	c-77.6,0-156.2,1.7-233.7,5c-18.9,0.8-37.3,1.7-55.3,4l-3.2,0.4L43.8,334.2z"/>
<path class="st2" d="M421.8,450.2c-8.3,0-16.7-1.9-25-5.5c-7.6-3.4-13.7-7.7-17.9-12.9c-5.6-6.7-8.8-15.8-9.1-25.4
	c-0.5-14.3,5.6-28.6,16.2-38.3c8.9-8.1,20.4-12.6,32.5-12.6c2,0,4.1,0.1,6.2,0.4c13.6,1.7,25.6,9.2,33,20.4c6,9.2,9.4,19.9,9.4,30
	c0,10.9-3.8,21.5-10.5,29.2c-6.8,7.7-17,12.9-28.1,14.3C426.2,450,424,450.2,421.8,450.2z M418.4,383.5c-4.9,0-9.6,1.8-13.3,5.1
	c-4.3,3.9-6.8,9.8-6.6,15.6c0.1,4,1.5,7.7,3.8,10.5c1.8,2.1,4.2,3.9,7.3,5.3c3.3,1.5,6.7,2.2,10,2.2c0.9,0,1.8-0.1,2.7-0.2
	c4.6-0.6,8.7-2.7,11.5-5.9c2.8-3.2,4.3-7.5,4.3-12c0-4.2-1.3-8.4-3.8-12.1c-3-4.6-7.9-7.7-13.5-8.4
	C420.1,383.5,419.2,383.5,418.4,383.5z"/>
<path class="st3" d="M419.6,420.1c-3,0-6.1-0.7-9.2-2c-2.8-1.2-5-2.8-6.6-4.7c-2-2.4-3.2-5.7-3.3-9.2c-0.2-5.2,2.1-10.5,5.9-14
	c3.2-3,7.5-4.6,11.9-4.6c0.7,0,1.5,0,2.2,0.1c5,0.6,9.3,3.3,12,7.5c2.2,3.4,3.4,7.3,3.5,11c0,4-1.4,7.9-3.8,10.6
	c-2.5,2.8-6.2,4.7-10.2,5.2C421.3,420.1,420.5,420.1,419.6,420.1z"/>
<path class="st0" d="M148.8,125.3c-5.9,0-11.5-1.5-16.3-4.4c-12.1-7.2-18.2-23.8-13.6-36.9c3.4-9.6,13-17.9,24.7-21.3
	c3.7-1.1,7.3-1.6,10.9-1.6c6.7,0,12.8,2,17.6,5.7c3.1,2.4,5.7,5.9,7.6,10.2c5.8,13.1,2.5,29.6-7.7,39.3
	C165.9,122,157.5,125.3,148.8,125.3z"/>
<path class="st2" d="M85.4,450.2c-8.3,0-16.7-1.9-25-5.5c-7.6-3.4-13.7-7.7-18-12.9c-5.6-6.8-8.8-15.8-9.1-25.4
	c-0.5-14.3,5.6-28.6,16.1-38.3c8.9-8.1,20.4-12.6,32.5-12.6c2.1,0,4.1,0.1,6.2,0.4c13.6,1.7,25.6,9.2,33,20.4c6,9.2,9.4,19.9,9.4,30
	c0,10.9-3.8,21.5-10.5,29.2c-6.8,7.7-17,12.9-28,14.3C89.9,450,87.6,450.2,85.4,450.2z M82,383.5c-4.9,0-9.6,1.8-13.3,5.1
	c-4.3,3.9-6.8,9.8-6.6,15.6c0.1,4,1.5,7.7,3.8,10.5c1.8,2.1,4.2,3.9,7.3,5.3c3.3,1.5,6.7,2.2,10,2.2c0.9,0,1.8-0.1,2.7-0.2
	c4.6-0.6,8.7-2.7,11.5-5.9c2.8-3.1,4.3-7.5,4.3-12c0-4.1-1.3-8.3-3.8-12.1c-3-4.6-7.9-7.7-13.5-8.4C83.7,383.5,82.8,383.5,82,383.5z
	"/>
<path class="st3" d="M42.6,222.7c0.2-23.5,7.4-47.1,20.4-66.6c13-19.5,32.1-35.2,53.7-44.4l3-1.3l1.8,2.7c2.2,3.2,4.8,5.9,7.8,8
	l4.9,3.5l-5.1,3.1c-28.4,17.5-45.2,44.7-54.3,64.4c-3.5,7.7-7.7,17.9-8.3,28.8l-0.2,3.4l-3.4,0.4c-4.3,0.5-10,1.1-15.8,1.9l-4.6,0.7
	L42.6,222.7z"/>
<path class="st3" d="M83.3,420.1c-3,0-6.1-0.7-9.2-2c-2.8-1.2-5-2.8-6.6-4.7c-2-2.4-3.2-5.7-3.3-9.2c-0.2-5.2,2.1-10.5,5.9-14
	c3.2-3,7.5-4.6,11.9-4.6c0.7,0,1.5,0,2.2,0.1c5,0.6,9.3,3.3,12,7.5c2.2,3.4,3.5,7.3,3.5,11c0,4-1.4,7.9-3.8,10.6
	c-2.4,2.8-6.2,4.7-10.2,5.2C84.9,420.1,84.1,420.1,83.3,420.1z"/>
<path class="st4" d="M85,379.7c-6.9-0.9-13.8,1.3-19,6c-5.2,4.7-8.1,11.7-7.9,18.7c0.2,4.8,1.8,9.4,4.7,12.9
	c2.2,2.6,5.1,4.8,8.8,6.4c3.8,1.7,7.8,2.6,11.7,2.6c1.1,0,2.1-0.1,3.2-0.2c5.6-0.7,10.5-3.3,14-7.2c3.4-3.9,5.4-9.2,5.3-14.6
	c0-4.9-1.6-9.9-4.4-14.3C97.7,384.2,91.7,380.5,85,379.7z M92.9,412.1c-1.8,2.1-4.6,3.5-7.7,3.9c-3,0.4-6.3-0.2-9.5-1.6
	c-2.2-1-3.9-2.2-5.1-3.6c-1.5-1.8-2.3-4.2-2.4-6.8c-0.1-4,1.6-8.2,4.6-10.9c3-2.7,6.9-3.9,10.9-3.4c3.9,0.5,7.1,2.5,9.2,5.7
	c1.8,2.8,2.8,5.9,2.8,8.8C95.8,407.2,94.7,410.1,92.9,412.1z"/>
<path class="st4" d="M421.4,379.7c-6.9-0.9-13.8,1.3-19,6c-5.2,4.7-8.1,11.7-7.9,18.7c0.2,4.8,1.8,9.4,4.7,12.9
	c2.2,2.6,5.1,4.8,8.8,6.4c3.8,1.7,7.8,2.6,11.7,2.6c1.1,0,2.1-0.1,3.2-0.2c5.6-0.7,10.5-3.3,14-7.2c3.4-3.9,5.4-9.2,5.3-14.6
	c0-4.9-1.6-9.9-4.4-14.3C434.1,384.2,428.1,380.5,421.4,379.7z M429.3,412.1c-1.8,2.1-4.6,3.5-7.7,3.9c-3,0.4-6.3-0.2-9.5-1.6
	c-2.2-1-3.9-2.2-5.1-3.6c-1.5-1.8-2.3-4.2-2.4-6.8c-0.1-4,1.6-8.2,4.6-10.9c3-2.7,6.9-3.9,10.9-3.4c3.9,0.5,7.1,2.5,9.2,5.7
	c1.8,2.8,2.8,5.9,2.8,8.8C432.1,407.2,431.1,410.1,429.3,412.1z"/>
<path class="st4" d="M509.1,344.4c-5.7-9.5-17-12.1-27.4-13.5c-1.9-0.2-3.7-0.5-5.6-0.7l26.2-81.1c1.4-4.4,3.2-9.9,2-15.6
	c-1.7-7.8-8.7-17.3-32.7-18.1c-130.9-4.3-266.1-8.8-399,4.5c0.9-9.3,4.5-18.2,7.7-25c9.5-20.5,27.1-48.4,57.3-64.8
	c0.1-0.1,0.2-0.1,0.3-0.2c3.5,1,7.2,1.5,10.9,1.5c10,0,20.1-3.6,27.4-10.6c12-11.4,15.8-30.8,9-46.2c-2.3-5.3-5.5-9.5-9.4-12.5
	c-8.9-6.9-21.3-8.8-33.9-5.1c-13.6,4-24.6,13.6-28.7,25.1c-2.8,7.9-2.4,16.6,0.4,24.5c-22.4,9.6-42.2,26-55.7,46.3
	c-14,20.9-21.6,46.3-21.4,71.5c0,0.1,0,0.1,0,0.2c-4.7,0.9-9.4,2-14,3.4c-4.5,1.4-9.1,3.2-12.2,7.2c-6.3,8-2.5,19.1-0.9,23.8
	c8.5,25.4,17.9,50.7,28.1,75.5c-2.4,0.4-4.7,0.8-7.1,1.2c-18.2,3.4-29.3,12-30.3,23.7c-0.7,8.3,4.4,17,12.7,21.5
	c5,2.7,10.9,4.1,18.2,4.3c-2.6,6.8-3.9,14.1-3.6,21.5c0.4,11,4.1,21.3,10.5,29.1c4.9,5.9,11.7,10.8,20.2,14.6c9,4,18.4,6,27.4,6
	c2.5,0,4.9-0.1,7.3-0.5c12.5-1.6,24.1-7.5,31.8-16.3c7.7-8.7,12.1-20.8,12-33.2c0-5.1-0.8-10.2-2.2-15.3c26.5,0.4,53,0.6,79.7,0.6
	c50.6,0,101.4-0.7,151.8-2.2c-1.6,5.6-2.4,11.3-2.2,17.1c0.4,11,4.1,21.3,10.5,29.1c4.9,5.9,11.7,10.8,20.2,14.6c9,4,18.4,6,27.4,6
	c2.5,0,4.9-0.1,7.3-0.5c12.5-1.6,24.1-7.5,31.8-16.3c7.7-8.7,12.1-20.8,12-33.2c0-6.9-1.3-13.8-3.8-20.4c9.3-0.4,19.9-1.5,28.8-7.1
	c5.5-3.4,10-8.8,12.3-14.9C512.9,357,512.5,350.1,509.1,344.4z M122.7,85.3c2.9-8.4,11.6-15.8,22-18.8c9.5-2.8,18.6-1.6,24.9,3.4
	c2.6,2,4.7,4.9,6.4,8.7c5.1,11.6,2.3,26.3-6.8,34.8c-9.1,8.7-24,10.4-34.6,4.1C124,111.1,118.7,96.7,122.7,85.3z M66.3,158.3
	c12.6-18.9,31-34.1,51.9-42.9c2.4,3.5,5.3,6.6,8.8,9c-29.1,17.9-46.3,45.5-55.8,66.1c-3.7,8.1-8,18.7-8.7,30.3
	c-5.3,0.6-10.6,1.2-15.9,1.9C46.7,200,53.7,177.2,66.3,158.3z M47.5,332.4c-10.4-25.1-20-51-28.6-76.7c-1.8-5.3-3.3-11.2-0.7-14.4
	c1.5-1.9,4.4-2.9,7.3-3.8c12.3-3.7,25.2-5.3,38.5-6.7c135.3-14.4,273.6-9.8,407.4-5.4c7.9,0.3,21.4,1.9,23.2,10.2
	c0.7,3.1-0.6,7-1.7,10.4l-26.9,83c-43-4.6-86.3-5.1-127.3-5.1c-0.5,0-1,0-1.6,0c-77.6,0-156.3,1.7-233.8,5
	c-19.7,0.8-37.8,1.8-55.6,4C47.6,332.8,47.5,332.6,47.5,332.4z M117.1,432.8c-6.1,7-15.5,11.7-25.6,13c-9.5,1.2-19.6-0.5-29.4-4.8
	c-7.1-3.1-12.6-7.1-16.5-11.8c-5-6.1-7.9-14.2-8.2-23c-0.4-13.2,5.1-26.3,14.9-35.2c9.6-8.7,22.5-12.8,35.5-11.2
	c12.4,1.6,23.4,8.4,30.1,18.6c5.6,8.6,8.7,18.5,8.8,27.8C126.6,416.2,123.2,425.9,117.1,432.8z M453.4,432.8
	c-6.1,7-15.5,11.7-25.6,13c-9.5,1.2-19.6-0.5-29.4-4.8c-7.1-3.1-12.6-7.1-16.5-11.8c-5-6.1-7.9-14.2-8.2-23
	c-0.4-13.2,5.1-26.3,14.9-35.2c9.6-8.7,22.5-12.8,35.5-11.2c12.4,1.6,23.4,8.4,30.1,18.6c5.6,8.6,8.7,18.5,8.8,27.8
	C463,416.2,459.5,425.9,453.4,432.8z M492.8,370.2c-8.1,5-18.8,5.4-28.3,5.7c-0.6-1-1.2-2-1.8-3c-8.3-12.7-21.9-21.2-37.3-23.1
	c-15.9-2-31.8,3-43.5,13.7c-4.9,4.5-8.9,9.8-11.9,15.7c-0.2,0-0.4-0.1-0.6-0.1c-0.1,0-0.1,0-0.2,0c-78.9,2.3-158.9,2.9-237.9,1.6
	c-0.2,0-0.4,0-0.6,0.1c-1.3-2.7-2.8-5.4-4.5-8c-8.3-12.7-21.9-21.2-37.3-23.1c-15.9-2-31.8,3-43.5,13.7c-3.7,3.4-6.9,7.3-9.5,11.5
	c-0.3,0-0.6-0.1-0.9-0.1c-7.6,0.3-13.1-0.6-17.4-3c-4.8-2.6-7.9-7.5-7.5-11.8c0.8-9.7,15.7-13.5,22.1-14.7
	c22.8-4.2,45.9-5.5,71.5-6.5c77.4-3.3,155.9-5,233.4-5h1.6c45.7,0,94.2,0.6,141.7,6.9c8.4,1.1,16.7,3,20.1,8.7
	C504.5,356.2,499.7,366,492.8,370.2z"/>
</svg>
