<?xml version="1.0" encoding="utf-8"?>
<!-- Generator: Adobe Illustrator 25.2.3, SVG Export Plug-In . SVG Version: 6.00 Build 0)  -->
<svg version="1.1" id="Capa_1" xmlns="http://www.w3.org/2000/svg" xmlns:xlink="http://www.w3.org/1999/xlink" x="0px" y="0px"
	 viewBox="0 0 512 512" style="enable-background:new 0 0 512 512;" xml:space="preserve">
<style type="text/css">
	.st0{fill:#FFFFFF;}
	.st1{fill:#D4B1A6;}
	.st2{fill:#CC644F;}
	.st3{fill:#E1B946;}
	.st4{fill:#282828;}
</style>
<path class="st0" d="M382.3,263c9.8-10.7,17.6-21.8,23.1-33c8.3-16.7,12.5-35.5,15.6-51.7c3.2-16.7,6.2-36.4,4.6-55.9
	c-1.1-13-4.1-25.7-7-38l-5.9-25.1l9.3,8c15.9,13.7,29.5,30.4,41.6,51.3l0.4,0.7l0.1,0.8c2.7,24.1-2.1,49.9-7.3,74.4
	c-4.2,19.8-12.9,46.7-30.9,62.3l-0.6,0.5l-0.7,0.2c-12.5,4.4-25.4,8.4-38.3,11.9l-13.3,3.6L382.3,263z"/>
<path class="st0" d="M322,184c-2.9,0-6.1-0.1-9.7-0.3c-25.6-1.6-50.8-6.4-74.1-11.3c-8.8-1.9-16.1-3.5-23.1-6.7
	c-5.7-2.5-13.4-7.2-18-14.9c-4.6-7.6-5.7-17.6-3.1-27.3c3.2-12,11.9-22.4,23-27.8c10.4-5.1,22.5-5.8,33.9-5.8l1.1,0
	c10.2,0,20.7,0.5,31,1.5c28.4,2.8,67.2,6.6,81.9,34.9c8.3,16,4.9,37-7.7,47.7C349.1,180.7,337.6,184,322,184z M256.1,107.3
	c-9.3,0-17.3,1-24.4,3c-5.3,1.5-9.2,3.4-12.3,6c-4,3.2-6.5,7.6-6.9,12c-0.5,5.2,1.8,10.8,6.3,15.1c4,3.9,9.1,6.3,14,8.4
	c22,9.3,47.7,14.2,76.2,14.6c0.8,0,1.6,0,2.4,0c7.5,0,16.3-0.5,24.2-4c9.3-4.1,15.7-12.3,16.3-20.8c0.6-8.9-5.9-19.3-19.4-22.1
	c-5.5-1.1-11.2-2.5-16.2-3.8l-0.5-0.1c-7.2-1.8-14.7-3.6-22.2-4.9c-8.1-1.3-16.5-2.3-24.7-2.9C264.1,107.5,259.9,107.3,256.1,107.3z
	"/>
<path class="st0" d="M117.4,189.5c-12.9-49-1.4-104.2,29.8-144c0,0,0.1-0.2,0.2-0.4l0.4-2.1l2-0.8c8.9-3.5,18-6.6,27-9.3l9.9-2.9
	l-5.4,8.9c-25.7,42.4-36.7,94.8-30.1,143.7l0.5,4l-4,0.5c-8.8,1.2-17.3,3-25.5,5.4l-4,1.2L117.4,189.5z"/>
<path class="st1" d="M439.5,244.4c10.7-15.8,16.4-35.6,19.3-49.4c3.5-16.6,7.3-35.8,8-54.3l7.6-1.6c12.1,25.2,21.7,53.2,30.3,79.8
	l1,3.2l-3,1.6c-18.9,9.9-38.6,18.9-58.5,26.7l-12,4.7L439.5,244.4z"/>
<path class="st1" d="M314.8,280.9c-2.8-8.5-6.4-16.8-10.6-24.5c-11.8-21.8-28.7-39.5-48.8-51.2c-20.9-12.2-50-19.2-82.2-19.8
	c-1,0-2,0-3,0c-4.1,0-8.4,0.2-12.7,0.5l-3.6,0.3l-0.6-3.9l0-0.2c-6.9-51.7,5.6-106.3,34.5-149.8c0-0.1,0.1-0.2,0.1-0.4l0.5-2.4
	l2.4-0.6c26.2-6.6,52.9-9.9,79.4-9.9c11.8,0,23.6,0.7,35.2,2c40.8,4.7,76.9,17.4,104.3,36.8l2.3,1.6l-0.8,2.7c-0.1,0.3,0,0.4,0,0.5
	l5.3,22.4c2.9,12.2,5.8,24.8,6.9,37.5c1.6,19.3-1.4,38.8-4.6,55.4c-3.2,16.8-7.2,34.6-15.4,51.1c-7.6,15.3-19.1,30.1-34.3,44.1
	c-0.1,0.1-0.1,0.1-0.2,0.2l-0.8,0.8l-1.1,0.3c-15.8,3.7-31.9,6.8-48,9.2l-3.3,0.5L314.8,280.9z M250.8,87.8c-11.7,0-24,0.8-34.8,6
	c-11.7,5.7-20.7,16.6-24.1,29.1c-2.8,10.3-1.6,20.8,3.3,28.9c3.9,6.5,10.4,11.9,18.9,15.7c7.3,3.2,15,5,23.6,6.8
	c23.4,4.9,48.7,9.7,74.4,11.4c3.8,0.2,6.9,0.3,9.9,0.3c16.1,0,28-3.5,36.4-10.6c13.6-11.5,17.1-33,8.2-50.2
	c-15.2-29.2-54.6-33.1-83.5-35.9c-10.4-1-21-1.6-31.5-1.6H250.8z"/>
<g>
	<path class="st2" d="M311.3,164.4c-0.8,0-1.6,0-2.4,0l-9.1-0.1l6.2-6.6c9.3-10,18.3-20.3,26.6-30.7c0.1-0.1,0.1-0.2,0.2-0.4l1.2-5
		l4.5,2.4c7.4,3.9,11.6,10.4,11.2,17.6c-0.6,9.4-8.5,16.2-15.1,19.1C327.2,163.9,319,164.4,311.3,164.4z"/>
	<path class="st2" d="M280.2,110.9l7.6,1.1c1.8,0.3,3.6,0.5,5.3,0.8c7.5,1.2,15,3.1,22.3,4.9l0.9,0.2c3.7,0.9,7.5,1.9,11.3,2.7
		l6.3,1.4l-4,5c-7.1,8.9-14.7,17.6-22.5,26.1l-3.9,4.2L280.2,110.9z"/>
	<path class="st3" d="M282.7,431.4c-9.4-0.8-18.6-5.1-25.2-11.7c-4.5-4.5-7.8-9.9-11.3-15.5c-3-4.8-6-9.7-9.9-14
		c-9.1-10.2-23-16.4-37.9-17l-3.5-0.1l-0.3-3.5c-0.4-4.7-0.8-8.9-1.3-13l-0.4-3.5l3.4-0.8c6.4-1.6,12.8-3.3,19-5.3
		c37.4-11.8,70-31,94.2-55.5l5.1-5.1l1.7,7c2.5,10.5,3.9,21.2,4.1,31.9c0.6,33.4-9.9,68.4-29.7,98.5c-1.3,2-2.7,4-4.3,6.2l-1.3,1.9
		L282.7,431.4z"/>
	<path class="st3" d="M192,346.4c-0.8-5.9-1.8-12.1-2.9-18.3l-0.6-3.1l2.9-1.3c0.1-0.1,0.3-0.1,0.4-0.2l0.2-0.1
		c12.1-5.5,22.7-15.2,30.7-28.2c6.5-10.5,11.4-23.3,15-39.1c0.4-1.7,0.7-3.3,1.1-5l0-0.1c1.5-6.9,2.9-13.5,5.7-19.8
		c2.2-5,7.1-13.7,16-17.4l1.8-1.9l2.8,2.1c15,11.1,27.9,26.1,37.3,43.4c4.2,7.7,7.7,15.9,10.4,24.2l0.7,2.2l-1.6,1.7
		c-24.3,26.4-58,46.8-97.4,59.2c-5.6,1.8-11.6,3.4-17.7,4.9l-4.3,1.1L192,346.4z"/>
	<path class="st2" d="M297.9,164c-14.2-0.8-27.8-2.8-40.3-6l-5.6-1.4l28.2-41.2l24.6,49L297.9,164z"/>
	<path class="st2" d="M249.7,145.9c-4.6-9-9.6-19.7-11.3-31l-0.6-4l4-0.6c4.4-0.6,9-1,14.1-1c3.8,0,7.9,0.2,12.7,0.5
		c1.8,0.1,3.6,0.3,5.4,0.5l6.8,0.6l-28,40.8L249.7,145.9z"/>
	<path class="st3" d="M187.8,486.5c6.2-17.7,7.6-36.2,8.2-53.6c0.7-18.2,0.4-36.2-0.7-53.5l-0.3-4.5l4.5,0.3
		c13.9,0.9,26.7,6.8,35.2,16.3c3.7,4.2,6.6,8.8,9.6,13.8c3.4,5.5,6.9,11.2,11.6,15.9c5.6,5.6,13,9.7,21,11.4l6.3,1.4l-4.1,5
		c-16.1,19.8-35.8,35-56.9,44c-9.4,4-19.5,6.9-30,8.7l-6.7,1.1L187.8,486.5z"/>
	<path class="st3" d="M187.1,318c-9.5-45.4-26.4-86.3-50.3-121.5l-3.4-5.1l6-1.1c10.2-1.9,20.6-2.9,30.9-2.9c1,0,2,0,3.1,0
		c31.8,0.6,60.6,7.5,81.2,19.5c0.2,0.1,0.3,0.2,0.5,0.3l0.3,0.2l5.5,3.3l-5.3,3.5c-5.3,3.5-9.8,9.1-12.8,16.2
		c-2.9,6.5-4.4,13.5-5.8,20.3l-0.3,1.4c-0.3,1.2-0.5,2.4-0.8,3.6c-3.6,15.6-8.4,28.1-14.7,38.4c-7.4,12.1-17.2,21.3-28.2,26.7
		l-4.6,2.3L187.1,318z"/>
	<path class="st2" d="M243.9,153.9c-3.6-1.2-7.1-2.6-10.4-3.9c-4.7-2-9.6-4.3-13.4-8c-4-3.9-6.1-8.9-5.7-13.4
		c0.4-3.8,2.6-7.7,6.2-10.6c2.7-2.2,6.1-3.9,10.7-5.3l4.4-1.3l0.7,4.5c1.9,11.6,7,22.5,12.2,32.4l4.6,8.9L243.9,153.9z"/>
	<path class="st3" d="M166.8,493.9c-22.9,0-46.9-5.1-69.4-14.6c-0.9-0.4-1.7-0.7-2.5-1.1l-10-4.5l9.2-3.4c12.2-4.5,21-10.3,27-17.7
		c5.7-7.1,8.8-15.8,11.9-24.2c1.5-4.1,3-8.3,4.8-12.3c8.6-19,24.6-33.5,42.7-38.8c2.7-0.8,5.5-1.4,8.3-1.7l4.2-0.6l0.3,4.3
		c1.1,17.4,1.4,35.4,0.7,53.6c-0.7,18.9-2.3,39-9.8,57.5c0,0-0.8,2.7-0.8,2.7l-2.7,0.2C176.2,493.6,171.5,493.9,166.8,493.9z"/>
	<path class="st3" d="M80.7,471.2c-22.6-12.3-41-28.8-53.3-47.6c-12.3-18.8-19.6-41.4-21.1-65.3L6,352.8l5.2,1.2
		c24.7,5.9,51.5,8.6,84.2,8.6c1.7,0,3.3,0,5,0c32.1-0.3,60.2-3,86.1-8.5l4.3-0.9l0.5,4.4c0.4,3.6,0.8,7.3,1.1,11.4l0.3,3.8l-3.8,0.5
		c-3.1,0.4-6.2,1-9.1,1.9c-18.7,5.5-35.2,20.4-44,39.9c-1.8,4-3.4,8.3-4.9,12.4c-3.1,8.7-6.1,16.8-11.6,23.6
		c-9.2,11.5-23.9,16.8-35.7,20.2l-1.6,0.5L80.7,471.2z"/>
	<path class="st3" d="M95.5,360.7c-33.7,0-61.2-2.9-86.4-9.2L6,350.7l0-3.2c0.1-11.3,1.5-22.7,4.2-33.9c1.8-7.5,4.1-15,7.1-22.4
		c3.7-9.4,8.4-18.5,13.8-27.1l0.7-1.1l1.2-0.5c4.3-1.7,9.1-2.5,14.1-2.5c9.7,0,19.9,3.1,29.5,8.9c11,6.6,20.3,15.9,29.4,24.9
		l0.1,0.1c1.9,1.9,3.9,3.8,5.8,5.7c11.2,10.9,23.6,21.6,39.1,26.4c5.5,1.7,11.2,2.5,17,2.5c4.8,0,9.7-0.6,14.4-1.8l4.2-1l0.8,4.2
		c1.1,6,2,11.9,2.8,17.7l0.5,3.7l-3.6,0.8c-25.9,5.5-54.2,8.3-86.5,8.6C98.8,360.7,97.1,360.7,95.5,360.7z"/>
	<path class="st3" d="M168,326.5c-5.6,0-11.2-0.8-16.4-2.4c-15.1-4.7-27.3-15.2-38.3-25.9c-1.9-1.9-3.9-3.8-5.8-5.7
		c-9.1-9.1-18.6-18.5-29.9-25.3c-10-6-20.5-9.2-30.4-9.2c-1.4,0-2.7,0.1-4,0.2l-9.1,0.8l5.5-7.2c13.1-17.2,29.1-31.3,47.4-42
		c12.8-7.5,26.7-13.2,41.3-16.9l2.7-0.7l1.6,2.3c25.2,36.1,42.9,78.4,52.6,125.6l0.8,3.7l-3.7,1C177.8,325.9,172.9,326.5,168,326.5z
		"/>
</g>
<path class="st1" d="M104.8,196.4l-0.2-0.2c-26.1-21.2-50.4-44.9-72.1-70.5l-2.3-2.7l2.5-2.6c28.1-29.6,61.7-53.4,100-71l12.6-5.8
	l-7.6,11.6c-25.9,39.5-34.2,89.9-22.3,134.9l1.9,3.7l-4.3,1.5c-1.2,0.4-2.6,0.9-4.2,1.6l-1.9,0.8L104.8,196.4z"/>
<path class="st4" d="M511.8,221c-9.3-29-19.6-59.7-33.4-87.5c-2.8-5.6-5.6-11-8.6-16.1c-0.2-0.7-0.6-1.2-1-1.8
	c-13.5-23.1-28.8-41.5-46.4-55.9C393,35.8,352.9,20.4,306.2,15c-103-11.8-210.7,28.3-281,104.5c-1.7,1.8-1.8,4.7-0.2,6.6
	c21.6,26,45.8,50.1,71.9,71.6c-4.4,2.1-8.7,4.3-12.9,6.8c-32.6,19-58.3,49-72.4,84.5c-3,7.6-5.5,15.4-7.3,23.3
	c-9.6,40.7-3,82.5,18,114.6c16.1,24.5,41.2,44.5,72.8,57.9c23.6,10,48.1,15.1,71.7,15.1c20.4,0,40.1-3.8,57.8-11.3
	c27.6-11.8,52.2-33.1,70.9-61.7c20.4-31.1,31.3-67.3,30.7-101.9c-0.2-12-1.9-23.9-4.8-35.5c35.6-5.4,70.4-14,104.1-25.7
	c1,0,1.9-0.4,2.8-1c27.8-9.8,54.8-21.7,81-35.7C511.5,225.9,512.5,223.4,511.8,221z M460.2,120.6c2.6,23.4-2.1,48.9-7.2,73.1
	c-4.1,19.4-12.5,45.3-29.6,60.1c-12.5,4.4-25.2,8.3-38.1,11.8c10-11,18-22.3,23.7-34c8.5-17.2,12.8-36.3,15.9-52.7
	c3.2-16.9,6.3-37,4.7-57c-1.1-13.2-4.1-26.1-7.1-38.6l-3.1-13.1C436,84.6,449.1,101.6,460.2,120.6z M262.7,217.3
	C262.7,217.3,262.8,217.3,262.7,217.3c14.7,10.8,27,25.1,36.2,42c4.1,7.5,7.5,15.4,10.1,23.6c-23.8,25.8-56.9,45.9-95.6,58.1
	c-5.7,1.8-11.5,3.4-17.5,4.9c-0.9-6.3-1.9-12.4-3-18.5c0.2-0.1,0.5-0.2,0.7-0.3c12.8-5.8,24-16.1,32.4-29.8
	c6.7-10.9,11.8-24.1,15.5-40.3c0.4-1.7,0.7-3.3,1.1-5c1.5-6.8,2.9-13.2,5.4-19.1C250.1,228.4,254.6,220.3,262.7,217.3z M238.9,228.9
	c-3,6.9-4.6,14.1-6.1,21c-0.4,1.6-0.7,3.3-1.1,4.9c-3.5,15.1-8.1,27.3-14.2,37.2c-7,11.4-16.2,20.1-26.6,25.2
	c-9.6-46-26.6-87.1-51-122.9c9.9-1.8,20-2.8,30.2-2.8c1,0,2,0,3,0c31.1,0.6,59.2,7.3,79.2,18.9c0.3,0.2,0.5,0.3,0.8,0.5
	C247.3,214.9,242.3,221,238.9,228.9z M121.3,188.5c-12.6-47.8-1.4-101.6,29.1-140.5c0.5-0.6,0.8-1.4,1-2.1
	c8.8-3.4,17.7-6.5,26.7-9.2C151.7,80,140.6,132.8,147.4,183C138.5,184.1,129.8,186,121.3,188.5z M107.3,193.2
	c-26-21-50.1-44.6-71.6-70.1c28-29.5,61.8-53.2,98.7-70.1c-26.3,40.2-35.1,92.1-22.7,138.5c0,0,0,0,0,0.1
	C110.3,192.1,108.8,192.7,107.3,193.2C107.3,193.2,107.3,193.2,107.3,193.2z M89.2,213.1c12.6-7.3,26.2-12.9,40.3-16.5
	c25,35.9,42.4,77.4,52,124.1c-9.4,2.5-19.5,2.3-28.8-0.5c-14.2-4.4-26-14.6-36.6-24.9c-1.9-1.9-3.8-3.8-5.8-5.7
	c-9.3-9.3-19-18.9-30.6-25.9c-12.2-7.4-25.1-10.6-36.8-9.6C55.5,237.6,71.3,223.6,89.2,213.1z M14.1,314.6
	c1.7-7.4,4.1-14.7,6.9-21.8c3.7-9.3,8.2-18.1,13.5-26.5c11.5-4.5,26.4-2.2,40.1,6c10.6,6.4,19.8,15.6,28.7,24.4
	c1.9,1.9,3.9,3.9,5.8,5.8c11.5,11.2,24.5,22.3,40.7,27.3c5.9,1.8,12,2.7,18.2,2.7c5.2,0,10.4-0.7,15.4-1.9c1,5.8,2,11.6,2.8,17.5
	c-25.5,5.4-53.8,8.3-85.7,8.5c-35.6,0.3-64.4-2.6-90.4-9.1C10.2,336.7,11.5,325.6,14.1,314.6z M30.7,421.4
	c-12.1-18.4-19-40.3-20.4-63.4c24.8,5.9,52.2,8.7,85.2,8.7c1.7,0,3.3,0,5,0c32.2-0.3,60.9-3.1,86.9-8.6c0.4,3.7,0.8,7.5,1.1,11.3
	c-3.3,0.4-6.5,1.1-9.7,2c-19.8,5.8-37.2,21.5-46.5,42.1c-1.9,4.2-3.5,8.6-5,12.8c-3,8.3-5.8,16.1-10.9,22.5
	c-8.3,10.3-21.5,15.4-33.7,18.9C60.6,455.6,42.8,439.8,30.7,421.4z M99,475.6c-1.2-0.5-2.3-1-3.5-1.6c10.4-3.9,21.2-9.6,28.7-19
	c6.1-7.6,9.4-16.6,12.5-25.3c1.5-4.2,3-8.2,4.7-12c8.1-17.9,23.1-31.6,40.2-36.6c2.5-0.7,5.1-1.3,7.7-1.6
	c1.1,17.2,1.4,34.9,0.7,53.2c-0.7,18.6-2.3,38.4-9.6,56.4c0,0.1,0,0.1-0.1,0.2C154.1,491.6,126,487,99,475.6z M220.7,479.3
	c-9.2,3.9-19,6.7-29.1,8.5c6.3-18,7.8-36.9,8.4-54.8c0.7-18.5,0.4-36.5-0.7-53.9c12.6,0.8,24.5,6.1,32.5,15
	c3.5,3.9,6.3,8.4,9.2,13.2c3.5,5.7,7.2,11.6,12.2,16.6c6.2,6.2,14.3,10.6,22.9,12.5C260.3,455.8,241.4,470.5,220.7,479.3z
	 M287.2,421.4c-1.4,2.1-2.8,4.1-4.2,6.1c-8.5-0.8-16.7-4.6-22.7-10.6c-4.2-4.2-7.4-9.3-10.7-14.8c-3.1-4.9-6.2-10.1-10.3-14.6
	c-10-11.2-25.1-17.7-40.7-18.4c-0.4-4.4-0.8-8.8-1.3-13.1c6.6-1.6,13-3.4,19.2-5.3c38.2-12,71.2-31.5,95.8-56.5
	c2.4,10.1,3.8,20.6,4,31C316.8,357.8,306.5,391.9,287.2,421.4z M307.8,254.5c-12.1-22.4-29.5-40.6-50.3-52.7
	c-21.4-12.5-51.3-19.7-84.1-20.3c-5.4-0.1-10.7,0.1-16.1,0.5c0-0.1,0-0.1,0-0.2c-6.9-50.9,5.5-104.5,33.9-147.2
	c0.4-0.5,0.6-1.1,0.7-1.7c36.9-9.3,75.4-12.1,113.2-7.8c40.4,4.6,75.5,17,102.5,36.1c-0.2,0.8-0.3,1.6-0.1,2.5l5.2,22.2
	c2.9,12.1,5.8,24.7,6.8,37.1c1.5,18.8-1.4,38-4.5,54.3c-3.1,16.5-7.1,34-15.1,50.1c-7.3,14.9-18.6,29.3-33.6,43.1
	c-0.1,0.1-0.1,0.1-0.2,0.2c-15.7,3.7-31.6,6.8-47.7,9.2C315.7,271,312.1,262.6,307.8,254.5z M442.8,246.6
	c10.7-15.8,16.7-35.3,19.9-50.8c3.8-17.9,7.4-36.7,8.1-55c11.6,24.1,20.9,50.9,30.1,79.3C482,230.1,462.6,238.9,442.8,246.6z"/>
<path class="st4" d="M333.2,115.6c-5.3-1.1-10.8-2.4-16-3.7c-7.5-1.8-15.2-3.8-23.1-5.1c-8.3-1.4-16.7-2.4-25.1-3c0,0,0,0,0,0
	c-10.9-0.8-25-1.2-38.4,2.7c-5.8,1.7-10.2,3.8-13.7,6.7c-4.8,3.9-7.8,9.2-8.4,14.7c-0.6,6.4,2.1,13.3,7.5,18.4
	c4.5,4.3,10,7,15.2,9.2c22.5,9.5,48.7,14.5,77.7,14.9c0.8,0,1.6,0,2.4,0c8.6,0,17.6-0.7,25.8-4.3c10.7-4.7,18-14.2,18.6-24.2
	C356.4,131.3,348.9,118.9,333.2,115.6z M314.8,121.7c3.9,1,8,2,12.1,2.9c-7.1,8.8-14.6,17.5-22.3,25.9l-17.3-34.5
	c1.8,0.3,3.5,0.5,5.2,0.8C299.9,118,307.5,119.9,314.8,121.7z M298.1,160c-14-0.8-27.2-2.8-39.6-5.9l21.1-30.8L298.1,160z
	 M255.9,113.4c4.3,0,8.5,0.2,12.4,0.5c1.8,0.1,3.6,0.3,5.3,0.4L253.3,144c-4.9-9.5-9.4-19.4-10.9-29.7
	C246.9,113.6,251.5,113.4,255.9,113.4z M222.9,139.1c-3.1-3-4.8-6.8-4.5-10.2c0.3-2.8,2-5.7,4.7-7.9c2.3-1.9,5.3-3.4,9.4-4.6
	c2,12.2,7.2,23.4,12.6,33.7c-3.4-1.2-6.8-2.5-10.1-3.8C230.7,144.4,226.2,142.3,222.9,139.1z M345.8,141.2
	c-0.5,7.2-6.7,13-12.7,15.7c-6.8,3-14.6,3.6-24.1,3.4c0,0,0,0,0,0c9.3-9.9,18.3-20.3,26.8-30.9c0.5-0.6,0.8-1.3,0.9-2
	C342,130.2,346.1,135.1,345.8,141.2z"/>
<path class="st4" d="M370.2,123.5c-16.2-31.1-56.9-35.2-86.6-38.1c-10.9-1.1-21.9-1.6-32.8-1.6c-12.2,0-25,0.8-36.5,6.4
	c-12.7,6.2-22.5,18-26.2,31.7c-3.1,11.3-1.7,23,3.7,32c4.3,7.2,11.5,13.1,20.7,17.3c7.6,3.4,15.5,5.2,24.4,7.1
	c23.6,4.9,49,9.8,75,11.4c3.2,0.2,6.6,0.4,10.1,0.4c13.3,0,28-2.2,39-11.5C376,165.9,379.9,142.2,370.2,123.5z M354.5,170.9
	c-11.2,9.5-28.3,9.7-42,8.8c-25.4-1.6-50.4-6.4-73.6-11.2c-8.6-1.8-15.6-3.4-22.3-6.4c-5.1-2.3-12.1-6.5-16.2-13.3
	c-4-6.7-5-15.5-2.6-24.2c2.9-10.9,10.8-20.3,20.9-25.3c9.7-4.7,21.2-5.4,32.2-5.4c10.5,0,21.2,0.5,31.7,1.5
	c27.4,2.7,65,6.4,78.7,32.7C368.8,142.6,365.8,161.4,354.5,170.9z"/>
</svg>
