<?xml version="1.0" encoding="utf-8"?>
<!-- Generator: Adobe Illustrator 25.2.3, SVG Export Plug-In . SVG Version: 6.00 Build 0)  -->
<svg version="1.1" id="Capa_1" xmlns="http://www.w3.org/2000/svg" xmlns:xlink="http://www.w3.org/1999/xlink" x="0px" y="0px"
	 viewBox="0 0 512 512" style="enable-background:new 0 0 512 512;" xml:space="preserve">
<style type="text/css">
	.st0{fill:#D4B1A6;}
	.st1{fill:#E1B946;}
	.st2{fill:#8CBEA3;}
	.st3{fill:#CC644F;}
	.st4{fill:#282828;}
	.st5{fill:#CFCB9D;}
</style>
<path class="st0" d="M396.3,505c-1.6,0-3.1,0-4.6-0.1c-12.4-0.6-29.6-4.7-41.4-20.8c-6.8-9.4-11.1-21.4-12.6-35.4
	c-1.5-13.8-0.1-27.3,4-39.1c5.4-15.1,15.7-27.5,31.7-38c7.7-5.1,15.7-9,23.8-11.6l5.8-1.9l-0.6,6.1c-0.6,6.6-0.6,13.3,0.2,19.9
	c0.1,0.5,0.5,0.9,1,0.9c0,0,0.1,0,0.1,0c0.5-0.1,0.9-0.6,0.9-1.1c-0.8-7.4-0.8-14.8,0.1-22.1c0-0.1,0-0.1,0-0.2l-0.3-3.6l3.6-0.7
	c4.1-0.7,8.1-1.1,11.9-1.1c6.3,0,12.2,1,17.5,2.9c3.1,1.1,6.1,2.6,9,4.4l3.4,2.1l-2.2,3.4c-4.7,7.3-10.2,14.1-16.4,20
	c-0.4,0.4-0.4,1,0,1.4c0.3,0.3,0.6,0.3,0.7,0.3c0.2,0,0.5-0.1,0.7-0.3c6.1-5.8,11.6-12.4,16.3-19.6l2.6-4l3.5,3.2
	c2.8,2.6,5.4,5.5,7.9,8.8c5.3,7,9.7,14.7,12.7,22.1l1.6,3.9l-4,1.4c-7.1,2.4-13.7,5.7-19.7,9.9c-0.3,0.2-0.4,0.5-0.4,0.7
	c0,0.2,0,0.5,0.2,0.8c0.3,0.4,0.7,0.4,0.9,0.4c0.1,0,0.4,0,0.6-0.2c5.9-4,12.3-7.2,19-9.6l4.3-1.5l0.9,4.4c0,0.2,0.1,0.3,0.1,0.4
	c7.9,35.1-9.8,71.7-41.2,85.1C425.3,502,410.6,505,396.3,505z M393.5,401.5c-6.4,0-12.7,1.8-18.6,5.3c-10.9,6.5-17.9,21.5-16.9,36.6
	c0.9,14,8,27.4,19.1,35.9c7.3,5.6,15.8,8.7,24,8.7c1.6,0,3.1-0.1,4.7-0.3c10.3-1.5,19.8-8.5,24.7-18.2c3.8-7.5,5.2-16.9,3.9-26.4
	c-0.9-7-3.3-13.9-6.9-19.9C419.2,409.4,406.9,401.5,393.5,401.5z"/>
<path class="st1" d="M401.1,486c-7.8,0-15.9-2.9-22.8-8.3c-10.4-8-17.5-21.3-18.3-34.5c-0.9-14.3,5.6-28.6,15.9-34.7
	c5.5-3.3,11.3-4.9,17.4-4.9c12.8,0,24.6,7.5,32.4,20.5c3.5,5.9,5.8,12.5,6.7,19.2c1.2,9.2-0.1,18.1-3.7,25.2
	c-4.6,9.1-13.5,15.7-23.2,17.1C404.1,485.9,402.6,486,401.1,486z"/>
<g>
	<path class="st0" d="M380.1,334.8c-2.5-7.1-5.6-13.7-8.4-19.6c-9.9-21.1-19.4-39.7-34.5-54l-3.9-3.6l4.6-2.7c3.4-2,6.2-4.1,8.8-6.4
		c3-2.8,5.6-5.9,7.7-9.4l1.8-3l3.2,1.4c18.1,7.7,31.4,17.2,40.7,29c12,15.2,16.4,34.5,11.4,50.4c-1.9,6-4.9,10.8-8.7,13.9
		c-5,4-11.5,5.4-18.3,6.6l-3.3,0.6L380.1,334.8z"/>
	<path class="st0" d="M360.9,90.8c-1.5-3.1-3.1-6.3-4.9-9.3l-2.6-4.3l4.7-1.6c7.3-2.4,12.9-5.6,17-9.9c6.1-6.2,8.6-14.6,6.6-21.9
		c-1.5-5.5-5.5-10.3-11-13.2c-3.9-2.1-8.7-3.1-13.6-3.1c-1.1,0-2.2,0.1-3.3,0.1c-6.6,0.6-12.3,2.8-16.6,6.5
		c-3.2,2.8-5.7,6.4-6.8,10.3l-1.6,5.5l-4.6-3.4c-2.2-1.6-4.6-3.2-7-4.7l-2.8-1.8l1.3-3.1c0.1-0.2,0.1-0.3,0.1-0.3
		c1.5-9.6,8.4-18.8,18-24.1c7-3.8,15.6-5.9,25-5.9c1.8,0,3.7,0.1,5.6,0.2c9.2,0.8,17.3,3.1,24,7.1c7.6,4.5,13.4,11.1,16.1,18.5
		c1.5,4,2.3,8.6,2.5,14.5c0.2,6.6-0.4,12.2-2,17.1c-1.6,5-4.5,9.9-8.2,14.1c-8,9.1-20.1,14.6-32.2,14.8l-2.6,0L360.9,90.8z"/>
	<path class="st0" d="M254.6,505.9c-26.9,0-52.9-4.7-77.1-14c-2.6-1-6.1-2.4-9.5-4.1l-3.9-2l2.3-3.7c5.8-9.1,9.4-20.3,10.8-33.1
		c1.6-14.1,0.1-27.9-4.1-40c-5.4-15.3-16.4-28.4-32.5-39.1c-1.2-0.8-2.5-1.6-3.9-2.5l-2.4-1.5l0.6-2.8c7.9-36.1,23.8-70.6,46.2-99.8
		l1.9-2.5l2.9,1.3c8.2,3.7,17.4,6.4,29.1,8.2l3.6,0.6l-8.5,126.4c-0.1,1.2,0,2.5,1,3.4c0.7,0.6,1.6,0.7,2.4,0.7l29.5-0.2
		c18.2-0.1,37-0.2,55.6-2.1c1.1-0.1,3.3-0.3,4.5-1.9c1-1.2,0.9-2.9,0.9-3.9c0-18.5-2.6-37.1-5-55l-9.3-68.1l3.8-0.7
		c9-1.7,17.7-3.9,26-6.6c3.6-1.2,6.6-2.3,9.4-3.5l2.3-1l1.9,1.6c16.4,14.2,26.4,33.8,36.9,56c6.9,14.7,12.2,27,12.8,40.6
		c0,0.3,0.1,0.5,0.4,0.7l4.5,3.8l-5.3,2.8c-3.4,1.8-6.7,3.7-9.9,5.9c-16.1,10.6-27.1,23.8-32.5,39.1c-4.3,12-5.7,25.8-4.1,40
		c1.4,12.5,4.9,23.3,10.3,32.3l2.4,3.9l-4.1,1.9C316.8,499.3,285.8,505.9,254.6,505.9z"/>
</g>
<path class="st1" d="M350.5,73c-5.1-7.1-10.9-13.6-17.4-19.3l-1.4-1.3l0.1-1.9c0-0.1,0-0.2,0-0.3c0,0,0,0.1,0,0.1
	c-0.2-5.3,2.4-10.8,6.9-14.6c5-4.3,11.2-5.6,15.5-6c1-0.1,2.1-0.1,3.1-0.1c4.6,0,9,1,12.7,2.9c4.9,2.6,8.7,7,10,11.9
	c1.8,6.5-0.6,14.3-6.1,19.9c-4.4,4.5-10.6,7.9-18.9,10.2l-2.7,0.8L350.5,73z"/>
<path class="st0" d="M265.7,229c-16-0.1-33.2-3.7-52.7-11c-16.4-6.2-27.7-12.6-36.5-20.7c-19.3-17.9-28.3-47.6-23.4-77.5
	c4.3-26.4,18.8-51.2,39.5-68c8.8-7.2,18.9-12.9,29.7-17.1c13.8-5.3,27.8-8.1,40.5-8.1c5.5,0,10.6,0.5,15.3,1.6
	c19.7,4.4,38,13.7,53.1,26.9c27.1,23.7,41.4,58.9,37.3,92.1c-1.4,11.6-5.1,22.8-10.6,32.4c-6.2,10.8-15,20.3-26.2,28.5
	C313,221.5,289.9,229,266.7,229L265.7,229z M262,102.8c-9.6,0-18.9,2.3-26.9,6.7c-6.5,3.6-12.4,8.4-17.4,14.1
	c-7,8-11.8,17.4-13.9,27.1c-2.2,10.4-1.2,21.1,2.9,30.2c6.6,14.7,21.6,26,40.1,30.3c5.4,1.3,10.9,1.9,16.4,1.9
	c10.6,0,20.9-2.4,29.7-7c14.6-7.6,25.2-21.1,28.5-36.2c3.6-16.9-2.5-36.2-15.5-49.1C294.3,109.4,278.3,102.8,262,102.8z M302.8,79.8
	c-1,0-1.7,0.3-2.4,0.6c-3.6,1.5-5,4.2-3.9,7.3c0.8,2.3,3.3,4,5.9,4c0.6,0,1.2-0.1,1.8-0.3c3-1,4.8-4.5,4-7.5c-0.5-1.6-1.7-3-3.4-3.7
	C304,79.9,303.4,79.8,302.8,79.8z M219.7,79.8c-1,0-1.8,0.3-2.4,0.6c-3.6,1.5-5,4.2-3.9,7.3c0.8,2.3,3.3,4,5.9,4
	c0.6,0,1.2-0.1,1.8-0.3c3-1,4.8-4.5,4-7.5c-0.5-1.6-1.7-3-3.4-3.7C221,79.9,220.4,79.8,219.7,79.8z"/>
<path class="st2" d="M252.9,271.2c-10.7,0-21.6-0.7-32.4-2.2c-11.2-1.5-25.6-4.1-38.4-11.1c-12.7-6.9-22-17.6-25.5-29.2
	c-3.7-12.4-0.1-26.6,8.7-34.5l3-2.6l2.7,2.9c1.4,1.6,2.8,2.9,4.2,4.2c9,8.3,20.5,14.9,37.2,21.1c19.7,7.4,37.1,11,53.4,11.1h0.9
	c23.7,0,47.3-7.7,66.4-21.6c3.6-2.6,7.1-5.5,10.2-8.4l3.5-3.3l2.6,4c3.3,5,7.1,11.7,7.7,19c0.8,9.1-3.6,18.9-11.7,26.3
	c-8,7.3-18.4,11.3-26.6,14C298.4,267.8,276.2,271.2,252.9,271.2z"/>
<path class="st1" d="M263,211.1c-5.3,0-10.6-0.6-15.7-1.8c-17.9-4.1-32.4-15-38.7-29.1c-3.9-8.7-4.9-19-2.7-29
	c2-9.3,6.6-18.4,13.4-26.2c0.9-1,1.8-2,3-3.2l5.5-5.5l1.2,7.7c0.8,4.9,3.4,9.7,7.1,12.9c5.7,5,14.1,7.7,24.1,7.7h0.1
	c0.2,0,0.3,0,0.5,0h0.1c10-0.1,18.2-2.8,23.6-7.9c4.5-4.2,7.3-10.2,7.5-16.5l0.3-7.7l6.1,4.6c2.1,1.6,4.1,3.3,5.9,5.1
	c12.6,12.4,18.5,31,15,47.3c-3.1,14.5-13.4,27.5-27.4,34.8C283.5,208.7,273.4,211.1,263,211.1z M243.2,175.9c-0.2,0-0.4,0-0.6,0.2
	c-0.4,0.3-0.5,1-0.2,1.4c3.4,4.3,9.1,7.1,16.8,8.4c2.3,0.4,4.5,0.6,6.5,0.6c2.1,0,3.9-0.2,5.7-0.6c4.4-0.9,8.2-3.2,10.6-6.2
	c0.3-0.4,0.3-1.1-0.2-1.4c-0.2-0.2-0.5-0.2-0.6-0.2c-0.2,0-0.5,0-0.8,0.4c-2.1,2.7-5.5,4.7-9.5,5.5c-1.6,0.3-3.4,0.5-5.3,0.5
	c-1.9,0-3.9-0.2-6.2-0.5c-7.2-1.2-12.4-3.7-15.5-7.6C243.7,176,243.3,175.9,243.2,175.9z"/>
<path class="st2" d="M220.6,271.1l4.2,0.5c9.4,1.1,18.9,1.7,28.1,1.7c10.3,0,20.7-0.7,30.7-2.1l4-0.5l9.3,68c2.4,17.7,5,36.1,5,54.4
	l0,3.6l-3.6,0.4c-18.2,1.8-36.9,1.9-54.9,2.1l-31.5,0.2L220.6,271.1z"/>
<path class="st3" d="M260.2,142.5c-6.7,0-16-1.2-22.7-7.2c-5.6-4.9-8.9-14.3-4.8-21.4l0.5-0.9l0.9-0.5c0.7-0.4,1.3-0.8,2-1.2
	c7.7-4.3,16.7-6.5,26-6.5c8.8,0,17.7,2,25.8,5.9l3.2,1.5l-1.1,3.4c-0.1,0.2-0.1,0.3,0,0.4c1.1,6.9-1.5,14.5-6.7,19.2
	c-6.4,5.9-15.6,7.2-22.3,7.3C260.7,142.5,260.5,142.5,260.2,142.5z"/>
<path class="st0" d="M156.8,90.5C140,87.3,125.6,72.7,122.6,56c-3.1-17.4,6.3-36.7,21.9-45.1c5.8-3.1,12.7-4.8,19.8-4.8
	c11.3,0,22.2,4.2,29.9,11.4c5.4,5.1,9.1,11.4,10.5,17.9c0,0.1,0.1,0.2,0.2,0.3l2.6,3.5l-3.7,2.3c-2,1.2-3.9,2.4-5.6,3.6L194,48
	l-1.9-4.6C187.7,33,176.3,25.4,165,25.4c-0.9,0-1.8,0-2.7,0.1c-4.6,0.5-8.5,2-11.5,4.5c-2.9,2.4-5.1,5.9-6.5,10.3
	c-2.6,8-1.9,17,2,23.9c3.4,6.1,9.1,10.6,15.6,12.4l4.9,1.4l-2.5,4.4c-1.2,2.1-2.2,4-3.1,5.9l-1.3,2.7L156.8,90.5z"/>
<path class="st1" d="M166.1,75.4c-7.3-0.7-14.4-5.5-18.1-12.2c-3.6-6.5-4.3-14.8-1.8-22.3c1.3-4,3.4-7.2,5.9-9.3
	c3.3-2.8,7.5-3.7,10.4-4c0.8-0.1,1.6-0.1,2.5-0.1c11.3,0,22.4,8,25.9,18.5c0,0,0,0.1,0.1,0.2l1.7,2.9l-2.6,2.2
	c-7.7,6.4-14.5,14-20.3,22.4l-1.3,1.9L166.1,75.4z"/>
<path class="st0" d="M116.6,505c-14.3,0-29-3-41.6-8.3c-31.3-13.4-49-50-41.1-85.1c0-0.1,0-0.2,0.1-0.3l0.9-4.4l4.3,1.4
	c6.8,2.3,13.2,5.5,19.1,9.6c0.2,0.1,0.4,0.2,0.6,0.2c0.2,0,0.6,0,0.9-0.5c0.2-0.3,0.2-0.6,0.2-0.8c0-0.2-0.1-0.5-0.4-0.7
	c-6.1-4.2-12.7-7.5-19.7-9.9l-4-1.4l1.6-3.9c3-7.5,7.4-15.1,12.7-22.1c2.5-3.3,5.1-6.2,7.9-8.8l3.5-3.2l2.6,4
	c4.7,7.2,10.1,13.8,16.3,19.6c0.2,0.2,0.5,0.3,0.7,0.3c0.2,0,0.5,0,0.7-0.3c0.4-0.4,0.4-1.1,0-1.5c-6.2-5.9-11.8-12.6-16.4-20
	l-2.2-3.4l3.4-2.1c2.9-1.8,6-3.3,9-4.4c5.3-1.9,11.2-2.9,17.5-2.9c3.8,0,7.8,0.4,11.9,1.1l3.6,0.6l-0.3,3.6c0,0.1,0,0.1,0,0.1
	c0.9,7.4,0.9,14.9,0.1,22.2c-0.1,0.6,0.3,1.1,0.9,1.1c0,0,0.1,0,0.1,0c0.5,0,1-0.4,1-0.9c0.7-6.6,0.8-13.3,0.2-19.9l-0.6-6.1
	l5.8,1.9c8.1,2.7,16.1,6.6,23.8,11.6c16,10.5,26.4,23,31.7,38c4.2,11.7,5.6,25.2,4,39.1c-1.6,14.1-5.8,26-12.6,35.4
	c-11.7,16.2-29,20.2-41.4,20.8C119.7,505,118.2,505,116.6,505z M119.4,401.5c-13.3,0-25.7,7.9-33.9,21.6c-3.6,6.1-6,13-6.9,19.9
	c-1.3,9.6,0.1,19,3.9,26.4c4.9,9.7,14.4,16.7,24.7,18.2c1.5,0.2,3.1,0.3,4.7,0.3c8.2,0,16.8-3.1,24-8.7c11.1-8.5,18.2-22,19.1-35.9
	c1-15.1-6-30.1-16.9-36.6C132.1,403.3,125.8,401.5,119.4,401.5z"/>
<path class="st0" d="M134.1,342.8c-9.7-2.3-18.4-8.3-23.8-16.6c-5.7-8.6-7.7-19.3-5.7-29.4c1.4-6.9,4.8-14.1,10.5-21.9
	c10.6-14.6,24.8-26.3,41.3-33.8l3-1.4l1.9,2.7c4.1,5.7,9.7,11,16.1,15.1l3.7,2.3l-2.6,3.5c-17.4,23.1-30.8,48.9-39.6,76.8l-1.1,3.5
	L134.1,342.8z"/>
<path class="st1" d="M111.8,486c-1.5,0-3-0.1-4.4-0.3c-9.7-1.4-18.6-8-23.2-17.1c-3.6-7.1-4.9-16.1-3.7-25.2
	c0.9-6.7,3.2-13.3,6.7-19.2c7.8-13,19.6-20.5,32.4-20.5c6,0,11.9,1.7,17.4,4.9c10.3,6.1,16.8,20.4,15.9,34.7
	c-0.9,13.2-7.9,26.4-18.3,34.5C127.7,483.1,119.6,486,111.8,486z"/>
<path class="st4" d="M245.9,215.1c5.8,1.3,11.6,2,17.3,2c11.2,0,22-2.5,31.6-7.5c15.6-8.1,27.1-22.6,30.5-38.9
	c3.9-18.2-2.6-39-16.6-52.8C288.5,98,256.8,93,233.2,106.1c-7,3.9-13.2,8.9-18.5,14.9c-7.5,8.6-12.6,18.5-14.8,28.9
	c-2.4,11.2-1.3,22.8,3.1,32.7C210.1,198.4,226.2,210.6,245.9,215.1z M262.1,108.8c8.2,0,16.5,1.9,24.1,5.5c-0.2,0.7-0.3,1.5-0.2,2.3
	c0.9,5.6-1.2,11.8-5.4,15.7c-5.4,5-13.6,6.2-19.6,6.3c-6.2,0.1-14.9-0.9-20.8-6.2c-4.4-3.9-6.9-11.3-4-16.4c0.6-0.4,1.2-0.7,1.9-1.1
	C245.4,110.8,253.7,108.8,262.1,108.8z M209.7,152c1.8-8.7,6.2-17.1,12.5-24.4c0.9-1,1.9-2,2.8-3c1,5.9,4.1,11.5,8.4,15.3
	c6.4,5.7,15.7,8.7,26.8,8.7c0.3,0,0.5,0,0.8,0c11-0.1,20.1-3.2,26.3-8.9c5.4-5,8.5-12,8.8-19.3c1.9,1.4,3.7,3,5.5,4.7
	c11.6,11.5,17.1,28.6,13.9,43.6c-2.9,13.3-12.3,25.3-25.3,32.1c-12.1,6.3-27.4,8-42,4.6c-16.7-3.8-30.2-13.9-36-26.9
	C208.7,170.5,207.8,161.1,209.7,152z"/>
<path class="st4" d="M258.5,189.9c2.5,0.4,4.9,0.6,7.1,0.6c2.3,0,4.5-0.2,6.6-0.7c5.3-1.1,9.9-3.9,12.9-7.7c1.7-2.2,1.4-5.3-0.8-7.1
	c-2.2-1.7-5.3-1.4-7.1,0.8c-1.6,2-4.1,3.4-7.2,4.1c-2.8,0.6-6,0.6-10,0c-6.2-1-10.6-3.1-13-6.2c-1.7-2.2-4.9-2.5-7.1-0.8
	c-2.2,1.7-2.5,4.9-0.8,7.1C243.3,185.2,249.8,188.5,258.5,189.9z"/>
<path class="st4" d="M219.3,95.7c1,0,2-0.2,3-0.5c5-1.7,8-7.4,6.6-12.4c-0.8-2.7-2.9-5.1-5.6-6.2c-3.5-1.5-6.1-0.4-7.5,0.2
	c-5.5,2.3-8,7.2-6.1,12.3C211.1,93.1,215.1,95.7,219.3,95.7z"/>
<path class="st4" d="M302.3,95.7c1,0,2-0.2,3-0.5c5-1.7,8-7.4,6.6-12.4c-0.8-2.7-2.9-5.1-5.6-6.2c-3.5-1.5-6.1-0.4-7.5,0.2
	c-5.5,2.3-8,7.2-6.1,12.3C294.1,93.1,298.2,95.7,302.3,95.7z"/>
<path class="st4" d="M140.1,403.4c-20.6-12.2-44.5-5-58,17.7c-3.9,6.6-6.5,14-7.5,21.5c-1.4,10.3,0.2,20.6,4.3,28.8
	c5.5,10.8,16.1,18.7,27.7,20.4c1.7,0.3,3.5,0.4,5.2,0.4c9.1,0,18.5-3.3,26.5-9.5c12-9.2,19.7-23.8,20.6-38.9
	C160,427.2,152.2,410.6,140.1,403.4z M148.9,443c-0.8,12.1-7.2,24.2-16.8,31.6c-7.4,5.7-16.2,8.3-24.1,7.1c-8.4-1.2-16.2-7-20.2-15
	c-3.2-6.4-4.4-14.6-3.3-22.9c0.8-6.2,2.9-12.3,6.2-17.6c7.2-12,17.9-18.5,29-18.5c5.1,0,10.4,1.4,15.3,4.4
	C144,417.4,149.7,430.2,148.9,443z"/>
<path class="st4" d="M484.9,410.2c-2.6-11.4-8.6-23.9-17.1-35.1c-7.9-10.5-17.7-18.1-28.3-21.9c-7.7-2.8-26.1-7-50.9,3.3
	c0-0.1,0-0.1,0-0.1c-0.2-4.5-0.9-8.9-1.9-13.2c6.4-1.2,13.9-2.8,19.9-7.6c4.8-3.9,8.5-9.5,10.7-16.8c5.6-17.8,0.8-39.3-12.5-56
	c-10-12.6-24.1-22.7-43-30.8c1.1-3.9,1.6-7.9,1.2-11.8c-0.8-9-5.2-16.7-10-23.7c3.9-4.5,7.3-9.2,10.1-14.2
	c5.9-10.3,9.8-22.2,11.3-34.6c2-16.3-0.2-33-5.9-48.8c12.4-1.2,24.4-7.2,32.7-16.6c4.3-4.8,7.6-10.5,9.4-16.3
	c1.8-5.5,2.5-11.8,2.3-19.1c-0.2-6.5-1.1-11.7-2.8-16.4c-3.2-8.7-9.9-16.4-18.7-21.6C384,4.5,375,1.8,364.9,1
	c-12.7-1-24.5,1.2-34,6.4c-10.6,5.8-18.1,15.4-20.6,26c-9.7-5-20-8.8-30.8-11.3c-16.7-3.8-38.3-1.3-59.3,6.8
	c-3.4,1.3-6.7,2.8-9.9,4.4c-1.8-7.4-6-14.4-12.1-20.2c-14.8-14.1-38.7-17.3-56.7-7.6c-18,9.7-28.5,31.3-25,51.4
	c3.3,18.7,18.4,34.5,36.8,39c-2.9,7.4-5,15-6.2,22.8c-4.2,25.8,1.3,51.6,14.5,70.6c-10.9,9.4-15.3,26-10.8,41
	c0.6,1.9,1.3,3.7,2.1,5.6c-17,8-31.8,20.1-42.8,35.3c-6.2,8.5-9.9,16.4-11.5,24.2c-2.4,11.6,0,24,6.6,33.9c6.2,9.4,16,16.3,26.9,19
	c-1,3.5-1.8,7-2.6,10.5c-27.4-13.3-47.9-8.7-56.2-5.7c-10.6,3.8-20.4,11.4-28.3,21.9c-8.5,11.2-14.5,23.7-17.1,35.1
	c-8.5,37.9,10.7,77.5,44.7,92c13.3,5.7,29,8.8,44,8.8c1.6,0,3.2,0,4.8-0.1c17.4-0.8,31.9-7.2,42.2-18.6c4,2.2,8.1,3.8,11.7,5.2
	c24.9,9.5,52.2,14.5,79.5,14.5c2.9,0,5.8-0.1,8.7-0.2c29.5-1.1,58.9-8.2,85-20.3c10.3,11.9,25,18.5,42.8,19.4
	c1.6,0.1,3.2,0.1,4.8,0.1c14.9,0,30.7-3.1,44-8.8C474.2,487.7,493.4,448.2,484.9,410.2z M397,269c11.2,14.2,15.3,32.1,10.8,46.8
	c-1.6,5.2-4.2,9.4-7.4,11.9c-4.4,3.5-10.8,4.8-16.5,5.8c-2.6-7.2-5.7-14-8.6-20c-10.1-21.5-19.9-40.6-35.3-55.2
	c3.3-1.9,6.5-4.2,9.4-6.9c3.4-3.1,6.2-6.6,8.4-10.3C375.3,248.7,388.1,257.8,397,269z M319.7,37.4c1.3-8.4,7.5-16.6,16-21.3
	c7.7-4.3,17.5-6,28.3-5.2c8.6,0.7,16.1,2.9,22.3,6.6c6.9,4,12,9.9,14.4,16.5c1.3,3.6,2,7.8,2.2,13.2c0.2,6.2-0.4,11.3-1.8,15.7
	c-1.5,4.5-4,8.9-7.4,12.7c-7.3,8.2-18.3,13.3-29.3,13.4c-1.5-3.3-3.2-6.5-5.1-9.6c7.9-2.6,14-6.2,18.6-10.9
	c7.1-7.2,10-17.1,7.6-25.7c-1.8-6.5-6.5-12.2-13-15.6c-5.5-2.9-12.1-4.1-19.1-3.4c-7.4,0.7-13.9,3.2-18.9,7.5
	c-3.9,3.3-6.7,7.6-8.1,12.3c-2.4-1.7-4.8-3.3-7.2-4.9C319.6,38.2,319.7,37.8,319.7,37.4z M335.7,50.8c0-0.2,0-0.4,0-0.6
	c-0.2-4,1.9-8.3,5.4-11.3c4.3-3.6,9.6-4.8,13.3-5.1c5.1-0.5,9.8,0.3,13.6,2.3c4,2.1,7,5.6,8,9.4c1.4,5.1-0.6,11.5-5.1,16.1
	c-3.9,4-9.5,7-17.1,9.1C348.5,63.5,342.5,56.8,335.7,50.8z M126.5,55.3c-2.8-15.7,5.7-33.3,19.8-40.9c14.1-7.6,33.4-5,45,6
	c4.8,4.5,8.1,10.2,9.4,15.9c0.2,0.7,0.4,1.3,0.8,1.8c-2,1.2-3.9,2.4-5.8,3.8c-5.4-13-19.8-21.8-33.9-20.4
	c-5.3,0.6-10.1,2.4-13.6,5.4c-3.5,2.9-6.1,7-7.8,12.1c-3,9.1-2.1,19.2,2.3,27.1c3.9,7.1,10.6,12.3,18,14.3c-1.1,2-2.2,4-3.2,6.1
	C142.4,83.7,129.2,70.5,126.5,55.3z M166.5,71.4c-6-0.6-11.8-4.5-15-10.1c-3.1-5.5-3.6-12.7-1.5-19.1c1.1-3.3,2.7-5.9,4.7-7.5
	c2.6-2.1,5.9-2.9,8.2-3.1c10.1-1.1,21,6,24.1,15.6c0.1,0.4,0.3,0.7,0.5,1C179.5,54.9,172.4,62.8,166.5,71.4z M157.1,120.4
	c4.2-25.4,18.1-49.3,38.1-65.6c8.5-6.9,18.2-12.5,28.7-16.5c13.4-5.2,27-7.9,39-7.9c5.1,0,10,0.5,14.4,1.5c19,4.3,36.8,13.3,51.3,26
	c26.1,22.8,39.9,56.7,36,88.6c-1.4,11.1-4.8,21.8-10.1,30.9c-5.9,10.3-14.3,19.4-25.1,27.2c-18.4,13.3-41,20.6-63.7,20.4
	c-15.5-0.1-32.3-3.6-51.3-10.8c-15.9-6-26.8-12.1-35.2-19.9C160.9,177.4,152.4,149.1,157.1,120.4z M168,197.3c1.4,1.5,2.9,3,4.4,4.5
	c9.4,8.7,21.3,15.5,38.5,21.9c20.1,7.5,38,11.3,54.7,11.4c0.3,0,0.6,0,0.9,0c24.5,0,48.9-7.9,68.8-22.3c3.8-2.8,7.3-5.7,10.6-8.8
	c3.5,5.4,6.6,11.1,7.1,17.1c0.7,7.9-3.2,16.5-10.4,23c-7.5,6.8-17.4,10.6-25.2,13.2c-29.2,9.7-62.5,12.4-96.3,7.8
	c-10.8-1.5-24.8-4-37-10.6c-11.8-6.4-20.4-16.2-23.5-26.8C157.3,216.5,160.4,204.1,168,197.3z M293,339.2c2.4,17.6,4.9,35.9,5,53.9
	c-18.2,1.8-36.9,1.9-55,2.1l-26.7,0.2l8.1-119.7c9.6,1.1,19.1,1.7,28.6,1.7c10.6,0,21.1-0.7,31.3-2.1L293,339.2z M113.6,324
	c-5.1-7.7-7-17.3-5.1-26.4c1.3-6.4,4.5-13,9.8-20.3c10.2-14.1,23.9-25.3,39.7-32.5c4.4,6.2,10.3,11.7,17.2,16.1
	c-17.7,23.4-31.3,50-40.2,78C126.3,336.8,118.6,331.4,113.6,324z M121,500.9c-14.9,0.7-31-2.2-44.4-7.9
	c-29.6-12.7-46.3-47.3-38.8-80.6c0-0.1,0.1-0.3,0.1-0.4c6.4,2.2,12.5,5.2,18.1,9.1c0.9,0.6,1.9,0.9,2.8,0.9c1.6,0,3.2-0.8,4.1-2.2
	c1.6-2.3,1-5.4-1.3-7c-6.4-4.4-13.4-7.9-20.7-10.4c2.8-7.1,7-14.4,12.2-21.2c2.3-3.1,4.8-5.8,7.4-8.3c4.8,7.4,10.5,14.3,16.9,20.4
	c1,0.9,2.2,1.4,3.5,1.4c1.3,0,2.7-0.5,3.6-1.6c1.9-2,1.8-5.2-0.2-7.1c-6-5.7-11.3-12.2-15.8-19.2c2.7-1.7,5.5-3.1,8.3-4.1
	c8.1-2.9,17.4-3.4,27.3-1.6c0,0.3,0,0.7,0,1c0.9,7,0.9,14.2,0.1,21.2c-0.3,2.8,1.7,5.2,4.4,5.5c0.2,0,0.4,0,0.6,0
	c2.5,0,4.7-1.9,5-4.5c0.8-6.9,0.8-13.8,0.2-20.7c7.6,2.5,15.3,6.2,22.8,11.2c15.2,10,25.1,21.8,30.2,36c4,11.2,5.3,24.1,3.8,37.3
	c-1.5,13.4-5.5,24.7-11.9,33.5C148.5,496.6,132.5,500.4,121,500.9z M179,488.1c-2.8-1.1-6-2.4-9.2-4c6.1-9.6,9.9-21.3,11.4-34.8
	c1.6-14.7,0.1-29.2-4.3-41.8c-5.7-16.1-17.2-29.9-34.1-41.1c-1.4-0.9-2.7-1.7-4.1-2.6c7.7-35.5,23.4-69.4,45.5-98.3
	c10.2,4.7,20.9,7.1,30.2,8.5L206.1,397c-0.1,1.1-0.3,4.4,2.4,6.7c1.8,1.6,4,1.6,5,1.6h0.2l29.3-0.2c18.3-0.1,37.3-0.3,56-2.1
	c1.5-0.1,5-0.5,7.2-3.4c1.8-2.3,1.8-5,1.8-6.3c0-18.7-2.6-37.4-5.1-55.5l-8.8-64.3c9.1-1.7,18-3.9,26.5-6.8c3-1,6.3-2.2,9.7-3.6
	c15.8,13.7,25.6,32.9,35.9,54.6c6.7,14.2,11.9,26.2,12.4,39.1c0.1,1.5,0.8,2.7,1.8,3.6c-3.3,1.7-6.8,3.7-10.3,6.1
	c-16.9,11.1-28.4,24.9-34.1,41.1c-4.5,12.6-6,27-4.3,41.8c1.5,13.1,5.1,24.5,10.9,33.9C291.8,506.2,230.9,508.1,179,488.1z
	 M436.3,493c-13.3,5.7-29.5,8.6-44.4,7.9c-11.5-0.5-27.5-4.3-38.3-19.2c-6.4-8.8-10.4-20.1-11.9-33.5c-1.5-13.2-0.1-26.1,3.8-37.3
	c5.1-14.2,14.9-26,30.2-36c7.5-4.9,15.2-8.7,22.8-11.2c-0.7,6.9-0.6,13.9,0.2,20.7c0.3,2.6,2.5,4.5,5,4.5c0.2,0,0.4,0,0.6,0
	c2.8-0.3,4.7-2.8,4.4-5.5c-0.8-7-0.7-14.2,0.1-21.2c0-0.4,0-0.7,0-1c3.8-0.7,7.5-1,11.2-1c5.7,0,11.2,0.9,16.2,2.7
	c2.8,1,5.6,2.4,8.3,4.1c-4.5,7-9.8,13.5-15.8,19.2c-2,1.9-2.1,5.1-0.2,7.1c1,1,2.3,1.6,3.6,1.6c1.2,0,2.5-0.5,3.5-1.4
	c6.4-6.1,12.1-12.9,16.9-20.4c2.6,2.4,5.1,5.2,7.4,8.3c5.2,6.8,9.3,14.1,12.2,21.2c-7.4,2.5-14.3,6-20.7,10.4
	c-2.3,1.6-2.9,4.7-1.3,7c1,1.4,2.5,2.2,4.1,2.2c1,0,2-0.3,2.8-0.9c5.6-3.8,11.7-6.9,18.1-9.1c0,0.1,0.1,0.3,0.1,0.4
	C482.6,445.7,465.9,480.3,436.3,493z"/>
<path class="st4" d="M430.9,421.1c-13.5-22.6-37.4-29.9-58-17.7c-12.2,7.2-19.9,23.8-18.9,40.3c1,15.1,8.7,29.6,20.6,38.9
	c8,6.2,17.4,9.5,26.5,9.5c1.8,0,3.5-0.1,5.2-0.4c11.6-1.7,22.2-9.5,27.7-20.4c4.1-8.2,5.7-18.4,4.3-28.8
	C437.4,435.1,434.8,427.6,430.9,421.1z M425.1,466.8c-4,8-11.8,13.7-20.2,15c-7.9,1.2-16.7-1.4-24.1-7.1c-9.6-7.4-16-19.5-16.8-31.6
	c-0.8-12.9,4.9-25.6,14-31c4.9-2.9,10.2-4.4,15.3-4.4c11.1,0,21.8,6.5,29,18.5c3.2,5.4,5.3,11.5,6.2,17.6
	C429.5,452.2,428.3,460.4,425.1,466.8z"/>
<path class="st1" d="M496.3,577.8"/>
<path class="st1" d="M600.7,577.8"/>
<path class="st2" d="M391.8,577.8"/>
<path class="st2" d="M496.2,577.8"/>
<path class="st5" d="M287.2,577.6"/>
<path class="st5" d="M391.7,577.6"/>
<path class="st0" d="M182.7,577.6"/>
<path class="st0" d="M287.1,577.6"/>
<path class="st3" d="M77.9,577.8"/>
<path class="st3" d="M182.3,577.8"/>
<path class="st4" d="M-88.7,577.8"/>
<path class="st4" d="M77.9,577.8"/>
</svg>
