<?xml version="1.0" encoding="utf-8"?>
<!-- Generator: Adobe Illustrator 25.2.3, SVG Export Plug-In . SVG Version: 6.00 Build 0)  -->
<svg version="1.1" id="Capa_1" xmlns="http://www.w3.org/2000/svg" xmlns:xlink="http://www.w3.org/1999/xlink" x="0px" y="0px"
	 viewBox="0 0 512 512" style="enable-background:new 0 0 512 512;" xml:space="preserve">
<style type="text/css">
	.st0{fill:#E1B946;}
	.st1{fill:#D4B1A6;}
	.st2{fill:#CC644F;}
	.st3{fill:#8CBEA3;}
	.st4{fill:#CFCB9D;}
	.st5{fill:#FFFFFF;}
	.st6{fill:#282828;}
</style>
<path class="st0" d="M498.6,144.2c-76.6-0.4-154.5-1.5-231.5-3.3l-4.4-0.1l0.5-4.3c0.9-8.6,6.1-17,14.1-23.1
	c6.9-5.2,15.9-8.8,27.5-11c13.4-2.6,27.2-2.9,41.3-3c4.7,0,9.4-0.1,14.1-0.1c11.1,0,22.4,0.1,33.6,0.3l3.7,0.1
	c25.1,0.5,51,1,76.3,3.6c17.4,1.7,32.8,18.6,32.3,35.4c0,0.9-0.1,1.4-0.1,1.8l-0.3,2.2l-2.1,0.9c-1,0.4-2.5,0.6-4.6,0.6H498.6z"/>
<path class="st1" d="M423.2,475.2c-14.7,0-30.5-4.4-45.9-12.6c-11.6-6.2-20.2-13.2-26.3-21.2c-7.7-10.2-12.3-23.6-12.8-37.9
	c-0.9-24.7,10.4-49.6,29.6-65.2c4.8-3.9,10.1-7.2,15.8-9.9c5.7-2.7,11.7-4.7,18-6.1c4.8-1,9.7-1.5,14.6-1.5c15.4,0,30.7,5.1,44,14.8
	c16.7,12.1,29.3,30.6,34.4,50.7c2.7,10.8,3.3,21.1,1.8,30.4c-2.9,17.6-13.9,34-30.2,45c-11.6,7.9-24.8,12.5-38.3,13.4
	C426.4,475.1,424.8,475.2,423.2,475.2z M417,367.4c-1.9,0-3.8,0.2-5.7,0.6c-4.9,1.1-9.6,3.2-13.4,6.3c-7.6,6.1-12,16-11.7,25.7
	c0.2,5.7,2,11.1,5.1,15.1c2.4,3.2,5.8,5.9,10.4,8.4c6,3.2,12.3,4.9,18,4.9c0.6,0,1.3,0,1.9-0.1c5.3-0.4,10.5-2.2,15.1-5.3
	c6.4-4.4,10.8-10.9,12-17.9c0.6-3.8,0.4-7.8-0.7-12.1C444.3,378.2,431.2,367.4,417,367.4z"/>
<path class="st2" d="M466.2,266.5c-58.9-1.6-118.7-2.4-177.9-2.4h-5l-0.1-3.9c-0.6-37.6-0.1-75.6,1.6-112.9l0.2-3.9l3.9,0.1
	c59.7,1.3,120.1,2.2,179.5,2.6l3.9,0l0.1,3.9c0.2,16.7-0.5,33.6-1.2,49.9c-0.9,20.4-1.8,41.5-0.9,62.5l0.2,4.3L466.2,266.5z
	 M350,165.9c-5.5,0-10.9,0-16.1,0.1c-5.6,0.1-10.5,0.4-14.7,3.2c-4.9,3.4-6.9,9.6-8,14.6c-2.8,12.4-3.1,25.6-1,38.1
	c0.7,3.9,1.7,7.9,4.9,10.4c2.5,2,5.9,2.5,8.4,2.8c24.2,3.4,48.8,5.1,73.3,5.1c10.6,0,21.3-0.3,31.8-1c2.3-0.1,5.6-0.3,8-2.1
	c1.8-1.3,2.9-3.1,4.1-5.5c4.9-9.9,7.5-21,7.6-32.3c0-5.7,0.1-23-7.1-29.4c-2.7-2.3-7.2-3.4-14.1-3.4c-2.4,0-4.9,0.1-7.2,0.2
	c-1.9,0.1-3.8,0.2-5.3,0.2c-0.3,0-0.7,0-1,0c-14.6-0.4-26.7-0.7-37.8-0.9C366.6,166,358.2,165.9,350,165.9z"/>
<path class="st3" d="M466.6,337.9c-1.9-1.6-3.6-2.9-5.2-4.1c-13.7-9.9-29.4-15.2-45.2-15.2c-5,0-10.1,0.5-15,1.6
	c-4.4,0.9-8.8,2.3-13.2,4l-5.3,2.1l-0.2-5.7c-0.5-16.9-0.9-33.6-1.2-49.7l-0.1-4.1l4.1,0.1c27.4,0.4,54.7,1,81,1.7l3.9,0.1l0,3.9
	c0.1,20.6,1.1,41.5,2.8,62l0.8,9.6L466.6,337.9z"/>
<path class="st4" d="M419.8,426.5c-5.4,0-11.3-1.6-17.1-4.7c-4.3-2.3-7.5-4.9-9.7-7.8c-2.8-3.8-4.5-8.7-4.7-14
	c-0.3-9.1,3.9-18.3,10.9-24.1c3.5-2.9,7.9-4.9,12.5-5.9c1.6-0.4,3.4-0.5,5.1-0.5c11.1,0,25,7.6,29.3,24.2c1,4,1.2,7.8,0.7,11.2
	c-1.1,6.4-5.2,12.6-11.1,16.6c-4.3,2.9-9.2,4.6-14.1,4.9C421,426.5,420.4,426.5,419.8,426.5z"/>
<path class="st5" d="M396.9,238.2c-24.4,0-49-1.7-73-5.1c-2.9-0.4-5.5-0.9-7.4-2.4c-2.6-2-3.6-5.7-4.1-9.1
	c-2.1-12.3-1.8-25.2,1-37.3c1.1-4.6,2.8-10.3,7.2-13.4c3.6-2.5,8.3-2.8,13.5-2.9c5-0.1,10.3-0.1,16.1-0.1c8.2,0,16.9,0.1,25.7,0.2
	c10.9,0.2,22.9,0.5,37.8,0.9c0.3,0,0.6,0,1,0c1.5,0,3.3-0.1,5.1-0.2l0.3,0c2-0.1,4.5-0.2,7.1-0.2c6.6,0,10.6,0.9,12.9,2.9
	c4.4,3.9,6.5,13,6.4,27.8c-0.1,10.9-2.6,21.8-7.3,31.4c-1.1,2.1-2,3.7-3.5,4.7c-1.8,1.3-4.2,1.5-6.9,1.7
	C418.1,237.8,407.5,238.2,396.9,238.2z"/>
<path class="st5" d="M350.4,343c-1.5-24.1-2-48.5-1.5-72.7l0.1-4l4,0c7.5,0.1,15,0.2,22.5,0.3l3.9,0.1l0.1,3.9
	c0.3,18.3,0.7,36.6,1.3,54.4l0.1,2.5l-2.2,1.2c-4.3,2.3-8.4,5.1-12.1,8.1c-3.2,2.6-6.3,5.5-9.1,8.7l-6.4,7.2L350.4,343z"/>
<path class="st3" d="M187.7,409c-4.1-10.5-11.2-20.1-20-27l-1.5-1.2l0-1.9c-0.2-18.7-0.1-36.4-0.1-53.5c0-17.4,0-35.2-0.1-53.8
	c0-0.1,0-0.2,0-0.3v-3.9l3.9-0.1c39.3-0.7,79.2-1.1,118.6-1.1c18.1,0,36.4,0.1,54.5,0.2l4.1,0l-0.1,4.1c-0.6,27.9,0.2,56.1,2.3,83.7
	l0.4,1.7l-0.8,1.4c-8.6,14-13.1,30.5-12.5,46.3v0c0,0.1,0,0.2,0,0.3v3.9l-3.9,0.1c-46.5,1.7-93.9,2.9-140.8,3.6l-2.8,0L187.7,409z"
	/>
<path class="st0" d="M158.4,114.5c-22,0-44.3-0.5-66.2-1.4c-3-0.1-6.4-0.3-9.1-1.8c-2.7-1.6-4.5-4.4-6.3-7.3
	c-10.9-18.5-19.6-38.2-26-58.7L49.6,41l4.4-0.8c0.2,0,0.9-0.2,0.9-0.2c14.5-2.1,29.5-2.2,43.9-2.4l101.6-1c1.5,0,3.1-0.1,4.7-0.3
	c1.9-0.1,4-0.3,6-0.3c2.8,0,4.8,0.3,6.3,1c8,3.3,3.3,14.6,0.3,22c-0.5,1.2-0.9,2.3-1.3,3.3l-14.6,39.6c-1,2.6-2,5.5-4,7.7
	c-3.9,4.2-10.4,4.7-16.7,4.8C173.7,114.4,166,114.5,158.4,114.5z"/>
<path class="st2" d="M82.7,170.7c0-17.3,0.2-34.8,0.4-52l0.1-4.5l4.5,0.6c1.6,0.2,3.1,0.3,4.5,0.4c22.2,0.9,44.5,1.4,66.4,1.4
	c7.3,0,15-0.1,22.7-0.2c2.8,0,6.1-0.2,9.2-0.8l5.1-1l-0.2,5.2c-0.8,17.1-1.4,33.8-1.8,49.7l-0.1,3.9l-110.8,1.6V170.7z"/>
<path class="st5" d="M82.8,201.7c-0.1-7.4-0.1-14.3-0.1-20.9l0-4l110.8-1.6l-0.1,4.1c-0.1,7.2-0.2,14.3-0.3,20.9l0,3.9l-110.2,1.5
	L82.8,201.7z"/>
<path class="st2" d="M84.1,263.3c-0.5-17-0.9-34.4-1.1-51.5l-0.1-4l110.1-1.5l0,4.1c-0.1,17.3,0.1,34.3,0.4,50.4l0.1,4l-4,0.1
	c-33.9,0.5-68,1.3-101.3,2.3l-4,0.1L84.1,263.3z"/>
<path class="st1" d="M140.5,475.2c-9.8,0-20.3-2.9-30.5-8.4c-7.7-4.2-13.5-8.8-17.5-14.1c-5.1-6.7-8.2-15.7-8.5-25.2
	c-0.6-16.4,6.9-33,19.7-43.3c3.2-2.6,6.7-4.8,10.5-6.6c3.8-1.8,7.8-3.1,12-4c2.9-0.6,6-0.9,9.1-0.9c20,0,45.1,13.6,52.6,43.5
	c1.8,7.2,2.2,14,1.2,20.2c-1.9,11.6-9.2,22.5-20,29.9c-7.7,5.2-16.5,8.3-25.4,8.9C142.6,475.1,141.6,475.2,140.5,475.2z
	 M136.3,403.1c-1.3,0-2.6,0.1-3.9,0.4c-3.4,0.7-6.5,2.2-9.1,4.3c-5.1,4.2-8.2,10.9-7.9,17.5c0.1,3.9,1.4,7.5,3.5,10.3
	c1.7,2.2,4,4,7.1,5.7c4.1,2.2,8.3,3.3,12.2,3.3c0.4,0,0.9,0,1.3,0c3.6-0.2,7.2-1.5,10.3-3.6c4.4-3,7.4-7.4,8.2-12.2
	c0.4-2.5,0.3-5.3-0.5-8.2C154.9,410.5,146,403.1,136.3,403.1z"/>
<path class="st5" d="M158.3,375.9c-7.1-3.6-14.6-5.4-22.3-5.4c-0.5,0-1,0-1.5,0l-4.2,0.1l0-4.2c0.3-31.2-0.5-63-2.4-94.3l-0.3-4.2
	l4.2-0.1c9.3-0.2,18.6-0.4,27.9-0.6l4.1-0.1v5.1c0.2,18.2,0.1,35.8,0.1,52.8c0,15.2,0,30.8,0.1,47.1l0.1,6.6L158.3,375.9z"/>
<path class="st4" d="M138.2,442.6c-3.6,0-7.4-1.1-11.2-3.1c-2.8-1.5-4.9-3.2-6.4-5.2c-1.8-2.4-2.9-5.7-3.1-9.1
	c-0.2-6,2.5-12.1,7.2-15.8c2.3-1.9,5.2-3.2,8.2-3.9c1-0.2,2.2-0.4,3.4-0.4c7.3,0,16.4,5,19.2,15.9c0.7,2.6,0.8,5.1,0.4,7.4
	c-0.7,4.2-3.4,8.2-7.3,10.8c-2.8,1.9-6,3-9.3,3.2C139,442.6,138.6,442.6,138.2,442.6z"/>
<path class="st3" d="M81.2,409.2c-5.1-0.6-10.3-0.9-15.4-0.9l-4,0v-4c0-0.1,0-0.5,0-0.5c-0.5-12.9-0.9-26.1-1.2-39.2
	c-0.5-23.7-0.6-47.7-0.3-71.2c0.1-3.7,0.3-7.6,0.6-11.9c0.2-2.4,0.4-5.1,0.5-7.7l0.2-3.7l3.7-0.1c18-0.6,37.1-1.2,56.5-1.7l3.9-0.1
	l0.2,3.8c2,31.8,2.8,64.1,2.4,95.9l0,3.2l-3.1,0.7c-8.5,1.9-16.4,5.7-22.9,10.9c-3.8,3.1-7.1,6.7-10,10.8c-2.9,4.1-5.2,8.5-6.9,13.2
	l-1.1,2.9L81.2,409.2z"/>
<path class="st0" d="M54.2,431.8c-8-0.1-16.1-3.5-23-9.6c-5.7-5.1-10.5-11.9-14.7-20.9c-8.9-19.1-12.2-41.4-9.6-64.3
	c2.4-20.6,9.5-41.5,21.1-62.1c3.6-6.4,7.7-12.8,13.7-17c3.6-2.5,8.2-4.2,11.4-4.2c1.1,0,2.1,0.2,2.9,0.6c1.7,0.7,2.7,2.3,3,4.7
	c1,7,0.4,14.8-0.1,22.4c-0.3,4.1-0.6,8.2-0.6,12C58,317,58.1,341,58.6,364.6c0.3,12.9,0.6,26.1,1.1,39.3l0,0.3
	c0.3,8,0.6,16.2-1.4,24c-0.1,0.3-0.2,0.6-0.2,0.8l-0.9,2.8l-3,0.1H54.2z"/>
<path class="st6" d="M131.6,399.6c-4,0.8-7.7,2.6-10.8,5.1c-6.1,4.9-9.7,12.9-9.4,20.7c0.2,4.7,1.7,9.2,4.3,12.6
	c2,2.6,4.7,4.9,8.3,6.8c4.7,2.5,9.5,3.8,14.1,3.8c0.5,0,1,0,1.5,0c4.3-0.3,8.6-1.8,12.3-4.3c5.3-3.6,8.9-9,9.9-14.9
	c0.5-3.1,0.3-6.4-0.5-9.9C157.8,405.8,144.5,396.9,131.6,399.6z M152,427.8c-0.5,3.1-2.6,6.2-5.6,8.2c-2.2,1.5-4.7,2.4-7.3,2.6
	c-3.1,0.2-6.7-0.7-10.2-2.6c-2.3-1.2-4-2.6-5.1-4c-1.4-1.8-2.2-4.2-2.3-6.9c-0.2-4.8,2-9.6,5.7-12.6c1.8-1.5,4.1-2.6,6.5-3.1
	c0.8-0.2,1.7-0.3,2.5-0.3c6.2,0,13.2,4.5,15.3,12.9C152.1,424.2,152.3,426.1,152,427.8z"/>
<path class="st6" d="M410.5,364.1c-5.6,1.2-10.8,3.7-15.1,7.1c-8.5,6.9-13.6,18-13.2,29c0.2,6.5,2.3,12.7,5.9,17.4
	c2.8,3.6,6.6,6.8,11.7,9.5c6.6,3.6,13.5,5.4,19.9,5.4c0.7,0,1.4,0,2.1-0.1c6.1-0.4,12-2.5,17.1-6c7.3-5,12.3-12.5,13.7-20.6
	c0.7-4.3,0.5-8.9-0.8-13.7C447.1,372.9,428.4,360.2,410.5,364.1z M442.8,404.2c-0.9,5.3-4.4,10.5-9.4,13.9c-3.7,2.5-7.9,4-12.1,4.3
	c-5.2,0.3-10.9-1.1-16.6-4.2c-3.8-2-6.6-4.2-8.4-6.7c-2.3-3.1-3.7-7.2-3.9-11.7c-0.3-7.9,3.3-15.9,9.5-20.8
	c3.1-2.5,6.8-4.3,10.8-5.1c11.1-2.4,25.6,4.9,29.7,20.8C443.1,398.1,443.3,401.3,442.8,404.2z"/>
<path class="st6" d="M474.3,97.2c-25.5-2.5-51.5-3.1-76.7-3.6l-3.7-0.1c-15.9-0.3-32-0.4-47.9-0.3c-14.4,0.1-28.4,0.5-42.4,3.1
	c-12.5,2.4-22.4,6.4-30,12.2c-9.9,7.5-16.1,18.4-16.6,29.3c0,1-0.2,3.7,1.6,5.9c2.3,3,6,3.1,7.4,3.1c4.3,0.1,8.6,0.2,12.8,0.3
	c-1.7,37.4-2.2,75.4-1.6,112.9c-25.9,0-51.9,0.2-77.8,0.6c-1-48.4-0.3-97.4,2.1-145.8c0-0.1,0-0.3,0-0.4c0.3-0.3,0.5-0.5,0.8-0.8
	c2.8-3,4.1-6.7,5.2-9.7l14.6-39.6c0.3-0.9,0.7-1.9,1.2-3c3.2-7.9,9.9-24.2-3.5-29.9c-4.6-1.9-10.2-1.5-15.2-1.1
	c-1.6,0.1-3.1,0.2-4.3,0.2l-101.5,1C84.2,31.7,69,31.8,54,34c-6.6,0.9-8.8,4.3-9.4,6.9c-0.6,2.4,0,4.6,0.4,5.8
	C51.5,67.7,60.4,88,71.6,107c1.5,2.6,3.2,5.3,5.6,7.4c-0.1,0.3-0.1,0.6-0.1,0.9c-0.9,49.2-0.6,99,0.9,148.2
	c-4.1,0.1-8.3,0.3-12.4,0.4c-0.1-2-0.2-3.9-0.5-5.8c-0.6-4.5-3-7.8-6.6-9.4c-6.4-2.8-14.8,0.5-20.2,4.2c-7,4.9-11.6,12-15.6,19
	c-12,21.3-19.3,42.9-21.8,64.4c-2.8,24.1,0.7,47.5,10.1,67.6c4.5,9.7,9.8,17.2,16.2,22.9c7.9,7.1,17.5,11.1,26.9,11.2h0.2
	c1.5,0,3.4-0.2,5.3-1.2c3.3-1.9,4.2-5.5,4.6-6.9c1.3-5.1,1.7-10.2,1.8-15.3c4.3,0,8.6,0.3,12.9,0.7c-0.8,4.2-1.1,8.4-1,12.7
	c0.4,10.7,3.8,20.9,9.7,28.6c4.6,6,10.9,11.2,19.4,15.7c11.2,6,22.6,9.1,33.4,9.1c1.2,0,2.4,0,3.5-0.1c10-0.7,19.8-4.1,28.4-9.9
	c12.1-8.2,20.4-20.6,22.6-33.9c1-6.2,0.8-12.9-0.6-19.8c46.1-0.7,92.7-1.9,138.7-3.6c0,0,0.1,0,0.1,0c1.9,11.7,6.4,22.5,13,31.1
	c6.6,8.7,15.9,16.2,28.3,22.8c16.3,8.8,33.1,13.3,48.8,13.3c1.7,0,3.4-0.1,5.1-0.2c14.5-0.9,28.8-5.9,41.3-14.4
	c17.6-12,29.5-29.8,32.7-49c1.7-10.2,1.1-21.3-1.9-32.9c-3.6-14.3-10.8-27.8-20.4-39c0.1-0.5,0.1-0.9,0.1-1.4
	c-2.4-24.4-3.6-49.1-3.7-73.6c0.2-0.6,0.3-1.3,0.3-2c-1.4-22.7-0.4-46,0.5-68.6c0.7-16.4,1.4-33.3,1.2-50c6.7,0,13.4,0.1,20.1,0.1
	h0.5c2.7,0,8-0.2,11.1-4.6c1.6-2.3,1.9-4.9,1.9-6.9C512.5,118.7,494.9,99.3,474.3,97.2z M86.7,180.7l102.7-1.4c-0.1,7-0.2,14-0.3,21
	l-102.2,1.4C86.8,194.7,86.7,187.7,86.7,180.7z M189.5,169.3l-102.9,1.5c0-17.4,0.2-34.7,0.4-51.9c1.8,0.2,3.4,0.3,4.9,0.4
	c22.1,0.9,44.4,1.4,66.6,1.4c7.6,0,15.2-0.1,22.8-0.2c3.2,0,6.7-0.2,10-0.9C190.6,136,189.9,152.6,189.5,169.3z M54.7,44.1
	c0.2,0,0.5-0.1,0.7-0.1c14.3-2.1,29.2-2.2,43.5-2.3l101.5-1c1.6,0,3.2-0.1,5-0.3c3.6-0.3,8.1-0.6,10.5,0.4c2.6,1.1,3.3,4.4-1.9,16.8
	c-0.5,1.2-1,2.4-1.3,3.4l-14.6,39.6c-0.9,2.4-1.8,4.8-3.2,6.3c-2.8,3.1-8.4,3.4-13.8,3.5c-29.5,0.4-59.4,0-88.8-1.2
	c-2.5-0.1-5.4-0.2-7.3-1.3c-1.9-1.1-3.3-3.4-4.8-5.9C69.6,83.7,61,64.3,54.7,44.1z M86.9,211.7l102.1-1.4
	c-0.1,16.9,0.1,33.7,0.4,50.5c-33.9,0.5-67.7,1.3-101.4,2.3C87.6,246,87.2,228.9,86.9,211.7z M160,325.3c0,15.2,0,30.9,0.1,47.1
	c-7.8-3.9-16.5-6.1-25.7-5.8c0.4-31.4-0.5-63.2-2.4-94.6c9.3-0.2,18.6-0.4,27.9-0.6c0,0,0,0,0,0C160.1,290,160.1,307.9,160,325.3z
	 M54.5,427.2c-0.1,0.3-0.1,0.5-0.2,0.6c0,0-0.1,0-0.1,0c-7-0.1-14.2-3.1-20.3-8.6c-5.3-4.7-9.8-11.1-13.7-19.6
	c-8.6-18.4-11.8-39.9-9.2-62.2c2.3-20.1,9.3-40.5,20.6-60.6c3.3-5.9,7.2-11.9,12.5-15.7c3.2-2.2,7-3.5,9.2-3.5
	c0.5,0,0.9,0.1,1.2,0.2c0.3,0.1,0.6,0.7,0.7,1.6c0.9,6.6,0.4,14.2-0.2,21.6c-0.3,4.1-0.6,8.2-0.6,12.2c-0.3,23.7-0.2,47.7,0.3,71.4
	c0.3,13.1,0.7,26.3,1.2,39.4l0,0.3C56.1,412.4,56.4,420,54.5,427.2z M81.7,405.2c-5.2-0.6-10.5-0.9-15.8-0.9c0-0.1,0-0.3,0-0.4
	l0-0.3c-0.5-13-0.9-26.1-1.2-39.2c-0.5-23.6-0.6-47.5-0.3-71.1c0-3.7,0.3-7.5,0.6-11.6c0.2-2.6,0.4-5.2,0.5-7.8
	c18.8-0.7,37.6-1.2,56.5-1.7c2,31.7,2.8,63.9,2.4,95.6c-9.1,2-17.5,6.1-24.5,11.7C91.6,386.2,85.4,395.3,81.7,405.2z M185.1,435.7
	c-1.8,10.6-8.4,20.5-18.3,27.2c-7.1,4.8-15.2,7.7-23.4,8.2c-9.9,0.6-20.8-2.1-31.5-7.8c-7.2-3.9-12.5-8.1-16.2-13
	c-4.6-6.1-7.4-14.2-7.7-22.9c-0.6-15.1,6.4-30.5,18.2-40c0,0,0,0,0,0c5.9-4.8,13.1-8.2,20.8-9.8c2.7-0.6,5.5-0.9,8.3-0.9
	c19.8,0,42,13.9,48.8,40.4C185.7,423.8,186.1,430,185.1,435.7z M191.5,407.5c-4.3-11-11.7-21.2-21.3-28.7
	c-0.2-18.5-0.1-36.3-0.1-53.5c0-17.4,0-35.3-0.1-54c0,0,0-0.1,0-0.1c57.6-1.1,115.3-1.3,172.9-0.9c-0.6,28,0.2,56.3,2.3,84.2
	c0,0.2,0.1,0.4,0.1,0.6c-8.9,14.5-13.7,31.6-13.1,48.6c0,0.1,0,0.2,0,0.2C285.5,405.6,238.2,406.8,191.5,407.5z M469.2,334.9
	c-1.8-1.5-3.6-2.9-5.4-4.3c-19.1-13.8-41.6-18.9-63.4-14.3c-4.7,1-9.3,2.4-13.8,4.1c-0.5-16.5-0.9-33.2-1.2-49.7c27,0.4,54,1,81,1.7
	C466.5,293.3,467.4,314.2,469.2,334.9z M375.4,270.7c0.3,18.1,0.7,36.3,1.3,54.4c-4.5,2.5-8.8,5.3-12.7,8.5
	c-3.4,2.8-6.6,5.9-9.6,9.2c-1.5-24-2-48.3-1.5-72.4C360.4,270.5,367.9,270.6,375.4,270.7z M492.4,416c-2.8,16.5-13.1,31.9-28.5,42.3
	c-11,7.5-23.5,11.8-36.3,12.7c-15.2,1-32-3.2-48.5-12c-11.1-6-19.3-12.5-25-20.1c-7.2-9.5-11.5-22.2-12-35.7
	c-0.9-23.4,9.9-47.1,28.1-61.9c9.1-7.4,20.2-12.7,32.2-15.2c4.6-1,9.1-1.4,13.7-1.4c14.5,0,28.9,4.8,41.7,14
	c16,11.6,28,29.2,32.9,48.5C493.3,397.5,493.9,407.2,492.4,416z M467.2,199.7c-0.9,20.6-1.8,41.8-0.9,62.8
	c-59.4-1.6-119.2-2.5-179-2.5c-0.6-37.4-0.1-75.3,1.6-112.6c59.7,1.3,119.9,2.2,179.6,2.6C468.6,166.5,467.9,183.4,467.2,199.7z
	 M501.8,139.8c-0.3,0.1-1.1,0.3-3.2,0.3c-76.8-0.4-154.7-1.5-231.5-3.3c0.8-7.5,5.4-15,12.5-20.3c6.4-4.8,14.9-8.2,25.9-10.3
	c13.1-2.5,26.7-2.8,40.6-3c15.8-0.1,31.8,0,47.6,0.3l3.7,0.1c25,0.5,50.9,1,75.9,3.5c15.4,1.5,29.1,16.5,28.7,31.4
	C501.9,139.3,501.9,139.7,501.8,139.8z"/>
<path class="st6" d="M312.7,235.4c3.4,2.7,7.6,3.2,10.3,3.6c24.4,3.4,49.2,5.1,73.9,5.1c10.7,0,21.4-0.3,32-1
	c2.7-0.2,6.7-0.4,10.1-2.8c2.6-1.9,4.1-4.4,5.4-7c5.2-10.4,7.9-22.2,8-34c0.1-10.7-0.8-25.6-8.5-32.4c-5.9-5.1-16.1-4.6-24.3-4.2
	c-2.2,0.1-4.3,0.2-5.9,0.2c-14.9-0.4-26.9-0.7-37.9-0.9c-15.3-0.2-29.1-0.3-42-0.1c-6,0.1-11.9,0.4-16.9,3.9
	c-6.1,4.2-8.3,11.3-9.6,17c-2.9,12.9-3.3,26.6-1,39.6C307.1,227.1,308.5,232.1,312.7,235.4z M317.2,185.2c0.9-3.9,2.3-8.7,5.5-11
	c2.7-1.9,6.7-2.1,11.3-2.1c12.8-0.2,26.5-0.1,41.7,0.1c10.9,0.2,22.9,0.5,37.8,0.9c1.9,0.1,4.2-0.1,6.7-0.2
	c5.4-0.3,14.4-0.7,17.1,1.7c2.4,2.1,5.2,8.1,5.1,24.8c-0.1,10.3-2.5,20.6-6.9,29.6c-0.7,1.3-1.4,2.7-2.2,3.2c-1.1,0.7-3.3,0.9-4.9,1
	c-34.6,2.1-69.6,0.7-103.9-4.1c-2.3-0.3-4.4-0.7-5.5-1.6c-1.6-1.2-2.2-4.2-2.7-6.7C314.2,209.1,314.6,196.8,317.2,185.2z"/>
</svg>
