<?xml version="1.0" encoding="utf-8"?>
<!-- Generator: Adobe Illustrator 25.3.1, SVG Export Plug-In . SVG Version: 6.00 Build 0)  -->
<svg version="1.1" id="Capa_1" xmlns="http://www.w3.org/2000/svg" xmlns:xlink="http://www.w3.org/1999/xlink" x="0px" y="0px"
	 viewBox="0 0 512 512" style="enable-background:new 0 0 512 512;" xml:space="preserve">
<style type="text/css">
	.st0{fill:#D4B1A6;}
	.st1{fill:#E1B946;}
	.st2{fill:#CC644F;}
	.st3{fill:#282828;}
</style>
<g>
	<path class="st0" d="M490.6,152.8c-3,0-6.4-1.3-10.3-4c-6.5-4.5-11.8-10.2-17.5-16.2c-2-2.1-4.3-4.6-6.6-6.9l-2.8-2.8l2.7-2.8
		c3.1-3.2,5.8-6.2,8.3-8.9l1.8-2l2.7,0.9l0.1,0.1c10.4,3.3,22.1,7.1,30.7,14.9c3.6,3.2,5.5,6.4,5.6,9.5c0.1,2.8-1.1,5.5-2.5,8
		c-3.2,6-6.5,9.2-10.4,10C492,152.7,491.3,152.8,490.6,152.8z"/>
	<path class="st1" d="M401.7,159c-1.5,0-2.9-0.2-4.3-0.5c-4.9-1.2-9.1-4.5-12.9-7.4L347,122.2c-3.3-2.5-7-5.4-9.1-9.3
		c-4.1-7.8-0.3-16.4,1-18.9c3.2-6,8.4-11.1,13-15.5l31-29.8c10.7-10.2,18.4-17,28.4-17c4.9,0,10,1.7,15.8,5.1
		c17.4,10.4,33.8,24.8,47.5,41.5c1.9,2.3,3.8,4.9,4.1,7.7c0.4,3.9-2.2,7.6-4.7,10.7c-14,17.8-30.5,33.6-46.3,48.1
		C420.2,151.9,411.2,159,401.7,159z"/>
	<g>
		<path class="st0" d="M453.9,186.3c-2.2,0-4.2-0.5-5.8-1.5c-2.7-1.7-4.5-4.8-5.9-7.3L426,149.3l3.1-2.9c2.2-2,4.4-4,6.6-6.1l2.1-2
			l2.6,1.4c8,4.5,15.6,9.8,22.5,15.8c4.1,3.5,8.3,7.9,9.1,13.3c0.5,3.8-0.8,7.9-3.5,11c-2.5,2.9-6.2,5-10.3,6
			C457.1,186,455.6,186.3,453.9,186.3z"/>
		<path class="st0" d="M370.2,53.5c-0.1,0-0.1-0.1-0.2-0.1c-4.3-2.2-8.1-5.5-11.7-8.6l-0.3-0.3c-5.5-4.8-11.2-9.8-16.3-15.2
			c-2.2-2.4-4.3-5-4.7-8c-0.4-2.7,0.8-5.7,3-8.1c1.8-1.9,4.3-3.5,7.8-5c3.3-1.4,6.1-2.1,8.6-2.1c1.2,0,2.4,0.2,3.5,0.5
			c4.4,1.4,7.3,5.3,10.4,9.9l17,25.4l-2.5,2.3c-1.1,1-2.2,2.1-3.2,3.1l-8.6,8.3L370.2,53.5z"/>
		<path class="st0" d="M332.8,157.2c-2.6-2.3-4.9-4.3-7.3-6.5l-3.1-2.9l24.2-23.3l36.6,28.2l4.6,3.5l-2.6,3.2
			c-5.9,7.1-12.2,14.5-18.6,21.9l-2.6,3L332.8,157.2z"/>
		<path class="st0" d="M333.4,212.4c-11.7-11.7-24.1-22.8-37.1-33.1l-3.6-2.8l28.2-27.3l2.8,2.6c2.6,2.4,5.4,4.8,7.7,6.9l31.2,27.3
			l-2.6,3c-6.7,7.7-13.7,15.5-20.8,23.3l-2.8,3.1L333.4,212.4z"/>
		<path class="st0" d="M342.3,81.1c-9.7-5.2-18.8-11.6-26.9-19c-2.2-2-4.5-4.3-5.3-7c-0.9-2.9-0.2-6.4,1.9-9.9
			c1.5-2.5,3.4-4.4,5.4-5.5c1.4-0.8,3-1.2,4.5-1.2c0.9,0,1.8,0.2,2.7,0.5c1.7,0.7,3,1.9,4.6,3.4c8.6,8.4,16.7,17.5,24.1,27.1
			l2.2,2.8l-4.9,4.7l-1.1,1.1c-0.8,0.8-1.6,1.5-2.4,2.3l-2.1,2.1L342.3,81.1z"/>
	</g>
	<path class="st1" d="M142.5,505.9c-8.3,0-16.6-0.8-24.5-2.3c-36.2-7.1-69.7-29.4-92-61.2c-9.8-14.1-15.9-27.9-18-41.1
		c-2-12.4-0.9-26.3,3.3-41.5c9.5-34.3,31.1-62.4,59.3-77c11.6-6,25.1-10.2,40.4-12.4l2.3-0.3c8.4-1.2,17.9-2.6,24.4-8.7
		c3.8-3.6,5.9-8.2,8.1-13.1l0.4-0.9c0.3-0.7,0.6-1.4,1-2.1c9.8-20.6,27.7-37.2,48.9-45.6c10.7-4.3,22.1-6.4,33.9-6.4
		c10.1,0,19.9,1.6,29.3,4.7l6.2,2.1l-14.9,14.4l-2.9-1.8c-6.2-2.8-13.2-4.2-20.4-4.2c-15.7,0-30.8,6.7-40.3,17.8
		c-4.8,5.6-8.3,12.1-11.7,18.4c-3.4,6.2-6.5,12.1-10.9,17.3c-12.7,15.4-31.6,21.6-51.5,28.2c-9.3,3.1-18.9,6.3-27.7,10.4
		c-15.1,7.1-27.5,17.4-35.7,29.5C36.8,348.7,30,386.2,45,424.5c9.1,23.3,28.3,41.4,54,51c12.6,4.7,26.5,7.2,40.4,7.2
		c12.2,0,24-1.8,35.1-5.5c5.1-1.7,10-3.7,14.7-6.1c19.4-9.8,34-24.6,41-41.7c3.7-9,5.4-18.7,7-28.2v-0.1c2.1-12.1,4.1-23.5,9.8-33.8
		c7.6-13.6,20.9-23.1,33.7-32.2l1-0.7c14-10,27.1-20.1,33.9-34.8c3.5-7.6,4.6-16.6,3-24.7c-1.6-8-5.5-14.5-11.3-18.6l-3.8-2.7
		l3.2-3.4c2.4-2.5,4.8-5,7.2-7.5l2.8-2.9l2.9,2.8c14.5,14.1,19.4,38.6,12.1,61c-5.9,18.3-18.9,35.7-39.6,53c-1.2,1-2.3,1.9-3.5,2.9
		l-1.6,1.3c-11.6,9.5-23.6,19.3-28.7,33.3c-2.6,7.3-3.2,15.1-3.7,22.6c-0.3,5.1-0.7,9.9-1.6,14.6c-3,16.3-13.3,32.5-28.8,45.6
		C202.5,495.4,172.8,505.9,142.5,505.9z"/>
	<path class="st0" d="M264.6,203.6l26.7-25.7l2.7,2.2c13.4,10.6,26.3,22.1,38.3,34.1l2.7,2.7l-2.6,2.8c-6.2,6.7-12.5,13.5-18.8,20.1
		l-2.6,2.7L264.6,203.6z"/>
	<path class="st2" d="M139.2,480.6c-13.6,0-27.3-2.4-39.6-7c-25.1-9.4-43.9-27.1-52.8-49.8c-10.3-26.3-13.4-66.5,4.3-92.5
		c8.1-11.9,20.1-21.8,34.9-28.8c8.6-4.1,18.1-7.2,27.3-10.3l0.2-0.1c19.4-6.4,39.4-13,52.5-28.8c4.4-5.4,7.8-11.6,11.1-17.6
		c3.5-6.5,6.8-12.6,11.5-18.1c9.2-10.7,23.6-17.2,38.6-17.2c5.7,0,11.3,0.9,16.4,2.8l6.1,2.2l-23.8,23c-2.3,2.2-6.6,6.3-5.8,11.3
		c0.4,2.6,2.1,4.7,3.7,6.6c11,12.5,24.1,22.8,38.9,30.5c1,0.5,2.6,1.4,4.3,1.4c0.3,0,0.6,0,0.8-0.1c1.9-0.3,3.3-1.7,4.3-2.7
		c9.2-9,18.4-18.3,27.5-27.6l2.2-2.3l2.7,1.6c6.4,3.8,10.7,10.6,12.2,19.1c1.3,7.6,0.2,15.9-3,22.7c-6.6,14.3-19.5,24.2-33.2,34
		l-1,0.7c-13,9.3-26.5,18.9-34.3,32.9c-5.9,10.5-8,22.6-10,34.3v0.2c-1.7,9.8-3.3,19-6.9,27.7c-6.8,16.6-21,31.1-40,40.6
		c-4.6,2.3-9.5,4.3-14.4,6C162.7,478.8,151.1,480.6,139.2,480.6z M81.1,393.9c-2.6,0-4.1,1.2-4.9,2.1c-2.1,2.7-1.7,6.9-0.6,9.8
		c2.4,6.5,8.2,11.4,13.3,15.8c1,0.9,2,1.7,3,2.6c7.9,7,16.2,13.6,24.8,19.7c2.3,1.6,4.8,3.2,7.6,3.2c0.2,0,0.3,0,0.5,0
		c1.9-0.1,3.7-1.1,5.1-2.7c1.7-2,2.7-4.9,2.5-7.5c-0.3-4.7-3.3-8.7-5.9-11.6c-5.3-6.2-11.9-11.8-20.6-17.7c-1.4-0.9-3-2.1-4.4-3.2
		c-5.8-4.2-12.9-9.5-18.9-10.3C82.1,393.9,81.6,393.9,81.1,393.9z M142.1,383.1c1.8,4.6,3.3,9.5,4.6,13.8
		c3.3,10.5,6.7,21.4,13.2,30.5c0.8,1.1,2.1,2.5,3.7,2.5c0.5,0,0.9-0.1,1.2-0.3c1-0.5,1.5-1.4,1.8-2.1c7.8-15,14.7-30.6,20.5-46.4
		l1-2.7l40.4,0.7c0.4,0,0.6-0.2,0.7-0.3c0.2-0.2,0.3-0.5,0.3-0.8c-0.8-10.1-8-18.3-14.3-25.5l-0.8-0.9c-0.9-1-1.8-2-2.6-3
		c-1.1-1.4-2.2-2.7-2.5-4.2c-0.4-1.9,0.2-3.9,1.3-6.5l1.1-2.7c5.4-13.4,11.4-28.5,12.6-42.6c0-0.3-0.1-0.6-0.3-0.8
		c-0.2-0.2-0.5-0.3-0.7-0.3c-12.2,0.9-24,7-35.3,12.8c-3.7,1.9-7.3,3.8-10.8,5.4c-1.3,0.6-2.2,1-3.1,1h-0.4h-0.4
		c-1.1-0.1-2-0.6-3.4-1.4c-10-5.5-20.6-9.7-31.7-12.5c-0.5-0.1-1-0.2-1.5-0.2c-0.9,0-1.4,0.3-1.7,0.6c-0.9,0.8-0.9,1.9-0.9,3
		l1.9,33.6c0,0.1,0,0.4,0,0.7v2.2l-1.9,1.2c-0.1,0.1-0.2,0.1-0.3,0.2h-0.1l-35.8,19.4c-2.3,1.2-3.3,2.7-3,4.2
		c0.2,1.3,1.2,2.1,1.8,2.6c4.4,3.5,9.7,5.3,15.2,7.1c8.2,2.6,16.6,5,24.9,7.1c1.7,0.4,2.3,0.6,2.8,0.9l0.6,0.3l0.4,0.5
		C140.9,380.7,141.5,381.3,142.1,383.1z"/>
	<path class="st0" d="M284.2,263.8c-0.1-0.1-0.2-0.2-0.2-0.3c-13.2-10.9-26.9-21.9-40.9-32.7l-3.7-2.8l23.8-22.9l46.6,39l-3,3.1
		c-5.3,5.6-10.9,11.3-16.5,17l-3.2,3.3L284.2,263.8z"/>
	<path class="st0" d="M265.3,285.7c-0.5-0.2-1.1-0.4-1.8-0.8c-14.5-7.6-27.4-17.7-38.3-30c-1.8-2-3-3.7-3.2-5.6
		c-0.5-3.5,2.4-6.8,5.2-9.5l10.7-10.3l2.7,2.1c14.2,10.9,28.3,22.1,42,33.5c0.1,0,3.9,2.8,3.9,2.8l-3.3,3.3
		c-4.2,4.2-8.4,8.4-12.7,12.6l-0.2,0.2c-0.4,0.4-0.9,0.8-1.3,1.1l-1.7,1.3L265.3,285.7z"/>
	<path class="st1" d="M159.7,423.4c-5.1-8.2-8-17.3-11-27c-1.5-4.7-2.9-9.4-4.7-14c-0.4-1.1-1-2.7-2.2-3.8c-1.3-1.1-2.9-1.6-4.3-1.9
		c-8.4-2.1-16.7-4.5-24.8-7.1c-3.8-1.2-7.8-2.5-11.2-4.5l-6.3-3.6l39.5-21.4c1-0.5,2.2-1.2,2.9-2.4c0.8-1.3,0.7-2.9,0.6-4l-2.1-35.4
		l5.4,1.6c9.5,2.7,18.8,6.5,27.5,11.3c1.3,0.7,2.9,1.6,4.6,1.6h0.2c1.6,0,3.1-0.7,4.2-1.2c3.3-1.5,6.7-3.2,10.2-5.1l0.7-0.3
		c9-4.6,18.3-9.4,27.7-11.6l5.9-1.4l-1.1,6c-2.2,11.7-7.1,24.1-11.5,35l-1.2,2.9c-0.9,2.3-2,5-1.4,7.7c0.4,2,1.7,3.6,2.9,5
		c1,1.2,1.9,2.3,2.9,3.4l0.5,0.5c4.8,5.5,9.9,11.3,12.3,17.7l2.1,5.5l-38.4-0.6c-0.7,0-1.6,0.1-2.3,0.5c-1.1,0.7-1.6,2-1.9,2.8
		c-5.3,14.7-11.7,29.3-18.8,43.3l-3.2,6.3L159.7,423.4z"/>
	<path class="st1" d="M124.2,445.1c-2.2,0-4.3-1.3-6.4-2.8c-8.5-6.1-16.8-12.6-24.6-19.6c-0.9-0.8-1.9-1.7-3-2.6
		c-5.2-4.4-10.5-9-12.7-14.9c-0.9-2.3-1-4.9-0.4-6.6l0.8-2.3l2.4-0.3c0.2,0,0.5-0.1,0.8-0.1c0.4,0,0.7,0,1.1,0.1
		c5.1,0.7,11.2,4.9,18,10l0.3,0.3c1.5,1.1,2.9,2.1,4.1,3c8.6,5.8,15,11.4,20.2,17.4c2.4,2.7,5.1,6.4,5.4,10.5c0.2,2.1-0.6,4.4-2,6
		c-1.3,1.5-2.8,1.9-3.7,2h-0.2h-0.1V445.1z"/>
	<path class="st3" d="M214.9,346c-0.5-0.6-1.5-1.8-1.7-2.5c-0.2-0.9,0.5-2.7,1.1-4.1l1.1-2.7c5.5-13.6,11.7-29,12.9-43.7
		c0.1-1.5-0.4-2.9-1.4-4c-1-1-2.5-1.6-4-1.5c-13,1-25.1,7.3-36.9,13.3c-3.7,1.9-7.2,3.7-10.6,5.3c-0.5,0.2-1.4,0.7-1.7,0.7
		s-1.2-0.5-1.9-0.9c-10.3-5.7-21.2-10-32.6-12.9c-2.7-0.7-5-0.3-6.8,1.2c-2.5,2.2-2.3,5.2-2.3,6.2l2,33.6c0,0.1,0,0.3,0,0.5
		c-0.1,0.1-0.3,0.1-0.4,0.2L96.1,354c-5.2,2.8-5.4,6.5-5.1,8.4c0.5,2.8,2.5,4.4,3.3,5.1c4.9,3.9,10.6,5.9,16.5,7.7
		c8.3,2.6,16.7,5,25.1,7.2c0.5,0.1,1.5,0.4,1.7,0.5c0.2,0.2,0.5,1.1,0.7,1.5c1.7,4.4,3.1,9.1,4.5,13.6c3.4,10.8,6.9,22,13.8,31.6
		c2.2,3,4.7,4.1,7,4.1c1.1,0,2-0.2,2.9-0.6c2.2-1,3.2-2.9,3.7-3.8c7.9-15.1,14.8-30.9,20.7-46.9l37.5,0.6c1.4,0,2.8-0.6,3.7-1.6
		s1.5-2.4,1.3-3.8c-0.9-11.4-8.6-20.1-15.3-27.9C217.1,348.6,216,347.3,214.9,346z M190.2,372.4c-1,0-3-0.1-4.8,1.1
		c-2.4,1.4-3.2,3.7-3.6,4.9c-5.3,14.6-11.6,29-18.6,42.9c-4.9-7.8-7.7-16.7-10.6-26.2c-1.5-4.7-3-9.5-4.7-14.1
		c-0.5-1.3-1.4-3.6-3.3-5.3c-2-1.8-4.4-2.4-6-2.8c-8.2-2.1-16.5-4.4-24.5-7c-3.9-1.2-7.4-2.4-10.5-4.1l33.2-18
		c1.2-0.6,3.1-1.7,4.4-3.9c1.4-2.4,1.2-4.8,1.2-6.3l-1.7-29.8c9.2,2.6,18.2,6.3,26.6,11c1.6,0.9,3.7,2,6.4,2.1
		c2.6,0.1,4.8-0.9,6.2-1.6l0,0c3.6-1.7,7.2-3.5,11-5.5c8.8-4.5,17.8-9.2,26.8-11.2c-2.1,11.4-7,23.5-11.3,34.4l-1.1,2.7
		c-1,2.6-2.5,6.1-1.6,10.1c0.6,2.8,2.3,5,3.8,6.7c1.1,1.3,2.3,2.6,3.4,4c4.8,5.5,9.4,10.8,11.6,16.5L190.2,372.4z"/>
	<path class="st3" d="M129.4,422.6c-5.6-6.4-12.4-12.3-21.4-18.4c-1.3-0.9-2.7-1.9-4.3-3.1C97.7,396.6,90,391,83,390
		c-5.7-0.8-8.7,1.8-10,3.5c-3.2,4-2.7,9.7-1.2,13.7c2.8,7.4,9,12.8,14.5,17.4c1,0.8,2,1.7,2.9,2.5c8,7.1,16.4,13.8,25.1,20
		c2.7,1.9,5.9,4,9.9,4c0.2,0,0.5,0,0.7,0c3-0.2,5.8-1.6,8-4c2.5-2.8,3.8-6.7,3.5-10.5C135.8,430.8,132.4,426.1,129.4,422.6z
		 M125.2,440.4c-0.2,0.3-0.6,0.6-1,0.6c-1.1,0.1-3.1-1.3-4.2-2.1c-8.4-6-16.5-12.5-24.3-19.3c-1-0.9-2-1.7-3-2.6
		c-4.8-4.1-9.7-8.3-11.6-13.3c-0.7-1.8-0.6-3.3-0.4-3.8c0.2,0,0.4,0,0.9,0c4.5,0.6,11.2,5.6,16.2,9.2c1.6,1.2,3.2,2.3,4.6,3.3
		c8.3,5.6,14.5,10.9,19.4,16.7c1.9,2.3,4.2,5.2,4.4,8.1C126.3,438.4,125.9,439.6,125.2,440.4z"/>
	<path class="st3" d="M503.9,120.5c-8.5-7.7-19.3-11.7-29.3-15c1.4-1.7,2.8-3.3,4.1-5.1c3.5-4.4,6.6-9.2,5.9-15.1
		c-0.5-4.5-3.1-8-5.5-10.9c-14.1-17.2-31.1-32-49-42.8c-17.5-10.5-29.8-5.7-40.6,2.8l-14.4-21.5c-2.7-4.1-6.8-10.2-13.6-12.3
		c-4.7-1.5-10-0.9-16.2,1.8c-2.7,1.2-6.7,3.1-9.9,6.5c-3.5,3.7-5.1,8.5-4.5,13c0.6,4.7,3.4,8.2,6.3,11.3c5.3,5.8,11.2,10.9,17,15.9
		c3.4,2.9,6.8,5.9,10.8,8.3l-7.8,7.5c-7.4-9.5-15.4-18.5-24-26.9c-1.9-1.9-3.8-3.6-6.5-4.7c-3.8-1.5-8.4-1.1-12.2,1
		c-3,1.6-5.6,4.2-7.6,7.7c-3,5-3.9,10.2-2.5,14.7c1.3,4.3,4.3,7.3,7,9.8c7.9,7.2,16.7,13.5,26,18.8c-1.4,1.9-2.7,3.8-3.8,5.9
		c-4.4,8.3-4.7,17.5-1,24.5c1.7,3.1,4,5.6,6.4,7.8l-20.4,19.7c-0.4,0.2-0.9,0.5-1.3,0.9c-0.3,0.3-0.6,0.7-0.8,1.1L265.9,194
		c-0.3-0.2-0.5-0.3-0.8-0.4c-22.7-8.7-48.7-8.6-71.3,0.4s-41.6,26.7-52.1,48.6c-0.5,1-0.9,2-1.4,3c-2,4.3-3.9,8.5-6.8,11.3
		c-5,4.8-13.2,6-21,7.1c-0.8,0.1-1.6,0.2-2.3,0.3c-15.9,2.4-30.1,6.7-42.3,13c-29.7,15.4-52.4,44.8-62.4,80.8
		c-4.4,16-5.6,30.8-3.4,44c2.3,14.1,8.7,28.8,19,43.6c23.2,33.1,58.1,56.4,95.8,63.7c8.7,1.7,17.5,2.5,26.3,2.5
		c31.2,0,61.7-10.6,84.9-30.3c11.7-9.9,26.6-26.5,30.8-49.1c1-5.1,1.3-10.3,1.7-15.4c0.5-7.5,1-14.5,3.3-21
		c4.6-12.5,15.9-21.8,26.9-30.7c1.8-1.4,3.5-2.9,5.2-4.3c21.6-18.1,35.1-36.3,41.4-55.8c8-24.7,2.4-51.6-13.8-67.3
		c23.1-24.6,45.6-50,67.1-75.8c1.7,0.8,3.4,1.5,5.3,1.9c2,0.5,3.9,0.7,5.8,0.7c7.7,0,14.9-3.6,21.4-8.4l13.8,24c1.7,2.9,4,7,8,9.4
		c2.9,1.8,6.1,2.4,8.9,2.4c2.1,0,4-0.3,5.6-0.7c5.4-1.3,10.2-4.1,13.5-7.9c3.9-4.4,5.7-10.3,4.9-15.8c-1-7.4-6.2-12.7-11.1-17
		c-6.5-5.6-13.4-10.6-20.8-15c2.1-2,4.1-4,6.1-6c2.2,2.2,4.3,4.4,6.3,6.6c5.6,6,11.4,12.2,18.4,17.1c4.9,3.4,9.4,5.1,13.7,5.1
		c1.1,0,2.2-0.1,3.3-0.3c8.5-1.8,13-10.3,14.5-13.1c1.7-3.1,3.3-6.9,3.2-11.1C511.3,129.5,508.8,124.9,503.9,120.5z M371.8,49.8
		c-3.9-2-7.5-5.2-11-8.2c-5.5-4.8-11.2-9.7-16.2-15.1c-1.8-1.9-3.4-3.9-3.7-5.8c-0.2-1.5,0.5-3.4,1.9-4.9s3.5-2.8,6.5-4.1
		c4-1.7,7-2.2,9.3-1.4c3.2,1,5.6,4.4,8.3,8.3L382,41.3c-1.1,1-2.2,2.1-3.3,3.1l-6.2,5.9C372.3,50.1,372.1,50,371.8,49.8z
		 M313.9,53.9c-0.5-1.8,0-4.2,1.5-6.7c1.1-1.9,2.5-3.3,3.9-4c1.3-0.7,2.7-0.9,3.8-0.5c1,0.4,2,1.4,3.2,2.5
		c8.5,8.3,16.5,17.3,23.7,26.7l-2.3,2.2c-1.1,1.1-2.3,2.2-3.5,3.4c-9.4-5.1-18.2-11.3-26.1-18.5C316.4,57.6,314.5,55.7,313.9,53.9z
		 M336.3,209.6c-11.8-11.8-24.4-23-37.5-33.4l22.2-21.5c2.6,2.4,5.2,4.7,7.8,7l28.1,24.7C350.2,194.2,343.3,201.9,336.3,209.6z
		 M310.8,237.1l-40.2-33.7l20.9-20.2c13.3,10.5,26.1,21.8,38,33.8C323.3,223.8,317.1,230.4,310.8,237.1z M310,297.1
		c-6.2,13.4-18.6,23-31.9,32.5l-1,0.7c-13.4,9.5-27.2,19.4-35.5,34.2c-6.3,11.2-8.4,23.6-10.5,35.7c-1.7,9.6-3.2,18.6-6.7,27
		c-6.5,15.8-20,29.5-38.1,38.6c-4.4,2.2-9.1,4.2-13.9,5.7c-22.7,7.4-48.8,6.8-71.5-1.6c-24.1-9-42-25.8-50.5-47.5
		c-9.9-25.4-13-64,3.9-88.8c7.7-11.3,19.2-20.8,33.3-27.4c8.5-4,17.9-7.1,27-10.1c19.9-6.6,40.5-13.4,54.3-30.1
		c4.7-5.7,8.2-12.1,11.5-18.3c3.4-6.3,6.7-12.3,11-17.4c12-14,33.3-19.4,50.7-13.2L223,235.4c-2.6,2.5-8.1,7.8-7,14.8
		c0.6,3.7,2.7,6.4,4.7,8.6c11.4,12.9,24.8,23.4,40.1,31.4c1.3,0.7,3.5,1.8,6.1,1.8c0.5,0,1,0,1.5-0.1c3.1-0.5,5.2-2.6,6.4-3.8
		c9.3-9.1,18.5-18.3,27.6-27.7C313.9,267.2,315.6,284.8,310,297.1z M263.3,210.4l40.5,33.9c-5.5,5.7-11,11.4-16.5,17
		c-0.2-0.3-0.5-0.6-0.8-0.8c-13.4-11.1-27.2-22.2-41.1-32.8L263.3,210.4z M266.7,281.9c-0.3-0.1-0.7-0.3-1.3-0.6
		c-14.1-7.4-26.6-17.1-37.2-29.1c-0.7-0.8-2.1-2.4-2.3-3.5c-0.3-1.9,2.9-4.9,4.1-6.1l8.2-8c14.1,10.9,28.3,22.1,42,33.5
		c0.1,0.1,0.2,0.1,0.2,0.2c-4.2,4.2-8.4,8.4-12.7,12.6C267.5,281.2,267,281.6,266.7,281.9z M327.7,302.4
		c-5.7,17.6-18.2,34.3-38.3,51.1c-1.7,1.4-3.4,2.8-5.1,4.2c-12,9.8-24.4,20-30,35.1c-2.8,7.8-3.4,15.9-3.9,23.7
		c-0.3,4.9-0.7,9.6-1.5,14.2c-2.9,15.4-12.6,30.7-27.4,43.3c-27,22.9-66.4,32.7-102.8,25.6C83.6,492.8,51,471,29.3,440
		c-9.5-13.6-15.3-26.8-17.4-39.4c-1.9-11.8-0.8-25.2,3.2-39.8c9.2-33.3,30.1-60.4,57.3-74.5c11.2-5.8,24.3-9.8,39.1-12
		c0.8-0.1,1.5-0.2,2.3-0.3c9-1.3,19.2-2.8,26.6-9.8c4.3-4.2,6.7-9.4,9-14.4c0.4-1,0.9-1.9,1.3-2.8c9.4-19.7,26.4-35.6,46.7-43.7
		c19.1-7.6,40.9-8.1,60.4-1.6l-8,7.7c-0.2-0.1-0.4-0.2-0.6-0.3c-21.8-9.8-49.9-3.6-65.5,14.6c-5.1,5.9-8.7,12.6-12.2,19.1
		c-3.3,6-6.4,11.7-10.4,16.7c-11.9,14.5-30.3,20.5-49.7,26.9c-9.4,3.1-19.1,6.3-28.2,10.6c-15.8,7.5-28.7,18.1-37.3,30.9
		C27,355.7,30.1,398.3,41,426c9.6,24.4,29.6,43.3,56.3,53.3c13.2,4.9,27.5,7.4,41.8,7.4c12.4,0,24.8-1.9,36.3-5.7
		c5.3-1.7,10.4-3.8,15.3-6.3c20.3-10.2,35.5-25.8,42.9-43.8c3.9-9.4,5.6-19.4,7.3-29.1c2-11.7,4-22.8,9.4-32.5
		c7.2-12.8,20.1-22,32.6-30.9l1-0.7c14.4-10.3,28-20.8,35.2-36.4c3.8-8.3,5-18.2,3.3-27.2c-1.8-9-6.3-16.4-12.9-21.1
		c2.4-2.5,4.8-5,7.2-7.5C330.1,258.6,334.5,281.3,327.7,302.4z M363.6,178.8l-28.1-24.6c-2.4-2.1-4.8-4.2-7.2-6.4l18.6-18l33.8,26.1
		c0.4,0.3,0.9,0.7,1.4,1.1C376,164.3,369.8,171.5,363.6,178.8z M398.3,154.6c-4-1-7.8-3.9-11.4-6.7L349.4,119c-3.1-2.4-6.4-4.9-8-8
		c-2.6-4.8-1.1-11,1-15.1c2.8-5.4,7.6-10,12.2-14.4l31-29.8c10-9.6,17-15.8,25.6-15.8c4.1,0,8.5,1.4,13.7,4.6
		c17,10.2,33,24.2,46.4,40.6c1.5,1.9,3.1,3.9,3.2,5.6c0.2,2.3-1.7,5.1-3.8,7.8c-13.8,17.5-30.2,33.3-45.9,47.7
		C416.9,149.5,407.4,156.8,398.3,154.6z M460.3,158.6c3.5,3.1,7.2,6.7,7.8,10.8c0.4,2.6-0.6,5.5-2.6,7.8c-1.9,2.2-4.9,3.9-8.2,4.7
		c-1.7,0.4-4.8,0.9-7-0.5c-1.8-1.1-3.3-3.6-4.5-5.8L431,150.1c0.3-0.2,0.5-0.5,0.8-0.7c2.2-2,4.4-4.1,6.6-6.1
		C446.2,147.6,453.5,152.7,460.3,158.6z M499.5,140.7c-2.6,4.8-5.1,7.4-7.7,8c-2.3,0.5-5.4-0.6-9.2-3.2c-6.2-4.3-11.3-9.8-16.8-15.7
		c-2.1-2.3-4.4-4.7-6.6-7c2.8-3,5.6-6,8.4-9c0.1,0,0.1,0.1,0.2,0.1c10,3.2,21.4,6.9,29.5,14.1c1.9,1.7,4.2,4.3,4.3,6.7
		C501.6,136.5,500.6,138.6,499.5,140.7z"/>
</g>
</svg>
