<?xml version="1.0" encoding="utf-8"?>
<!-- Generator: Adobe Illustrator 25.2.3, SVG Export Plug-In . SVG Version: 6.00 Build 0)  -->
<svg version="1.1" id="Capa_1" xmlns="http://www.w3.org/2000/svg" xmlns:xlink="http://www.w3.org/1999/xlink" x="0px" y="0px"
	 viewBox="0 0 512 512" style="enable-background:new 0 0 512 512;" xml:space="preserve">
<style type="text/css">
	.st0{fill:#E1B946;}
	.st1{fill:#AF7979;}
	.st2{fill:#CFCB9D;}
	.st3{fill:#CC644F;}
	.st4{fill:#F7B36F;}
	.st5{fill:#D4B1A6;}
	.st6{fill:#282828;}
</style>
<path class="st0" d="M487,253.7c-12.7,0-25.7-0.3-38.8-0.8l-5.1-0.2l1.4-4.9c1.1-3.9,2-8,2.5-12.2c0.8-6.9,0.3-15.1-1.4-22.4
	l-1.1-4.8l4.9-0.2c4.2-0.1,8.5-0.2,12.8-0.2c10.1,0,20.2,0.4,30,1.1c3.3,0.2,6.4,0.6,8.6,2.4c2.7,2.1,3.6,5.9,4.2,9.2
	c0.7,4.5,1,9.2,0.9,13.8c-0.2,8.4-2.5,14-6.8,16.7c-3.3,2.1-7.4,2.3-11.8,2.3H487z"/>
<path class="st0" d="M457.2,118.7c-2.9,0-5.6-1-7.7-2.7c-0.1-0.1-0.2-0.2-0.3-0.2l-1.6-1.4l0.3-2.1c0.6-4.7,0.4-9.3-0.7-13.8
	l-0.9-3.9l3.9-0.9c0.6-0.1,1.2-0.3,1.7-0.3c0.7-0.1,1.5-0.2,2.2-0.2c5.4,0,10.5,2.8,13,7.1c3,5.2,1.9,12.3-2.5,16
	C462.7,117.8,460,118.7,457.2,118.7z"/>
<path class="st1" d="M123,330.5c-7.5,0-15.2-1.1-22.9-3.1c-10.8-3-25.2-9.1-32.7-21.8l-0.8-1.3l0.3-1.5c1-5.2,0.6-9.4-1.3-12.9
	c-3.4-6.3-10.5-8.5-17.3-10.7c-5.1-1.6-9.9-3.1-13.6-6.2c-8.2-6.8-9.4-19.3-3.8-38.3c3.8-12.9,8.4-26,19.3-32.9
	c7.7-4.9,16.8-5.6,27.8-6.1c32-1.5,64.6-2.7,96.8-3.7c56.9-1.8,114.8-2.9,172-3.3c13.4-0.1,28-0.2,43.4-0.2c3.4,0,7.1-0.2,10.7-0.4
	l0.3,0c3.7-0.2,7.5-0.4,11.2-0.4c3.6,0,6.7,0.2,9.4,0.6c9.2,1.3,16.1,8.1,20.1,19.8c3.4,9.9,3.7,20.6,2.9,27.3
	c-1.3,10.9-5.4,25.8-16.9,34.7c-11.1,8.6-25.7,9.5-42.2,9.8l-166.5,2.8c-17.1,0.3-36.2,1.7-47,14.9c-3.7,4.5-6.3,10.2-8.1,18
	l-0.4,1.6l-1.7,1C151.9,326.1,138.1,330.5,123,330.5z M85.9,217.9c-0.4,0-0.8,0.2-1,0.7c-4.1,13.6-7.1,27.6-8.9,41.7
	c-0.1,0.6,0.3,1.1,0.9,1.1c0.1,0,0.1,0,0.1,0h0c0.5,0,0.9-0.4,1-0.9c1.8-14,4.8-27.9,8.9-41.4c0.1-0.3,0-0.6-0.1-0.8
	c-0.1-0.2-0.3-0.4-0.6-0.5C86.1,217.9,86,217.9,85.9,217.9z M68.6,219.5c-0.4,0-0.9,0.3-1,0.8c-2.8,12.7-6.2,25.4-10.1,37.8
	c-0.2,0.5,0.1,1.1,0.7,1.3c0.1,0,0.2,0,0.3,0c0.4,0,0.8-0.2,1-0.7c3.9-12.5,7.4-25.2,10.1-38c0.1-0.6-0.2-1.1-0.8-1.2
	C68.8,219.5,68.7,219.5,68.6,219.5z M248,218.1c-14,0-30.3,0.6-45.9,5.2c-2.9,0.9-6,1.9-8.5,3.9c-2.8,2.3-4.3,5.7-3.9,8.8
	c0.4,3,2.6,5.8,6.6,8.2c7.9,4.8,17.3,6.4,26.2,7.4c11.6,1.3,24.1,1.9,39.5,1.9c9.2,0,18.4-0.2,27.3-0.4l0.8,0
	c14.5-0.3,29.4-0.7,44.1-3c5.4-0.9,11-2.1,15.5-5.2c5.3-3.6,8.1-9.4,7.2-14.6c-1.3-8-8.7-11.6-23.9-11.6c-3.2,0-6.3,0.2-9,0.3
	c-2.3,0.1-4.1,0.2-5.5,0.2h-0.5l-56.9-0.8C256.8,218.2,252.3,218.1,248,218.1z"/>
<path class="st2" d="M217.7,159.1c0.4-30.8-0.9-61.8-3.9-92.2l-0.4-4.3l4.3-0.1c29.7-0.6,54.4-1.1,80.2-1.1
	c16.4,0,31.2,0.2,45.2,0.6c17.9,0.6,37.1,1.5,55.9,4.8c13.1,2.2,31.6,6.8,41.3,20.7c9.1,13,7.4,33.1-3.9,44.9
	c-8.6,9-20.9,13-33,16.1c-42.8,10.8-87.8,11.9-131.3,13c-15.6,0.4-33.2,0.8-50.1,1.8l-4.3,0.2L217.7,159.1z"/>
<path class="st3" d="M262,251.5c-15.3,0-27.8-0.6-39.3-1.9c-8.7-1-17.8-2.5-25.4-7.1c-3.4-2.1-5.3-4.4-5.6-6.8
	c-0.3-2.3,0.9-5,3.2-6.9c2.1-1.7,4.6-2.6,7.7-3.6c15.4-4.5,31.6-5.1,45.5-5.1c4.4,0,8.9,0.1,13,0.1l56.9,0.8l0.6,0
	c1.4,0,3.2-0.1,5.2-0.2l0.4,0c2.6-0.1,5.7-0.3,9-0.3c5.5,0,20.1,0,21.8,9.9c0.7,4.4-1.8,9.5-6.3,12.6c-4,2.7-8.7,3.9-14.7,4.9
	c-14.5,2.3-29.4,2.7-43.8,3C280.9,251.2,271.5,251.5,262,251.5z"/>
<path class="st4" d="M190.3,378.3c-0.4,0-0.9,0-1.3,0c-3.7-0.1-7.4-0.3-10.6-0.6c-3.7-0.3-7.9-0.6-12-0.6c-1.5,0-2.9,0-4.3,0.1
	l-5,0.3l0.8-4.9c0.8-5.1,1.6-10.6,2.5-17.3l0.5-3.9l3.9,0.4c4.2,0.5,8.3,0.7,12.3,0.7c17.2,0,32.9-4.2,45.3-12.2
	c18.2-11.7,29.3-32.5,27.6-51.9l-0.4-4.3l36.1-0.6l1.2,1.5c0.1,0.1,0.1,0.1,0.1,0.1l1.2,1l0.2,1.6c1.6,15.1-2.7,31.8-11.8,45.7
	c-8.6,13.1-21.6,24.3-37.5,32.5C223.4,374,206.5,378.3,190.3,378.3z"/>
<path class="st5" d="M196.7,331c-4.1,0-8.1-1.4-11.2-3.9c-1.5-1.2-2.4-2.4-2.8-3.6c-1-3,0.8-6.1,3.2-9.9c5.3-8.3,7.8-16,7.4-22.8
	l-0.2-3.5l3.4-0.7c4.5-0.9,9.8-1.5,16-1.8l3.7-0.2l0.4,3.7c1,8.4,1.7,16,0.1,23.4c-1.5,6.9-6.1,15.4-14.3,18.2
	C200.6,330.7,198.7,331,196.7,331z"/>
<path class="st0" d="M180.7,185.9c-2.1-37.4-2.6-75.2-1.5-112.3c0.1-4.4,0.3-9.4,1.7-14c1.5-4.8,4.3-8.7,7.9-10.7
	c2.4-1.3,5.2-1.9,8.6-1.9c2.7,0,5.5,0.4,8.9,0.9l2.6,0.4l0.6,2.5c1.1,4.2,1.6,8.4,2.1,13.5c4.1,39.9,5.3,80.5,3.4,120.7l-0.2,3.7
	l-3.7,0.1c-8.8,0.2-17.5,0.5-26.2,0.7l-3.9,0.1L180.7,185.9z"/>
<path class="st2" d="M173.1,165.2c-15.3-1.2-30.5-4.2-45-8.8c-8.5-2.7-18.1-6.4-24.8-13.6c-9.8-10.5-12-28-5.2-42.5
	C104,87.7,116.4,77,132,71.1c14.7-5.6,30.6-6.6,41.2-6.8l4.4-0.1l-0.3,4.4c-0.1,1.8-0.2,3.5-0.2,5c-0.9,29-0.8,58.5,0.3,87.6
	l0.2,4.5L173.1,165.2z"/>
<path class="st0" d="M78,465.6c-13,0-27.1-3.8-43-11.6c-17.2-8.4-26.8-18.6-28.6-30.1c-1.7-10.7,3.5-21.3,9.4-31
	c5.3-8.8,11.1-17.4,16.7-25.7c11.3-16.8,23-34.2,30.9-53.4l2.4-5.9l4.2,4.8c8.4,9.4,20.7,14.3,29.5,16.7c7.8,2.1,15.7,3.2,23.4,3.2
	c12.1,0,23.6-2.7,33-7.9l7-3.8l-1.2,7.9c-0.9,6.1-1.7,12.2-2.4,18.2l-0.1,0.4c-2.6,20.4-5.3,41.5-12.4,61
	c-8.7,23.7-28.4,50.9-57.8,56.3C85.6,465.3,81.8,465.6,78,465.6z"/>
<path class="st3" d="M33.3,212.1c-4.1-2.4-8.3-5-11.9-8.3c-10.1-9.2-15.3-23.9-13.7-38.5c1.5-13.4,8.6-26.8,19.7-36.9
	c9.8-8.9,22.9-15.6,37.8-19.3c7.6-1.9,15.6-2.9,23.5-3.1l4.9-0.1l-0.8,4.8c-0.7,4.2-0.8,8.4-0.3,12.6l0.6,4.6l-4.6-0.1
	c-0.7,0-1.4,0-2.1,0c-9.7,0-18.5,1.6-26,4.8c-10.9,4.6-19.4,12.8-23.4,22.4c-3.2,7.7-3.8,17-1.9,27.1c1.5,7.6,4.2,13.4,8.2,17.3
	l2.8,2.8l-2.7,2.9c-1.7,1.7-3.2,3.7-4.6,5.9l-2.1,3.2L33.3,212.1z"/>
<path class="st6" d="M511,219.9c-0.7-4.3-2-9.6-6.4-13c-3.6-2.8-7.9-3.4-11.9-3.7c-15.4-1.2-31-1.5-46.4-0.8
	c-4.5-10.2-12-18.4-23.4-20c-7.1-1-14.7-0.6-21.9-0.2c-3.7,0.2-7.2,0.4-10.5,0.4c-14.3,0-29,0.1-43.5,0.2c-41.8,0.3-84,1-126,2
	c0.2-5.1,0.4-10.3,0.6-15.4c16.8-1,34-1.4,50.6-1.8c43.9-1.1,89.3-2.2,132.8-13.2c12.3-3.1,26.2-7.6,35.9-17.8
	c3.8-3.9,6.6-8.6,8.6-13.6c2.5,1.2,5.2,1.8,8,1.8c4.1,0,8.1-1.3,11.3-3.9c6.7-5.5,8.4-15.9,3.9-23.6c-4.1-7.1-12.9-11.2-21.4-9.9
	c-1.2,0.2-2.3,0.5-3.4,0.8c-0.7-1.4-1.5-2.7-2.4-4c-11-15.7-31.1-20.7-45.2-23.2c-19.2-3.3-38.6-4.3-56.7-4.8
	c-42.2-1.3-85.1-0.4-126.7,0.5c-0.4-2.4-0.8-4.8-1.4-7.2c-0.3-1.1-1-3.8-3.3-5.5c-1.6-1.2-3.4-1.5-4.4-1.7c-6.1-1-14.4-2.4-21.6,1.6
	c-5,2.7-8.8,7.8-10.7,14.2c0,0.1,0,0.2-0.1,0.3c-13.2,0.2-29.7,1.4-45.1,7.3C112.5,72,99.3,83.5,92.6,97.8c-0.3,0.7-0.7,1.5-1,2.2
	c-9.4,0-18.8,1.1-27.9,3.3c-15.9,3.9-29.9,11-40.5,20.7c-12.1,11-19.9,25.8-21.6,40.7c-1.8,16.5,4.2,33.2,15.6,43.7
	c4.1,3.7,8.7,6.6,13.3,9.2c-2.2,5.1-3.9,10.4-5.4,15.4c-2.3,7.9-9.5,32.1,5.7,44.7c4.6,3.8,10.2,5.6,15.7,7.3
	c6.2,1.9,11.5,3.6,13.8,7.8c2.5,4.6,0.4,11.4-1.5,16c-7.6,19.6-19.7,37.6-31.4,55c-5.7,8.4-11.5,17.1-16.8,25.9
	c-6.2,10.2-12.2,22.4-10.2,35.1c2.1,13.6,12.9,25.3,32,34.6c16.7,8.2,31.8,12.2,45.7,12.2c4.2,0,8.3-0.4,12.2-1.1
	c31.8-5.8,53.1-34.9,62.4-60.2c3.2-8.8,5.5-17.8,7.4-26.8c5.8-0.6,11.7-0.2,17.9,0.2c3.6,0.3,7.3,0.5,11,0.6c0.5,0,1,0,1.5,0
	c17.1,0,34.9-4.5,51.4-13c16.9-8.7,30.6-20.6,39.8-34.6c9.9-15,14.5-32.9,12.8-49.4l91.5-1.5c13.6-0.2,32.2-0.5,45.8-11.1
	c5.8-4.5,9.9-10.2,12.9-16.2c0.3,0.1,0.6,0.1,1,0.1c13.7,0.6,27.7,0.9,41.4,0.9h0.1c4.3,0,10.2,0,15.3-3.2
	c6.1-3.9,9.4-11.2,9.6-21.7C512.1,229.8,511.8,224.8,511,219.9z M452.6,97.2c4.4-0.7,9.1,1.4,11.2,5c2,3.5,1.3,8.5-1.6,10.9
	c-2.7,2.3-7.4,2.2-10-0.2c-0.1-0.1-0.1-0.1-0.2-0.2c0.6-5.1,0.4-10.3-0.7-15.2C451.6,97.4,452.1,97.3,452.6,97.2z M343,66
	c17.7,0.5,36.7,1.5,55.3,4.7c12.4,2.1,29.8,6.4,38.7,19c8.1,11.5,6.5,29.4-3.5,39.8c-7.9,8.3-19.6,12.1-31.1,15
	c-42.4,10.7-87.2,11.8-130.6,12.9c-16.4,0.4-33.4,0.8-50.1,1.8c0.4-30.9-0.9-62-4-92.6C258.9,65.6,301.3,64.7,343,66z M184.7,60.8
	c1.2-3.8,3.3-6.9,6-8.3c3.8-2.1,9-1.5,14.8-0.6c1,4,1.5,8.2,2,12.9c4.1,39.8,5.3,80.1,3.4,120.1c-8.8,0.2-17.5,0.5-26.2,0.7
	c-2.1-37.1-2.6-74.8-1.5-111.9C183.3,69.6,183.4,64.9,184.7,60.8z M77.8,189.7c-9,0.4-20,0.9-29.4,6.2c-3.6-2.9-6.1-7.9-7.5-15
	c-1.7-8.9-1.2-17.1,1.5-23.6c3.4-8.2,10.7-15.1,20.2-19.1c7.9-3.3,17.5-4.7,28.3-4.2c1.8,4.8,4.5,9.3,7.9,13
	c7.6,8.1,18.1,12.3,27.4,15.2c15.4,4.9,31.4,8,47.6,9.2c0.2,4.9,0.5,9.7,0.8,14.6C142.5,187,110,188.2,77.8,189.7z M101.7,102
	c5.5-11.7,17-21.7,31.7-27.2c13.3-5.1,27.9-6.3,39.9-6.6c-0.1,1.8-0.2,3.6-0.2,5.2c-0.9,29.1-0.8,58.6,0.3,87.8
	c-15-1.2-29.8-4.1-44.1-8.6c-8-2.6-17-6-23.1-12.5C97.5,130.8,95.6,115.1,101.7,102z M24.1,200.9c-9.1-8.3-13.9-21.8-12.4-35.1
	c1.4-12.4,8.1-24.9,18.4-34.3c9.3-8.5,21.8-14.8,36.1-18.3c7.4-1.8,15-2.8,22.7-3c-0.8,4.6-0.9,9.3-0.3,13.8
	c-11.2-0.3-21.2,1.4-29.8,5.1c-11.9,5-21.2,13.9-25.6,24.5c-3.5,8.4-4.2,18.6-2.1,29.4c1.6,8.5,4.8,15,9.3,19.4
	c-1.9,2-3.6,4.2-5.1,6.5C31.3,206.3,27.4,203.9,24.1,200.9z M88.4,460.7c-15,2.8-31.9-0.6-51.7-10.3c-16-7.8-24.9-17-26.5-27.2
	c-1.5-9.5,3.4-19.2,8.9-28.4c5.2-8.6,11-17.2,16.6-25.5c11.5-17,23.3-34.6,31.3-54.1c8.8,9.9,21.5,15.2,31.5,17.9
	c8.2,2.2,16.5,3.4,24.4,3.4c12.8,0,24.8-2.9,34.9-8.4c-0.9,6.2-1.7,12.5-2.5,18.6c-2.6,20.2-5.2,41.1-12.2,60.2
	C134.9,429.6,116.1,455.6,88.4,460.7z M212.6,288.9c0.9,7.4,1.7,15,0.2,22.1c-1.3,5.9-5.1,13-11.7,15.3c-4.3,1.5-9.4,0.6-13-2.3
	c-1.1-0.9-1.4-1.5-1.5-1.8c-0.5-1.4,1.4-4.3,2.7-6.4c5.8-9,8.5-17.5,8-25.2C202.2,289.6,207.4,289.1,212.6,288.9z M187.3,293.7
	c-0.4,5-2.5,10.5-6.4,16.7c-2.3,3.6-5.8,9-3.8,15c0.8,2.4,2.3,4.5,4.7,6.4c4.2,3.4,9.6,5.2,15.1,5.2c2.6,0,5.1-0.4,7.6-1.3
	c8.9-3.1,15.9-11.8,18.2-22.6c1.8-8.3,1-16.8,0.1-24.5l21.1-0.4c1.9,17.5-8,36.3-24.7,47c-14.2,9.1-33.1,12.8-53.5,10.6
	c0.9-6.7,1.8-13.6,2.8-20.4c1.4-8.7,3.1-17.7,8.5-24.2C179.7,298,183.2,295.5,187.3,293.7z M283.8,287.6c0.2,0.2,0.4,0.4,0.6,0.6
	c1.5,14.3-2.5,29.8-11.2,43c-8.2,12.5-20.7,23.3-36,31.2c-15.6,8-32.3,12.1-48.2,11.9c-3.4-0.1-6.8-0.3-10.4-0.5
	c-5.5-0.4-11.1-0.8-16.8-0.4c1-5.8,1.8-11.7,2.5-17.5c4.3,0.5,8.5,0.7,12.7,0.7c17.9,0,34.3-4.4,47.5-12.8
	c19.6-12.6,31.2-34.7,29.4-55.6L283.8,287.6L283.8,287.6z M425.6,266.9c-10.1,7.8-24,8.7-39.8,9l-166.5,2.8
	c-18,0.3-38.2,1.8-50.1,16.3c-4.8,5.8-7.3,12.7-8.9,19.6c-0.2,0.1-0.4,0.2-0.6,0.4c-14.5,11.3-36.4,14.5-58.5,8.5
	c-10.2-2.8-23.6-8.5-30.3-19.9c1-5,1-10.6-1.7-15.6c-4.2-7.8-12.4-10.3-19.6-12.6c-4.7-1.5-9.1-2.9-12.3-5.4
	c-6.8-5.6-7.6-16.8-2.5-34.1c3.6-12.1,7.9-24.5,17.6-30.6c6.9-4.3,15.4-5,25.8-5.5c32.1-1.5,64.7-2.7,96.8-3.7
	c57-1.8,114.9-2.9,171.9-3.3c14.5-0.1,29.1-0.2,43.4-0.2c3.6,0,7.4-0.2,11.1-0.4c6.8-0.4,13.8-0.7,20,0.1
	c17.2,2.4,21.2,28.9,19.5,42.6C439.7,245,436.1,258.8,425.6,266.9z M501.9,234.6c-0.1,4.8-1.1,11-5,13.4c-2.4,1.5-6,1.7-10,1.6
	c-12.8,0-25.8-0.3-38.6-0.8c1.3-4.5,2.1-8.9,2.6-12.8c0.9-7.1,0.5-15.6-1.5-23.8c14.1-0.4,28.3-0.1,42.4,0.9
	c2.6,0.2,5.1,0.5,6.5,1.6c1.6,1.3,2.3,4.3,2.7,6.8C501.8,225.8,502.1,230.2,501.9,234.6z"/>
<path class="st6" d="M323.8,214.9c-2.3,0.1-4.3,0.2-5.7,0.2l-56.9-0.8c-19.9-0.3-40.4-0.6-60.3,5.2c-3.4,1-6.9,2.2-9.9,4.7
	c-3.9,3.2-6,8-5.3,12.4c0.6,4.3,3.4,8,8.4,11.1c8.6,5.2,18.5,6.9,27.9,8c13.3,1.5,26.6,1.9,39.9,1.9c9.5,0,18.9-0.2,28.2-0.4
	c14.6-0.3,29.8-0.7,44.7-3.1c5.8-0.9,12-2.3,17.2-5.9c6.5-4.5,10-11.8,8.9-18.6C358.1,213.2,336.7,214.2,323.8,214.9z M346.3,239.9
	c-3.4,2.3-7.7,3.4-13.1,4.2c-14.2,2.3-29,2.6-43.3,2.9c-22,0.5-44.7,1.1-66.8-1.4c-8.3-0.9-16.8-2.4-23.8-6.6
	c-2.2-1.4-3.6-2.8-3.7-3.9c-0.1-0.9,0.6-2.3,1.8-3.2c1.5-1.2,3.6-2,6.3-2.8c14.3-4.2,29.4-4.9,44.4-4.9c4.3,0,8.7,0.1,12.9,0.1
	l56.9,0.8c1.8,0,3.9-0.1,6.3-0.2c9.5-0.5,25.4-1.3,26.6,6.3C351.4,234.1,349.5,237.6,346.3,239.9z"/>
<path class="st6" d="M69.7,215.7c-2.7-0.6-5.4,1.1-6,3.8c-2.8,12.6-6.1,25.2-10,37.4c-0.8,2.6,0.6,5.5,3.3,6.3
	c0.5,0.2,1,0.2,1.5,0.2c2.1,0,4.1-1.4,4.8-3.5c4-12.6,7.4-25.4,10.2-38.3C74.1,218.9,72.4,216.3,69.7,215.7z"/>
<path class="st6" d="M87.4,214.1c-2.7-0.8-5.5,0.7-6.3,3.3c-4.2,13.8-7.3,28.1-9.1,42.4c-0.4,2.8,1.6,5.3,4.3,5.6c0.2,0,0.4,0,0.6,0
	c2.5,0,4.6-1.8,5-4.4c1.8-13.8,4.7-27.5,8.7-40.8C91.6,217.8,90.1,214.9,87.4,214.1z"/>
</svg>
